<svg width="160" height="160" viewBox="0 0 160 160" fill="none" xmlns="http://www.w3.org/2000/svg">
<g id="Group 1469">
<g id="Group 1465">
<path id="Vector" d="M48 95.137C50.025 92.3245 51.9938 89.512 54.1031 86.812C55.4086 85.1104 56.9417 83.5963 58.6594 82.312C60.1535 81.2987 61.9036 80.7283 63.7078 80.6667C67.0828 80.3714 70.486 80.2448 73.861 79.8651C77.236 79.4854 80.6532 78.8526 84.0563 78.3464C85.8563 78.0651 87.6704 77.7698 89.4985 77.587C91.6219 77.3761 92.7047 78.712 92.311 80.8214C91.9265 82.4705 90.9186 83.9068 89.4985 84.8292C88.3869 85.5682 87.1541 86.1061 85.8563 86.4183L79.5703 88.2464V88.4433C80.4 88.5698 81.2438 88.7386 82.0735 88.8511C85.3367 89.4283 88.6817 89.3567 91.9172 88.6401C93.5114 88.1788 95.0563 87.5617 96.5297 86.798C99.2579 85.3917 101.902 83.9855 104.63 82.5792C106.035 81.7635 107.684 81.4697 109.284 81.7495C109.989 81.9182 110.653 82.224 111.239 82.6495C111.456 82.7797 111.645 82.9513 111.796 83.1546C111.947 83.358 112.056 83.589 112.117 83.8345C112.179 84.08 112.191 84.3352 112.154 84.5855C112.117 84.8358 112.03 85.0763 111.9 85.2933C111.758 85.5288 111.566 85.7304 111.338 85.8839C109.495 87.473 107.639 89.0761 105.713 90.4964C102.166 93.1019 98.3414 95.3046 94.3079 97.0636C91.8092 98.1694 89.1215 98.7852 86.3907 98.8777L70.6969 99.3839C69.4247 99.4962 68.2035 99.9372 67.1531 100.664C64.8477 102.128 62.6906 103.814 60.7125 105.698L59.8547 106.485L59.3484 106.007L48.6047 95.6011C48.4781 95.4745 48.3234 95.3761 48.1687 95.2495L48 95.137Z" fill="#025FB5"/>
<path id="Vector_2" d="M104.334 67.4197H100.284V68.9666C100.284 69.8103 99.9743 70.0916 99.1306 70.0916H96.6274C95.8962 70.0916 95.6009 69.7962 95.6009 69.065V65.029H80.6384C80.6253 65.3936 80.5782 65.7561 80.4977 66.1119C80.1904 67.6979 79.3116 69.116 78.028 70.0971C76.7445 71.0783 75.1455 71.5541 73.5343 71.4344C71.9232 71.3148 70.412 70.6079 69.2875 69.448C68.163 68.288 67.5033 66.7556 67.4337 65.1416C67.3376 63.2663 67.3751 61.3865 67.5462 59.5165C67.725 58.3872 68.1968 57.3244 68.9145 56.4344C69.6323 55.5443 70.5709 54.858 71.6367 54.4439C72.7025 54.0298 73.8583 53.9024 74.9887 54.0744C76.1191 54.2465 77.1846 54.7119 78.079 55.4244C78.7981 55.9635 79.3935 56.6503 79.8252 57.4386C80.257 58.2269 80.515 59.0984 80.5821 59.9947L80.6665 60.4728H107.638C108.89 60.4728 109.045 60.6556 109.045 61.879V68.9103C109.045 69.7962 108.777 70.0634 107.892 70.0634H105.473C104.615 70.0634 104.334 69.7681 104.334 68.8822C104.32 68.4322 104.334 67.9541 104.334 67.4197ZM71.3149 62.7228V65.029C71.3374 65.6915 71.6041 66.3221 72.0636 66.7998C72.5231 67.2774 73.1429 67.5684 73.804 67.6166C74.4745 67.705 75.1529 67.5258 75.6924 67.1179C76.2319 66.71 76.5891 66.1061 76.6868 65.4369C76.8134 63.7142 76.8134 61.9845 76.6868 60.2619C76.6191 59.5822 76.2855 58.9568 75.7587 58.5222C75.2318 58.0875 74.5544 57.8788 73.8743 57.9415C73.1944 58.0024 72.5598 58.3085 72.0889 58.8027C71.618 59.2968 71.3429 59.9454 71.3149 60.6275V62.7228Z" fill="#02B6AB"/>
</g>
<g id="path-a1-2">
<path id="Vector_3" d="M22.6598 74.6204L21.2535 74.4797C21.1691 75.4219 21.1129 76.3782 21.0566 77.2922H22.4629C22.5051 76.4626 22.5754 75.5344 22.6598 74.6204Z" fill="url(#paint0_linear_372_368)"/>
<path id="Vector_4" d="M23.4883 91.3125L22.082 91.5797C22.2648 92.5078 22.4758 93.4359 22.7008 94.3922L24.107 94.0547C23.8117 93.0703 23.6711 92.1703 23.4883 91.3125Z" fill="url(#paint1_linear_372_368)"/>
<path id="Vector_5" d="M22.6875 85.6875L21.2812 85.8281C21.3797 86.7703 21.4922 87.7125 21.6328 88.6406L23.0391 88.4297C22.8844 87.5859 22.7719 86.6719 22.6875 85.6875Z" fill="url(#paint2_linear_372_368)"/>
<path id="Vector_6" d="M22.4063 80.1748H21C21 81.1311 21 82.0732 21.0703 82.9873H22.4766C22.4063 82.0451 22.4063 81.117 22.4063 80.1748Z" fill="url(#paint3_linear_372_368)"/>
<path id="Vector_7" d="M26.6236 58.4343L25.3299 57.8999C24.9643 58.7858 24.6268 59.6718 24.3174 60.5858L25.6393 61.0499C25.9194 60.1607 26.248 59.2875 26.6236 58.4343V58.4343Z" fill="url(#paint4_linear_372_368)"/>
<path id="Vector_8" d="M28.9445 53.3439L27.6367 52.697C27.2008 53.5267 26.7789 54.3845 26.3711 55.2564L27.6508 55.847C28.1008 55.0314 28.5086 54.1876 28.9445 53.3439Z" fill="url(#paint5_linear_372_368)"/>
<path id="Vector_9" d="M24.8244 63.6936L23.4182 63.2998C23.151 64.1998 22.8979 65.1279 22.6729 66.1123L24.0791 66.4357C24.2619 65.4795 24.501 64.5936 24.8244 63.6936Z" fill="url(#paint6_linear_372_368)"/>
<path id="Vector_10" d="M23.4186 69.1078L22.0123 68.8125C21.8295 69.7406 21.6748 70.6828 21.5342 71.625L22.9404 71.8219C23.1232 70.9219 23.2779 70.0078 23.4186 69.1078Z" fill="url(#paint7_linear_372_368)"/>
<path id="Vector_11" d="M34.0488 117.103C34.6535 117.849 35.2582 118.509 35.891 119.283L36.9457 118.341C36.327 117.652 35.7363 116.934 35.1457 116.217L34.0488 117.103Z" fill="url(#paint8_linear_372_368)"/>
<path id="Vector_12" d="M37.875 121.364C38.5359 122.039 39.2109 122.77 39.9141 123.361L40.8703 122.32C40.1953 121.687 39.4641 121.041 38.8734 120.38L37.875 121.364Z" fill="url(#paint9_linear_372_368)"/>
<path id="Vector_13" d="M42.0938 125.245C42.825 125.864 43.5 126.455 44.3156 127.031L45.1734 125.92C44.4281 125.358 43.7672 124.767 42.9938 124.177L42.0938 125.245Z" fill="url(#paint10_linear_372_368)"/>
<path id="Vector_14" d="M26.6248 101.902L25.3311 102.436C25.6826 103.322 26.0764 104.18 26.4701 105.038L27.7498 104.447C27.4123 103.603 27.0326 102.759 26.6248 101.902Z" fill="url(#paint11_linear_372_368)"/>
<path id="Vector_15" d="M24.8242 96.656L23.418 97.0638C23.6992 98.0013 23.9945 98.9013 24.3039 99.7638L25.6258 99.2998C25.3867 98.4279 25.0914 97.5419 24.8242 96.656Z" fill="url(#paint12_linear_372_368)"/>
<path id="Vector_16" d="M46.5654 128.705C47.3389 129.253 48.1404 129.774 48.942 130.28L49.6873 129.085C48.8998 128.592 48.1264 128.086 47.3529 127.552L46.5654 128.705Z" fill="url(#paint13_linear_372_368)"/>
<path id="Vector_17" d="M30.6885 112.505C31.2229 113.292 31.7572 114.066 32.3197 114.839L33.4588 114.009C32.9104 113.264 32.376 112.505 31.8697 111.717L30.6885 112.505Z" fill="url(#paint14_linear_372_368)"/>
<path id="Vector_18" d="M27.792 107.597C28.242 108.44 28.7201 109.27 29.1982 110.086L30.4076 109.369L29.0014 106.936L27.792 107.597Z" fill="url(#paint15_linear_372_368)"/>
<path id="Vector_19" d="M133.5 54.9748C133.106 54.1169 132.67 53.2591 132.234 52.4294L130.982 53.0904C131.418 53.906 131.84 54.7357 132.234 55.5654L133.5 54.9748Z" fill="url(#paint16_linear_372_368)"/>
<path id="Vector_20" d="M134.385 60.7126L135.791 60.2485C135.468 59.3485 135.13 58.4626 134.765 57.5767L133.457 58.111C133.752 58.9689 134.076 59.8407 134.385 60.7126Z" fill="url(#paint17_linear_372_368)"/>
<path id="Vector_21" d="M124.148 40.7575C123.516 40.0544 122.869 39.3513 122.194 38.6763L121.195 39.6606C121.842 40.3216 122.489 40.9966 123.094 41.6997L124.148 40.7575Z" fill="url(#paint18_linear_372_368)"/>
<path id="Vector_22" d="M120.154 36.6935C119.451 36.0466 118.748 35.4138 118.017 34.8091L117.103 35.8778C117.82 36.4825 118.509 37.0872 119.198 37.72L120.154 36.6935Z" fill="url(#paint19_linear_372_368)"/>
<path id="Vector_23" d="M137.635 77.0388L139.041 76.9685C139.021 76.0279 138.951 75.089 138.83 74.156L137.424 74.2966C137.522 75.1826 137.593 76.1107 137.635 77.0388Z" fill="url(#paint20_linear_372_368)"/>
<path id="Vector_24" d="M137.086 71.4984L138.492 71.3015C138.352 70.3593 138.197 69.4171 138 68.489L136.594 68.7562C136.791 69.6703 136.945 70.5843 137.086 71.4984Z" fill="url(#paint21_linear_372_368)"/>
<path id="Vector_25" d="M136.004 66.0001L137.41 65.6626C137.185 64.7345 136.932 63.8204 136.65 62.8501L135.244 63.2579C135.525 64.2423 135.779 65.1423 136.004 66.0001Z" fill="url(#paint22_linear_372_368)"/>
<path id="Vector_26" d="M67.4051 23.8125L67.0957 22.4062C66.1676 22.6172 65.2535 22.8422 64.2832 23.0953L64.6488 24.5016C65.6051 24.2344 66.5332 23.9953 67.4051 23.8125Z" fill="url(#paint23_linear_372_368)"/>
<path id="Vector_27" d="M47.1986 32.6858L46.3971 31.5327C45.6236 32.0671 44.8502 32.6296 44.0908 33.2062L44.9486 34.3312C45.6939 33.7546 46.4393 33.2062 47.1986 32.6858Z" fill="url(#paint24_linear_372_368)"/>
<path id="Vector_28" d="M51.9367 29.7325L51.2617 28.509L48.8008 29.9153L49.5461 31.1106C50.3055 30.6606 51.107 30.1825 51.9367 29.7325Z" fill="url(#paint25_linear_372_368)"/>
<path id="Vector_29" d="M42.7826 36.075L41.8826 35.0625C41.1514 35.6672 40.4764 36.3 39.7451 36.9609L40.6873 37.875L42.7826 36.075Z" fill="url(#paint26_linear_372_368)"/>
<path id="Vector_30" d="M56.8879 27.2579L56.3254 25.9641C55.4535 26.3438 54.5957 26.7516 53.752 27.1735L54.3707 28.4251C55.2004 28.0313 56.0441 27.6235 56.8879 27.2579Z" fill="url(#paint27_linear_372_368)"/>
<path id="Vector_31" d="M62.091 25.2185L61.641 23.8826C60.741 24.1779 59.841 24.5013 58.9551 24.8388L59.4613 26.1466C60.3754 25.8654 61.2051 25.556 62.091 25.2185Z" fill="url(#paint28_linear_372_368)"/>
<path id="Vector_32" d="M31.7578 48.5623L30.5906 47.7888C30.0703 48.5904 29.5641 49.406 29.0859 50.2216L30.2953 50.9388C30.7594 50.1232 31.2516 49.3357 31.7578 48.5623Z" fill="url(#paint29_linear_372_368)"/>
<path id="Vector_33" d="M108.609 28.3406L107.934 29.5781C108.749 30.0281 109.551 30.4921 110.338 30.9843L111.084 29.789C110.268 29.2828 109.452 28.8046 108.609 28.3406Z" fill="url(#paint30_linear_372_368)"/>
<path id="Vector_34" d="M113.418 31.3499L112.616 32.503C113.376 33.0374 114.135 33.5717 114.88 34.1342L115.724 33.0233C115.021 32.4467 114.247 31.8842 113.418 31.3499Z" fill="url(#paint31_linear_372_368)"/>
<path id="Vector_35" d="M126.708 113.953L127.847 114.783C128.41 114.009 128.944 113.222 129.478 112.434L128.297 111.661C127.791 112.406 127.256 113.208 126.708 113.953Z" fill="url(#paint32_linear_372_368)"/>
<path id="Vector_36" d="M125.99 42.9373L124.907 43.8091C125.484 44.5404 126.046 45.2154 126.595 46.0169L127.734 45.1873C127.171 44.4279 126.595 43.6685 125.99 42.9373Z" fill="url(#paint33_linear_372_368)"/>
<path id="Vector_37" d="M125.063 116.161C124.571 116.78 124.064 117.37 123.544 117.961C122.618 117.143 121.418 116.704 120.183 116.732C118.947 116.76 117.768 117.253 116.88 118.112C115.993 118.971 115.462 120.134 115.394 121.368C115.325 122.601 115.725 123.815 116.513 124.767L115.106 125.878L115.964 126.989L117.553 125.709C118.098 126.055 118.705 126.29 119.341 126.401C119.977 126.512 120.628 126.496 121.257 126.355C121.887 126.214 122.482 125.95 123.01 125.579C123.537 125.208 123.986 124.736 124.331 124.191C124.846 123.386 125.111 122.446 125.091 121.491C125.093 120.629 124.86 119.783 124.416 119.044C125.006 118.369 125.583 117.637 126.146 116.991L125.063 116.161Z" fill="url(#paint34_linear_372_368)"/>
<path id="Vector_38" d="M103.49 25.8232L102.928 27.117C103.786 27.4826 104.629 27.8764 105.459 28.2842L106.078 27.0186C105.22 26.6248 104.362 26.2029 103.49 25.8232Z" fill="url(#paint35_linear_372_368)"/>
<path id="Vector_39" d="M51.4033 131.714C52.2471 132.178 53.0908 132.628 53.9346 133.12L54.5674 131.855C53.7236 131.447 52.908 131.011 52.0924 130.561L51.4033 131.714Z" fill="url(#paint36_linear_372_368)"/>
<path id="Vector_40" d="M110.507 129.042L111.252 130.224C112.054 129.731 112.841 129.211 113.629 128.663L112.827 127.51C112.012 128.03 111.294 128.55 110.507 129.042Z" fill="url(#paint37_linear_372_368)"/>
<path id="Vector_41" d="M132.36 104.363L133.64 104.953C134.048 104.081 134.428 103.209 134.779 102.324L133.499 101.803C133.106 102.661 132.754 103.519 132.36 104.363Z" fill="url(#paint38_linear_372_368)"/>
<path id="Vector_42" d="M137.128 88.3876L138.534 88.5845C138.675 87.6423 138.787 86.7142 138.872 85.772L137.465 85.6313C137.325 86.5454 137.325 87.4735 137.128 88.3876Z" fill="url(#paint39_linear_372_368)"/>
<path id="Vector_43" d="M139.125 79.8232H137.719V82.8748H139.125V79.8232Z" fill="url(#paint40_linear_372_368)"/>
<path id="Vector_44" d="M136.059 93.8577L137.465 94.1952C137.69 93.267 137.901 92.3389 138.084 91.3827L136.677 91.1155C136.48 92.0436 136.312 92.9577 136.059 93.8577Z" fill="url(#paint41_linear_372_368)"/>
<path id="Vector_45" d="M134.512 99.1875L135.834 99.6515C136.157 98.7656 136.452 97.8515 136.72 96.9374L135.313 96.5437C135.097 97.4397 134.83 98.3224 134.512 99.1875V99.1875Z" fill="url(#paint42_linear_372_368)"/>
<path id="Vector_46" d="M129.364 47.5359L128.197 48.3093C128.708 49.0662 129.177 49.8502 129.604 50.6578L130.813 49.9406C130.373 49.1141 129.889 48.3114 129.364 47.5359V47.5359Z" fill="url(#paint43_linear_372_368)"/>
<path id="Vector_47" d="M129.772 109.299L130.982 110.002C131.46 109.186 131.938 108.356 132.388 107.513L131.137 106.852C130.701 107.681 130.293 108.497 129.772 109.299Z" fill="url(#paint44_linear_372_368)"/>
<path id="Vector_48" d="M100.551 133.964L101.057 135.286C101.943 134.948 102.829 134.583 103.687 134.203L103.124 132.923C102.28 133.289 101.423 133.641 100.551 133.964Z" fill="url(#paint45_linear_372_368)"/>
<path id="Vector_49" d="M105.642 131.742L106.274 133.008C107.138 132.585 107.979 132.116 108.792 131.602L108.103 130.378C107.312 130.884 106.49 131.34 105.642 131.742V131.742Z" fill="url(#paint46_linear_372_368)"/>
<path id="Vector_50" d="M73.0312 138.703C73.9594 138.816 74.9156 138.914 75.8438 138.97L75.9563 137.564C75.0141 137.564 74.1 137.409 73.1438 137.297L73.0312 138.703Z" fill="url(#paint47_linear_372_368)"/>
<path id="Vector_51" d="M75.6045 21.1688L75.7029 22.575C76.6311 22.575 77.5592 22.4625 78.5154 22.4485V21C77.5426 20.9985 76.5706 21.0548 75.6045 21.1688V21.1688Z" fill="url(#paint48_linear_372_368)"/>
<path id="Vector_52" d="M69.9375 21.8575L70.1766 23.2638C71.0906 23.1091 72.0187 22.9685 72.9891 22.856L72.8203 21.4497C71.8219 21.5622 70.8797 21.7028 69.9375 21.8575Z" fill="url(#paint49_linear_372_368)"/>
<path id="Vector_53" d="M78.7266 137.719V139.125H81.5391V137.719H78.7266Z" fill="url(#paint50_linear_372_368)"/>
<path id="Vector_54" d="M56.5352 134.245C57.407 134.625 58.293 134.991 59.1789 135.328L59.6711 134.006C58.7992 133.683 57.9414 133.331 57.0977 132.966L56.5352 134.245Z" fill="url(#paint51_linear_372_368)"/>
<path id="Vector_55" d="M61.8789 136.313C62.7789 136.608 63.693 136.875 64.6914 137.128L65.057 135.722C64.157 135.483 63.257 135.216 62.3852 134.935L61.8789 136.313Z" fill="url(#paint52_linear_372_368)"/>
<path id="Vector_56" d="M98.1332 23.8125L97.6973 25.1484C98.5973 25.4438 99.4691 25.7391 100.341 26.0766L100.833 24.7547C99.9473 24.4172 99.0473 24.1078 98.1332 23.8125Z" fill="url(#paint53_linear_372_368)"/>
<path id="Vector_57" d="M67.4062 137.719C68.3203 137.916 69.2625 138.099 70.2188 138.267L70.4438 136.861C69.5297 136.706 68.6156 136.524 67.7156 136.327L67.4062 137.719Z" fill="url(#paint54_linear_372_368)"/>
<path id="Vector_58" d="M89.8213 136.889L90.0603 138.296C91.0025 138.141 91.9307 137.958 92.8729 137.747L92.5775 136.341C91.6494 136.566 90.7494 136.735 89.8213 136.889Z" fill="url(#paint55_linear_372_368)"/>
<path id="Vector_59" d="M92.6195 22.4062L92.3242 23.8125C93.2383 24.0094 94.1383 24.2203 95.0242 24.4734L95.3898 23.0672C94.4876 22.7659 93.5606 22.5447 92.6195 22.4062V22.4062Z" fill="url(#paint56_linear_372_368)"/>
<path id="Vector_60" d="M81.2705 22.4063C82.2127 22.4063 83.1549 22.4063 84.083 22.5328L84.1814 21.1266C83.2393 21.1266 82.283 21.0141 81.3689 21L81.2705 22.4063Z" fill="url(#paint57_linear_372_368)"/>
<path id="Vector_61" d="M95.2637 135.694L95.6293 137.1C96.5574 136.861 97.4574 136.58 98.4418 136.284L97.9496 134.906C97.0496 135.188 96.1637 135.455 95.2637 135.694Z" fill="url(#paint58_linear_372_368)"/>
<path id="Vector_62" d="M86.8262 22.8001C87.7543 22.9126 88.6824 23.0391 89.6387 23.1938L89.8777 21.7876C88.9355 21.6329 87.9934 21.5063 87.0652 21.3938L86.8262 22.8001Z" fill="url(#paint59_linear_372_368)"/>
<path id="Vector_63" d="M84.2812 137.564L84.3938 138.97C85.3361 138.934 86.2753 138.84 87.2063 138.689L87.0375 137.283C86.1516 137.41 85.2938 137.494 84.2812 137.564Z" fill="url(#paint60_linear_372_368)"/>
<path id="Vector_64" d="M42.093 41.3906C42.093 40.0853 41.5744 38.8334 40.6514 37.9103C39.7284 36.9873 38.4765 36.4688 37.1711 36.4688C35.8657 36.4688 34.6138 36.9873 33.6908 37.9103C32.7678 38.8334 32.2492 40.0853 32.2492 41.3906C32.2515 42.3986 32.5659 43.3811 33.1492 44.2031C32.8258 44.625 32.5023 45.0188 32.207 45.4406L33.3461 46.2703C33.5992 45.9188 33.8664 45.5813 34.1336 45.2297C34.9913 45.9294 36.0642 46.3119 37.1711 46.3125C37.8175 46.3125 38.4575 46.1852 39.0546 45.9379C39.6518 45.6905 40.1944 45.328 40.6514 44.8709C41.1084 44.4139 41.471 43.8713 41.7183 43.2742C41.9657 42.677 42.093 42.037 42.093 41.3906Z" fill="url(#paint61_linear_372_368)"/>
</g>
<path id="path-a1-1" d="M128.725 29.423C129.367 28.2721 129.585 26.9323 129.34 25.6373C129.096 24.3423 128.404 23.1743 127.386 22.3372C126.368 21.5001 125.089 21.047 123.771 21.057C122.453 21.0669 121.18 21.5393 120.175 22.3917C105.79 12.4917 88.2357 8.29873 70.9294 10.6291C53.6231 12.9595 37.8031 21.6464 26.5492 34.9989C15.2952 48.3513 9.41255 65.4138 10.0464 82.8648C10.6802 100.316 17.7851 116.907 29.978 129.407C29.3811 129.94 28.9046 130.594 28.5803 131.325C28.256 132.056 28.0914 132.848 28.0975 133.648C28.1036 134.448 28.2802 135.237 28.6156 135.964C28.951 136.69 29.4374 137.336 30.0424 137.859C30.6474 138.383 31.3571 138.771 32.124 138.998C32.891 139.226 33.6976 139.287 34.49 139.178C35.2825 139.068 36.0425 138.791 36.7194 138.365C37.3964 137.939 37.9746 137.373 38.4156 136.706C52.8017 147.086 70.58 151.645 88.1862 149.468C105.792 147.292 121.925 138.54 133.35 124.968C144.774 111.396 150.646 94.0074 149.789 76.2879C148.931 58.5684 141.407 41.828 128.725 29.423V29.423ZM79.9281 148.884C65.2476 148.9 50.9509 144.197 39.1468 135.468C39.4081 134.816 39.5418 134.119 39.5406 133.415C39.5371 132.43 39.2746 131.462 38.7795 130.61C38.2844 129.757 37.574 129.05 36.7195 128.559C35.865 128.067 34.8963 127.809 33.9106 127.81C32.9249 127.811 31.9567 128.071 31.103 128.564C19.0131 116.36 11.9177 100.08 11.2079 82.9159C10.4981 65.752 16.2252 48.9419 27.2662 35.7813C38.3073 22.6208 53.866 14.059 70.892 11.7745C87.9181 9.49009 105.183 13.6477 119.303 23.4324C118.536 24.5916 118.225 25.994 118.43 27.3689C118.636 28.7439 119.343 29.994 120.416 30.8781C121.489 31.7623 122.851 32.2178 124.24 32.1568C125.629 32.0959 126.946 31.5227 127.938 30.548C137.775 40.1028 144.538 52.3759 147.361 65.7964C150.183 79.217 148.937 93.1745 143.781 105.883C138.625 118.591 129.795 129.471 118.42 137.132C107.044 144.792 93.6422 148.884 79.9281 148.884V148.884Z" fill="url(#paint62_linear_372_368)"/>
</g>
<defs>
<linearGradient id="paint0_linear_372_368" x1="12.8301" y1="67.5329" x2="102.24" y2="150.839" gradientUnits="userSpaceOnUse">
<stop offset="0.04" stop-color="#0098FF"/>
<stop offset="1" stop-color="#53FFF5"/>
</linearGradient>
<linearGradient id="paint1_linear_372_368" x1="4.96796" y1="75.9562" x2="94.3774" y2="159.263" gradientUnits="userSpaceOnUse">
<stop offset="0.04" stop-color="#0098FF"/>
<stop offset="1" stop-color="#53FFF5"/>
</linearGradient>
<linearGradient id="paint2_linear_372_368" x1="7.38749" y1="73.3969" x2="96.7828" y2="156.689" gradientUnits="userSpaceOnUse">
<stop offset="0.04" stop-color="#0098FF"/>
<stop offset="1" stop-color="#53FFF5"/>
</linearGradient>
<linearGradient id="paint3_linear_372_368" x1="9.96092" y1="70.6123" x2="99.3704" y2="153.905" gradientUnits="userSpaceOnUse">
<stop offset="0.04" stop-color="#0098FF"/>
<stop offset="1" stop-color="#53FFF5"/>
</linearGradient>
<linearGradient id="paint4_linear_372_368" x1="22.7143" y1="56.9296" x2="112.11" y2="140.236" gradientUnits="userSpaceOnUse">
<stop offset="0.04" stop-color="#0098FF"/>
<stop offset="1" stop-color="#53FFF5"/>
</linearGradient>
<linearGradient id="paint5_linear_372_368" x1="26.343" y1="53.0486" x2="115.738" y2="136.355" gradientUnits="userSpaceOnUse">
<stop offset="0.04" stop-color="#0098FF"/>
<stop offset="1" stop-color="#53FFF5"/>
</linearGradient>
<linearGradient id="paint6_linear_372_368" x1="19.1994" y1="60.7123" x2="108.609" y2="144.005" gradientUnits="userSpaceOnUse">
<stop offset="0.04" stop-color="#0098FF"/>
<stop offset="1" stop-color="#53FFF5"/>
</linearGradient>
<linearGradient id="paint7_linear_372_368" x1="15.9092" y1="64.2281" x2="105.319" y2="147.52" gradientUnits="userSpaceOnUse">
<stop offset="0.04" stop-color="#0098FF"/>
<stop offset="1" stop-color="#53FFF5"/>
</linearGradient>
<linearGradient id="paint8_linear_372_368" x1="-1.66998" y1="83.1001" x2="87.7254" y2="166.392" gradientUnits="userSpaceOnUse">
<stop offset="0.04" stop-color="#0098FF"/>
<stop offset="1" stop-color="#53FFF5"/>
</linearGradient>
<linearGradient id="paint9_linear_372_368" x1="-1.9219" y1="83.3671" x2="87.4736" y2="166.673" gradientUnits="userSpaceOnUse">
<stop offset="0.04" stop-color="#0098FF"/>
<stop offset="1" stop-color="#53FFF5"/>
</linearGradient>
<linearGradient id="paint10_linear_372_368" x1="-1.79533" y1="83.2406" x2="87.6" y2="166.533" gradientUnits="userSpaceOnUse">
<stop offset="0.04" stop-color="#0098FF"/>
<stop offset="1" stop-color="#53FFF5"/>
</linearGradient>
<linearGradient id="paint11_linear_372_368" x1="1.29821" y1="79.9359" x2="90.6937" y2="163.228" gradientUnits="userSpaceOnUse">
<stop offset="0.04" stop-color="#0098FF"/>
<stop offset="1" stop-color="#53FFF5"/>
</linearGradient>
<linearGradient id="paint12_linear_372_368" x1="2.98514" y1="78.0935" x2="92.3807" y2="161.4" gradientUnits="userSpaceOnUse">
<stop offset="0.04" stop-color="#0098FF"/>
<stop offset="1" stop-color="#53FFF5"/>
</linearGradient>
<linearGradient id="paint13_linear_372_368" x1="-1.37371" y1="82.7767" x2="88.0359" y2="166.069" gradientUnits="userSpaceOnUse">
<stop offset="0.04" stop-color="#0098FF"/>
<stop offset="1" stop-color="#53FFF5"/>
</linearGradient>
<linearGradient id="paint14_linear_372_368" x1="-1.03654" y1="82.411" x2="88.373" y2="165.717" gradientUnits="userSpaceOnUse">
<stop offset="0.04" stop-color="#0098FF"/>
<stop offset="1" stop-color="#53FFF5"/>
</linearGradient>
<linearGradient id="paint15_linear_372_368" x1="-0.0377335" y1="81.3561" x2="89.3576" y2="164.662" gradientUnits="userSpaceOnUse">
<stop offset="0.04" stop-color="#0098FF"/>
<stop offset="1" stop-color="#53FFF5"/>
</linearGradient>
<linearGradient id="paint16_linear_372_368" x1="75.0698" y1="0.735602" x2="164.479" y2="84.0279" gradientUnits="userSpaceOnUse">
<stop offset="0.04" stop-color="#0098FF"/>
<stop offset="1" stop-color="#53FFF5"/>
</linearGradient>
<linearGradient id="paint17_linear_372_368" x1="73.5928" y1="2.32496" x2="162.988" y2="85.6174" gradientUnits="userSpaceOnUse">
<stop offset="0.04" stop-color="#0098FF"/>
<stop offset="1" stop-color="#53FFF5"/>
</linearGradient>
<linearGradient id="paint18_linear_372_368" x1="77.5031" y1="-1.88002" x2="166.913" y2="81.4263" gradientUnits="userSpaceOnUse">
<stop offset="0.04" stop-color="#0098FF"/>
<stop offset="1" stop-color="#53FFF5"/>
</linearGradient>
<linearGradient id="paint19_linear_372_368" x1="77.5869" y1="-1.96439" x2="166.982" y2="81.3419" gradientUnits="userSpaceOnUse">
<stop offset="0.04" stop-color="#0098FF"/>
<stop offset="1" stop-color="#53FFF5"/>
</linearGradient>
<linearGradient id="paint20_linear_372_368" x1="67.0971" y1="9.31378" x2="156.492" y2="92.6062" gradientUnits="userSpaceOnUse">
<stop offset="0.04" stop-color="#0098FF"/>
<stop offset="1" stop-color="#53FFF5"/>
</linearGradient>
<linearGradient id="paint21_linear_372_368" x1="69.5719" y1="6.65616" x2="158.967" y2="89.9483" gradientUnits="userSpaceOnUse">
<stop offset="0.04" stop-color="#0098FF"/>
<stop offset="1" stop-color="#53FFF5"/>
</linearGradient>
<linearGradient id="paint22_linear_372_368" x1="71.78" y1="4.26562" x2="161.175" y2="87.572" gradientUnits="userSpaceOnUse">
<stop offset="0.04" stop-color="#0098FF"/>
<stop offset="1" stop-color="#53FFF5"/>
</linearGradient>
<linearGradient id="paint23_linear_372_368" x1="59.4738" y1="17.4844" x2="148.883" y2="100.777" gradientUnits="userSpaceOnUse">
<stop offset="0.04" stop-color="#0098FF"/>
<stop offset="1" stop-color="#53FFF5"/>
</linearGradient>
<linearGradient id="paint24_linear_372_368" x1="45.3564" y1="32.6296" x2="134.752" y2="115.922" gradientUnits="userSpaceOnUse">
<stop offset="0.04" stop-color="#0098FF"/>
<stop offset="1" stop-color="#53FFF5"/>
</linearGradient>
<linearGradient id="paint25_linear_372_368" x1="49.1102" y1="28.5934" x2="138.52" y2="111.9" gradientUnits="userSpaceOnUse">
<stop offset="0.04" stop-color="#0098FF"/>
<stop offset="1" stop-color="#53FFF5"/>
</linearGradient>
<linearGradient id="paint26_linear_372_368" x1="41.5592" y1="36.7219" x2="130.955" y2="120.014" gradientUnits="userSpaceOnUse">
<stop offset="0.04" stop-color="#0098FF"/>
<stop offset="1" stop-color="#53FFF5"/>
</linearGradient>
<linearGradient id="paint27_linear_372_368" x1="52.7113" y1="24.7407" x2="142.107" y2="108.033" gradientUnits="userSpaceOnUse">
<stop offset="0.04" stop-color="#0098FF"/>
<stop offset="1" stop-color="#53FFF5"/>
</linearGradient>
<linearGradient id="paint28_linear_372_368" x1="56.2129" y1="20.9716" x2="145.622" y2="104.264" gradientUnits="userSpaceOnUse">
<stop offset="0.04" stop-color="#0098FF"/>
<stop offset="1" stop-color="#53FFF5"/>
</linearGradient>
<linearGradient id="paint29_linear_372_368" x1="30.0562" y1="49.0544" x2="119.452" y2="132.347" gradientUnits="userSpaceOnUse">
<stop offset="0.04" stop-color="#0098FF"/>
<stop offset="1" stop-color="#53FFF5"/>
</linearGradient>
<linearGradient id="paint30_linear_372_368" x1="76.6445" y1="-0.937581" x2="166.054" y2="82.3546" gradientUnits="userSpaceOnUse">
<stop offset="0.04" stop-color="#0098FF"/>
<stop offset="1" stop-color="#53FFF5"/>
</linearGradient>
<linearGradient id="paint31_linear_372_368" x1="77.2912" y1="-1.65486" x2="166.687" y2="81.6514" gradientUnits="userSpaceOnUse">
<stop offset="0.04" stop-color="#0098FF"/>
<stop offset="1" stop-color="#53FFF5"/>
</linearGradient>
<linearGradient id="paint32_linear_372_368" x1="43.6407" y1="34.4858" x2="133.036" y2="117.792" gradientUnits="userSpaceOnUse">
<stop offset="0.04" stop-color="#0098FF"/>
<stop offset="1" stop-color="#53FFF5"/>
</linearGradient>
<linearGradient id="paint33_linear_372_368" x1="77.0524" y1="-1.40186" x2="166.462" y2="81.8905" gradientUnits="userSpaceOnUse">
<stop offset="0.04" stop-color="#0098FF"/>
<stop offset="1" stop-color="#53FFF5"/>
</linearGradient>
<linearGradient id="paint34_linear_372_368" x1="35.9626" y1="42.7123" x2="125.358" y2="126.005" gradientUnits="userSpaceOnUse">
<stop offset="0.04" stop-color="#0098FF"/>
<stop offset="1" stop-color="#1FD5CE"/>
</linearGradient>
<linearGradient id="paint35_linear_372_368" x1="75.6324" y1="0.159153" x2="165.028" y2="83.4513" gradientUnits="userSpaceOnUse">
<stop offset="0.04" stop-color="#0098FF"/>
<stop offset="1" stop-color="#53FFF5"/>
</linearGradient>
<linearGradient id="paint36_linear_372_368" x1="-0.557713" y1="81.9045" x2="88.8517" y2="165.197" gradientUnits="userSpaceOnUse">
<stop offset="0.04" stop-color="#0098FF"/>
<stop offset="1" stop-color="#53FFF5"/>
</linearGradient>
<linearGradient id="paint37_linear_372_368" x1="28.3395" y1="50.8829" x2="117.749" y2="134.189" gradientUnits="userSpaceOnUse">
<stop offset="0.04" stop-color="#0098FF"/>
<stop offset="1" stop-color="#53FFF5"/>
</linearGradient>
<linearGradient id="paint38_linear_372_368" x1="51.079" y1="26.4845" x2="140.474" y2="109.777" gradientUnits="userSpaceOnUse">
<stop offset="0.04" stop-color="#0098FF"/>
<stop offset="1" stop-color="#53FFF5"/>
</linearGradient>
<linearGradient id="paint39_linear_372_368" x1="61.2608" y1="15.5718" x2="150.656" y2="98.8639" gradientUnits="userSpaceOnUse">
<stop offset="0.04" stop-color="#0098FF"/>
<stop offset="1" stop-color="#53FFF5"/>
</linearGradient>
<linearGradient id="paint40_linear_372_368" x1="64.3124" y1="12.281" x2="153.708" y2="95.5874" gradientUnits="userSpaceOnUse">
<stop offset="0.04" stop-color="#0098FF"/>
<stop offset="1" stop-color="#53FFF5"/>
</linearGradient>
<linearGradient id="paint41_linear_372_368" x1="58.0678" y1="19.0029" x2="147.463" y2="102.295" gradientUnits="userSpaceOnUse">
<stop offset="0.04" stop-color="#0098FF"/>
<stop offset="1" stop-color="#53FFF5"/>
</linearGradient>
<linearGradient id="paint42_linear_372_368" x1="54.6366" y1="22.6593" x2="144.046" y2="105.952" gradientUnits="userSpaceOnUse">
<stop offset="0.04" stop-color="#0098FF"/>
<stop offset="1" stop-color="#53FFF5"/>
</linearGradient>
<linearGradient id="paint43_linear_372_368" x1="76.2363" y1="-0.515713" x2="165.632" y2="82.7766" gradientUnits="userSpaceOnUse">
<stop offset="0.04" stop-color="#0098FF"/>
<stop offset="1" stop-color="#53FFF5"/>
</linearGradient>
<linearGradient id="paint44_linear_372_368" x1="47.4083" y1="30.4221" x2="136.804" y2="113.728" gradientUnits="userSpaceOnUse">
<stop offset="0.04" stop-color="#0098FF"/>
<stop offset="1" stop-color="#53FFF5"/>
</linearGradient>
<linearGradient id="paint45_linear_372_368" x1="21.1256" y1="58.6451" x2="110.521" y2="141.952" gradientUnits="userSpaceOnUse">
<stop offset="0.04" stop-color="#0098FF"/>
<stop offset="1" stop-color="#53FFF5"/>
</linearGradient>
<linearGradient id="paint46_linear_372_368" x1="24.6697" y1="54.8202" x2="114.079" y2="138.112" gradientUnits="userSpaceOnUse">
<stop offset="0.04" stop-color="#0098FF"/>
<stop offset="1" stop-color="#53FFF5"/>
</linearGradient>
<linearGradient id="paint47_linear_372_368" x1="6.27643" y1="74.5639" x2="95.6861" y2="157.87" gradientUnits="userSpaceOnUse">
<stop offset="0.04" stop-color="#0098FF"/>
<stop offset="1" stop-color="#53FFF5"/>
</linearGradient>
<linearGradient id="paint48_linear_372_368" x1="65.5217" y1="11.0016" x2="154.917" y2="94.3079" gradientUnits="userSpaceOnUse">
<stop offset="0.04" stop-color="#0098FF"/>
<stop offset="1" stop-color="#53FFF5"/>
</linearGradient>
<linearGradient id="paint49_linear_372_368" x1="62.6391" y1="14.095" x2="152.034" y2="97.4013" gradientUnits="userSpaceOnUse">
<stop offset="0.04" stop-color="#0098FF"/>
<stop offset="1" stop-color="#53FFF5"/>
</linearGradient>
<linearGradient id="paint50_linear_372_368" x1="8.76555" y1="71.9202" x2="98.161" y2="155.213" gradientUnits="userSpaceOnUse">
<stop offset="0.04" stop-color="#0098FF"/>
<stop offset="1" stop-color="#53FFF5"/>
</linearGradient>
<linearGradient id="paint51_linear_372_368" x1="0.650733" y1="80.5968" x2="90.0602" y2="163.903" gradientUnits="userSpaceOnUse">
<stop offset="0.04" stop-color="#0098FF"/>
<stop offset="1" stop-color="#53FFF5"/>
</linearGradient>
<linearGradient id="paint52_linear_372_368" x1="2.2116" y1="78.9374" x2="91.6073" y2="162.23" gradientUnits="userSpaceOnUse">
<stop offset="0.04" stop-color="#0098FF"/>
<stop offset="1" stop-color="#53FFF5"/>
</linearGradient>
<linearGradient id="paint53_linear_372_368" x1="74.241" y1="1.63592" x2="163.636" y2="84.9283" gradientUnits="userSpaceOnUse">
<stop offset="0.04" stop-color="#0098FF"/>
<stop offset="1" stop-color="#53FFF5"/>
</linearGradient>
<linearGradient id="paint54_linear_372_368" x1="4.11087" y1="76.8986" x2="93.5202" y2="160.191" gradientUnits="userSpaceOnUse">
<stop offset="0.04" stop-color="#0098FF"/>
<stop offset="1" stop-color="#53FFF5"/>
</linearGradient>
<linearGradient id="paint55_linear_372_368" x1="14.5025" y1="65.7326" x2="103.912" y2="149.039" gradientUnits="userSpaceOnUse">
<stop offset="0.04" stop-color="#0098FF"/>
<stop offset="1" stop-color="#53FFF5"/>
</linearGradient>
<linearGradient id="paint56_linear_372_368" x1="72.482" y1="3.52029" x2="161.891" y2="86.8126" gradientUnits="userSpaceOnUse">
<stop offset="0.04" stop-color="#0098FF"/>
<stop offset="1" stop-color="#53FFF5"/>
</linearGradient>
<linearGradient id="paint57_linear_372_368" x1="68.1361" y1="8.17498" x2="157.546" y2="91.4672" gradientUnits="userSpaceOnUse">
<stop offset="0.04" stop-color="#0098FF"/>
<stop offset="1" stop-color="#53FFF5"/>
</linearGradient>
<linearGradient id="paint58_linear_372_368" x1="17.723" y1="62.2875" x2="107.118" y2="145.58" gradientUnits="userSpaceOnUse">
<stop offset="0.04" stop-color="#0098FF"/>
<stop offset="1" stop-color="#53FFF5"/>
</linearGradient>
<linearGradient id="paint59_linear_372_368" x1="70.4996" y1="5.65784" x2="159.909" y2="88.95" gradientUnits="userSpaceOnUse">
<stop offset="0.04" stop-color="#0098FF"/>
<stop offset="1" stop-color="#53FFF5"/>
</linearGradient>
<linearGradient id="paint60_linear_372_368" x1="11.4936" y1="68.9815" x2="100.903" y2="152.274" gradientUnits="userSpaceOnUse">
<stop offset="0.04" stop-color="#0098FF"/>
<stop offset="1" stop-color="#53FFF5"/>
</linearGradient>
<linearGradient id="paint61_linear_372_368" x1="36.707" y1="41.925" x2="126.117" y2="125.217" gradientUnits="userSpaceOnUse">
<stop offset="0.04" stop-color="#0199FF"/>
<stop offset="1" stop-color="#1ED2D1"/>
</linearGradient>
<linearGradient id="paint62_linear_372_368" x1="125.392" y1="25.3308" x2="34.6468" y2="134.386" gradientUnits="userSpaceOnUse">
<stop offset="0.04" stop-color="#0199FF"/>
<stop offset="1" stop-color="#1FD4D0"/>
</linearGradient>
</defs>
</svg>
