<svg width="180" height="160" viewBox="0 0 180 160" fill="none" xmlns="http://www.w3.org/2000/svg">
<g id="Frame 91">
<g id="Group 1483">
<path id="Vector" d="M66.596 113.825L65.5386 112.738C63.1807 113.476 60.6905 113.696 58.2394 113.382C55.7883 113.068 53.4344 112.228 51.3396 110.919C49.2448 109.61 47.4588 107.863 46.1045 105.799C44.7502 103.735 43.8598 101.402 43.4944 98.9617C43.129 96.5212 43.2974 94.0306 43.9879 91.6613C44.6785 89.292 45.8748 87.1002 47.4946 85.2365C49.1144 83.3729 51.1192 81.8818 53.3712 80.8657C55.6232 79.8496 58.0689 79.3327 60.5401 79.3505C65.077 79.3885 69.4149 81.216 72.6081 84.4345C75.8013 87.653 77.5908 92.0015 77.5864 96.532C77.5769 98.2426 77.3068 99.9418 76.7853 101.571C78.051 102.819 79.4608 104.163 80.8546 105.523C81.3513 104.371 81.8159 103.203 82.2805 102.035C82.4888 101.459 82.665 101.139 83.3219 101.075C84.924 100.915 86.4139 100.675 88 100.467V92.4686C86.3979 92.2606 84.7958 92.0207 83.2898 91.8607C82.681 91.8607 82.4888 91.5247 82.2965 90.9808C81.5115 88.9651 80.6944 86.9494 79.7973 84.9817C79.6589 84.7662 79.5964 84.5108 79.6196 84.2558C79.6428 84.0009 79.7504 83.761 79.9254 83.5739C80.9187 82.3741 81.8479 81.1262 82.6971 80.0064C80.7585 78.0227 78.9161 76.151 77.0096 74.2312C75.792 75.1751 74.5264 76.103 73.3088 77.0788C73.1344 77.2436 72.9084 77.3431 72.669 77.3606C72.4296 77.3781 72.1916 77.3124 71.995 77.1748C70.0565 76.2949 68.0859 75.4471 66.0833 74.7272C65.3944 74.4712 65.122 74.1992 65.058 73.4953C64.9138 71.9916 64.6735 70.4878 64.4812 69H56.4707C56.2625 70.5998 56.1022 72.1995 55.8299 73.7033C55.7044 74.1008 55.4285 74.4337 55.0609 74.6312C53.0422 75.5111 50.9595 76.2309 48.9569 77.1748C48.7593 77.3096 48.5218 77.3735 48.2832 77.356C48.0446 77.3386 47.819 77.2409 47.6432 77.0788C46.4256 76.103 45.1599 75.1751 44.0064 74.2792C42.0358 76.199 40.1614 78.0707 38.2228 79.9744C39.1681 81.1902 40.1614 82.4061 41.0585 83.6859C41.1574 83.8681 41.217 84.069 41.2335 84.2756C41.2501 84.4823 41.2232 84.69 41.1547 84.8857C40.3536 86.9654 39.5526 89.0291 38.6073 91.0768C38.5231 91.2505 38.4045 91.4053 38.2585 91.5318C38.1125 91.6583 37.9423 91.7539 37.7582 91.8127C36.4605 92.0366 35.1468 92.1326 33.8331 92.3566C33.5287 92.3566 33 92.7086 33 92.9005C33 95.4282 33 97.9398 33 100.531C34.6021 100.755 36.2042 100.995 37.7262 101.155C38.351 101.155 38.5272 101.507 38.7195 102.035C39.4885 104.035 40.3216 106.003 41.1707 107.938C41.327 108.164 41.4012 108.436 41.3808 108.71C41.3604 108.984 41.2466 109.242 41.0585 109.442C40.0652 110.642 39.1521 111.89 38.3029 112.978L43.9904 118.785C45.224 117.841 46.4897 116.897 47.6912 115.921C47.8735 115.759 48.1043 115.662 48.3477 115.644C48.5912 115.627 48.8335 115.691 49.037 115.825C51.0076 116.721 53.0102 117.537 55.0288 118.321C55.5575 118.529 55.8619 118.705 55.91 119.313C56.0702 120.912 56.3265 122.416 56.5348 124H64.5453C64.7536 122.4 65.0099 120.88 65.1381 119.361C65.1381 118.705 65.5226 118.529 66.0833 118.305C67.2689 117.857 68.4384 117.377 69.6079 116.897L66.596 113.825Z" fill="#02B6AB"/>
<path id="Vector_2" d="M80.8029 124C80.1703 123.691 79.6165 123.249 79.1819 122.705L78.7767 122.295C76.8801 120.4 74.9998 118.489 73.1033 116.579L68.7105 112.189C66.5384 110.011 64.3825 107.847 62.2266 105.653C62.0458 105.464 61.8274 105.314 61.585 105.211C61.3425 105.108 61.0809 105.054 60.8163 105.053H60.33C59.6475 105.19 58.9522 105.259 58.2552 105.258C56.3041 105.269 54.3929 104.719 52.7601 103.679C50.9927 102.567 49.6129 100.959 48.8026 99.0678C47.9924 97.1763 47.7897 95.0901 48.2214 93.0842L53.0843 97.8211C53.3262 98.0922 53.6251 98.3095 53.9607 98.4585C54.2962 98.6075 54.6607 98.6845 55.0295 98.6845C55.3982 98.6845 55.7627 98.6075 56.0983 98.4585C56.4339 98.3095 56.7327 98.0922 56.9746 97.8211L61.1405 93.7632C61.593 93.3796 61.8939 92.8544 61.9916 92.278C62.0892 91.7016 61.9774 91.11 61.6754 90.6053C61.531 90.3783 61.3626 90.1666 61.1729 89.9737L56.229 85.2369C56.9416 85.0787 57.6702 84.9992 58.4011 85C59.9447 85.0006 61.4687 85.3367 62.8621 85.9838C64.2554 86.6309 65.4829 87.5727 66.4552 88.7406C67.4274 89.9085 68.1198 91.273 68.4819 92.7346C68.844 94.1963 68.8667 95.7182 68.5484 97.1895C68.4761 97.4736 68.4863 97.7718 68.5779 98.0506C68.6695 98.3294 68.8388 98.578 69.0671 98.7684L76.5397 105.826L86.6546 115.3C87.2447 115.78 87.7064 116.392 88 117.084V118.126C87.7743 119.194 87.3064 120.199 86.6305 121.068C85.9546 121.937 85.0877 122.647 84.0935 123.147C83.6576 123.371 83.2019 123.556 82.7318 123.7L82.1807 123.905L80.8029 124Z" fill="#025FB5"/>
<path id="path-a3-1" d="M67.5492 30.792C55.4184 30.8031 43.5798 34.5154 33.6146 41.433C23.6495 48.3506 16.0324 58.1442 11.7807 69.5056C7.52909 80.8669 6.84532 93.2551 9.82078 105.015C12.7962 116.776 19.2893 127.348 28.4325 135.32C27.2668 137.329 26.9215 139.709 27.4685 141.966C28.0156 144.223 29.4128 146.181 31.3688 147.433C33.3247 148.684 35.6883 149.132 37.9666 148.683C40.2449 148.234 42.2619 146.923 43.5968 145.023C51.1459 148.336 59.3052 150.031 67.5492 150C83.3571 150 98.5176 143.72 109.695 132.542C120.873 121.364 127.153 106.204 127.153 90.3958C127.153 74.5879 120.873 59.4274 109.695 48.2495C98.5176 37.0717 83.3571 30.792 67.5492 30.792V30.792ZM67.5492 148.613C59.5636 148.62 51.6631 146.973 44.3454 143.776C45.5277 141.771 45.8867 139.385 45.347 137.121C44.8072 134.856 43.4107 132.889 41.451 131.633C39.4912 130.377 37.1208 129.929 34.8378 130.384C32.5549 130.839 30.5372 132.161 29.2088 134.073C18.9808 125.059 12.2406 112.742 10.163 99.268C8.08538 85.7943 10.8022 72.0187 17.8399 60.3427C24.8775 48.6667 35.7896 39.8308 48.674 35.3752C61.5583 30.9197 75.5977 31.1272 88.3448 35.9615C101.092 40.7958 111.738 49.9503 118.428 61.8292C125.117 73.7081 127.426 87.5579 124.951 100.964C122.476 114.371 115.375 126.484 104.885 135.191C94.3952 143.899 81.1822 148.649 67.5492 148.613V148.613Z" fill="url(#paint0_linear_372_1020)"/>
<path id="Vector_4" d="M124 41.0291C124 40.4502 124 39.8582 124 39.2793C124.113 38.4792 124.443 37.7245 124.954 37.0955C125.62 36.2115 126.545 35.5542 127.603 35.2142C128.121 35.0536 128.663 34.9824 129.205 35.0037H142.967C143.868 35.0037 144.768 35.0037 145.616 35.0694C145.996 35.1112 146.367 35.2134 146.715 35.372C147.496 35.6886 148.189 36.1855 148.737 36.8216C149.285 37.4577 149.673 38.2146 149.868 39.0294C149.868 39.1609 149.96 39.2925 150 39.4241V48.1596C150 48.5543 150 48.949 150 49.3437C149.974 49.8997 149.825 50.4432 149.563 50.9355C149.242 51.596 148.79 52.1855 148.235 52.6692C147.68 53.1528 147.032 53.5207 146.331 53.7509C145.855 53.8956 145.359 53.9622 144.861 53.9483H142.503H142.397V60C142.185 59.829 141.974 59.6579 141.775 59.4738L138.04 56.2374L135.603 54.093C135.562 54.0495 135.513 54.0152 135.458 53.9925C135.403 53.9698 135.344 53.9592 135.285 53.9614C133.841 53.9614 132.384 53.9614 130.94 53.9614C130.146 53.9614 129.338 53.9614 128.53 53.9614C127.956 53.9082 127.403 53.7236 126.914 53.422C126.22 53.0723 125.612 52.575 125.134 51.9657C124.656 51.3563 124.318 50.6497 124.146 49.8962C124.087 49.6373 124.06 49.3722 124.066 49.1069C124.066 48.3438 124.066 47.5808 124.066 46.8309C124.073 46.7741 124.073 46.7166 124.066 46.6598V42.2789L124 41.0291ZM130.318 42.5947C129.825 42.6084 129.357 42.8154 129.017 43.1703C128.677 43.5252 128.493 43.9993 128.503 44.4891C128.508 44.7408 128.564 44.9889 128.667 45.2187C128.771 45.4486 128.919 45.6555 129.105 45.8273C129.29 45.999 129.508 46.1321 129.746 46.2186C129.984 46.3051 130.237 46.3433 130.49 46.3309C130.964 46.2924 131.406 46.0819 131.734 45.7398C132.061 45.3976 132.25 44.9477 132.265 44.476C132.27 44.2263 132.225 43.9781 132.131 43.7465C132.037 43.5149 131.896 43.3048 131.718 43.1288C131.539 42.9529 131.327 42.8148 131.093 42.7229C130.859 42.6311 130.609 42.5875 130.358 42.5947H130.318ZM135.033 44.476C135.073 44.946 135.289 45.3842 135.638 45.7035C135.988 46.0228 136.446 46.2001 136.921 46.2001C137.395 46.2001 137.853 46.0228 138.203 45.7035C138.552 45.3842 138.768 44.946 138.808 44.476C138.801 43.9953 138.607 43.536 138.266 43.1949C137.925 42.8538 137.464 42.6575 136.98 42.6473C136.732 42.6366 136.485 42.676 136.253 42.7633C136.021 42.8505 135.81 42.9838 135.631 43.1548C135.453 43.3259 135.311 43.5313 135.215 43.7584C135.119 43.9855 135.071 44.2296 135.073 44.476H135.033ZM141.576 44.476C141.575 44.7311 141.626 44.9837 141.726 45.2184C141.827 45.4531 141.975 45.6649 142.161 45.8406C142.347 46.0164 142.568 46.1524 142.809 46.2403C143.05 46.3282 143.307 46.3661 143.563 46.3517C143.82 46.3373 144.07 46.2709 144.3 46.1566C144.529 46.0422 144.733 45.8824 144.898 45.687C145.063 45.4915 145.186 45.2645 145.259 45.02C145.333 44.7756 145.355 44.5188 145.325 44.2655C145.268 43.7934 145.032 43.3606 144.665 43.0551C144.299 42.7496 143.829 42.5945 143.351 42.6214C142.873 42.6482 142.423 42.855 142.094 43.1995C141.764 43.5441 141.579 44.0006 141.576 44.476V44.476Z" fill="#025FB5"/>
<g id="path-a3-2">
<path id="Vector_5" d="M108.357 17.6512L107.622 16.4868C107.151 16.7779 106.68 17.0967 106.236 17.4155L107.026 18.5522L108.357 17.6512Z" fill="url(#paint1_linear_372_1020)"/>
<path id="Vector_6" d="M89.727 50.0464H88.3408C88.3408 50.5731 88.3408 51.1137 88.3408 51.6404V51.7236L89.727 51.585C89.727 51.0721 89.727 50.5593 89.727 50.0464Z" fill="url(#paint2_linear_372_1020)"/>
<path id="Vector_7" d="M90.5173 43.6283L89.1311 43.3511C89.0202 43.9055 88.9232 44.4461 88.8262 45.0006L90.2123 45.2224C90.3093 44.654 90.4064 44.155 90.5173 43.6283Z" fill="url(#paint3_linear_372_1020)"/>
<path id="Vector_8" d="M99.957 80.4149C100.345 80.8169 100.747 81.2189 101.149 81.607L102.106 80.5951C101.717 80.2347 101.329 79.8466 100.955 79.4585L99.957 80.4149Z" fill="url(#paint4_linear_372_1020)"/>
<path id="Vector_9" d="M105.71 19.4961L104.878 18.3872C104.421 18.7337 103.991 19.0803 103.492 19.4268L104.365 20.4941L105.71 19.4961Z" fill="url(#paint5_linear_372_1020)"/>
<path id="Vector_10" d="M89.727 53.2896H88.3408C88.3408 53.844 88.3408 54.3985 88.4378 54.9529L89.824 54.842C89.824 54.3569 89.727 53.8301 89.727 53.2896Z" fill="url(#paint6_linear_372_1020)"/>
<path id="Vector_11" d="M98.7368 26.2182L97.6556 25.345C97.3091 25.7747 96.9626 26.2182 96.6299 26.6618L97.7388 27.4935C98.0437 27.0638 98.3903 26.6341 98.7368 26.2182Z" fill="url(#paint7_linear_372_1020)"/>
<path id="Vector_12" d="M103.215 21.5467L102.286 20.5071C101.87 20.8813 101.468 21.2695 101.066 21.6576L102.023 22.6556C102.411 22.2813 102.799 21.9071 103.215 21.5467Z" fill="url(#paint8_linear_372_1020)"/>
<path id="Vector_13" d="M100.886 23.8622L99.8737 22.9058C99.4856 23.3077 99.1114 23.7236 98.751 24.1394L99.7906 25.0543C100.137 24.583 100.511 24.181 100.886 23.8622Z" fill="url(#paint9_linear_372_1020)"/>
<path id="Vector_14" d="M96.7968 28.8099L95.6602 28.0198L94.7314 29.4059L95.9097 30.1544C96.1869 29.7109 96.4918 29.2534 96.7968 28.8099Z" fill="url(#paint10_linear_372_1020)"/>
<path id="Vector_15" d="M90.0326 56.5059L88.6465 56.6861C88.7158 57.2405 88.799 57.795 88.8821 58.3356L90.2683 58.1138C90.1712 57.587 90.0881 57.0465 90.0326 56.5059Z" fill="url(#paint11_linear_372_1020)"/>
<path id="Vector_16" d="M93.6225 68.8838L92.375 69.466C92.6153 69.9835 92.8648 70.4825 93.1235 70.963L94.3433 70.3254C94.0938 69.8402 93.8859 69.3689 93.6225 68.8838Z" fill="url(#paint12_linear_372_1020)"/>
<path id="Vector_17" d="M96.8661 74.4553L95.7295 75.2454C96.0483 75.7028 96.3671 76.1603 96.7136 76.6316L97.8087 75.7999C97.4899 75.3424 97.1711 74.8989 96.8661 74.4553Z" fill="url(#paint13_linear_372_1020)"/>
<path id="Vector_18" d="M97.7393 77.9198L98.8204 79.1951L99.86 78.2664C99.4996 77.8644 99.1531 77.4624 98.8066 77.0327L97.7393 77.9198Z" fill="url(#paint14_linear_372_1020)"/>
<path id="Vector_19" d="M95.1333 71.7236L93.8857 72.3751L94.759 73.7613L95.9234 73.0127C95.6877 72.6523 95.3966 72.1949 95.1333 71.7236Z" fill="url(#paint15_linear_372_1020)"/>
<path id="Vector_20" d="M90.5453 59.7061L89.1592 59.9833C89.2701 60.5239 89.3948 61.0783 89.5334 61.6189L90.9196 61.2862C90.781 60.7595 90.6562 60.2328 90.5453 59.7061Z" fill="url(#paint16_linear_372_1020)"/>
<path id="Vector_21" d="M92.3616 65.9165L91.0586 66.4016C91.2527 66.9284 91.4606 67.4413 91.6824 67.9541L92.9576 67.3997C92.7497 66.9145 92.5002 66.4155 92.3616 65.9165Z" fill="url(#paint17_linear_372_1020)"/>
<path id="Vector_22" d="M91.3217 62.8384L89.9355 63.2265C90.088 63.7671 90.2682 64.2938 90.4346 64.8206L91.8207 64.3909C91.6405 63.878 91.4742 63.3651 91.3217 62.8384Z" fill="url(#paint18_linear_372_1020)"/>
<path id="Vector_23" d="M88.4658 48.3255L89.852 48.4364C89.852 47.8958 89.949 47.3552 90.0044 46.8284L88.6183 46.6621C88.5536 47.2166 88.5028 47.771 88.4658 48.3255Z" fill="url(#paint19_linear_372_1020)"/>
<path id="Vector_24" d="M169.292 43.3933L170.678 43.1022C170.554 42.5617 170.429 42.0072 170.304 41.4805L168.918 41.8131C169.057 42.326 169.181 42.8527 169.292 43.3933Z" fill="url(#paint20_linear_372_1020)"/>
<path id="Vector_25" d="M169.819 46.5807L171.205 46.4005C171.205 45.846 171.052 45.3054 170.969 44.751L169.583 44.9728C169.666 45.5134 169.749 46.0401 169.819 46.5807Z" fill="url(#paint21_linear_372_1020)"/>
<path id="Vector_26" d="M168.501 40.2463L169.887 39.8582C169.735 39.3176 169.568 38.7909 169.388 38.2642L168.002 38.7077C168.196 39.2206 168.348 39.7335 168.501 40.2463Z" fill="url(#paint22_linear_372_1020)"/>
<path id="Vector_27" d="M171.371 54.9249L169.985 54.814C169.985 55.3546 169.888 55.8951 169.818 56.4219L171.204 56.6021C171.274 56.0476 171.329 55.4932 171.371 54.9249Z" fill="url(#paint23_linear_372_1020)"/>
<path id="Vector_28" d="M168.543 62.7695L169.929 63.1437C170.095 62.617 170.234 62.0764 170.373 61.5358L168.987 61.2031C168.834 61.7299 168.737 62.2427 168.543 62.7695Z" fill="url(#paint24_linear_372_1020)"/>
<path id="Vector_29" d="M170.124 49.7957H171.51C171.51 49.2412 171.51 48.6868 171.399 48.1323L170.013 48.2432C170.027 48.7284 170.124 49.2551 170.124 49.7957Z" fill="url(#paint25_linear_372_1020)"/>
<path id="Vector_30" d="M170.983 58.2521L169.597 58.0303C169.514 58.5709 169.417 59.0976 169.306 59.6243L170.692 59.9016C170.789 59.3471 170.886 58.8065 170.983 58.2521Z" fill="url(#paint26_linear_372_1020)"/>
<path id="Vector_31" d="M167.461 37.1831L168.764 36.6841C168.557 36.1712 168.349 35.6584 168.127 35.1455L166.852 35.6861C167.073 36.1851 167.267 36.6841 167.461 37.1831Z" fill="url(#paint27_linear_372_1020)"/>
<path id="Vector_32" d="M111.157 16.0308L110.519 14.811C110.02 15.0605 109.535 15.3378 109.133 15.615L109.826 16.8209L111.157 16.0308Z" fill="url(#paint28_linear_372_1020)"/>
<path id="Vector_33" d="M123.355 11.9274L123.133 10.5552C122.578 10.6383 122.024 10.7492 121.483 10.8601L121.761 12.2463C122.287 12.1076 122.828 12.0106 123.355 11.9274Z" fill="url(#paint29_linear_372_1020)"/>
<path id="Vector_34" d="M117.09 13.4799L116.647 12.1631C116.106 12.3433 115.579 12.5373 115.066 12.7314L115.565 14.0344L117.09 13.4799Z" fill="url(#paint30_linear_372_1020)"/>
<path id="Vector_35" d="M120.222 12.5773L119.875 11.1912C119.335 11.3159 118.794 11.4684 118.268 11.6209L118.656 13.007C119.141 12.8407 119.668 12.7714 120.222 12.5773Z" fill="url(#paint31_linear_372_1020)"/>
<path id="Vector_36" d="M114.068 14.6297L113.514 13.3545L112.003 14.0476L112.599 15.3089L114.068 14.6297Z" fill="url(#paint32_linear_372_1020)"/>
<path id="Vector_37" d="M162.056 25.2477C161.696 24.8041 161.336 24.3883 160.961 23.9724L159.936 24.8873C160.296 25.2892 160.642 25.7051 160.989 26.1209L162.056 25.2477Z" fill="url(#paint33_linear_372_1020)"/>
<path id="Vector_38" d="M164.676 31.3605L165.868 30.6674C165.59 30.1822 165.299 29.711 165.008 29.2812L163.83 30.0298C164.121 30.4456 164.412 30.903 164.676 31.3605Z" fill="url(#paint34_linear_372_1020)"/>
<path id="Vector_39" d="M166.187 34.2171L167.434 33.621C167.203 33.122 166.954 32.623 166.686 32.124L165.466 32.7755L166.187 34.2171Z" fill="url(#paint35_linear_372_1020)"/>
<path id="Vector_40" d="M162.943 28.6447L164.079 27.8546C163.761 27.3972 163.428 26.9398 163.095 26.4685L161.986 27.314C162.319 27.7576 162.624 28.2012 162.943 28.6447Z" fill="url(#paint36_linear_372_1020)"/>
<path id="Vector_41" d="M163.012 74.4271L164.148 75.2172C164.467 74.7597 164.772 74.2885 165.077 73.831L163.899 73.0825C163.608 73.5261 163.317 73.9835 163.012 74.4271Z" fill="url(#paint37_linear_372_1020)"/>
<path id="Vector_42" d="M139.628 90.6172L139.961 92.0033L141.569 91.5736L141.18 90.1875L139.628 90.6172Z" fill="url(#paint38_linear_372_1020)"/>
<path id="Vector_43" d="M147.64 13.95L147.044 15.2113C147.543 15.4331 148.028 15.6826 148.499 15.9321L149.137 14.6985C148.656 14.4397 148.157 14.1902 147.64 13.95Z" fill="url(#paint39_linear_372_1020)"/>
<path id="Vector_44" d="M145.713 88.565L146.253 89.8402C146.766 89.6185 147.279 89.3967 147.778 89.1472L147.182 87.8997C146.697 88.1353 146.198 88.3571 145.713 88.565Z" fill="url(#paint40_linear_372_1020)"/>
<path id="Vector_45" d="M151.41 85.557L152.159 86.7353C152.63 86.4303 153.101 86.1254 153.545 85.8066L152.755 84.6699C152.325 84.9749 151.868 85.266 151.41 85.557Z" fill="url(#paint41_linear_372_1020)"/>
<path id="Vector_46" d="M150.607 15.5444L149.914 16.7504C150.385 17.0137 150.857 17.291 151.3 17.5821L152.035 16.4038L150.607 15.5444Z" fill="url(#paint42_linear_372_1020)"/>
<path id="Vector_47" d="M141.361 11.5947L140.986 12.9809C141.513 13.1333 142.026 13.2858 142.525 13.466L142.969 12.1492C142.4 11.9135 141.901 11.7472 141.361 11.5947Z" fill="url(#paint43_linear_372_1020)"/>
<path id="Vector_48" d="M142.691 89.7164L143.135 91.1025L144.701 90.5342L144.216 89.2451L142.691 89.7164Z" fill="url(#paint44_linear_372_1020)"/>
<path id="Vector_49" d="M144.549 12.6477L144.063 13.9368L145.561 14.5467L146.101 13.2715C145.588 13.0497 145.075 12.8418 144.549 12.6477Z" fill="url(#paint45_linear_372_1020)"/>
<path id="Vector_50" d="M148.624 87.1788L149.276 88.3986C149.761 88.1491 150.246 87.8719 150.731 87.5947L150.038 86.4026L148.624 87.1788Z" fill="url(#paint46_linear_372_1020)"/>
<path id="Vector_51" d="M153.489 17.2908L152.699 18.4274L154.016 19.37L154.875 18.3165C154.363 17.9284 153.905 17.6096 153.489 17.2908Z" fill="url(#paint47_linear_372_1020)"/>
<path id="Vector_52" d="M158.909 79.4321L159.907 80.3885C160.295 79.9865 160.683 79.5845 161.044 79.1687L160.018 78.24C159.658 78.642 159.283 79.0439 158.909 79.4321Z" fill="url(#paint48_linear_372_1020)"/>
<path id="Vector_53" d="M161.059 77.0057L162.14 77.8928C162.486 77.4493 162.833 77.0196 163.166 76.576L162.057 75.7305C161.807 76.174 161.405 76.5344 161.059 77.0057Z" fill="url(#paint49_linear_372_1020)"/>
<path id="Vector_54" d="M170.123 51.4175V51.5838C170.123 52.1244 170.123 52.665 170.123 53.2056H171.509C171.509 52.6512 171.509 52.0828 171.509 51.5284V51.3621L170.123 51.4175Z" fill="url(#paint50_linear_372_1020)"/>
<path id="Vector_55" d="M158.645 21.5061L157.647 22.4764C158.036 22.8368 158.41 23.2249 158.784 23.613L159.782 22.6427C159.436 22.2823 159.034 21.8942 158.645 21.5061Z" fill="url(#paint51_linear_372_1020)"/>
<path id="Vector_56" d="M102.383 82.7311C102.799 83.1053 103.228 83.4657 103.658 83.8261L104.531 82.7449C104.115 82.4123 103.7 82.0519 103.298 81.7053L102.383 82.7311Z" fill="url(#paint52_linear_372_1020)"/>
<path id="Vector_57" d="M154.072 83.7293L154.876 84.852L156.262 83.8263L155.375 82.7451C154.876 83.0639 154.502 83.4659 154.072 83.7293Z" fill="url(#paint53_linear_372_1020)"/>
<path id="Vector_58" d="M156.137 19.3022L155.25 20.3696C155.68 20.7161 156.082 21.0626 156.498 21.423L157.412 20.3834C156.997 20.0092 156.567 19.7042 156.137 19.3022Z" fill="url(#paint54_linear_372_1020)"/>
<path id="Vector_59" d="M156.58 81.6771L157.495 82.7167C157.925 82.3424 158.327 81.9682 158.729 81.58L157.772 80.582C157.384 80.9563 156.982 81.3167 156.58 81.6771Z" fill="url(#paint55_linear_372_1020)"/>
<path id="Vector_60" d="M113.666 89.868C114.179 90.0898 114.692 90.2977 115.218 90.4918L115.717 89.2027L114.207 88.5928L113.666 89.868Z" fill="url(#paint56_linear_372_1020)"/>
<path id="Vector_61" d="M120.015 91.9765C120.555 92.1151 121.11 92.2399 121.65 92.3508L121.928 90.9646L120.347 90.6042L120.015 91.9765Z" fill="url(#paint57_linear_372_1020)"/>
<path id="Vector_62" d="M124.782 10.3184L124.962 11.7045C125.489 11.6352 126.03 11.5798 126.57 11.5382L126.459 10.1382L124.782 10.3184Z" fill="url(#paint58_linear_372_1020)"/>
<path id="Vector_63" d="M123.3 92.64C123.854 92.7371 124.409 92.8064 124.963 92.8757L125.13 91.4896C124.589 91.4896 124.048 91.3509 123.522 91.2539L123.3 92.64Z" fill="url(#paint59_linear_372_1020)"/>
<path id="Vector_64" d="M116.799 91.0615L118.407 91.5466L118.781 90.1605L117.242 89.6892L116.799 91.0615Z" fill="url(#paint60_linear_372_1020)"/>
<path id="Vector_65" d="M104.975 84.8501L106.361 85.8343L107.151 84.6838C106.707 84.3788 106.264 84.0739 105.765 83.7412L104.975 84.8501Z" fill="url(#paint61_linear_372_1020)"/>
<path id="Vector_66" d="M138.118 10.8042L137.841 12.1903L139.421 12.5369L139.754 11.1507L138.118 10.8042Z" fill="url(#paint62_linear_372_1020)"/>
<path id="Vector_67" d="M110.63 88.4263C111.129 88.6897 111.628 88.9392 112.141 89.1749L112.723 87.9273L111.337 87.2065L110.63 88.4263Z" fill="url(#paint63_linear_372_1020)"/>
<path id="Vector_68" d="M107.747 86.7493C108.218 87.0543 108.69 87.3454 109.133 87.6226L109.826 86.4166C109.355 86.1533 108.898 85.876 108.44 85.585L107.747 86.7493Z" fill="url(#paint64_linear_372_1020)"/>
<path id="Vector_69" d="M133.197 91.6558L133.308 93.042C133.872 93.042 134.426 92.9865 134.972 92.8756L134.805 91.4895C134.278 91.5588 133.738 91.6004 133.197 91.6558Z" fill="url(#paint65_linear_372_1020)"/>
<path id="Vector_70" d="M134.805 10.2925L134.652 11.6786C135.179 11.6786 135.72 11.8172 136.246 11.9004L136.468 10.5143C135.914 10.4311 135.359 10.3479 134.805 10.2925Z" fill="url(#paint66_linear_372_1020)"/>
<path id="Vector_71" d="M126.626 93.0436L128.289 93.1406V91.7545L126.681 91.6575L126.626 93.0436Z" fill="url(#paint67_linear_372_1020)"/>
<path id="Vector_72" d="M136.412 91.2693L136.634 92.6554C137.188 92.5723 137.729 92.4752 138.283 92.3505L138.006 90.9644L136.412 91.2693Z" fill="url(#paint68_linear_372_1020)"/>
<path id="Vector_73" d="M131.422 11.3861C131.962 11.3861 132.503 11.3861 133.03 11.4832L133.141 10.097L131.477 10L131.422 11.3861Z" fill="url(#paint69_linear_372_1020)"/>
<path id="Vector_74" d="M129.925 91.782V93.1681H131.602V91.782H129.925Z" fill="url(#paint70_linear_372_1020)"/>
<path id="Vector_75" d="M128.123 10V11.3861C128.659 11.3861 129.2 11.3861 129.745 11.3861V10C129.232 10 128.678 10 128.123 10Z" fill="url(#paint71_linear_372_1020)"/>
<path id="Vector_76" d="M95.965 37.0287C95.952 36.234 95.7682 35.4514 95.4263 34.7339C95.0843 34.0165 94.592 33.3809 93.9829 32.8703L94.2878 33.0228C94.5373 32.5515 94.8007 32.0802 95.064 31.6367L93.8581 30.9436C93.6086 31.3872 93.3591 31.8446 93.1234 32.3297C92.2816 31.8416 91.3243 31.588 90.3512 31.5951C89.2546 31.5951 88.1826 31.9203 87.2708 32.5295C86.359 33.1388 85.6483 34.0047 85.2287 35.0178C84.809 36.031 84.6992 37.1458 84.9132 38.2213C85.1271 39.2968 85.6552 40.2848 86.4306 41.0602C87.206 41.8356 88.194 42.3637 89.2695 42.5776C90.345 42.7916 91.4598 42.6818 92.473 42.2621C93.4861 41.8425 94.3521 41.1318 94.9613 40.22C95.5705 39.3082 95.8957 38.2362 95.8957 37.1396L95.965 37.0287Z" fill="url(#paint72_linear_372_1020)"/>
<path id="Vector_77" d="M167.351 64.0593C166.484 64.064 165.64 64.3396 164.937 64.8474C164.235 65.3553 163.708 66.07 163.432 66.8917C163.155 67.7134 163.143 68.6009 163.396 69.4302C163.648 70.2594 164.154 70.989 164.842 71.5167C164.804 71.5691 164.772 71.6247 164.745 71.6831L165.965 72.3761L166.089 72.1405C166.494 72.2865 166.92 72.3661 167.351 72.3761C168.454 72.3761 169.511 71.938 170.291 71.1582C171.071 70.3783 171.509 69.3206 171.509 68.2177C171.509 67.1149 171.071 66.0571 170.291 65.2773C169.511 64.4974 168.454 64.0593 167.351 64.0593V64.0593Z" fill="url(#paint73_linear_372_1020)"/>
</g>
</g>
</g>
<defs>
<linearGradient id="paint0_linear_372_1020" x1="97.5313" y1="36.4613" x2="35.9315" y2="147.269" gradientUnits="userSpaceOnUse">
<stop offset="0.04" stop-color="#0098FF"/>
<stop offset="1" stop-color="#20D7CC"/>
</linearGradient>
<linearGradient id="paint1_linear_372_1020" x1="185.454" y1="51.5699" x2="72.5671" y2="2.37605" gradientUnits="userSpaceOnUse">
<stop offset="0.04" stop-color="#0098FF"/>
<stop offset="1" stop-color="#53FFF5"/>
</linearGradient>
<linearGradient id="paint2_linear_372_1020" x1="170.331" y1="86.28" x2="57.43" y2="37.0861" gradientUnits="userSpaceOnUse">
<stop offset="0.04" stop-color="#0098FF"/>
<stop offset="1" stop-color="#53FFF5"/>
</linearGradient>
<linearGradient id="paint3_linear_372_1020" x1="172.826" y1="80.5411" x2="59.9391" y2="31.3471" gradientUnits="userSpaceOnUse">
<stop offset="0.04" stop-color="#0098FF"/>
<stop offset="1" stop-color="#53FFF5"/>
</linearGradient>
<linearGradient id="paint4_linear_372_1020" x1="161.377" y1="106.821" x2="48.4899" y2="57.6267" gradientUnits="userSpaceOnUse">
<stop offset="0.04" stop-color="#0098FF"/>
<stop offset="1" stop-color="#53FFF5"/>
</linearGradient>
<linearGradient id="paint5_linear_372_1020" x1="184.331" y1="54.1633" x2="71.4309" y2="4.96951" gradientUnits="userSpaceOnUse">
<stop offset="0.04" stop-color="#0098FF"/>
<stop offset="1" stop-color="#53FFF5"/>
</linearGradient>
<linearGradient id="paint6_linear_372_1020" x1="169.139" y1="89.0241" x2="56.2379" y2="39.8303" gradientUnits="userSpaceOnUse">
<stop offset="0.04" stop-color="#0098FF"/>
<stop offset="1" stop-color="#53FFF5"/>
</linearGradient>
<linearGradient id="paint7_linear_372_1020" x1="180.657" y1="62.5765" x2="67.7706" y2="13.3826" gradientUnits="userSpaceOnUse">
<stop offset="0.04" stop-color="#0098FF"/>
<stop offset="1" stop-color="#53FFF5"/>
</linearGradient>
<linearGradient id="paint8_linear_372_1020" x1="183.153" y1="56.8792" x2="70.2527" y2="7.68518" gradientUnits="userSpaceOnUse">
<stop offset="0.04" stop-color="#0098FF"/>
<stop offset="1" stop-color="#53FFF5"/>
</linearGradient>
<linearGradient id="paint9_linear_372_1020" x1="181.919" y1="59.6799" x2="69.0323" y2="10.4859" gradientUnits="userSpaceOnUse">
<stop offset="0.04" stop-color="#0098FF"/>
<stop offset="1" stop-color="#53FFF5"/>
</linearGradient>
<linearGradient id="paint10_linear_372_1020" x1="179.383" y1="65.5286" x2="66.482" y2="16.3348" gradientUnits="userSpaceOnUse">
<stop offset="0.04" stop-color="#0098FF"/>
<stop offset="1" stop-color="#53FFF5"/>
</linearGradient>
<linearGradient id="paint11_linear_372_1020" x1="167.989" y1="91.6444" x2="55.102" y2="42.4506" gradientUnits="userSpaceOnUse">
<stop offset="0.04" stop-color="#0098FF"/>
<stop offset="1" stop-color="#53FFF5"/>
</linearGradient>
<linearGradient id="paint12_linear_372_1020" x1="164.038" y1="100.709" x2="51.1514" y2="51.5154" gradientUnits="userSpaceOnUse">
<stop offset="0.04" stop-color="#0098FF"/>
<stop offset="1" stop-color="#53FFF5"/>
</linearGradient>
<linearGradient id="paint13_linear_372_1020" x1="162.527" y1="104.174" x2="49.6405" y2="54.9801" gradientUnits="userSpaceOnUse">
<stop offset="0.04" stop-color="#0098FF"/>
<stop offset="1" stop-color="#53FFF5"/>
</linearGradient>
<linearGradient id="paint14_linear_372_1020" x1="161.917" y1="105.601" x2="49.0167" y2="56.407" gradientUnits="userSpaceOnUse">
<stop offset="0.04" stop-color="#0098FF"/>
<stop offset="1" stop-color="#53FFF5"/>
</linearGradient>
<linearGradient id="paint15_linear_372_1020" x1="163.248" y1="102.537" x2="50.3472" y2="53.3573" gradientUnits="userSpaceOnUse">
<stop offset="0.04" stop-color="#0098FF"/>
<stop offset="1" stop-color="#53FFF5"/>
</linearGradient>
<linearGradient id="paint16_linear_372_1020" x1="166.907" y1="94.1377" x2="54.0068" y2="44.9576" gradientUnits="userSpaceOnUse">
<stop offset="0.04" stop-color="#0098FF"/>
<stop offset="1" stop-color="#53FFF5"/>
</linearGradient>
<linearGradient id="paint17_linear_372_1020" x1="164.926" y1="98.6986" x2="52.025" y2="49.5046" gradientUnits="userSpaceOnUse">
<stop offset="0.04" stop-color="#0098FF"/>
<stop offset="1" stop-color="#53FFF5"/>
</linearGradient>
<linearGradient id="paint18_linear_372_1020" x1="165.882" y1="96.5076" x2="52.9812" y2="47.3139" gradientUnits="userSpaceOnUse">
<stop offset="0.04" stop-color="#0098FF"/>
<stop offset="1" stop-color="#53FFF5"/>
</linearGradient>
<linearGradient id="paint19_linear_372_1020" x1="171.565" y1="83.4501" x2="58.664" y2="34.2561" gradientUnits="userSpaceOnUse">
<stop offset="0.04" stop-color="#0098FF"/>
<stop offset="1" stop-color="#53FFF5"/>
</linearGradient>
<linearGradient id="paint20_linear_372_1020" x1="186.3" y1="49.6309" x2="73.4131" y2="0.436789" gradientUnits="userSpaceOnUse">
<stop offset="0.04" stop-color="#0098FF"/>
<stop offset="1" stop-color="#53FFF5"/>
</linearGradient>
<linearGradient id="paint21_linear_372_1020" x1="185.219" y1="52.1252" x2="72.3181" y2="2.93142" gradientUnits="userSpaceOnUse">
<stop offset="0.04" stop-color="#0098FF"/>
<stop offset="1" stop-color="#53FFF5"/>
</linearGradient>
<linearGradient id="paint22_linear_372_1020" x1="187.325" y1="47.274" x2="74.4379" y2="-1.9199" gradientUnits="userSpaceOnUse">
<stop offset="0.04" stop-color="#0098FF"/>
<stop offset="1" stop-color="#53FFF5"/>
</linearGradient>
<linearGradient id="paint23_linear_372_1020" x1="181.587" y1="60.4555" x2="68.6859" y2="11.2613" gradientUnits="userSpaceOnUse">
<stop offset="0.04" stop-color="#0098FF"/>
<stop offset="1" stop-color="#53FFF5"/>
</linearGradient>
<linearGradient id="paint24_linear_372_1020" x1="179.022" y1="66.3318" x2="66.1353" y2="17.138" gradientUnits="userSpaceOnUse">
<stop offset="0.04" stop-color="#0098FF"/>
<stop offset="1" stop-color="#53FFF5"/>
</linearGradient>
<linearGradient id="paint25_linear_372_1020" x1="184.068" y1="54.758" x2="71.1674" y2="5.56396" gradientUnits="userSpaceOnUse">
<stop offset="0.04" stop-color="#0098FF"/>
<stop offset="1" stop-color="#53FFF5"/>
</linearGradient>
<linearGradient id="paint26_linear_372_1020" x1="180.312" y1="63.3669" x2="67.4249" y2="14.173" gradientUnits="userSpaceOnUse">
<stop offset="0.04" stop-color="#0098FF"/>
<stop offset="1" stop-color="#53FFF5"/>
</linearGradient>
<linearGradient id="paint27_linear_372_1020" x1="188.281" y1="45.0841" x2="75.3806" y2="-4.10962" gradientUnits="userSpaceOnUse">
<stop offset="0.04" stop-color="#0098FF"/>
<stop offset="1" stop-color="#53FFF5"/>
</linearGradient>
<linearGradient id="paint28_linear_372_1020" x1="186.534" y1="49.104" x2="73.6339" y2="-0.0898567" gradientUnits="userSpaceOnUse">
<stop offset="0.04" stop-color="#0098FF"/>
<stop offset="1" stop-color="#53FFF5"/>
</linearGradient>
<linearGradient id="paint29_linear_372_1020" x1="190.125" y1="40.8699" x2="77.2241" y2="-8.32388" gradientUnits="userSpaceOnUse">
<stop offset="0.04" stop-color="#0098FF"/>
<stop offset="1" stop-color="#53FFF5"/>
</linearGradient>
<linearGradient id="paint30_linear_372_1020" x1="188.476" y1="44.6402" x2="75.5893" y2="-4.55363" gradientUnits="userSpaceOnUse">
<stop offset="0.04" stop-color="#0098FF"/>
<stop offset="1" stop-color="#53FFF5"/>
</linearGradient>
<linearGradient id="paint31_linear_372_1020" x1="189.335" y1="42.6564" x2="76.4479" y2="-6.5377" gradientUnits="userSpaceOnUse">
<stop offset="0.04" stop-color="#0098FF"/>
<stop offset="1" stop-color="#53FFF5"/>
</linearGradient>
<linearGradient id="paint32_linear_372_1020" x1="187.547" y1="46.7881" x2="74.6466" y2="-2.40573" gradientUnits="userSpaceOnUse">
<stop offset="0.04" stop-color="#0098FF"/>
<stop offset="1" stop-color="#53FFF5"/>
</linearGradient>
<linearGradient id="paint33_linear_372_1020" x1="191.29" y1="38.1941" x2="78.3893" y2="-10.9997" gradientUnits="userSpaceOnUse">
<stop offset="0.04" stop-color="#0098FF"/>
<stop offset="1" stop-color="#53FFF5"/>
</linearGradient>
<linearGradient id="paint34_linear_372_1020" x1="189.959" y1="41.2436" x2="77.058" y2="-7.95038" gradientUnits="userSpaceOnUse">
<stop offset="0.04" stop-color="#0098FF"/>
<stop offset="1" stop-color="#53FFF5"/>
</linearGradient>
<linearGradient id="paint35_linear_372_1020" x1="189.155" y1="43.0745" x2="76.2682" y2="-6.11933" gradientUnits="userSpaceOnUse">
<stop offset="0.04" stop-color="#0098FF"/>
<stop offset="1" stop-color="#53FFF5"/>
</linearGradient>
<linearGradient id="paint36_linear_372_1020" x1="190.665" y1="39.6229" x2="77.7647" y2="-9.57112" gradientUnits="userSpaceOnUse">
<stop offset="0.04" stop-color="#0098FF"/>
<stop offset="1" stop-color="#53FFF5"/>
</linearGradient>
<linearGradient id="paint37_linear_372_1020" x1="173.768" y1="78.3914" x2="60.8676" y2="29.1977" gradientUnits="userSpaceOnUse">
<stop offset="0.04" stop-color="#0098FF"/>
<stop offset="1" stop-color="#53FFF5"/>
</linearGradient>
<linearGradient id="paint38_linear_372_1020" x1="163.816" y1="101.221" x2="50.9291" y2="52.0272" gradientUnits="userSpaceOnUse">
<stop offset="0.04" stop-color="#0098FF"/>
<stop offset="1" stop-color="#53FFF5"/>
</linearGradient>
<linearGradient id="paint39_linear_372_1020" x1="192.911" y1="34.4786" x2="80.0104" y2="-14.7154" gradientUnits="userSpaceOnUse">
<stop offset="0.04" stop-color="#0098FF"/>
<stop offset="1" stop-color="#53FFF5"/>
</linearGradient>
<linearGradient id="paint40_linear_372_1020" x1="165.618" y1="97.1036" x2="52.7173" y2="47.9097" gradientUnits="userSpaceOnUse">
<stop offset="0.04" stop-color="#0098FF"/>
<stop offset="1" stop-color="#53FFF5"/>
</linearGradient>
<linearGradient id="paint41_linear_372_1020" x1="167.697" y1="92.3353" x2="54.7965" y2="43.1413" gradientUnits="userSpaceOnUse">
<stop offset="0.04" stop-color="#0098FF"/>
<stop offset="1" stop-color="#53FFF5"/>
</linearGradient>
<linearGradient id="paint42_linear_372_1020" x1="192.787" y1="34.7424" x2="79.8866" y2="-14.4515" gradientUnits="userSpaceOnUse">
<stop offset="0.04" stop-color="#0098FF"/>
<stop offset="1" stop-color="#53FFF5"/>
</linearGradient>
<linearGradient id="paint43_linear_372_1020" x1="192.828" y1="34.66" x2="79.9271" y2="-14.5339" gradientUnits="userSpaceOnUse">
<stop offset="0.04" stop-color="#0098FF"/>
<stop offset="1" stop-color="#53FFF5"/>
</linearGradient>
<linearGradient id="paint44_linear_372_1020" x1="164.676" y1="99.253" x2="51.7885" y2="50.0588" gradientUnits="userSpaceOnUse">
<stop offset="0.04" stop-color="#0098FF"/>
<stop offset="1" stop-color="#53FFF5"/>
</linearGradient>
<linearGradient id="paint45_linear_372_1020" x1="192.911" y1="34.4516" x2="80.0241" y2="-14.7424" gradientUnits="userSpaceOnUse">
<stop offset="0.04" stop-color="#0098FF"/>
<stop offset="1" stop-color="#53FFF5"/>
</linearGradient>
<linearGradient id="paint46_linear_372_1020" x1="166.616" y1="94.7887" x2="53.729" y2="45.5946" gradientUnits="userSpaceOnUse">
<stop offset="0.04" stop-color="#0098FF"/>
<stop offset="1" stop-color="#53FFF5"/>
</linearGradient>
<linearGradient id="paint47_linear_372_1020" x1="192.564" y1="35.2551" x2="79.6638" y2="-13.9388" gradientUnits="userSpaceOnUse">
<stop offset="0.04" stop-color="#0098FF"/>
<stop offset="1" stop-color="#53FFF5"/>
</linearGradient>
<linearGradient id="paint48_linear_372_1020" x1="171.232" y1="84.2281" x2="58.3316" y2="35.0345" gradientUnits="userSpaceOnUse">
<stop offset="0.04" stop-color="#0098FF"/>
<stop offset="1" stop-color="#53FFF5"/>
</linearGradient>
<linearGradient id="paint49_linear_372_1020" x1="172.48" y1="81.3443" x2="59.5933" y2="32.1502" gradientUnits="userSpaceOnUse">
<stop offset="0.04" stop-color="#0098FF"/>
<stop offset="1" stop-color="#53FFF5"/>
</linearGradient>
<linearGradient id="paint50_linear_372_1020" x1="182.848" y1="57.5581" x2="69.9471" y2="8.36417" gradientUnits="userSpaceOnUse">
<stop offset="0.04" stop-color="#0098FF"/>
<stop offset="1" stop-color="#53FFF5"/>
</linearGradient>
<linearGradient id="paint51_linear_372_1020" x1="191.816" y1="36.9892" x2="78.915" y2="-12.2047" gradientUnits="userSpaceOnUse">
<stop offset="0.04" stop-color="#0098FF"/>
<stop offset="1" stop-color="#53FFF5"/>
</linearGradient>
<linearGradient id="paint52_linear_372_1020" x1="160.947" y1="107.806" x2="48.0602" y2="58.6121" gradientUnits="userSpaceOnUse">
<stop offset="0.04" stop-color="#0098FF"/>
<stop offset="1" stop-color="#53FFF5"/>
</linearGradient>
<linearGradient id="paint53_linear_372_1020" x1="168.821" y1="89.7451" x2="55.9339" y2="40.5511" gradientUnits="userSpaceOnUse">
<stop offset="0.04" stop-color="#0098FF"/>
<stop offset="1" stop-color="#53FFF5"/>
</linearGradient>
<linearGradient id="paint54_linear_372_1020" x1="192.232" y1="36.0052" x2="79.3452" y2="-13.189" gradientUnits="userSpaceOnUse">
<stop offset="0.04" stop-color="#0098FF"/>
<stop offset="1" stop-color="#53FFF5"/>
</linearGradient>
<linearGradient id="paint55_linear_372_1020" x1="169.998" y1="87.0276" x2="57.1113" y2="37.8478" gradientUnits="userSpaceOnUse">
<stop offset="0.04" stop-color="#0098FF"/>
<stop offset="1" stop-color="#53FFF5"/>
</linearGradient>
<linearGradient id="paint56_linear_372_1020" x1="160.268" y1="109.385" x2="47.3672" y2="60.1906" gradientUnits="userSpaceOnUse">
<stop offset="0.04" stop-color="#0098FF"/>
<stop offset="1" stop-color="#53FFF5"/>
</linearGradient>
<linearGradient id="paint57_linear_372_1020" x1="160.545" y1="108.735" x2="47.6584" y2="59.5406" gradientUnits="userSpaceOnUse">
<stop offset="0.04" stop-color="#0098FF"/>
<stop offset="1" stop-color="#53FFF5"/>
</linearGradient>
<linearGradient id="paint58_linear_372_1020" x1="190.804" y1="39.2886" x2="77.917" y2="-9.90538" gradientUnits="userSpaceOnUse">
<stop offset="0.04" stop-color="#0098FF"/>
<stop offset="1" stop-color="#53FFF5"/>
</linearGradient>
<linearGradient id="paint59_linear_372_1020" x1="160.85" y1="108.04" x2="47.9495" y2="58.8462" gradientUnits="userSpaceOnUse">
<stop offset="0.04" stop-color="#0098FF"/>
<stop offset="1" stop-color="#53FFF5"/>
</linearGradient>
<linearGradient id="paint60_linear_372_1020" x1="160.351" y1="109.178" x2="47.4505" y2="59.9843" gradientUnits="userSpaceOnUse">
<stop offset="0.04" stop-color="#0098FF"/>
<stop offset="1" stop-color="#53FFF5"/>
</linearGradient>
<linearGradient id="paint61_linear_372_1020" x1="160.628" y1="108.553" x2="47.7273" y2="59.3729" gradientUnits="userSpaceOnUse">
<stop offset="0.04" stop-color="#0098FF"/>
<stop offset="1" stop-color="#53FFF5"/>
</linearGradient>
<linearGradient id="paint62_linear_372_1020" x1="192.621" y1="35.117" x2="79.7341" y2="-14.0767" gradientUnits="userSpaceOnUse">
<stop offset="0.04" stop-color="#0098FF"/>
<stop offset="1" stop-color="#53FFF5"/>
</linearGradient>
<linearGradient id="paint63_linear_372_1020" x1="160.281" y1="109.357" x2="47.3807" y2="60.1633" gradientUnits="userSpaceOnUse">
<stop offset="0.04" stop-color="#0098FF"/>
<stop offset="1" stop-color="#53FFF5"/>
</linearGradient>
<linearGradient id="paint64_linear_372_1020" x1="160.392" y1="109.08" x2="47.5057" y2="59.8861" gradientUnits="userSpaceOnUse">
<stop offset="0.04" stop-color="#0098FF"/>
<stop offset="1" stop-color="#53FFF5"/>
</linearGradient>
<linearGradient id="paint65_linear_372_1020" x1="162.362" y1="104.588" x2="49.461" y2="55.3946" gradientUnits="userSpaceOnUse">
<stop offset="0.04" stop-color="#0098FF"/>
<stop offset="1" stop-color="#53FFF5"/>
</linearGradient>
<linearGradient id="paint66_linear_372_1020" x1="192.315" y1="35.8251" x2="79.4288" y2="-13.3687" gradientUnits="userSpaceOnUse">
<stop offset="0.04" stop-color="#0098FF"/>
<stop offset="1" stop-color="#53FFF5"/>
</linearGradient>
<linearGradient id="paint67_linear_372_1020" x1="161.252" y1="107.113" x2="48.365" y2="57.9192" gradientUnits="userSpaceOnUse">
<stop offset="0.04" stop-color="#0098FF"/>
<stop offset="1" stop-color="#53FFF5"/>
</linearGradient>
<linearGradient id="paint68_linear_372_1020" x1="163.04" y1="103.01" x2="50.1391" y2="53.8161" gradientUnits="userSpaceOnUse">
<stop offset="0.04" stop-color="#0098FF"/>
<stop offset="1" stop-color="#53FFF5"/>
</linearGradient>
<linearGradient id="paint69_linear_372_1020" x1="191.913" y1="36.7524" x2="79.0122" y2="-12.4414" gradientUnits="userSpaceOnUse">
<stop offset="0.04" stop-color="#0098FF"/>
<stop offset="1" stop-color="#53FFF5"/>
</linearGradient>
<linearGradient id="paint70_linear_372_1020" x1="161.75" y1="105.962" x2="48.8637" y2="56.7683" gradientUnits="userSpaceOnUse">
<stop offset="0.04" stop-color="#0098FF"/>
<stop offset="1" stop-color="#53FFF5"/>
</linearGradient>
<linearGradient id="paint71_linear_372_1020" x1="191.414" y1="37.9029" x2="78.5132" y2="-11.2776" gradientUnits="userSpaceOnUse">
<stop offset="0.04" stop-color="#0098FF"/>
<stop offset="1" stop-color="#53FFF5"/>
</linearGradient>
<linearGradient id="paint72_linear_372_1020" x1="175.917" y1="73.4702" x2="63.0166" y2="24.2763" gradientUnits="userSpaceOnUse">
<stop offset="0.04" stop-color="#0098FF"/>
<stop offset="1" stop-color="#20D7CC"/>
</linearGradient>
<linearGradient id="paint73_linear_372_1020" x1="176.43" y1="72.293" x2="63.5292" y2="23.0991" gradientUnits="userSpaceOnUse">
<stop offset="0.04" stop-color="#0098FF"/>
<stop offset="1" stop-color="#53FFF5"/>
</linearGradient>
</defs>
</svg>
