<svg width="200" height="160" viewBox="0 0 200 160" fill="none" xmlns="http://www.w3.org/2000/svg">
<g id="Group 1503">
<g id="Group 1512">
<path id="path-a6-2" d="M121 150C106.13 150.045 91.6341 145.334 79.6302 136.557C67.6262 127.779 58.7426 115.394 54.2764 101.21L55.6064 100.79C60.5677 116.391 70.9446 129.703 84.8627 138.322C98.7808 146.941 115.322 150.299 131.5 147.789C147.677 145.278 162.423 137.065 173.074 124.634C183.726 112.202 189.58 96.3708 189.58 80C189.58 63.6292 183.726 47.7982 173.074 35.3664C162.423 22.9346 147.677 14.7217 131.5 12.2114C115.322 9.70101 98.7808 13.0586 84.8627 21.6777C70.9446 30.2968 60.5677 43.6091 55.6064 59.21L54.2764 58.79C58.1935 46.47 65.4458 35.4754 75.2293 27.025C85.0128 18.5746 96.9454 12.9986 109.704 10.9151C122.463 8.83161 135.549 10.322 147.513 15.2211C159.476 20.1201 169.849 28.2365 177.482 38.6704C185.115 49.1043 189.709 61.4481 190.756 74.3334C191.803 87.2187 189.26 100.142 183.411 111.671C177.562 123.2 168.635 132.884 157.619 139.649C146.603 146.415 133.928 149.997 121 150Z" fill="url(#paint0_linear_372_1593)"/>
<g id="Group 1500">
<path id="Vector_2" d="M104.998 72.902L125.746 64.418C130.31 62.542 134.86 60.666 139.438 58.818C139.966 58.5981 140.554 58.5636 141.104 58.72C152.519 63.2373 163.924 67.7827 175.32 72.356C175.446 72.356 175.572 72.496 175.838 72.65C173.864 73.476 172.016 74.26 170.154 75.016C165.87 76.752 161.572 78.46 157.302 80.21C151.996 82.38 146.718 84.578 141.412 86.706C140.81 86.9184 140.153 86.9184 139.55 86.706C134.356 84.676 129.176 82.59 123.996 80.518L105.992 73.35C105.74 73.252 105.474 73.112 104.998 72.902Z" fill="#02B6AB"/>
<path id="Vector_3" d="M140.292 101.35C136.22 101.358 132.174 100.71 128.308 99.4321C125.67 98.7458 123.3 97.2825 121.504 95.2321C120.898 94.4911 120.58 93.5566 120.608 92.6001C120.608 89.6881 120.608 86.7621 120.608 83.7661V82.4501L124.472 83.9761L128.672 85.6281C132.13 87.0281 135.588 88.4281 139.06 89.7581C139.54 89.9348 140.047 90.0249 140.558 90.0241C141.048 90.0302 141.535 89.9545 142 89.8001C145.374 88.4841 148.734 87.1121 152.094 85.7261L153.172 85.2921L159.374 82.7301L160.396 82.3101V87.1401C160.396 88.7921 160.396 90.4581 160.396 92.1101C160.421 92.957 160.238 93.7971 159.862 94.5563C159.486 95.3156 158.929 95.9708 158.24 96.4641C155.317 98.7239 151.85 100.173 148.188 100.664C145.583 101.134 142.94 101.364 140.292 101.35Z" fill="#02B6AB"/>
<path id="Vector_4" d="M172.632 96.436H167.564C167.83 95.498 168.04 94.588 168.376 93.72C169.207 91.5518 169.579 89.2351 169.468 86.916C169.37 83.864 169.468 80.812 169.468 77.76C169.468 76.864 169.748 76.458 170.714 76.458V83.948C170.728 84.2092 170.728 84.4709 170.714 84.732C170.381 88.3633 170.924 92.0216 172.296 95.4C172.422 95.694 172.492 96.016 172.632 96.436Z" fill="#02B6AB"/>
</g>
<path id="Vector_5" d="M49.6002 95.1479C49.6002 94.1259 49.6002 93.1039 49.6002 92.0819C49.622 91.9269 49.5853 91.7694 49.4973 91.64C49.4093 91.5106 49.2763 91.4186 49.1242 91.3819C48.3962 91.1439 47.7242 90.8919 46.9822 90.5979C46.8596 90.5347 46.719 90.5155 46.584 90.5435C46.4489 90.5715 46.3276 90.6451 46.2402 90.7519L44.2522 92.8799L39.8002 88.4699C40.4162 87.8539 41.1022 87.1399 41.8162 86.4679C41.9317 86.3836 42.0105 86.2583 42.0365 86.1177C42.0625 85.9772 42.0338 85.832 41.9562 85.7119C41.5922 84.9139 41.2982 84.1019 40.9482 83.3039C40.9082 83.2279 40.8503 83.1628 40.7796 83.114C40.7089 83.0652 40.6275 83.0343 40.5422 83.0239C39.7022 83.0239 38.8622 83.0239 38.0222 83.0239H37.4482V76.9479C38.4702 76.9479 39.4502 76.9479 40.4442 76.9479C40.7802 76.9479 40.9062 76.8359 41.0182 76.5279C41.2982 75.7439 41.6062 74.9879 41.9562 74.2459C41.9983 74.1876 42.028 74.1214 42.0437 74.0513C42.0595 73.9812 42.0608 73.9086 42.0477 73.838C42.0347 73.7673 42.0074 73.7001 41.9676 73.6402C41.9278 73.5804 41.8763 73.5293 41.8162 73.4899C41.1162 72.8179 40.4162 72.0899 39.7862 71.4739L44.1402 67.1479C44.6162 67.6379 45.1762 68.1839 45.6942 68.7719C45.78 68.9144 45.8937 69.038 46.0284 69.1354C46.1632 69.2328 46.3163 69.3019 46.4786 69.3385C46.6408 69.3751 46.8087 69.3786 46.9723 69.3485C47.1358 69.3185 47.2916 69.2557 47.4302 69.1639C47.9494 68.9078 48.4936 68.7061 49.0542 68.5619C49.2069 68.5313 49.3417 68.4427 49.4305 68.3148C49.5193 68.1869 49.555 68.0296 49.5302 67.8759C49.5302 67.0499 49.5302 66.2239 49.5302 65.3979V64.8379H55.6062C55.6062 65.8179 55.6062 66.7699 55.6062 67.7219C55.5884 67.826 55.5918 67.9327 55.6162 68.0355C55.6406 68.1383 55.6855 68.2351 55.7483 68.3201C55.8111 68.4051 55.8904 68.4765 55.9814 68.5301C56.0725 68.5837 56.1735 68.6183 56.2782 68.6319C56.9246 68.832 57.5602 69.0656 58.1822 69.3319C58.319 69.405 58.4766 69.4295 58.6291 69.4015C58.7817 69.3736 58.9203 69.2947 59.0222 69.1779L60.9262 67.1199L65.4062 71.3199C64.6922 72.0339 64.0062 72.7199 63.3622 73.3919C63.2952 73.4355 63.2378 73.4923 63.1935 73.5588C63.1492 73.6253 63.1189 73.7001 63.1045 73.7788C63.0901 73.8574 63.0919 73.9381 63.1097 74.016C63.1275 74.0939 63.1611 74.1674 63.2082 74.2319C63.5582 74.9879 63.8662 75.7719 64.1462 76.5559C64.2302 76.8219 64.3562 76.8779 64.6082 76.8779H67.8002V82.9119C66.7782 82.9119 65.7562 82.9119 64.7482 82.9119C64.6281 82.8953 64.5061 82.9251 64.4073 82.9954C64.3084 83.0656 64.2401 83.171 64.2162 83.2899C63.9222 84.0739 63.6142 84.8579 63.2642 85.6139C63.1867 85.734 63.158 85.8792 63.184 86.0197C63.21 86.1603 63.2888 86.2856 63.4042 86.3699C64.1042 87.0419 64.8042 87.7699 65.5042 88.4839L61.1082 92.6839C61.0242 92.6839 60.9402 92.5719 60.8142 92.4459L59.1202 90.8079C59.0205 90.6797 58.8785 90.5911 58.7196 90.5578C58.5607 90.5244 58.3951 90.5486 58.2522 90.6259C57.5662 90.9199 56.8522 91.1579 56.1662 91.3959C56.0228 91.4263 55.8959 91.5092 55.8104 91.6284C55.725 91.7475 55.6871 91.8943 55.7042 92.0399C55.7042 93.0759 55.7042 94.1119 55.7042 95.1479H49.6002ZM52.6242 73.9239C51.4265 73.9267 50.2564 74.2842 49.2617 74.9514C48.2669 75.6185 47.4921 76.5654 47.035 77.6725C46.5779 78.7796 46.4591 79.9973 46.6934 81.172C46.9278 82.3466 47.5048 83.4254 48.3518 84.2724C49.1987 85.1193 50.2776 85.6964 51.4522 85.9307C52.6268 86.1651 53.8445 86.0462 54.9516 85.5891C56.0587 85.132 57.0056 84.3572 57.6728 83.3625C58.3399 82.3677 58.6975 81.1976 58.7002 79.9999C58.6892 78.3918 58.0456 76.8528 56.9085 75.7157C55.7714 74.5786 54.2323 73.9349 52.6242 73.9239Z" fill="#025FB5"/>
<g id="path-a6-1">
<path id="Vector_6" d="M9.78418 77.1999L11.1842 77.2839C11.1842 76.3599 11.3382 75.4359 11.4502 74.4839L10.0642 74.3999C9.93818 75.3239 9.85418 76.2759 9.78418 77.1999Z" fill="url(#paint1_linear_372_1593)"/>
<path id="Vector_7" d="M11.1002 80.084H9.7002C9.7002 81.036 9.7002 81.988 9.7982 82.884L11.1982 82.786C11.1282 81.932 11.1002 81.008 11.1002 80.084Z" fill="url(#paint2_linear_372_1593)"/>
<path id="Vector_8" d="M19.9195 54.4779L18.7995 53.6099C18.2115 54.3519 17.6515 55.1219 17.1055 55.9059L18.2675 56.7039C18.7995 55.9339 19.3595 55.1919 19.9195 54.4779Z" fill="url(#paint3_linear_372_1593)"/>
<path id="Vector_9" d="M23.6161 50.3758L22.6361 49.3818C21.9641 50.0398 21.2361 50.7818 20.6621 51.4258L21.6981 52.3638C22.3141 51.6778 23.0001 51.0198 23.6161 50.3758Z" fill="url(#paint4_linear_372_1593)"/>
<path id="Vector_10" d="M11.4781 85.6001L10.0781 85.7961C10.2041 86.7201 10.3581 87.6581 10.5541 88.5961L11.9541 88.3161C11.8001 87.3921 11.5901 86.4821 11.4781 85.6001Z" fill="url(#paint5_linear_372_1593)"/>
<path id="Vector_11" d="M22.748 110.8C23.434 111.458 24.148 112.102 24.876 112.718L25.772 111.64C25.072 111.052 24.372 110.422 23.728 109.792L22.748 110.8Z" fill="url(#paint6_linear_372_1593)"/>
<path id="Vector_12" d="M18.9258 106.502C19.4998 107.244 20.1298 107.902 20.7738 108.686L21.8098 107.748C21.1938 107.062 20.5918 106.348 20.0178 105.634L18.9258 106.502Z" fill="url(#paint7_linear_372_1593)"/>
<path id="Vector_13" d="M15.6924 101.812C16.1824 102.638 16.6864 103.436 17.2324 104.22L18.3804 103.422C17.8624 102.666 17.3584 101.896 16.8964 101.098L15.6924 101.812Z" fill="url(#paint8_linear_372_1593)"/>
<path id="Vector_14" d="M13.1016 96.8C13.4796 97.668 13.8856 98.536 14.3056 99.376L15.5656 98.746C15.1456 97.934 14.7536 97.094 14.3896 96.24L13.1016 96.8Z" fill="url(#paint9_linear_372_1593)"/>
<path id="Vector_15" d="M12.5836 90.99L11.1836 91.368C11.4356 92.278 11.7296 93.188 12.0376 94.084L13.3536 93.622C13.1016 92.754 12.8216 91.872 12.5836 90.99Z" fill="url(#paint10_linear_372_1593)"/>
<path id="Vector_16" d="M90.4517 60.596C90.0177 59.756 89.5557 58.916 89.0517 58.104L87.8477 58.818C88.3237 59.616 88.7717 60.414 89.2477 61.24L90.4517 60.596Z" fill="url(#paint11_linear_372_1593)"/>
<path id="Vector_17" d="M27.1162 114.412C27.8722 114.972 28.6562 115.518 29.4682 116.022L30.2242 114.846C29.4402 114.342 28.6702 113.824 27.9422 113.278L27.1162 114.412Z" fill="url(#paint12_linear_372_1593)"/>
<path id="Vector_18" d="M92.7477 93.9999C93.0697 93.0899 93.3497 92.1799 93.6017 91.1999L92.2017 90.8359C91.9637 91.7179 91.6836 92.5999 91.3896 93.4679L92.7477 93.9999Z" fill="url(#paint13_linear_372_1593)"/>
<path id="Vector_19" d="M27.816 46.806L26.99 45.686C26.22 46.26 25.464 46.848 24.75 47.464L25.66 48.528C26.36 47.926 27.088 47.352 27.816 46.806Z" fill="url(#paint14_linear_372_1593)"/>
<path id="Vector_20" d="M93.6019 77.074L95.0019 76.976C95.0019 76.024 94.8339 75.072 94.6939 74.176L93.2939 74.372C93.4339 75.226 93.5319 76.15 93.6019 77.074Z" fill="url(#paint15_linear_372_1593)"/>
<path id="Vector_21" d="M92.8458 71.6L94.2458 71.32C94.0498 70.396 93.8258 69.458 93.5738 68.52L92.1738 68.898C92.4398 69.808 92.6638 70.704 92.8458 71.6Z" fill="url(#paint16_linear_372_1593)"/>
<path id="Vector_22" d="M91.3762 66.2939L92.6922 65.8319C92.3702 64.9359 92.0342 64.0399 91.6562 63.1719L90.3682 63.7319C90.7322 64.5999 91.0682 65.4259 91.3762 66.2939Z" fill="url(#paint17_linear_372_1593)"/>
<path id="Vector_23" d="M37.4478 41.4861L36.9998 40.1841C36.1318 40.5341 35.2498 40.9121 34.3818 41.3041L34.9838 42.5781C35.7398 42.2001 36.5938 41.8221 37.4478 41.4861Z" fill="url(#paint18_linear_372_1593)"/>
<path id="Vector_24" d="M32.4501 43.824L31.7781 42.606C30.9521 43.054 30.1261 43.558 29.3281 44.006L30.0841 45.182C30.8541 44.748 31.6521 44.272 32.4501 43.824Z" fill="url(#paint19_linear_372_1593)"/>
<path id="Vector_25" d="M87.5256 55.71C86.9796 54.926 86.4056 54.156 85.8176 53.428L84.7256 54.296C85.2996 55.01 85.8456 55.696 86.3776 56.508L87.5256 55.71Z" fill="url(#paint20_linear_372_1593)"/>
<path id="Vector_26" d="M42.6982 39.848L42.3762 38.448C41.4522 38.658 40.5282 38.924 39.5762 39.204L39.9822 40.534C40.9202 40.31 41.8162 40.058 42.6982 39.848Z" fill="url(#paint21_linear_372_1593)"/>
<path id="Vector_27" d="M12.5277 69.178L11.1277 68.814C10.8757 69.724 10.6657 70.648 10.4697 71.614L11.8697 71.894C12.0751 70.97 12.2944 70.0646 12.5277 69.178Z" fill="url(#paint22_linear_372_1593)"/>
<path id="Vector_28" d="M74.6465 114.804L75.3885 115.98C76.1865 115.476 76.9845 114.93 77.7405 114.37L76.9145 113.25C76.2005 113.796 75.4025 114.314 74.6465 114.804Z" fill="url(#paint23_linear_372_1593)"/>
<path id="Vector_29" d="M72.798 42.48L72.126 43.712C72.938 44.146 73.736 44.622 74.506 45.112L75.262 43.922C74.464 43.418 73.638 42.928 72.798 42.48Z" fill="url(#paint24_linear_372_1593)"/>
<path id="Vector_30" d="M69.8164 117.464L70.4044 118.724C71.2584 118.332 72.1124 117.898 72.9384 117.436L72.2664 116.218C71.4684 116.652 70.6004 117.072 69.8164 117.464Z" fill="url(#paint25_linear_372_1593)"/>
<path id="Vector_31" d="M67.6183 40.0859L67.1143 41.4019C67.9823 41.7239 68.8363 42.0879 69.6623 42.4659L70.2503 41.1919C69.3823 40.7999 68.5003 40.4219 67.6183 40.0859Z" fill="url(#paint26_linear_372_1593)"/>
<path id="Vector_32" d="M64.6777 119.452L65.0837 120.782C65.9937 120.502 66.9037 120.18 67.7857 119.844L67.2817 118.542C66.3997 118.864 65.5457 119.2 64.6777 119.452Z" fill="url(#paint27_linear_372_1593)"/>
<path id="Vector_33" d="M77.6004 45.532L76.7744 46.666C77.5164 47.212 78.1744 47.786 78.9444 48.374L79.8404 47.296C79.1264 46.694 78.3844 46.106 77.6004 45.532Z" fill="url(#paint28_linear_372_1593)"/>
<path id="Vector_34" d="M92.8877 88.2181L94.2877 88.4981C94.4697 87.5741 94.6237 86.6221 94.7497 85.6981L93.3497 85.5161C93.2097 86.4121 92.9997 87.3221 92.8877 88.2181Z" fill="url(#paint29_linear_372_1593)"/>
<path id="Vector_35" d="M93.7002 79.8179V79.9999C93.7002 80.9239 93.7002 81.8479 93.6162 82.7999L95.0162 82.8839C95.0162 81.9459 95.1142 80.9939 95.1142 80.0839V79.9019L93.7002 79.8179Z" fill="url(#paint30_linear_372_1593)"/>
<path id="Vector_36" d="M79.0703 111.528L79.9803 112.606C80.6943 111.99 81.3803 111.346 82.0943 110.688L81.1143 109.68C80.4003 110.324 79.7703 110.94 79.0703 111.528Z" fill="url(#paint31_linear_372_1593)"/>
<path id="Vector_37" d="M81.9816 49.2L81.0156 50.208C81.6736 50.838 82.3176 51.496 82.9336 52.182L83.9696 51.23C83.3256 50.6 82.6676 49.872 81.9816 49.2Z" fill="url(#paint32_linear_372_1593)"/>
<path id="Vector_38" d="M31.918 117.478C32.758 117.94 33.612 118.374 34.466 118.766L35.054 117.492C34.228 117.114 33.402 116.694 32.59 116.246L31.918 117.478Z" fill="url(#paint33_linear_372_1593)"/>
<path id="Vector_39" d="M83.0322 107.692L84.0822 108.63C84.7122 107.93 85.3282 107.23 85.9162 106.46L84.8242 105.592C84.2502 106.306 83.6482 107.02 83.0322 107.692Z" fill="url(#paint34_linear_372_1593)"/>
<path id="Vector_40" d="M48.2002 122.49C49.1382 122.588 50.1042 122.644 51.0002 122.672V121.272C50.0762 121.272 49.1522 121.188 48.2002 121.104V122.49Z" fill="url(#paint35_linear_372_1593)"/>
<path id="Vector_41" d="M62.1996 38.4199L61.8916 39.8199C62.7736 40.0299 63.6696 40.2819 64.5516 40.5479L64.9576 39.1479C64.0056 38.8819 63.0816 38.6299 62.1996 38.4199Z" fill="url(#paint36_linear_372_1593)"/>
<path id="Vector_42" d="M45.1621 37.916L45.4001 39.316C46.2961 39.162 47.2201 39.036 48.1301 38.952L47.9901 37.552C47.0521 37.622 46.1001 37.748 45.1621 37.916Z" fill="url(#paint37_linear_372_1593)"/>
<path id="Vector_43" d="M37.0977 119.872C37.9797 120.222 38.8897 120.53 39.7997 120.81L40.2057 119.41C39.3377 119.144 38.4557 118.836 37.6017 118.514L37.0977 119.872Z" fill="url(#paint38_linear_372_1593)"/>
<path id="Vector_44" d="M42.5996 121.566C43.5236 121.776 44.4616 121.972 45.3996 122.126L45.6376 120.726C44.7276 120.572 43.8176 120.39 42.9216 120.18L42.5996 121.566Z" fill="url(#paint39_linear_372_1593)"/>
<path id="Vector_45" d="M59.3164 120.726L59.5404 122.126C60.4784 121.958 61.4164 121.776 62.3404 121.552L62.0184 120.152C61.1224 120.39 60.2124 120.6 59.3164 120.726Z" fill="url(#paint40_linear_372_1593)"/>
<path id="Vector_46" d="M50.832 37.3281V38.7281H52.232C52.666 38.7281 53.1 38.7281 53.534 38.7281V37.3281H52.4H50.832Z" fill="url(#paint41_linear_372_1593)"/>
<path id="Vector_47" d="M56.5996 37.4961L56.4736 38.8961C57.3976 38.9801 58.3076 39.1061 59.2736 39.2461L59.4976 37.8461C58.4336 37.7061 57.4816 37.5941 56.5996 37.4961Z" fill="url(#paint42_linear_372_1593)"/>
<path id="Vector_48" d="M53.7998 121.272V122.672C54.7518 122.672 55.7038 122.574 56.5998 122.49L56.4598 121.09C55.6618 121.188 54.7378 121.244 53.7998 121.272Z" fill="url(#paint43_linear_372_1593)"/>
<path id="Vector_49" d="M13.9 67.4001C16.6062 67.4001 18.8 65.2063 18.8 62.5001C18.8 59.7939 16.6062 57.6001 13.9 57.6001C11.1938 57.6001 9 59.7939 9 62.5001C9 65.2063 11.1938 67.4001 13.9 67.4001Z" fill="url(#paint44_linear_372_1593)"/>
<path id="Vector_50" d="M89.4996 105.2C92.2058 105.2 94.3996 103.006 94.3996 100.3C94.3996 97.5937 92.2058 95.3999 89.4996 95.3999C86.7934 95.3999 84.5996 97.5937 84.5996 100.3C84.5996 103.006 86.7934 105.2 89.4996 105.2Z" fill="url(#paint45_linear_372_1593)"/>
</g>
</g>
</g>
<defs>
<linearGradient id="paint0_linear_372_1593" x1="54.2764" y1="80" x2="191" y2="80" gradientUnits="userSpaceOnUse">
<stop offset="0.04" stop-color="#0098FF"/>
<stop offset="1" stop-color="#20D7CC"/>
</linearGradient>
<linearGradient id="paint1_linear_372_1593" x1="82.8782" y1="112.55" x2="6.74616" y2="73.9379" gradientUnits="userSpaceOnUse">
<stop offset="0.04" stop-color="#0098FF"/>
<stop offset="1" stop-color="#53FFF5"/>
</linearGradient>
<linearGradient id="paint2_linear_372_1593" x1="80.5822" y1="117.072" x2="4.4502" y2="78.474" gradientUnits="userSpaceOnUse">
<stop offset="0.04" stop-color="#0098FF"/>
<stop offset="1" stop-color="#53FFF5"/>
</linearGradient>
<linearGradient id="paint3_linear_372_1593" x1="92.8735" y1="92.8379" x2="16.7275" y2="54.2259" gradientUnits="userSpaceOnUse">
<stop offset="0.04" stop-color="#0098FF"/>
<stop offset="1" stop-color="#53FFF5"/>
</linearGradient>
<linearGradient id="paint4_linear_372_1593" x1="95.3381" y1="87.9659" x2="19.2061" y2="49.3679" gradientUnits="userSpaceOnUse">
<stop offset="0.04" stop-color="#0098FF"/>
<stop offset="1" stop-color="#53FFF5"/>
</linearGradient>
<linearGradient id="paint5_linear_372_1593" x1="78.4541" y1="121.272" x2="2.30813" y2="82.6741" gradientUnits="userSpaceOnUse">
<stop offset="0.04" stop-color="#0098FF"/>
<stop offset="1" stop-color="#53FFF5"/>
</linearGradient>
<linearGradient id="paint6_linear_372_1593" x1="71.454" y1="135.09" x2="-4.69201" y2="96.4781" gradientUnits="userSpaceOnUse">
<stop offset="0.04" stop-color="#0098FF"/>
<stop offset="1" stop-color="#53FFF5"/>
</linearGradient>
<linearGradient id="paint7_linear_372_1593" x1="72.2658" y1="133.466" x2="-3.86622" y2="94.8541" gradientUnits="userSpaceOnUse">
<stop offset="0.04" stop-color="#0098FF"/>
<stop offset="1" stop-color="#53FFF5"/>
</linearGradient>
<linearGradient id="paint8_linear_372_1593" x1="73.4004" y1="131.226" x2="-2.73167" y2="92.6282" gradientUnits="userSpaceOnUse">
<stop offset="0.04" stop-color="#0098FF"/>
<stop offset="1" stop-color="#53FFF5"/>
</linearGradient>
<linearGradient id="paint9_linear_372_1593" x1="74.8276" y1="128.426" x2="-1.30446" y2="89.814" gradientUnits="userSpaceOnUse">
<stop offset="0.04" stop-color="#0098FF"/>
<stop offset="1" stop-color="#53FFF5"/>
</linearGradient>
<linearGradient id="paint10_linear_372_1593" x1="76.5216" y1="125.08" x2="0.375551" y2="86.4821" gradientUnits="userSpaceOnUse">
<stop offset="0.04" stop-color="#0098FF"/>
<stop offset="1" stop-color="#53FFF5"/>
</linearGradient>
<linearGradient id="paint11_linear_372_1593" x1="105.488" y1="67.96" x2="29.3417" y2="29.362" gradientUnits="userSpaceOnUse">
<stop offset="0.04" stop-color="#0098FF"/>
<stop offset="1" stop-color="#53FFF5"/>
</linearGradient>
<linearGradient id="paint12_linear_372_1593" x1="70.9502" y1="136.07" x2="-5.1819" y2="97.472" gradientUnits="userSpaceOnUse">
<stop offset="0.04" stop-color="#0098FF"/>
<stop offset="1" stop-color="#53FFF5"/>
</linearGradient>
<linearGradient id="paint13_linear_372_1593" x1="92.9716" y1="92.6419" x2="16.8396" y2="54.0298" gradientUnits="userSpaceOnUse">
<stop offset="0.04" stop-color="#0098FF"/>
<stop offset="1" stop-color="#53FFF5"/>
</linearGradient>
<linearGradient id="paint14_linear_372_1593" x1="97.704" y1="83.3041" x2="21.572" y2="44.6921" gradientUnits="userSpaceOnUse">
<stop offset="0.04" stop-color="#0098FF"/>
<stop offset="1" stop-color="#53FFF5"/>
</linearGradient>
<linearGradient id="paint15_linear_372_1593" x1="100.084" y1="78.614" x2="23.9519" y2="40.002" gradientUnits="userSpaceOnUse">
<stop offset="0.04" stop-color="#0098FF"/>
<stop offset="1" stop-color="#53FFF5"/>
</linearGradient>
<linearGradient id="paint16_linear_372_1593" x1="102.114" y1="74.596" x2="25.9818" y2="35.998" gradientUnits="userSpaceOnUse">
<stop offset="0.04" stop-color="#0098FF"/>
<stop offset="1" stop-color="#53FFF5"/>
</linearGradient>
<linearGradient id="paint17_linear_372_1593" x1="103.934" y1="71.0259" x2="27.7882" y2="32.4279" gradientUnits="userSpaceOnUse">
<stop offset="0.04" stop-color="#0098FF"/>
<stop offset="1" stop-color="#53FFF5"/>
</linearGradient>
<linearGradient id="paint18_linear_372_1593" x1="101.974" y1="74.8761" x2="25.8418" y2="36.2641" gradientUnits="userSpaceOnUse">
<stop offset="0.04" stop-color="#0098FF"/>
<stop offset="1" stop-color="#53FFF5"/>
</linearGradient>
<linearGradient id="paint19_linear_372_1593" x1="99.9301" y1="78.9079" x2="23.7981" y2="40.3099" gradientUnits="userSpaceOnUse">
<stop offset="0.04" stop-color="#0098FF"/>
<stop offset="1" stop-color="#53FFF5"/>
</linearGradient>
<linearGradient id="paint20_linear_372_1593" x1="106.762" y1="65.44" x2="30.6296" y2="26.842" gradientUnits="userSpaceOnUse">
<stop offset="0.04" stop-color="#0098FF"/>
<stop offset="1" stop-color="#53FFF5"/>
</linearGradient>
<linearGradient id="paint21_linear_372_1593" x1="103.808" y1="71.264" x2="27.6762" y2="32.666" gradientUnits="userSpaceOnUse">
<stop offset="0.04" stop-color="#0098FF"/>
<stop offset="1" stop-color="#53FFF5"/>
</linearGradient>
<linearGradient id="paint22_linear_372_1593" x1="85.2857" y1="107.776" x2="9.15371" y2="69.178" gradientUnits="userSpaceOnUse">
<stop offset="0.04" stop-color="#0098FF"/>
<stop offset="1" stop-color="#53FFF5"/>
</linearGradient>
<linearGradient id="paint23_linear_372_1593" x1="80.6665" y1="116.904" x2="4.53455" y2="78.306" gradientUnits="userSpaceOnUse">
<stop offset="0.04" stop-color="#0098FF"/>
<stop offset="1" stop-color="#53FFF5"/>
</linearGradient>
<linearGradient id="paint24_linear_372_1593" x1="108.722" y1="61.576" x2="32.59" y2="22.9639" gradientUnits="userSpaceOnUse">
<stop offset="0.04" stop-color="#0098FF"/>
<stop offset="1" stop-color="#53FFF5"/>
</linearGradient>
<linearGradient id="paint25_linear_372_1593" x1="78.5244" y1="121.118" x2="2.3924" y2="82.52" gradientUnits="userSpaceOnUse">
<stop offset="0.04" stop-color="#0098FF"/>
<stop offset="1" stop-color="#53FFF5"/>
</linearGradient>
<linearGradient id="paint26_linear_372_1593" x1="108.708" y1="61.5899" x2="32.5762" y2="22.9919" gradientUnits="userSpaceOnUse">
<stop offset="0.04" stop-color="#0098FF"/>
<stop offset="1" stop-color="#53FFF5"/>
</linearGradient>
<linearGradient id="paint27_linear_372_1593" x1="76.5917" y1="124.94" x2="0.459746" y2="86.3279" gradientUnits="userSpaceOnUse">
<stop offset="0.04" stop-color="#0098FF"/>
<stop offset="1" stop-color="#53FFF5"/>
</linearGradient>
<linearGradient id="paint28_linear_372_1593" x1="108.4" y1="62.22" x2="32.2544" y2="23.622" gradientUnits="userSpaceOnUse">
<stop offset="0.04" stop-color="#0098FF"/>
<stop offset="1" stop-color="#53FFF5"/>
</linearGradient>
<linearGradient id="paint29_linear_372_1593" x1="95.4357" y1="87.7841" x2="19.3036" y2="49.172" gradientUnits="userSpaceOnUse">
<stop offset="0.04" stop-color="#0098FF"/>
<stop offset="1" stop-color="#53FFF5"/>
</linearGradient>
<linearGradient id="paint30_linear_372_1593" x1="97.8302" y1="83.0519" x2="21.6982" y2="44.4539" gradientUnits="userSpaceOnUse">
<stop offset="0.04" stop-color="#0098FF"/>
<stop offset="1" stop-color="#53FFF5"/>
</linearGradient>
<linearGradient id="paint31_linear_372_1593" x1="82.9623" y1="112.368" x2="6.83026" y2="73.756" gradientUnits="userSpaceOnUse">
<stop offset="0.04" stop-color="#0098FF"/>
<stop offset="1" stop-color="#53FFF5"/>
</linearGradient>
<linearGradient id="paint32_linear_372_1593" x1="107.742" y1="63.5219" x2="31.5956" y2="24.9099" gradientUnits="userSpaceOnUse">
<stop offset="0.04" stop-color="#0098FF"/>
<stop offset="1" stop-color="#53FFF5"/>
</linearGradient>
<linearGradient id="paint33_linear_372_1593" x1="70.782" y1="136.406" x2="-5.35009" y2="97.7942" gradientUnits="userSpaceOnUse">
<stop offset="0.04" stop-color="#0098FF"/>
<stop offset="1" stop-color="#53FFF5"/>
</linearGradient>
<linearGradient id="paint34_linear_372_1593" x1="85.3842" y1="107.594" x2="9.2523" y2="68.9821" gradientUnits="userSpaceOnUse">
<stop offset="0.04" stop-color="#0098FF"/>
<stop offset="1" stop-color="#53FFF5"/>
</linearGradient>
<linearGradient id="paint35_linear_372_1593" x1="72.3082" y1="133.396" x2="-3.82388" y2="94.7841" gradientUnits="userSpaceOnUse">
<stop offset="0.04" stop-color="#0098FF"/>
<stop offset="1" stop-color="#53FFF5"/>
</linearGradient>
<linearGradient id="paint36_linear_372_1593" x1="108.358" y1="62.2759" x2="32.2256" y2="23.6779" gradientUnits="userSpaceOnUse">
<stop offset="0.04" stop-color="#0098FF"/>
<stop offset="1" stop-color="#53FFF5"/>
</linearGradient>
<linearGradient id="paint37_linear_372_1593" x1="105.376" y1="68.156" x2="29.2441" y2="29.558" gradientUnits="userSpaceOnUse">
<stop offset="0.04" stop-color="#0098FF"/>
<stop offset="1" stop-color="#53FFF5"/>
</linearGradient>
<linearGradient id="paint38_linear_372_1593" x1="70.9637" y1="136.056" x2="-5.18233" y2="97.4441" gradientUnits="userSpaceOnUse">
<stop offset="0.04" stop-color="#0098FF"/>
<stop offset="1" stop-color="#53FFF5"/>
</linearGradient>
<linearGradient id="paint39_linear_372_1593" x1="71.4676" y1="135.048" x2="-4.66438" y2="96.4359" gradientUnits="userSpaceOnUse">
<stop offset="0.04" stop-color="#0098FF"/>
<stop offset="1" stop-color="#53FFF5"/>
</linearGradient>
<linearGradient id="paint40_linear_372_1593" x1="74.8844" y1="128.3" x2="-1.2475" y2="89.6878" gradientUnits="userSpaceOnUse">
<stop offset="0.04" stop-color="#0098FF"/>
<stop offset="1" stop-color="#53FFF5"/>
</linearGradient>
<linearGradient id="paint41_linear_372_1593" x1="106.678" y1="65.5941" x2="30.546" y2="26.9961" gradientUnits="userSpaceOnUse">
<stop offset="0.04" stop-color="#0098FF"/>
<stop offset="1" stop-color="#53FFF5"/>
</linearGradient>
<linearGradient id="paint42_linear_372_1593" x1="107.686" y1="63.6341" x2="31.5396" y2="25.0221" gradientUnits="userSpaceOnUse">
<stop offset="0.04" stop-color="#0098FF"/>
<stop offset="1" stop-color="#53FFF5"/>
</linearGradient>
<linearGradient id="paint43_linear_372_1593" x1="73.4558" y1="131.128" x2="-2.67633" y2="92.516" gradientUnits="userSpaceOnUse">
<stop offset="0.04" stop-color="#0098FF"/>
<stop offset="1" stop-color="#53FFF5"/>
</linearGradient>
<linearGradient id="paint44_linear_372_1593" x1="88.954" y1="100.552" x2="12.822" y2="61.9541" gradientUnits="userSpaceOnUse">
<stop offset="0.04" stop-color="#0098FF"/>
<stop offset="1" stop-color="#20D7CC"/>
</linearGradient>
<linearGradient id="paint45_linear_372_1593" x1="89.1636" y1="100.132" x2="13.0316" y2="61.5339" gradientUnits="userSpaceOnUse">
<stop offset="0.04" stop-color="#0098FF"/>
<stop offset="1" stop-color="#53FFF5"/>
</linearGradient>
</defs>
</svg>
