<svg width="160" height="160" viewBox="0 0 160 160" fill="none" xmlns="http://www.w3.org/2000/svg">
<g id="Group 1508">
<g id="Group 1513">
<g id="path-a7-1">
<path id="Vector" d="M60.748 105.634L63.198 107.034L63.87 105.802L61.448 104.402L60.748 105.634Z" fill="#53FFF5"/>
<path id="Vector_2" d="M25.7619 38.9102C24.8584 39.2571 23.9791 39.664 23.1299 40.1282L23.8159 41.3462C24.5921 40.9144 25.3966 40.5355 26.2239 40.2122L25.7619 38.9102Z" fill="#53FFF5"/>
<path id="Vector_3" d="M33.6299 85.6001C34.3019 86.2441 35.0299 86.8881 35.7019 87.5181L36.6399 86.4961L34.6239 84.6201L33.6299 85.6001Z" fill="#53FFF5"/>
<path id="Vector_4" d="M55.918 102.736C56.716 103.24 57.514 103.73 58.326 104.206L59.04 103.002L56.66 101.602L55.918 102.736Z" fill="#53FFF5"/>
<path id="Vector_5" d="M18.3144 62.458L17.0264 62.962C17.3624 63.816 17.7404 64.698 18.1744 65.58L19.4344 64.964C19.0144 64.124 18.6504 63.27 18.3144 62.458Z" fill="#53FFF5"/>
<path id="Vector_6" d="M20.7082 67.3999L19.4902 68.0859C19.9382 68.8839 20.4282 69.6959 20.8902 70.5079L22.0802 69.7659C21.6182 68.9819 21.1562 68.1979 20.7082 67.3999Z" fill="#53FFF5"/>
<path id="Vector_7" d="M23.6626 72.0762L22.5146 72.8882C23.0466 73.6442 23.6066 74.4002 24.1946 75.1702L25.3006 74.3162C24.7266 73.5742 24.1806 72.8182 23.6626 72.0762Z" fill="#53FFF5"/>
<path id="Vector_8" d="M29.668 81.624L31.628 83.654L32.622 82.66C31.964 82.002 31.32 81.33 30.69 80.658L29.668 81.624Z" fill="#53FFF5"/>
<path id="Vector_9" d="M46.6084 96.4499L48.8904 98.0879L49.6884 96.9399L47.4344 95.3159L46.6084 96.4499Z" fill="#53FFF5"/>
<path id="Vector_10" d="M51.2002 99.684C51.9842 100.202 52.7542 100.72 53.5522 101.224L54.3082 100.062L51.9842 98.522L51.2002 99.684Z" fill="#53FFF5"/>
<path id="Vector_11" d="M34.2461 38.3781C35.1421 38.2801 36.0521 38.2101 37.0461 38.1681V36.7681C36.0661 36.7681 35.1281 36.8801 34.2461 36.9781V38.3781Z" fill="#53FFF5"/>
<path id="Vector_12" d="M42.1279 93.034L44.4239 94.756L45.2639 93.65L43.0239 91.928L42.1279 93.034Z" fill="#53FFF5"/>
<path id="Vector_13" d="M17.334 59.5742C17.1058 58.8006 16.9189 58.0155 16.774 57.2222L15.374 57.4742C15.5299 58.3104 15.7308 59.1376 15.976 59.9522L16.06 60.2742L17.46 59.8682L17.334 59.5742Z" fill="#53FFF5"/>
<path id="Vector_14" d="M37.8018 89.4221C38.5018 90.0381 39.2018 90.6401 39.9438 91.2561L40.8398 90.1781C40.1118 89.5761 39.4398 88.9741 38.7118 88.3721L37.8018 89.4221Z" fill="#53FFF5"/>
<path id="Vector_15" d="M27.0223 76.4858L25.9443 77.3818C26.5323 78.0958 27.1483 78.7818 27.7783 79.5238L28.8283 78.5998C28.2123 77.8998 27.6243 77.1998 27.0223 76.4858Z" fill="#53FFF5"/>
<path id="Vector_16" d="M132.624 88.148L133.772 87.336C133.24 86.58 132.694 85.824 132.106 85.054L130.986 85.908C131.546 86.65 132.092 87.406 132.624 88.148Z" fill="#53FFF5"/>
<path id="Vector_17" d="M126.618 78.6002C125.988 77.9142 125.33 77.2002 124.672 76.5562L123.664 77.5502C124.336 78.2082 124.966 78.9502 125.596 79.5522L126.618 78.6002Z" fill="#53FFF5"/>
<path id="Vector_18" d="M122.656 74.5819L120.598 72.6499L119.66 73.6859L121.69 75.5899L122.656 74.5819Z" fill="#53FFF5"/>
<path id="Vector_19" d="M118.498 70.7741C117.798 70.1721 117.098 69.5561 116.356 68.9541L115.46 70.0321C116.188 70.6341 116.86 71.2361 117.588 71.8381L118.498 70.7741Z" fill="#53FFF5"/>
<path id="Vector_20" d="M137.93 97.78L139.232 97.276C138.896 96.422 138.518 95.54 138.098 94.658L136.838 95.274C137.244 96.114 137.608 96.968 137.93 97.78Z" fill="#53FFF5"/>
<path id="Vector_21" d="M135.564 92.8241L136.782 92.1381C136.334 91.3261 135.844 90.5141 135.382 89.7021L134.206 90.4441C134.64 91.2001 135.116 92.0401 135.564 92.8241Z" fill="#53FFF5"/>
<path id="Vector_22" d="M42.6037 36.7959L39.8037 36.7119V38.1119L42.6037 38.1959V36.7959Z" fill="#53FFF5"/>
<path id="Vector_23" d="M114.172 67.1759C113.444 66.5879 112.772 66.0139 111.96 65.4399L111.106 66.5599C111.848 67.1199 112.59 67.6939 113.304 68.2679L114.172 67.1759Z" fill="#53FFF5"/>
<path id="Vector_24" d="M21.5621 42.8161L20.7081 41.7241C19.9332 42.3181 19.2202 42.9889 18.5801 43.7261L19.6301 44.6501C20.215 43.9794 20.8619 43.3654 21.5621 42.8161V42.8161Z" fill="#53FFF5"/>
<path id="Vector_25" d="M18.1046 46.8059L16.8446 46.1899C16.3776 47.0293 16.0021 47.9164 15.7246 48.8359L17.1246 49.2419C17.372 48.4003 17.7002 47.5845 18.1046 46.8059V46.8059Z" fill="#53FFF5"/>
<path id="Vector_26" d="M31.2785 37.384C30.3125 37.566 29.3745 37.776 28.4785 38.014L28.8425 39.414C29.6825 39.19 30.5925 38.98 31.5165 38.812L31.2785 37.384Z" fill="#53FFF5"/>
<path id="Vector_27" d="M16.5222 51.8601L15.1222 51.7061C15.0046 52.6673 14.9718 53.637 15.0242 54.6041L16.4242 54.5341C16.3792 53.6416 16.412 52.7469 16.5222 51.8601V51.8601Z" fill="#53FFF5"/>
<path id="Vector_28" d="M90.6243 51.832C89.7843 51.384 88.9583 50.95 88.1183 50.53L87.4883 51.776L89.9523 53.064L90.6243 51.832Z" fill="#53FFF5"/>
<path id="Vector_29" d="M109.706 63.7599L107.424 62.1079L106.612 63.2559C107.382 63.8019 108.138 64.3339 108.88 64.8799L109.706 63.7599Z" fill="#53FFF5"/>
<path id="Vector_30" d="M97.9884 55.9761L97.2744 57.1801C98.0724 57.6561 98.8564 58.1461 99.6404 58.5801L100.382 57.3901L97.9884 55.9761Z" fill="#53FFF5"/>
<path id="Vector_31" d="M113.5 123.316C114.452 123.316 115.404 123.4 116.3 123.414V122C115.39 122 114.466 122 113.5 121.902V123.316Z" fill="#53FFF5"/>
<path id="Vector_32" d="M119.156 123.4C120.136 123.4 121.074 123.288 121.956 123.204L121.802 121.804C120.92 121.902 119.996 121.972 119.002 122L119.156 123.4Z" fill="#53FFF5"/>
<path id="Vector_33" d="M101.992 60.134C102.776 60.638 103.56 61.156 104.316 61.674L105.1 60.512L102.762 59L101.992 60.134Z" fill="#53FFF5"/>
<path id="Vector_34" d="M95.5663 54.5479C94.7543 54.0859 93.9423 53.6239 93.1163 53.1479L92.4443 54.366L94.8663 55.7659L95.5663 54.5479Z" fill="#53FFF5"/>
<path id="Vector_35" d="M82.5039 49.3399C83.3439 49.7179 84.1839 50.1239 85.0239 50.5299L85.6259 49.2699L83.0919 48.0659L82.5039 49.3399Z" fill="#53FFF5"/>
<path id="Vector_36" d="M107.872 122.784C108.81 122.91 109.748 123.022 110.672 123.106L110.812 121.706C109.902 121.608 108.978 121.51 108.012 121.384L107.872 122.784Z" fill="#53FFF5"/>
<path id="Vector_37" d="M128.508 80.686L127.458 81.61C128.088 82.324 128.676 83.01 129.264 83.724L130.342 82.842C129.824 82.128 129.138 81.4 128.508 80.686Z" fill="#53FFF5"/>
<path id="Vector_38" d="M139.624 108.392L141.024 108.546C141.135 107.584 141.168 106.615 141.122 105.648H139.722C139.763 106.564 139.73 107.481 139.624 108.392V108.392Z" fill="#53FFF5"/>
<path id="Vector_39" d="M138.141 113.264L138.057 113.418L139.275 114.104L139.359 113.95C139.805 113.143 140.171 112.295 140.451 111.416L139.051 110.982C138.822 111.77 138.517 112.534 138.141 113.264V113.264Z" fill="#53FFF5"/>
<path id="Vector_40" d="M140.171 99.978L138.771 100.37V100.552C139.004 101.363 139.195 102.185 139.345 103.016L140.745 102.764C140.591 101.924 140.381 101.042 140.129 100.16L140.171 99.978Z" fill="#53FFF5"/>
<path id="Vector_41" d="M124.812 122.77C125.778 122.588 126.716 122.392 127.612 122.154L127.248 120.754C126.394 120.978 125.498 121.174 124.574 121.342L124.812 122.77Z" fill="#53FFF5"/>
<path id="Vector_42" d="M102.3 121.874L105.1 122.378L105.324 120.978L102.524 120.488L102.3 121.874Z" fill="#53FFF5"/>
<path id="Vector_43" d="M136.502 115.56C136.006 116.119 135.463 116.634 134.878 117.1C134.165 116.359 133.205 115.906 132.18 115.826C131.154 115.747 130.136 116.045 129.316 116.667C128.497 117.288 127.934 118.188 127.734 119.197C127.534 120.205 127.711 121.252 128.231 122.139C128.751 123.026 129.579 123.691 130.557 124.009C131.535 124.326 132.596 124.274 133.538 123.861C134.48 123.449 135.238 122.705 135.668 121.771C136.098 120.837 136.171 119.778 135.872 118.794C135.872 118.612 135.732 118.444 135.662 118.276C136.338 117.734 136.97 117.14 137.552 116.498L136.502 115.56Z" fill="#02B6AB"/>
<path id="Vector_44" d="M70.4639 110.8L73.0119 112.018L73.5999 110.744C72.7599 110.352 71.9199 109.96 71.0799 109.54L70.4639 110.8Z" fill="#53FFF5"/>
<path id="Vector_45" d="M75.5742 113.18L78.1502 114.3L78.6962 113.012L76.1342 111.906L75.5742 113.18Z" fill="#53FFF5"/>
<path id="Vector_46" d="M50.7939 39.1201C51.6899 39.2601 52.5999 39.4281 53.5239 39.6101L53.8039 38.2101L51.0039 37.7061L50.7939 39.1201Z" fill="#53FFF5"/>
<path id="Vector_47" d="M56.5619 38.812L56.2539 40.212C57.1499 40.408 58.0459 40.618 58.9559 40.856L59.3059 39.456C58.4239 39.232 57.4579 39.022 56.5619 38.812Z" fill="#53FFF5"/>
<path id="Vector_48" d="M65.4238 108.238C66.2498 108.686 67.0758 109.12 67.9158 109.54L68.5458 108.294C67.7198 107.874 66.9078 107.454 66.0818 107.006L65.4238 108.238Z" fill="#53FFF5"/>
<path id="Vector_49" d="M45.292 38.4059C46.188 38.4899 47.112 38.5879 48.092 38.7139L48.274 37.3139C47.322 37.1879 46.384 37.0759 45.474 36.9919L45.292 38.4059Z" fill="#53FFF5"/>
<path id="Vector_50" d="M80.8242 115.364L83.4422 116.386L83.9462 115.07C83.0782 114.743 82.2102 114.407 81.3422 114.062L80.8242 115.364Z" fill="#53FFF5"/>
<path id="Vector_51" d="M91.3662 119.116L94.0682 119.9L94.4462 118.5C93.5642 118.248 92.6822 117.996 91.7862 117.716L91.3662 119.116Z" fill="#53FFF5"/>
<path id="Vector_52" d="M72.7185 43.698L72.2285 45.014C73.0965 45.3313 73.9645 45.6673 74.8325 46.022L75.3505 44.72L72.7185 43.698Z" fill="#53FFF5"/>
<path id="Vector_53" d="M62.0225 40.198L61.6445 41.598C62.5265 41.85 63.4225 42.102 64.3185 42.382L64.7245 40.982C63.8145 40.702 62.9185 40.436 62.0225 40.198Z" fill="#53FFF5"/>
<path id="Vector_54" d="M77.4082 47.0722L79.9702 48.1782L80.5302 46.9042C79.6622 46.5122 78.8082 46.1482 77.9542 45.7842L77.4082 47.0722Z" fill="#53FFF5"/>
<path id="Vector_55" d="M96.7979 120.6C97.7219 120.838 98.6319 121.048 99.5979 121.258L99.9059 119.858C99.0099 119.648 98.0998 119.438 97.1898 119.2L96.7979 120.6Z" fill="#53FFF5"/>
<path id="Vector_56" d="M86.0186 117.352L88.6926 118.262L89.1266 116.862C88.2586 116.568 87.3766 116.274 86.4946 115.952L86.0186 117.352Z" fill="#53FFF5"/>
<path id="Vector_57" d="M67.4125 41.8359L66.9785 43.2359C67.8465 43.5159 68.7285 43.8239 69.6105 44.1319L70.0725 42.8019C69.1905 42.4239 68.2945 42.1159 67.4125 41.8359Z" fill="#53FFF5"/>
</g>
<path id="path-a7-2" d="M78.5559 150C61.5739 150 47.7559 118.598 47.7559 80C47.7559 41.402 61.5739 10 78.5559 10C95.5379 10 109.356 41.402 109.356 80C109.356 118.598 95.5379 150 78.5559 150ZM78.5559 11.4C62.3439 11.4 49.1559 42.2 49.1559 80C49.1559 117.8 62.3439 148.6 78.5559 148.6C94.7679 148.6 107.956 117.8 107.956 80C107.956 42.2 94.8239 11.4 78.5559 11.4Z" fill="url(#paint0_linear_372_1730)"/>
<g id="Group 1504">
<path id="Vector_59" d="M58.9561 79.118C58.9561 78.726 59.0261 78.32 59.0681 77.928C59.3792 75.0409 60.3362 72.2608 61.8681 69.794C62.772 68.3361 63.8588 66.9999 65.1021 65.818L65.2841 65.65L65.5921 66.294C65.8161 66.728 66.0261 67.176 66.2501 67.61C66.2866 67.653 66.3066 67.7076 66.3066 67.764C66.3066 67.8204 66.2866 67.875 66.2501 67.918C64.6466 69.5168 63.3803 71.421 62.5261 73.518C61.456 75.9999 61.009 78.7058 61.2241 81.4C61.4135 83.9828 62.1922 86.4879 63.5002 88.723C64.8083 90.9581 66.611 92.8638 68.7701 94.294C70.8481 95.7696 73.2476 96.7294 75.7701 97.094C78.6734 97.5966 81.6575 97.3371 84.4306 96.3408C87.2036 95.3445 89.6705 93.6455 91.5901 91.41C93.7768 89.0091 95.1998 86.012 95.6781 82.8C96.2708 79.1059 95.6464 75.3192 93.8989 72.011C92.1513 68.7029 89.3755 66.0526 85.9901 64.46C83.0465 63.0636 79.7705 62.5202 76.5338 62.8914C73.297 63.2626 70.2291 64.5335 67.6781 66.56L67.5381 66.672L65.5361 65.272C66.2781 64.712 66.9361 64.166 67.7061 63.662C69.7648 62.2482 72.089 61.2671 74.5381 60.778C75.4901 60.582 76.4701 60.512 77.4361 60.386H77.6741H79.4241H79.6761C81.279 60.4655 82.8649 60.7526 84.3941 61.24C88.6013 62.5579 92.2414 65.2559 94.7261 68.898C96.5663 71.5578 97.703 74.6402 98.0301 77.858C98.0301 78.25 98.1001 78.656 98.1421 79.062V80.826C98.1352 80.9098 98.1352 80.9941 98.1421 81.078C98.0516 82.8551 97.7026 84.6095 97.1061 86.286C95.6553 90.5715 92.7536 94.216 88.9021 96.59C86.404 98.1423 83.5828 99.1003 80.6561 99.39L79.4241 99.6H77.6741H77.4221C75.5073 99.4985 73.6191 99.1067 71.8221 98.438C67.9783 97.0336 64.676 94.4516 62.3861 91.06C60.5541 88.4075 59.4224 85.335 59.0961 82.128C59.0961 81.722 59.0261 81.33 58.9841 80.924L58.9561 79.118Z" fill="#02B6AB"/>
<path id="Vector_60" d="M67.8604 68.282L69.6663 69.486L79.4663 76.052C79.5566 76.117 79.6556 76.1688 79.7604 76.206C80.43 76.4684 81.021 76.8983 81.4769 77.4546C81.9327 78.0109 82.238 78.675 82.3636 79.3831C82.4892 80.0913 82.4308 80.8198 82.1941 81.499C81.9574 82.1781 81.5502 82.7851 81.0116 83.2617C80.4731 83.7384 79.8211 84.0687 79.1182 84.2211C78.4153 84.3735 77.6851 84.3429 76.9975 84.1322C76.3098 83.9214 75.6878 83.5376 75.1911 83.0176C74.6943 82.4975 74.3394 81.8586 74.1604 81.162C74.1222 81.0284 74.0754 80.8975 74.0203 80.77L68.0003 68.492L67.9163 68.31L67.8604 68.282Z" fill="#025FB5"/>
<path id="Vector_61" d="M89.9797 90.822C89.313 90.3204 88.6986 89.7529 88.1457 89.128C87.4177 88.274 86.6617 87.448 85.9057 86.622C85.871 86.5853 85.8463 86.5402 85.834 86.4912C85.8217 86.4421 85.8223 86.3908 85.8357 86.342C85.9197 85.978 85.9897 85.614 86.0737 85.236L89.6437 87.42C89.9517 86.86 90.2877 86.328 90.5537 85.768C91.71 83.4077 92.1249 80.7526 91.7437 78.152C91.3996 75.6908 90.3686 73.3765 88.7689 71.4746C87.1692 69.5728 85.0656 68.1606 82.6997 67.4C80.7931 66.7436 78.7602 66.5385 76.7609 66.8009C74.7616 67.0632 72.8504 67.7859 71.1777 68.912C71.1347 68.9485 71.0801 68.9686 71.0237 68.9686C70.9673 68.9686 70.9127 68.9485 70.8697 68.912C70.4217 68.59 69.9457 68.282 69.4697 67.946C69.8057 67.722 70.1277 67.498 70.4637 67.302C72.2646 66.1628 74.2887 65.4229 76.3997 65.132C78.467 64.8283 80.5744 64.9485 82.5937 65.4853C84.6131 66.022 86.5021 66.964 88.1457 68.254C90.6565 70.1501 92.5038 72.7912 93.4237 75.8C94.3462 78.6772 94.3462 81.7708 93.4237 84.648C92.7235 86.8599 91.6068 88.9175 90.1337 90.71L89.9797 90.822Z" fill="#02B6AB"/>
<path id="Vector_62" d="M67.2998 69.822C67.5798 70.41 67.8598 70.97 68.1118 71.516C68.1314 71.5526 68.1417 71.5935 68.1417 71.635C68.1417 71.6765 68.1314 71.7174 68.1118 71.754C66.0091 74.4325 65.0077 77.8124 65.3118 81.204C65.4868 83.4069 66.2243 85.5279 67.4538 87.364V87.448L70.7578 85.138C70.8978 85.39 71.0098 85.656 71.1638 85.88C71.3178 86.104 71.3598 86.482 71.0798 86.818C70.2818 87.77 69.5258 88.778 68.7418 89.744C68.5195 89.9849 68.2759 90.2052 68.0138 90.402C67.8318 90.556 67.6358 90.682 67.4398 90.836C66.7168 89.9566 66.066 89.0202 65.4938 88.036C64.4243 86.2583 63.6933 84.2979 63.3378 82.254C62.8413 79.2309 63.3323 76.1282 64.7378 73.406C65.3815 72.1632 66.1916 71.014 67.1458 69.99L67.2998 69.822Z" fill="#02B6AB"/>
</g>
<path id="path-a7-3" d="M144.496 53.7079C144.81 52.646 144.692 51.503 144.168 50.5277C143.644 49.5523 142.755 48.8235 141.696 48.4999C141.467 48.4376 141.233 48.3955 140.996 48.3739C140.74 47.567 140.412 46.7845 140.016 46.0359C131.784 31.1539 97.6241 34.1499 63.7721 52.7279C54.0027 58.0349 44.8755 64.4469 36.5701 71.8379C35.2106 70.7445 33.4918 70.1983 31.7505 70.3061C30.0092 70.414 28.371 71.1682 27.1568 72.4209C25.9426 73.6737 25.2399 75.3347 25.1865 77.0785C25.1331 78.8223 25.7328 80.5232 26.8681 81.8479C16.8861 93.7619 12.8681 105.396 17.2361 113.418C19.3501 117.282 23.2141 119.928 28.3521 121.426C43.0241 125.71 68.3361 120.502 93.4241 106.726C120.304 91.9699 138.98 71.7259 141.43 56.6059C142.151 56.4362 142.815 56.0787 143.353 55.5698C143.892 55.0608 144.286 54.4184 144.496 53.7079ZM92.6961 105.508C59.5861 123.708 26.2241 126.956 18.4681 112.746C14.2681 105.172 18.2301 94.1259 27.8341 82.7159C29.1944 83.6819 30.8549 84.1303 32.5165 83.9803C34.1782 83.8303 35.7316 83.0918 36.8968 81.8978C38.0621 80.7038 38.7626 79.1329 38.8721 77.4681C38.9816 75.8034 38.493 74.1542 37.4941 72.8179C45.7374 65.5354 54.7782 59.2092 64.4441 53.9599C89.2241 40.3519 114.102 35.1019 128.34 39.2459C133.156 40.6459 136.74 43.1239 138.728 46.7079C139.029 47.2726 139.291 47.8573 139.512 48.4579C138.615 48.674 137.814 49.1797 137.232 49.8968C136.651 50.6139 136.323 51.5025 136.297 52.4251C136.272 53.3478 136.551 54.2532 137.091 55.0013C137.632 55.7494 138.404 56.2985 139.288 56.5639C139.544 56.6408 139.806 56.6924 140.072 56.7179C137.608 71.3059 119.17 90.9899 92.7521 105.494L92.6961 105.508Z" fill="url(#paint1_linear_372_1730)"/>
</g>
</g>
<defs>
<linearGradient id="paint0_linear_372_1730" x1="47.7559" y1="80" x2="109.356" y2="80" gradientUnits="userSpaceOnUse">
<stop offset="0.04" stop-color="#0098FF"/>
<stop offset="1" stop-color="#20D7CC"/>
</linearGradient>
<linearGradient id="paint1_linear_372_1730" x1="33.7618" y1="90.4373" x2="143.374" y2="64.2684" gradientUnits="userSpaceOnUse">
<stop offset="0.04" stop-color="#0098FF"/>
<stop offset="1" stop-color="#20D7CC"/>
</linearGradient>
</defs>
</svg>
