<svg width="100" height="48" viewBox="0 0 100 48" fill="none" xmlns="http://www.w3.org/2000/svg">
<path fill-rule="evenodd" clip-rule="evenodd" d="M70.1563 3.54743C69.8721 3.55152 68.1727 4.30664 67.6254 4.5356C67.3469 4.65207 67.0845 4.75626 66.8037 4.90171C65.9721 5.33253 66.1833 6.596 66.2006 7.81048C66.2146 10.1566 66.286 12.6036 66.2563 15.0421L66.2938 16.3796C66.3443 16.8656 66.6976 16.6228 67.5339 16.2351C75.3353 12.6187 83.306 8.81203 91.213 5.51404L93.2721 4.57984C93.9147 4.30554 94.1992 4.11341 94.7875 3.86266L96.3166 3.15887C96.6803 2.99539 97.0245 2.85525 97.363 2.6848C97.6918 2.51911 99.2428 1.90491 99.3811 1.71068C99.1146 1.57452 98.7435 1.54974 98.4035 1.47011L96.4066 0.984096C95.6665 0.850924 94.8172 0.812543 94.0583 0.964076C93.8985 0.996041 93.7291 1.00644 93.5988 1.03011C93.2645 1.09072 93.0494 1.14282 92.7639 1.24369L91.2761 1.8944C88.6508 3.0331 85.825 4.34126 83.2186 5.43252C81.8044 6.0246 80.8804 6.58748 79.3057 6.84808C76.842 7.25567 73.8372 5.20953 71.7034 4.11297C71.2294 3.92538 70.7782 3.53858 70.1564 3.54754L70.1563 3.54743Z" fill="#021054"/>
<path fill-rule="evenodd" clip-rule="evenodd" d="M32.5853 46.9153C33.0365 47.2564 33.0537 47.2482 33.5293 47.5261C34.3666 48.0151 35.2968 47.8118 35.5416 46.7864C35.9597 45.035 33.9873 41.8178 33.9624 40.0796C33.9553 39.5901 33.9844 38.5599 34.0943 38.111C35.8438 30.9581 48.3667 25.0616 55.6662 21.2418C56.4617 20.8257 60.8873 18.616 61.2975 18.5142C61.3193 18.4828 61.32 18.4522 61.2961 18.4197C61.0171 18.4299 60.3315 18.717 60.0671 18.8095C48.8311 22.7342 14.8674 30.3458 32.5852 46.9152L32.5853 46.9153Z" fill="#021054"/>
<path fill-rule="evenodd" clip-rule="evenodd" d="M0.19651 40.4976C0.615382 40.4919 6.83032 40.5051 7.55524 40.4859C11.2331 38.4068 14.8702 36.2645 18.5655 34.2178C18.7611 34.1057 22.621 31.7888 23.1282 31.663C23.0915 32.1943 21.6677 37.217 21.6517 37.4501C20.5439 37.4716 15.9129 37.468 14.7139 37.4855L13.957 40.3112C13.961 40.4483 13.9863 40.4405 14.0831 40.4921C15.9049 40.5031 20.8889 40.4997 22.4352 40.4819C24.4387 40.4531 24.1207 40.7461 24.3687 39.8113C25.2217 36.5627 25.9952 33.7118 27.0217 29.6694C27.0208 29.6106 26.9904 29.539 26.9207 29.5369C26.0765 29.5122 22.4369 29.4978 21.5699 29.5107C21.3989 29.5132 21.2574 29.5954 20.8019 29.8217C17.484 31.5398 14.1444 33.2287 10.8208 34.9383C10.6306 35.0206 10.5869 35.0565 10.4058 35.1407C8.365 36.2072 0.328134 40.2948 0.196289 40.4976H0.19651Z" fill="#021054"/>
<path fill-rule="evenodd" clip-rule="evenodd" d="M89.474 37.474C87.0826 37.4332 84.6898 37.5056 82.2914 37.4824C82.4226 37.2802 91.3643 30.9564 92.0664 30.6909C91.8746 31.2548 89.8541 37.3397 89.6845 37.4323C89.6719 37.439 89.5252 37.4733 89.4741 37.4741L89.474 37.474ZM75.2739 37.6376C75.1975 38.0784 74.6741 39.4998 74.5903 40.2929C74.6244 40.5292 74.6991 40.4893 75.0516 40.4902C81.4856 40.4854 87.8152 40.4909 94.2433 40.4845C94.6731 40.4841 94.817 40.3413 94.9236 39.9619C95.1118 39.293 95.4583 38.4931 95.5958 37.8559C95.6906 37.4172 95.4821 37.4511 95.0461 37.4628C94.1857 37.4722 93.47 37.4636 92.6773 37.4675C93.6728 34.5732 94.4812 32.1132 95.2422 29.9099C95.4111 29.4758 95.4735 29.2689 94.8837 29.2774C93.0085 29.2655 91.1337 29.3267 89.2566 29.3579C88.8909 29.3799 88.0077 30.1552 87.7054 30.3663C84.4339 32.6508 81.3993 34.9997 78.1687 37.3642C77.8878 37.4758 77.3394 37.4731 76.572 37.4683C76.1993 37.466 75.8325 37.4797 75.5346 37.4734C75.3369 37.4692 75.3026 37.473 75.274 37.6376H75.2739Z" fill="#021054"/>
<path fill-rule="evenodd" clip-rule="evenodd" d="M68.4169 17.4003L69.7274 17.3978C73.4846 17.3899 78.3245 17.4428 82.1668 17.3872C82.5098 17.3823 82.4977 16.9934 82.5647 16.7058C82.9402 15.042 83.3352 13.3864 83.7207 11.7257C83.7849 11.4066 83.8749 11.1978 83.8698 10.8456C83.7181 10.835 83.6092 10.8362 83.5183 10.8739C78.5264 12.9439 73.5766 15.1228 68.599 17.2043C68.4372 17.2887 68.4605 17.2266 68.4169 17.4002V17.4003Z" fill="#021054"/>
<path fill-rule="evenodd" clip-rule="evenodd" d="M52.49 17.2699C52.7624 17.3958 61.8931 17.2826 62.7059 17.2774C62.764 17.2785 62.734 17.2782 62.8326 17.2794C64.6158 17.3016 64.2748 17.3303 64.3623 16.6471C64.4435 15.4612 64.4385 14.5047 64.4913 13.5059C64.5303 12.7681 64.0683 13.27 62.3063 13.8104C59.1708 14.8796 56.0413 15.9613 52.9015 17.0174C52.6863 17.0781 52.5399 17.072 52.49 17.2699Z" fill="#021054"/>
<path fill-rule="evenodd" clip-rule="evenodd" d="M60.5786 37.5237C60.5804 37.6409 60.6543 37.5346 60.6079 37.5233C60.6072 37.5232 60.5768 37.3899 60.5786 37.5237Z" fill="#D4D7DD"/>
<path fill-rule="evenodd" clip-rule="evenodd" d="M50.1742 7.28408L50.1872 7.27075C50.1863 7.27158 50.1698 7.27984 50.1742 7.28408Z" fill="#B9C4CB"/>
<path fill-rule="evenodd" clip-rule="evenodd" d="M8.63485 23.5692L8.64776 23.5559C8.64694 23.5568 8.63041 23.565 8.63485 23.5692Z" fill="#B9C4CB"/>
<path fill-rule="evenodd" clip-rule="evenodd" d="M45.0596 46.9153C45.5108 47.2564 45.5279 47.2482 46.0035 47.5261C46.8408 48.0151 47.771 47.8118 48.0158 46.7864C48.4339 45.035 46.4615 41.8178 46.4367 40.0796C46.4296 39.5901 46.4587 38.5599 46.5685 38.111C48.3181 30.9581 60.841 25.0616 68.1404 21.2418C68.9359 20.8257 73.3616 18.616 73.7717 18.5142C73.7935 18.4828 73.7943 18.4522 73.7704 18.4197C73.4913 18.4299 72.8058 18.717 72.5413 18.8095C61.3053 22.7342 27.3417 30.3458 45.0595 46.9152L45.0596 46.9153Z" fill="#021054"/>
<path fill-rule="evenodd" clip-rule="evenodd" d="M48.5931 40.4975C49.012 40.4918 55.2269 40.505 55.9519 40.4858C59.6297 38.4067 63.2668 36.2644 66.9621 34.2177C67.1577 34.1056 71.0176 31.7887 71.5248 31.6629C71.4882 32.1942 70.0643 37.2168 70.0483 37.45C68.9405 37.4715 64.2689 37.4547 63.0699 37.4722L62.3536 40.3112C62.3576 40.4483 62.3829 40.4405 62.4797 40.4921C64.3015 40.5031 69.2855 40.4997 70.8318 40.4819C72.8354 40.4531 72.5174 40.7461 72.7653 39.8113C73.6183 36.5627 74.3918 33.7118 75.4183 29.6694C75.4174 29.6106 75.387 29.539 75.3173 29.5369C74.4731 29.5122 70.8335 29.4978 69.9665 29.5107C69.7955 29.5132 69.6541 29.5954 69.1985 29.8217C65.8806 31.5398 62.541 33.2287 59.2174 34.9383C59.0272 35.0206 58.9835 35.0565 58.8024 35.1407C56.7616 36.2072 48.7247 40.2948 48.5929 40.4976L48.5931 40.4975Z" fill="#021054"/>
</svg>
