<svg width="125" height="27" viewBox="0 0 125 27" fill="none" xmlns="http://www.w3.org/2000/svg">
<path fill-rule="evenodd" clip-rule="evenodd" d="M98.7088 26.5936H89.324L98.7088 11.0283V26.5936Z" fill="#E3000F"/>
<path fill-rule="evenodd" clip-rule="evenodd" d="M98.7088 26.5936H89.324L98.7088 11.0283V26.5936Z" fill="#E3000F"/>
<path fill-rule="evenodd" clip-rule="evenodd" d="M82.1811 26.5933H73.0542L82.1811 12.0432V26.5933Z" fill="#E3000F"/>
<path fill-rule="evenodd" clip-rule="evenodd" d="M82.1811 26.5933H73.0542L82.1811 12.0432V26.5933Z" fill="#E3000F"/>
<path fill-rule="evenodd" clip-rule="evenodd" d="M0 0V26.5936H20.962L23.872 20.962H20.962V0H14.2888V20.962H6.67319V0H0Z" fill="#004189"/>
<path fill-rule="evenodd" clip-rule="evenodd" d="M0 0V26.5936H20.962L23.872 20.962H20.962V0H14.2888V20.962H6.67319V0H0Z" fill="#004189"/>
<path fill-rule="evenodd" clip-rule="evenodd" d="M82.1814 0H62.0428L48.9014 20.962H46.8247V0H41.7024L32.0167 15.6446V0H25.9685V26.5936H32.0167L40.7765 12.609V26.5936H51.9172L55.5547 20.9719H65.1446V26.5936L82.1814 0ZM59.0137 15.6446L65.2074 6.15402H65.6902V15.6446H59.0137Z" fill="#004189"/>
<path fill-rule="evenodd" clip-rule="evenodd" d="M82.1814 0H62.0428L48.9014 20.962H46.8247V0H41.7024L32.0167 15.6446V0H25.9685V26.5936H32.0167L40.7765 12.609V26.5936H51.9172L55.5547 20.9719H65.1446V26.5936L82.1814 0ZM59.0137 15.6446L65.2074 6.15402H65.6902V15.6446H59.0137Z" fill="#004189"/>
<path fill-rule="evenodd" clip-rule="evenodd" d="M105.021 0V26.5936L124.991 0H105.021Z" fill="#004189"/>
<path fill-rule="evenodd" clip-rule="evenodd" d="M105.021 0V26.5936L124.991 0H105.021Z" fill="#004189"/>
<path fill-rule="evenodd" clip-rule="evenodd" d="M88.2302 0H98.7096L88.2302 15.6446V0Z" fill="#004189"/>
<path fill-rule="evenodd" clip-rule="evenodd" d="M88.2302 0H98.7096L88.2302 15.6446V0Z" fill="#004189"/>
</svg>
