<svg width="783" height="568" viewBox="0 0 783 568" fill="none" xmlns="http://www.w3.org/2000/svg">
<g opacity="0.07">
<path d="M-254.869 90.8009C-253.682 90.7984 -252.528 90.405 -251.587 89.6814C-250.646 88.9579 -249.97 87.9445 -249.662 86.798H39.1403L100.277 25.6895H299.586C299.926 26.963 300.717 28.0695 301.812 28.8027C302.907 29.5359 304.232 29.8457 305.539 29.6744C306.846 29.5031 308.046 28.8624 308.915 27.8717C309.784 26.881 310.264 25.6079 310.264 24.2899C310.264 22.9718 309.784 21.6988 308.915 20.7081C308.046 19.7174 306.846 19.0766 305.539 18.9053C304.232 18.734 302.907 19.0439 301.812 19.777C300.717 20.5102 299.926 21.6167 299.586 22.8902H99.0729L37.9366 83.9987H-249.662C-249.933 83.0302 -250.469 82.1565 -251.21 81.4761C-251.95 80.7956 -252.866 80.3354 -253.854 80.1472C-254.842 79.9589 -255.863 80.0502 -256.801 80.4106C-257.74 80.7711 -258.56 81.3865 -259.168 82.1875C-259.776 82.9885 -260.149 83.9433 -260.243 84.9445C-260.338 85.9458 -260.152 86.9536 -259.705 87.8546C-259.258 88.7555 -258.569 89.5139 -257.714 90.0444C-256.86 90.5748 -255.874 90.8562 -254.869 90.8569V90.8009Z" fill="#055984"/>
<path d="M80.9613 129.207H-116.081C-116.42 127.934 -117.212 126.827 -118.307 126.094C-119.402 125.361 -120.727 125.051 -122.033 125.222C-123.34 125.394 -124.54 126.034 -125.41 127.025C-126.279 128.016 -126.758 129.289 -126.758 130.607C-126.758 131.925 -126.279 133.198 -125.41 134.189C-124.54 135.179 -123.34 135.82 -122.033 135.991C-120.727 136.163 -119.402 135.853 -118.307 135.12C-117.212 134.387 -116.42 133.28 -116.081 132.007H82.1649L151.223 62.9482H366.236L409.821 106.533H636.928C637.267 107.807 638.058 108.913 639.154 109.646C640.249 110.379 641.574 110.689 642.88 110.518C644.187 110.347 645.387 109.706 646.257 108.715C647.126 107.724 647.605 106.451 647.605 105.133C647.605 103.815 647.126 102.542 646.257 101.552C645.387 100.561 644.187 99.9201 642.88 99.7488C641.574 99.5775 640.249 99.8874 639.154 100.621C638.058 101.354 637.267 102.46 636.928 103.734H411.025L367.496 60.1489H150.02L80.9613 129.207Z" fill="#055984"/>
<path d="M349.496 88.0302C348.312 88.0311 347.162 88.4205 346.221 89.1386C345.281 89.8567 344.602 90.8638 344.289 92.0052H228.259L137.002 183.29H-293.472L-346.967 236.756H-654.888L-722.715 168.846H-1116.43C-1116.77 167.564 -1117.56 166.451 -1118.66 165.712C-1119.76 164.974 -1121.09 164.661 -1122.41 164.832C-1123.72 165.004 -1124.93 165.648 -1125.8 166.644C-1126.68 167.64 -1127.16 168.92 -1127.16 170.245C-1127.16 171.571 -1126.68 172.851 -1125.8 173.847C-1124.93 174.843 -1123.72 175.487 -1122.41 175.658C-1121.09 175.829 -1119.76 175.517 -1118.66 174.778C-1117.56 174.04 -1116.77 172.926 -1116.43 171.645H-723.919L-656.008 239.584H-345.763L-292.268 186.173H138.178L229.463 94.8885H344.233C344.504 95.857 345.04 96.7306 345.781 97.4111C346.521 98.0915 347.437 98.5517 348.425 98.74C349.413 98.9282 350.434 98.837 351.373 98.4765C352.311 98.116 353.131 97.5006 353.739 96.6996C354.347 95.8986 354.72 94.9438 354.815 93.9426C354.91 92.9414 354.723 91.9336 354.276 91.0326C353.83 90.1316 353.14 89.3732 352.286 88.8428C351.431 88.3123 350.446 88.0309 349.44 88.0302H349.496Z" fill="#055984"/>
<path d="M-251.006 217.246L-287.201 253.441C-288.344 252.793 -289.683 252.581 -290.97 252.844C-292.258 253.108 -293.406 253.829 -294.202 254.875C-294.998 255.92 -295.388 257.219 -295.299 258.53C-295.211 259.841 -294.65 261.075 -293.721 262.005C-292.792 262.934 -291.557 263.494 -290.246 263.583C-288.935 263.671 -287.637 263.281 -286.591 262.485C-285.546 261.689 -284.824 260.541 -284.561 259.254C-284.297 257.967 -284.509 256.628 -285.158 255.485L-249.803 220.13H163.652L200.267 183.515C201.41 184.163 202.749 184.376 204.036 184.112C205.323 183.848 206.471 183.127 207.267 182.081C208.063 181.036 208.453 179.737 208.365 178.426C208.276 177.115 207.716 175.881 206.787 174.952C205.857 174.023 204.623 173.462 203.312 173.373C202.001 173.285 200.702 173.675 199.657 174.471C198.611 175.267 197.89 176.415 197.626 177.702C197.363 178.989 197.575 180.329 198.223 181.472L162.476 217.246H-251.006Z" fill="#055984"/>
<path d="M135.547 284.82C136.559 284.825 137.553 284.546 138.415 284.016C139.278 283.486 139.975 282.725 140.428 281.82C140.882 280.914 141.073 279.9 140.98 278.892C140.887 277.884 140.514 276.922 139.904 276.114C139.293 275.306 138.469 274.686 137.524 274.322C136.579 273.958 135.552 273.865 134.557 274.054C133.562 274.244 132.64 274.707 131.895 275.393C131.15 276.078 130.611 276.958 130.34 277.934H-52.7612L-102.421 327.537H-308.056L-247.592 267.044C-246.449 267.693 -245.109 267.905 -243.822 267.641C-242.535 267.378 -241.387 266.656 -240.591 265.611C-239.795 264.565 -239.405 263.267 -239.493 261.956C-239.582 260.645 -240.143 259.41 -241.072 258.481C-242.001 257.552 -243.235 256.991 -244.546 256.903C-245.857 256.814 -247.156 257.204 -248.201 258C-249.247 258.796 -249.968 259.944 -250.232 261.232C-250.495 262.519 -250.283 263.858 -249.635 265.001L-315.026 330.42H-101.245L-51.5576 280.761H130.396C130.691 281.909 131.354 282.928 132.285 283.661C133.216 284.395 134.362 284.802 135.547 284.82Z" fill="#055984"/>
<path d="M316.688 134.582H395.236C395.576 135.855 396.367 136.962 397.463 137.695C398.558 138.428 399.883 138.738 401.189 138.567C402.496 138.395 403.696 137.755 404.566 136.764C405.435 135.773 405.914 134.5 405.914 133.182C405.914 131.864 405.435 130.591 404.566 129.6C403.696 128.61 402.496 127.969 401.189 127.798C399.883 127.626 398.558 127.936 397.463 128.669C396.367 129.402 395.576 130.509 395.236 131.782H315.485L194.724 252.46H-79.9424L-121.12 293.637H-236.73L-198.324 255.259C-197.148 255.939 -195.765 256.169 -194.432 255.904C-193.1 255.64 -191.908 254.9 -191.081 253.822C-190.253 252.745 -189.846 251.403 -189.935 250.047C-190.023 248.692 -190.602 247.414 -191.563 246.454C-192.523 245.493 -193.8 244.915 -195.156 244.826C-196.512 244.737 -197.854 245.145 -198.931 245.972C-200.009 246.8 -200.749 247.991 -201.013 249.323C-201.277 250.656 -201.048 252.039 -200.368 253.215L-243.701 296.548H-119.916L-78.7388 255.371H195.927L316.688 134.582Z" fill="#055984"/>
<path d="M506.228 218.505L452.313 164.591H324.61L242.591 246.638C241.448 245.99 240.109 245.778 238.822 246.041C237.534 246.305 236.386 247.026 235.59 248.072C234.794 249.117 234.404 250.416 234.493 251.727C234.581 253.038 235.142 254.272 236.071 255.202C237 256.131 238.235 256.691 239.546 256.78C240.857 256.868 242.155 256.478 243.201 255.682C244.246 254.886 244.968 253.738 245.231 252.451C245.495 251.164 245.283 249.825 244.634 248.682L325.814 167.502H451.11L505.024 221.417H719.561C719.901 222.69 720.692 223.797 721.788 224.53C722.883 225.263 724.207 225.573 725.514 225.401C726.821 225.23 728.021 224.589 728.89 223.599C729.76 222.608 730.239 221.335 730.239 220.017C730.239 218.699 729.76 217.426 728.89 216.435C728.021 215.444 726.821 214.804 725.514 214.632C724.207 214.461 722.883 214.771 721.788 215.504C720.692 216.237 719.901 217.344 719.561 218.617L506.228 218.505Z" fill="#055984"/>
<path d="M626.626 256.884C626.622 255.572 626.142 254.305 625.276 253.319C624.41 252.333 623.217 251.694 621.916 251.519C620.615 251.345 619.295 251.648 618.201 252.372C617.106 253.096 616.31 254.191 615.961 255.457H472.693L435.351 218.086H326.514C326.175 216.805 325.38 215.691 324.28 214.953C323.179 214.214 321.847 213.902 320.533 214.073C319.218 214.244 318.011 214.888 317.137 215.884C316.262 216.88 315.78 218.16 315.78 219.486C315.78 220.811 316.262 222.091 317.137 223.087C318.011 224.083 319.218 224.727 320.533 224.899C321.847 225.07 323.179 224.757 324.28 224.019C325.38 223.28 326.175 222.167 326.514 220.885H421.27C421.01 221.309 420.821 221.772 420.711 222.257H328.026L240.576 309.707H48.0415C47.7018 308.433 46.9106 307.327 45.8153 306.594C44.72 305.86 43.3954 305.55 42.0885 305.722C40.7816 305.893 39.5817 306.534 38.7124 307.525C37.8431 308.515 37.3638 309.788 37.3638 311.106C37.3638 312.424 37.8431 313.697 38.7124 314.688C39.5817 315.679 40.7816 316.32 42.0885 316.491C43.3954 316.662 44.72 316.352 45.8153 315.619C46.9106 314.886 47.7018 313.78 48.0415 312.506H241.78L329.202 225.056H420.682C420.891 225.798 421.256 226.487 421.753 227.077C422.249 227.666 422.866 228.142 423.562 228.474C424.258 228.805 425.017 228.983 425.788 228.997C426.559 229.011 427.323 228.859 428.031 228.553C428.738 228.247 429.372 227.792 429.889 227.221C430.406 226.65 430.795 225.974 431.03 225.24C431.265 224.506 431.339 223.73 431.249 222.964C431.159 222.199 430.907 221.461 430.508 220.801H434.119L471.462 258.172H615.933C616.283 259.439 617.081 260.537 618.178 261.26C619.276 261.984 620.599 262.285 621.902 262.107C623.204 261.929 624.398 261.285 625.262 260.293C626.126 259.302 626.6 258.031 626.598 256.716L626.626 256.884Z" fill="#055984"/>
<path d="M777.395 306.654C776.212 306.655 775.062 307.044 774.121 307.762C773.18 308.481 772.501 309.488 772.189 310.629H541.975L461.3 391.276H328.306L273.72 336.69L338.103 272.307C339.246 272.955 340.585 273.167 341.873 272.904C343.16 272.64 344.308 271.919 345.104 270.873C345.9 269.828 346.29 268.529 346.202 267.218C346.113 265.907 345.552 264.673 344.623 263.743C343.694 262.814 342.46 262.254 341.149 262.165C339.838 262.077 338.539 262.467 337.493 263.263C336.448 264.059 335.727 265.207 335.463 266.494C335.199 267.781 335.411 269.12 336.06 270.263L269.549 336.774L327.018 394.272H462.364L543.151 313.54H772.189C772.46 314.509 772.996 315.382 773.736 316.063C774.477 316.743 775.392 317.204 776.38 317.392C777.368 317.58 778.389 317.489 779.328 317.128C780.267 316.768 781.087 316.152 781.695 315.351C782.303 314.55 782.675 313.596 782.77 312.594C782.865 311.593 782.679 310.585 782.232 309.684C781.785 308.783 781.096 308.025 780.241 307.495C779.387 306.964 778.401 306.683 777.395 306.682V306.654Z" fill="#055984"/>
<path d="M613.554 292.882C614.566 292.886 615.56 292.608 616.422 292.078C617.285 291.548 617.982 290.787 618.435 289.882C618.888 288.976 619.079 287.962 618.987 286.954C618.894 285.946 618.521 284.983 617.911 284.176C617.3 283.368 616.476 282.747 615.531 282.384C614.586 282.02 613.558 281.927 612.564 282.116C611.569 282.305 610.647 282.769 609.902 283.454C609.157 284.14 608.618 285.02 608.347 285.995H391.682L352.1 325.605C350.957 324.957 349.618 324.745 348.331 325.008C347.044 325.272 345.896 325.993 345.1 327.039C344.304 328.084 343.914 329.383 344.002 330.694C344.09 332.005 344.651 333.24 345.58 334.169C346.509 335.098 347.744 335.659 349.055 335.747C350.366 335.835 351.665 335.445 352.71 334.649C353.756 333.853 354.477 332.705 354.741 331.418C355.004 330.131 354.792 328.792 354.144 327.649L392.886 288.907H608.431C608.736 290.037 609.401 291.036 610.325 291.754C611.25 292.471 612.383 292.867 613.554 292.882Z" fill="#055984"/>
<path d="M440.446 360.204L465.64 335.011C466.782 335.659 468.122 335.871 469.409 335.608C470.696 335.344 471.844 334.623 472.64 333.577C473.436 332.532 473.826 331.233 473.738 329.922C473.649 328.611 473.089 327.377 472.159 326.447C471.23 325.518 469.996 324.958 468.685 324.869C467.374 324.781 466.075 325.171 465.03 325.967C463.984 326.763 463.263 327.911 462.999 329.198C462.736 330.485 462.948 331.824 463.596 332.967L439.298 357.265H366.909L402.768 321.406C403.91 322.055 405.25 322.267 406.537 322.003C407.824 321.74 408.972 321.018 409.768 319.973C410.564 318.927 410.954 317.629 410.866 316.318C410.777 315.007 410.217 313.772 409.288 312.843C408.358 311.914 407.124 311.353 405.813 311.265C404.502 311.176 403.203 311.566 402.158 312.362C401.112 313.158 400.391 314.306 400.127 315.593C399.864 316.881 400.076 318.22 400.724 319.363L359.938 360.204H440.446Z" fill="#055984"/>
</g>
</svg>
