<svg width="26" height="26" viewBox="0 0 26 26" fill="none" xmlns="http://www.w3.org/2000/svg">
<path fill-rule="evenodd" clip-rule="evenodd" d="M1.72683 0.0691641C1.14595 0.195355 0.679583 0.520762 0.351083 1.02903C-0.0231204 1.60799 0.000289499 0.882527 0.000289499 11.8986C0.000289499 18.2997 0.0182151 21.8675 0.0513241 22.0449C0.19808 22.8311 0.779164 23.486 1.54092 23.7238C1.81844 23.8105 2.12526 23.8164 6.327 23.8164H10.8166V22.75V21.6836H6.47467H2.13282L2.14562 11.9209L2.15847 2.1582L7.57931 2.14525L13.0001 2.13236V4.31615V6.5H15.1837H17.3673V8.6582V10.8164H18.4337H19.5001V7.90898V5.00155L16.9989 2.50077L14.4978 0L8.25195 0.00426563C3.61283 0.00741406 1.93427 0.0241211 1.72683 0.0691641ZM5.90334 12.0988L3.9104 14.0923L5.904 16.0854L7.89755 18.0785L8.65845 17.3164L9.41935 16.5542L8.18842 15.3232L6.9575 14.0923L8.18852 12.8605L9.4195 11.6287L8.65789 10.8671L7.89623 10.1054L5.90334 12.0988ZM18.4337 13.6043V14.2086L18.1671 14.2714C17.7929 14.3594 17.1975 14.6006 16.8467 14.8062C16.6831 14.9021 16.5329 14.9805 16.5128 14.9805C16.4927 14.9805 16.2944 14.7975 16.0721 14.5739L15.668 14.1674L14.9182 14.9159L14.1685 15.6643L14.5851 16.0831L15.0017 16.5019L14.8863 16.6933C14.6704 17.0516 14.4179 17.6353 14.3059 18.035L14.1942 18.4336H13.5972H13.0001V19.5V20.5664L13.5968 20.5668L14.1935 20.5672L14.3082 20.9858C14.3713 21.2159 14.5485 21.655 14.7021 21.9614L14.9814 22.5185L14.575 22.9271L14.1685 23.3357L14.9272 24.0931L15.6858 24.8504L16.0822 24.4334L16.4786 24.0164L17.0372 24.2968C17.3444 24.4511 17.7841 24.6289 18.0143 24.692L18.4329 24.8066L18.4333 25.4033L18.4337 26H19.5001H20.5665L20.5669 25.4033L20.5672 24.8066L20.9796 24.6918C21.3745 24.5817 22.0616 24.2801 22.3564 24.0874L22.4959 23.9962L22.9158 24.4139L23.3357 24.8316L24.0837 24.0823L24.8318 23.333L24.4148 22.916L23.9979 22.499L24.1136 22.3071C24.3347 21.9401 24.5873 21.3521 24.6921 20.9605L24.7976 20.5664H25.3988H26V19.5V18.4336H25.3957H24.7914L24.7287 18.167C24.6406 17.7928 24.3994 17.1974 24.1938 16.8466C24.098 16.683 24.0196 16.5328 24.0196 16.5127C24.0196 16.4926 24.2025 16.2943 24.4261 16.072L24.8326 15.6678L24.0841 14.9181L23.3357 14.1684L22.9276 14.5744C22.7031 14.7978 22.5038 14.9805 22.4846 14.9805C22.4655 14.9805 22.3305 14.9101 22.1848 14.8242C21.8469 14.6249 21.1773 14.3508 20.8331 14.2706L20.5665 14.2086V13.6043V13H19.5001H18.4337V13.6043ZM19.9165 17.373C20.7786 17.5543 21.424 18.1862 21.613 19.0341C21.7788 19.7779 21.5685 20.4842 21.0164 21.0379C19.7668 22.2909 17.6544 21.593 17.3519 19.8272C17.1039 18.3796 18.4731 17.0694 19.9165 17.373Z" fill="#065196"/>
</svg>
