<svg width="23" height="22" viewBox="0 0 23 22" fill="none" xmlns="http://www.w3.org/2000/svg">
<path fill-rule="evenodd" clip-rule="evenodd" d="M1.80086 0.0314447C1.57585 0.0645094 1.22029 0.193765 1.03922 0.30831C0.648671 0.55535 0.366848 0.91481 0.20101 1.37738L0.0976562 1.66565V10.9946V20.3236L0.20101 20.6118C0.257854 20.7704 0.362018 20.9869 0.432508 21.093C0.593381 21.3351 0.903339 21.6174 1.15449 21.7506C1.52383 21.9465 1.66316 21.9677 2.68993 21.9845C3.20542 21.993 3.62721 21.9905 3.62721 21.979C3.62721 21.9674 3.58279 21.8701 3.52855 21.7627C3.38926 21.4871 3.20501 20.9423 3.15019 20.6441C3.11142 20.4331 3.10368 18.826 3.10368 10.9777C3.10368 2.07194 3.10693 1.54938 3.16394 1.28557C3.23902 0.937922 3.39983 0.474747 3.52892 0.234151C3.58299 0.133439 3.62721 0.0385636 3.62721 0.0232796C3.62721 -0.012248 2.05022 -0.00519632 1.80086 0.0314447ZM6.83562 0.0280706C6.05564 0.129997 5.40259 0.701982 5.15859 1.49695C5.09888 1.69142 5.09645 2.06573 5.09645 11.0115V20.3236L5.18858 20.5935C5.42721 21.2926 6.0116 21.8092 6.71636 21.9439C7.1069 22.0185 20.0734 22.0188 20.4639 21.9442C21.2564 21.7927 21.8919 21.1645 22.0522 20.3742C22.0974 20.1518 22.1025 19.2811 22.0946 13.1877L22.0856 6.25421L22.0043 6.08551C21.9397 5.9514 21.3409 5.33387 19.0828 3.07275C16.5149 0.501536 16.2214 0.218327 16.0236 0.120551L15.8048 0.0124156L11.4132 0.00809697C8.99786 0.00573521 6.93796 0.0147097 6.83562 0.0280706ZM20.1435 6.98916C20.1435 7.00377 19.1822 7.01139 18.0072 7.00609L15.8709 6.99648L15.702 6.91884C15.4345 6.79586 15.2161 6.55324 15.1426 6.29757C15.1198 6.21828 15.0908 2.42873 15.1095 1.9694C15.1111 1.93067 20.1435 6.94887 20.1435 6.98916ZM17.4317 11.0664C17.5691 11.1168 17.6786 11.1904 17.8 11.3141C18.0201 11.5381 18.0984 11.7528 18.0756 12.0704C18.0496 12.4315 17.8821 12.6965 17.5709 12.8687L17.3908 12.9684L13.6529 12.9774C9.9778 12.9862 9.91203 12.9852 9.73329 12.9184C9.51852 12.8382 9.30144 12.6363 9.19262 12.4157C9.07798 12.1833 9.0844 11.7834 9.20646 11.5513C9.33991 11.2976 9.54172 11.1296 9.81571 11.0442C9.93223 11.0078 10.6632 10.9987 13.5982 10.9969C17.2278 10.9946 17.2367 10.9948 17.4317 11.0664ZM15.5406 15.112C16.2776 15.4744 16.2667 16.5241 15.5224 16.8892L15.3305 16.9834H12.6115C10.433 16.9834 9.86732 16.9744 9.76545 16.9384C9.56749 16.8684 9.32849 16.6589 9.21707 16.4578C9.12669 16.2946 9.11578 16.2439 9.11605 15.988C9.11635 15.6815 9.15013 15.5834 9.33741 15.3453C9.45488 15.1959 9.7285 15.0443 9.93348 15.015C10.0191 15.0027 11.268 14.9961 12.7088 15.0002L15.3284 15.0076L15.5406 15.112Z" fill="#065196"/>
</svg>
