<svg width="25" height="23" viewBox="0 0 25 23" fill="none" xmlns="http://www.w3.org/2000/svg">
<path d="M12.4052 22.1878C9.45428 22.1878 6.50335 22.1573 3.55241 22.1878C3.09161 22.1952 2.63392 22.1111 2.20576 21.9406C1.7776 21.7701 1.38746 21.5165 1.05786 21.1944C0.728265 20.8723 0.465738 20.4881 0.28544 20.0639C0.105142 19.6398 0.010644 19.1842 0.00740278 18.7233C0.00740278 17.0577 -0.00925348 15.3671 0.00740278 13.6876C0.0101203 12.8696 0.303288 12.0793 0.834619 11.4575C1.36595 10.8356 2.10089 10.4227 2.90837 10.2925C3.21059 10.2581 3.51492 10.246 3.81891 10.2564C3.94106 10.2564 3.98825 10.2258 3.98825 10.0926C3.98825 7.95503 3.98825 5.81933 3.98825 3.68548C3.98825 3.00257 3.98825 2.31966 3.98825 1.63676C3.98749 1.42018 4.0299 1.20562 4.11302 1.00562C4.19614 0.805629 4.3183 0.624209 4.47235 0.471971C4.62639 0.319733 4.80924 0.19973 5.01021 0.118979C5.21117 0.0382269 5.42622 -0.00165352 5.64277 0.00166849H19.1205C19.3474 -0.00859079 19.574 0.0285476 19.7857 0.110716C19.9975 0.192884 20.1899 0.318279 20.3505 0.478907C20.5111 0.639534 20.6365 0.831869 20.7187 1.04365C20.8009 1.25543 20.838 1.48201 20.8277 1.70894C20.8277 4.48498 20.8277 7.26102 20.8277 10.0371C20.8277 10.2425 20.8277 10.248 21.0359 10.2425C21.5469 10.208 22.0596 10.2769 22.5433 10.4451C23.1005 10.6478 23.5945 10.9936 23.9756 11.4478C24.3567 11.902 24.6114 12.4485 24.7142 13.0324C24.7861 13.4625 24.8149 13.8986 24.8002 14.3344C24.8002 15.789 24.8002 17.2409 24.8002 18.6955C24.8085 19.2427 24.6871 19.7841 24.4458 20.2753C24.2045 20.7665 23.8503 21.1936 23.4122 21.5216C22.846 21.964 22.1458 22.2 21.4274 22.1906L12.4052 22.1878ZM12.3886 10.2508H19.4869C19.6896 10.2508 19.6896 10.2508 19.6896 10.0509V3.94365C19.6896 3.18116 19.6896 2.4196 19.6896 1.65897C19.6928 1.5891 19.6813 1.51933 19.6558 1.45419C19.6304 1.38904 19.5916 1.32995 19.5419 1.28076C19.4921 1.23157 19.4326 1.19336 19.3672 1.16861C19.3018 1.14385 19.2319 1.13311 19.1621 1.13707H5.70384C5.6239 1.12567 5.54239 1.13318 5.46588 1.159C5.38936 1.18482 5.31997 1.22823 5.26327 1.28573C5.20658 1.34324 5.16416 1.41324 5.13943 1.49011C5.1147 1.56699 5.10834 1.64859 5.12088 1.72837V10.0565C5.12088 10.2564 5.12087 10.2564 5.32075 10.2564L12.3886 10.2508ZM12.111 12.6021C11.0615 12.589 10.0149 12.716 8.99901 12.9797C8.15619 13.2438 7.33562 13.5742 6.54499 13.9679C5.29021 14.5232 4.6434 15.5586 4.35191 16.8523C4.25141 17.1912 4.27705 17.5551 4.42409 17.8766C4.60176 18.207 4.80996 18.5234 5.01539 18.8399C5.07806 18.9442 5.17684 19.0219 5.293 19.0582C5.40915 19.0946 5.5346 19.087 5.64555 19.037C5.92315 18.9509 6.1841 18.8815 6.45338 18.8094C7.14739 18.6243 7.84325 18.4392 8.54096 18.2542C8.63919 18.2368 8.72784 18.1846 8.79058 18.107C8.85333 18.0295 8.88594 17.9319 8.88241 17.8322C8.88241 17.5379 8.88241 17.2437 8.86021 16.9494C8.838 16.6552 8.80191 16.3054 8.79636 15.9834C8.7762 15.8641 8.80399 15.7418 8.87367 15.643C8.94336 15.5442 9.04928 15.4769 9.16835 15.4559C9.84015 15.2977 10.512 15.1228 11.1949 15.0201C12.5689 14.8419 13.9656 14.9796 15.2784 15.4226C15.3463 15.4315 15.4117 15.4543 15.4704 15.4895C15.5291 15.5248 15.58 15.5717 15.6198 15.6274C15.6596 15.6831 15.6876 15.7464 15.7019 15.8134C15.7162 15.8803 15.7167 15.9495 15.7032 16.0167C15.7032 16.3887 15.6837 16.7634 15.7032 17.1271C15.6969 17.3065 15.7471 17.4834 15.8467 17.6329C15.9463 17.7823 16.0903 17.8967 16.2584 17.9599C16.9746 18.2902 17.6852 18.6345 18.3987 18.9731C18.5847 19.062 18.7679 19.1536 18.9539 19.2508C19.0241 19.2876 19.1039 19.3018 19.1825 19.2913C19.261 19.2809 19.3344 19.2463 19.3925 19.1925C19.6451 18.9759 19.9005 18.7594 20.142 18.5318C20.3316 18.3602 20.4545 18.1272 20.4891 17.8738C20.5667 17.141 20.4322 16.4014 20.1015 15.7428C19.7708 15.0843 19.2577 14.5347 18.6236 14.1595C18.3293 14.0124 18.0517 13.8819 17.7491 13.7431C15.9533 13.018 14.039 12.6312 12.1026 12.6021H12.111Z" fill="#53FFF5"/>
<path d="M12.4357 8.52133H6.9725C6.88921 8.52133 6.80593 8.52133 6.72265 8.52133C6.64973 8.51883 6.57801 8.50197 6.51161 8.47172C6.4452 8.44148 6.38541 8.39844 6.33565 8.34507C6.28589 8.2917 6.24714 8.22905 6.22161 8.16069C6.19608 8.09233 6.18428 8.01961 6.18688 7.94669C6.18683 7.80182 6.24342 7.66266 6.34455 7.55893C6.44569 7.4552 6.58337 7.39511 6.7282 7.39148C7.1807 7.3776 7.63319 7.39148 8.08291 7.39148H18.11C18.1843 7.38925 18.2583 7.40197 18.3276 7.42887C18.3969 7.45577 18.4601 7.49631 18.5134 7.54809C18.5667 7.59987 18.6091 7.66183 18.638 7.7303C18.667 7.79877 18.6819 7.87236 18.6818 7.94669C18.6845 8.02122 18.672 8.09551 18.6453 8.16513C18.6186 8.23475 18.5781 8.29828 18.5263 8.35191C18.4744 8.40554 18.4124 8.44818 18.3437 8.47729C18.275 8.5064 18.2012 8.52138 18.1266 8.52133C17.6408 8.52133 17.155 8.52133 16.6692 8.52133H12.4357Z" fill="#53FFF5"/>
<path d="M12.4186 3.7324H6.7471C6.59985 3.7324 6.45863 3.6739 6.35451 3.56978C6.25039 3.46566 6.19189 3.32444 6.19189 3.17719C6.19189 3.02994 6.25039 2.88872 6.35451 2.7846C6.45863 2.68048 6.59985 2.62198 6.7471 2.62198C7.20237 2.62198 7.65765 2.62198 8.11569 2.62198H16.9407C17.3377 2.62198 17.7347 2.62198 18.1317 2.62198C18.2789 2.6021 18.428 2.64153 18.5462 2.7316C18.6644 2.82166 18.7419 2.95499 18.7618 3.10224C18.7817 3.24949 18.7423 3.3986 18.6522 3.51678C18.5621 3.63496 18.4288 3.71252 18.2816 3.7324C18.2051 3.74954 18.1267 3.757 18.0484 3.75461L12.4186 3.7324Z" fill="#53FFF5"/>
<path d="M12.4337 6.12516H6.73443C6.58498 6.12516 6.44164 6.06578 6.33595 5.9601C6.23027 5.85442 6.1709 5.71108 6.1709 5.56162C6.1709 5.41216 6.23027 5.26882 6.33595 5.16314C6.44164 5.05745 6.58498 4.99808 6.73443 4.99808C7.15084 4.99808 7.56725 4.99808 7.98643 4.99808H18.069C18.1817 4.98627 18.2952 5.0092 18.3945 5.06378C18.4937 5.11837 18.5739 5.20199 18.6242 5.30345C18.6749 5.39127 18.6994 5.49173 18.695 5.59302C18.6906 5.69431 18.6574 5.79224 18.5992 5.87531C18.5486 5.95752 18.4768 6.02461 18.3913 6.06954C18.3058 6.11447 18.2099 6.1356 18.1134 6.13071H12.4337V6.12516Z" fill="#53FFF5"/>
</svg>
