<svg width="28" height="26" viewBox="0 0 28 26" fill="none" xmlns="http://www.w3.org/2000/svg">
<path d="M11.7288 17.8368C11.6004 17.8478 11.4713 17.8262 11.3533 17.7741C11.2354 17.722 11.1323 17.6409 11.0535 17.5384C10.9747 17.4359 10.9227 17.3152 10.9023 17.1872C10.8819 17.0593 10.8937 16.9283 10.9366 16.8061C11.0087 16.6187 11.0468 16.4228 11.1019 16.2312C11.8898 13.6161 12.7257 11.011 13.6096 8.41582C13.6562 8.27527 13.7028 8.13898 13.7578 7.98992C13.84 7.83342 13.9699 7.70758 14.1285 7.63091C14.2871 7.55424 14.4661 7.53079 14.6389 7.56401C14.7428 7.58352 14.8415 7.62415 14.9292 7.68342C15.0168 7.7427 15.0915 7.81936 15.1486 7.9087C15.2058 7.99804 15.2441 8.09817 15.2614 8.20296C15.2786 8.30774 15.2744 8.41496 15.2489 8.51804C14.3622 11.4767 13.4204 14.4211 12.4235 17.3513C12.3796 17.4994 12.287 17.6282 12.1607 17.7164C12.0345 17.8047 11.8822 17.8471 11.7288 17.8368V17.8368Z" fill="#065196"/>
<path d="M7.91233 12.7343L8.33593 12.9515C9.05605 13.288 9.77617 13.6202 10.4836 13.9737C10.5964 14.0293 10.6961 14.1087 10.7757 14.2064C10.8554 14.3042 10.9132 14.418 10.9453 14.5401C10.9847 14.6761 10.9844 14.8206 10.9446 14.9565C10.9049 15.0924 10.8272 15.2139 10.7208 15.3068C10.6372 15.406 10.5257 15.4775 10.4009 15.5117C10.2761 15.5459 10.144 15.5413 10.0219 15.4984C9.74379 15.4108 9.47205 15.3041 9.20855 15.179C7.99282 14.6296 6.78132 14.0631 5.58676 13.4754C5.46229 13.4144 5.35692 13.3202 5.2822 13.203C5.20748 13.0858 5.16629 12.9502 5.16316 12.811C5.13941 12.6558 5.16365 12.4969 5.23259 12.356C5.30153 12.2151 5.41186 12.0989 5.54864 12.0231C6.08661 11.7079 6.66695 11.4694 7.24304 11.2096C8.05212 10.8305 8.85273 10.4387 9.67451 10.0937C9.80159 10.0383 9.93714 9.99575 10.0685 9.95316C10.1982 9.91244 10.3375 9.91489 10.4657 9.96017C10.5939 10.0054 10.7042 10.0911 10.7801 10.2044C10.8921 10.3117 10.9682 10.4512 10.9978 10.6039C11.0274 10.7565 11.009 10.9146 10.9453 11.0563C10.862 11.2547 10.7121 11.4175 10.5217 11.5162L8.14955 12.6364L7.91233 12.7343Z" fill="#065196"/>
<path d="M18.2144 12.7301L17.634 12.4447C16.9732 12.121 16.2955 11.8186 15.6431 11.4694C15.5007 11.4136 15.3784 11.3158 15.2922 11.1889C15.206 11.0619 15.16 10.9118 15.1602 10.7581C15.1662 10.5923 15.2172 10.4313 15.3075 10.2925C15.3978 10.1536 15.5241 10.0422 15.6728 9.9702C15.7466 9.93642 15.8268 9.91895 15.9079 9.91895C15.989 9.91895 16.0691 9.93642 16.143 9.9702C16.808 10.2134 17.4574 10.4978 18.0873 10.822C18.9345 11.2053 19.7393 11.6057 20.5654 12.0018C20.6977 12.0641 20.8087 12.1646 20.8841 12.2905C20.9595 12.4164 20.996 12.562 20.989 12.7088C20.9995 12.8606 20.9649 13.0122 20.8894 13.1442C20.814 13.2761 20.7012 13.3825 20.5654 13.4498C19.1463 14.1696 17.7103 14.8511 16.2404 15.4644C16.081 15.5415 15.8995 15.5594 15.7282 15.5149C15.5569 15.4705 15.4067 15.3666 15.3042 15.2216C15.1981 15.0798 15.1406 14.9072 15.1406 14.7297C15.1406 14.5522 15.1981 14.3795 15.3042 14.2378C15.3832 14.1439 15.4815 14.0683 15.5923 14.0163C16.359 13.5904 17.1638 13.2539 17.9475 12.8663L18.2144 12.7301Z" fill="#065196"/>
<path d="M26.1573 10.1834C26.1573 7.20204 26.1573 4.25904 26.1573 1.29901C26.1718 1.23595 26.1718 1.17041 26.1573 1.10735C25.9794 0.72584 25.6916 0.406836 25.3313 0.191657C25.2317 0.119528 25.1147 0.0754226 24.9924 0.0638856C24.7467 0.0638856 24.5053 0.0340723 24.2596 0.0340723L18.7147 0H13.1316C9.27685 0 5.42068 0 1.56309 0C1.31494 0.00620882 1.07148 0.0692865 0.851256 0.184427C0.63103 0.299567 0.439851 0.463731 0.292284 0.66441C0.130461 0.847704 0.0401692 1.08374 0.0381241 1.32882C0.033888 1.86546 0 2.40636 0 2.943C0 8.24124 0 13.5381 0 18.8335C0 20.0175 0 21.2356 0.0381241 22.4366C0.0282508 22.7463 0.130618 23.049 0.326172 23.2884C0.44294 23.4573 0.594621 23.5987 0.770825 23.7031C0.947029 23.8075 1.14359 23.8723 1.34705 23.8932C2.47806 23.9188 3.60908 23.8932 4.73585 23.8932H13.4112H18.5325C18.6511 23.8932 18.7104 23.8932 18.6681 23.7314C18.6177 23.5527 18.6034 23.3657 18.6259 23.1814C18.6485 22.9971 18.7074 22.8192 18.7994 22.6581C18.8545 22.5644 18.8333 22.5175 18.7528 22.4579C18.6356 22.3802 18.5407 22.273 18.4775 22.147C18.4054 21.9894 18.2953 21.9681 18.1428 21.9724H2.09259C1.94856 21.9724 1.88502 21.9724 1.88502 21.7765C1.88502 16.4612 1.88502 11.1473 1.88502 5.83489C1.88502 5.65175 1.93585 5.60916 2.11377 5.60916C6.97105 5.60916 11.8298 5.61767 16.6899 5.63471C19.1524 5.63471 21.6135 5.63471 24.0732 5.63471C24.2469 5.63471 24.285 5.68156 24.285 5.85192C24.285 7.24463 24.285 8.64159 24.285 10.0386C24.285 11.4355 24.3147 12.9347 24.3147 14.3828C24.3147 14.9663 24.3147 15.554 24.3147 16.1418C24.3147 16.2312 24.3147 16.3121 24.429 16.3419C24.7793 16.4344 25.0819 16.6565 25.2762 16.9638C25.284 16.9806 25.295 16.9957 25.3085 17.0082C25.3221 17.0208 25.338 17.0305 25.3553 17.0368C25.3727 17.0432 25.3911 17.046 25.4095 17.0451C25.4279 17.0443 25.446 17.0398 25.4626 17.0319C25.6265 16.9713 25.8007 16.9438 25.9752 16.951C26.1362 16.951 26.1785 16.9041 26.1785 16.7465C26.1672 14.5659 26.1602 12.3782 26.1573 10.1834ZM18.8756 3.28372C18.8803 3.36316 18.8687 3.44272 18.8416 3.51749C18.8145 3.59226 18.7725 3.66067 18.7181 3.71852C18.6638 3.77636 18.5982 3.82241 18.5255 3.85384C18.4528 3.88527 18.3745 3.90142 18.2953 3.90128C18.0983 3.92455 17.8993 3.92455 17.7023 3.90128C17.6251 3.89695 17.5495 3.87726 17.4799 3.84337C17.4104 3.80947 17.3482 3.76204 17.297 3.70381C17.2457 3.64558 17.2065 3.57772 17.1816 3.50415C17.1566 3.43058 17.1464 3.35276 17.1516 3.2752C17.141 3.02931 17.1495 2.78296 17.177 2.53839C17.1837 2.44179 17.2192 2.34946 17.2789 2.27348C17.3386 2.1975 17.4197 2.14139 17.5116 2.11248C17.8354 2.00818 18.1834 2.00818 18.5071 2.11248C18.6098 2.14037 18.7005 2.20125 18.7655 2.28584C18.8305 2.37043 18.8662 2.47408 18.8672 2.58098C18.8672 2.71301 18.8672 2.8493 18.8884 2.96003C18.9095 3.07077 18.8799 3.18576 18.8756 3.28372ZM21.574 3.35612C21.5586 3.4886 21.4993 3.61199 21.4055 3.7063C21.3117 3.80061 21.1889 3.86031 21.0572 3.87573C20.8239 3.92477 20.5831 3.92477 20.3498 3.87573C20.2792 3.8695 20.2107 3.84887 20.1483 3.81511C20.0859 3.78134 20.0311 3.73514 19.987 3.67933C19.943 3.62353 19.9108 3.55928 19.8923 3.49053C19.8739 3.42178 19.8695 3.34996 19.8796 3.27946V2.98133C19.8796 2.8493 19.8796 2.72153 19.8796 2.59376C19.8838 2.4573 19.9396 2.3276 20.0356 2.23107C20.1317 2.13453 20.2607 2.07842 20.3964 2.07415C20.6209 2.07415 20.8496 2.07415 21.0784 2.07415C21.1888 2.0851 21.2935 2.1291 21.3788 2.20047C21.4641 2.27184 21.5262 2.36729 21.557 2.4745C21.6232 2.76405 21.6289 3.06423 21.574 3.35612V3.35612ZM24.2808 3.35612C24.2798 3.49071 24.2273 3.61976 24.1343 3.7165C24.0412 3.81324 23.9147 3.87026 23.7809 3.87573C23.6539 3.90128 23.5268 3.9098 23.4166 3.92258C23.3065 3.93535 23.2006 3.92258 23.1032 3.90128C22.9792 3.89594 22.8608 3.84765 22.7682 3.76459C22.6755 3.68154 22.6143 3.56882 22.5949 3.44556C22.5224 3.13028 22.5224 2.80256 22.5949 2.48728C22.6139 2.38392 22.6653 2.28936 22.7415 2.21736C22.8176 2.14536 22.9147 2.09967 23.0185 2.08693C23.2705 2.04055 23.5289 2.04055 23.7809 2.08693C23.9053 2.09471 24.0232 2.14569 24.1143 2.23113C24.2055 2.31658 24.2643 2.43121 24.2808 2.55542C24.3289 2.82585 24.3289 3.10273 24.2808 3.37316V3.35612Z" fill="#065196"/>
<path d="M27.9957 21.3933C27.9745 21.1883 27.9406 20.9849 27.894 20.7842C27.7669 20.205 27.894 20.2774 27.2459 20.2987C27.0553 20.2987 26.8477 20.4478 26.674 20.32C26.5004 20.1922 26.4622 19.975 26.3521 19.8047C26.3276 19.7722 26.3165 19.7314 26.3212 19.6909C26.326 19.6504 26.3462 19.6133 26.3775 19.5874C26.5316 19.4057 26.6731 19.2136 26.8011 19.0125C26.8212 18.9894 26.8365 18.9626 26.8461 18.9335C26.8557 18.9044 26.8594 18.8737 26.8571 18.8431C26.8547 18.8126 26.8463 18.7828 26.8323 18.7556C26.8183 18.7283 26.7991 18.7042 26.7757 18.6845C26.5327 18.4317 26.2644 18.2048 25.9751 18.0073C25.9591 17.9948 25.9407 17.9856 25.9211 17.9803C25.9014 17.9751 25.881 17.9738 25.8608 17.9765C25.8407 17.9793 25.8214 17.9861 25.8039 17.9965C25.7864 18.0069 25.7712 18.0207 25.7591 18.0372C25.5593 18.2081 25.3776 18.3994 25.2169 18.6079C25.2059 18.6276 25.1911 18.6449 25.1734 18.6588C25.1556 18.6727 25.1354 18.6829 25.1137 18.6889C25.092 18.6948 25.0694 18.6964 25.0471 18.6934C25.0248 18.6905 25.0033 18.6831 24.9839 18.6717C24.8187 18.6079 24.6492 18.5397 24.4756 18.4844C24.3739 18.4545 24.3442 18.3992 24.3485 18.2927C24.3485 18.0712 24.3485 17.8668 24.3485 17.624C24.3485 17.3813 24.268 17.3259 24.0901 17.3131C23.787 17.2876 23.4824 17.2876 23.1793 17.3131C22.9675 17.3387 22.8955 17.4366 22.8786 17.6538C22.8786 17.7518 22.8786 17.854 22.8574 17.952C22.8574 18.1181 22.9167 18.331 22.8066 18.4418C22.6964 18.5525 22.5016 18.5695 22.3491 18.6419C22.288 18.6773 22.2156 18.6878 22.1471 18.6711C22.0785 18.6545 22.0189 18.612 21.9806 18.5525C21.8535 18.4034 21.7222 18.2501 21.5866 18.1266C21.451 18.0031 21.3367 17.9477 21.163 18.0883C21.0039 18.2063 20.8512 18.3328 20.7055 18.4673C20.2819 18.8464 20.2819 18.8932 20.6462 19.3191C21.0105 19.745 21.002 19.745 20.6759 20.2093V20.2348C20.6446 20.2986 20.5908 20.3484 20.525 20.3744C20.4592 20.4004 20.3861 20.4007 20.32 20.3754C20.1294 20.3285 19.9303 20.3072 19.7948 20.2817C19.5321 20.2817 19.5025 20.3072 19.4517 20.5117C19.3803 20.8075 19.3279 21.1077 19.2949 21.4103C19.2949 21.6233 19.3203 21.7042 19.5279 21.751C19.7355 21.7979 19.9515 21.832 20.1464 21.8703C20.2046 21.8743 20.2594 21.8993 20.3007 21.9408C20.342 21.9823 20.3669 22.0375 20.3709 22.096C20.3891 22.2398 20.4174 22.3821 20.4556 22.5219C20.4709 22.5722 20.4668 22.6265 20.444 22.6739C20.4212 22.7213 20.3815 22.7583 20.3327 22.7775C20.1633 22.8712 19.9981 22.9691 19.8371 23.0756C19.791 23.0929 19.7494 23.1208 19.7158 23.157C19.6822 23.1932 19.6574 23.2368 19.6435 23.2843C19.6295 23.3318 19.6267 23.382 19.6353 23.4307C19.6439 23.4795 19.6637 23.5256 19.6931 23.5654C19.8239 23.8397 19.9784 24.1019 20.1548 24.349C20.1687 24.3749 20.1878 24.3974 20.211 24.4153C20.2341 24.4332 20.2607 24.446 20.2891 24.4528C20.3175 24.4596 20.347 24.4604 20.3757 24.455C20.4044 24.4496 20.4316 24.4382 20.4556 24.4215C20.6589 24.315 20.8792 24.2085 21.0656 24.085C21.1884 24.0126 21.2731 23.9955 21.379 24.1148C21.486 24.2308 21.6037 24.3364 21.7306 24.43C21.7691 24.4545 21.7964 24.4933 21.8067 24.5379C21.817 24.5825 21.8095 24.6294 21.7857 24.6685C21.7052 24.9027 21.6332 25.137 21.5612 25.3712C21.5508 25.3938 21.5451 25.4182 21.5444 25.4431C21.5437 25.4679 21.548 25.4927 21.5571 25.5158C21.5662 25.5389 21.5799 25.5599 21.5974 25.5775C21.6148 25.5951 21.6357 25.609 21.6586 25.6182C21.9755 25.7824 22.3113 25.9069 22.6583 25.9888C22.7106 26.0067 22.7677 26.0033 22.8176 25.9794C22.8674 25.9556 22.906 25.9131 22.9252 25.861C23.0358 25.6411 23.1266 25.4116 23.1963 25.1753C23.1998 25.1513 23.2081 25.1284 23.2209 25.1078C23.2337 25.0873 23.2506 25.0697 23.2705 25.056C23.2904 25.0424 23.3129 25.0331 23.3366 25.0287C23.3603 25.0243 23.3846 25.0249 23.4081 25.0305C23.559 25.0411 23.7104 25.0411 23.8613 25.0305C23.8922 25.0243 23.924 25.0244 23.9549 25.0308C23.9858 25.0371 24.0151 25.0496 24.0411 25.0674C24.0671 25.0852 24.0893 25.1081 24.1065 25.1347C24.1236 25.1612 24.1353 25.191 24.1409 25.2222C24.2087 25.4351 24.2934 25.6481 24.3781 25.8482C24.3871 25.8759 24.4016 25.9014 24.4207 25.9233C24.4399 25.9451 24.4633 25.9627 24.4895 25.9751C24.5157 25.9875 24.5441 25.9943 24.5731 25.9952C24.602 25.9961 24.6308 25.991 24.6577 25.9803C24.9804 25.8988 25.2963 25.792 25.6023 25.6608C25.6303 25.6521 25.6563 25.6379 25.6787 25.619C25.7012 25.6001 25.7196 25.5769 25.733 25.5507C25.7464 25.5245 25.7545 25.4959 25.7568 25.4666C25.7591 25.4372 25.7556 25.4077 25.7464 25.3797C25.7167 25.2434 25.6786 25.1072 25.6362 24.9538C25.4668 24.4513 25.4668 24.4555 25.8819 24.1404C25.939 24.089 26.0111 24.0575 26.0874 24.0506C26.1637 24.0436 26.2402 24.0617 26.3055 24.102C26.4834 24.2 26.6656 24.2937 26.8392 24.3959C26.8642 24.4142 26.8927 24.4269 26.9229 24.4332C26.9532 24.4395 26.9844 24.4392 27.0145 24.4324C27.0446 24.4255 27.0729 24.4122 27.0975 24.3935C27.122 24.3747 27.1423 24.3508 27.157 24.3235C27.3026 24.1198 27.4342 23.9064 27.5509 23.6846C27.7754 23.2843 27.7585 23.2289 27.373 22.9904C26.835 22.654 26.835 22.654 26.9494 22.0279C26.9706 21.9086 27.0129 21.849 27.1442 21.8362C27.3578 21.81 27.5698 21.7731 27.7796 21.7255C27.9576 21.6871 28.0169 21.5977 27.9957 21.3933ZM23.6326 22.9989C23.3685 22.9989 23.1104 22.9201 22.8908 22.7725C22.6713 22.6249 22.5003 22.4151 22.3994 22.1698C22.2986 21.9244 22.2724 21.6544 22.3242 21.394C22.376 21.1337 22.5035 20.8946 22.6906 20.7072C22.8776 20.5197 23.1158 20.3923 23.3749 20.341C23.634 20.2897 23.9024 20.3169 24.1462 20.4191C24.3899 20.5213 24.598 20.6939 24.7441 20.9151C24.8902 21.1363 24.9678 21.3961 24.9669 21.6616C24.9647 22.0163 24.8233 22.3558 24.5734 22.6063C24.3235 22.8567 23.9854 22.9978 23.6326 22.9989V22.9989Z" fill="#065196"/>
</svg>
