<svg width="26" height="19" viewBox="0 0 26 19" fill="none" xmlns="http://www.w3.org/2000/svg">
<path fill-rule="evenodd" clip-rule="evenodd" d="M2.6 0H23.4C24.83 0 26 1.06875 26 2.375V16.625C26 17.9312 24.83 19 23.4 19H2.6C1.17 19 0 17.9312 0 16.625V2.375C0 1.06875 1.17 0 2.6 0ZM14.378 9.90377L22.88 5.0469C23.205 4.8569 23.4 4.53627 23.4 4.1919C23.4 3.39627 22.451 2.92127 21.71 3.3369L13 8.31252L4.29 3.3369C3.549 2.92127 2.6 3.39627 2.6 4.1919C2.6 4.53627 2.795 4.8569 3.12 5.0469L11.622 9.90377C12.467 10.3906 13.533 10.3906 14.378 9.90377Z" fill="#53FFF5"/>
</svg>
