<svg width="28" height="22" viewBox="0 0 28 22" fill="none" xmlns="http://www.w3.org/2000/svg">
<path fill-rule="evenodd" clip-rule="evenodd" d="M2.80049 0H25.2005C26.7405 0 28.0005 1.2375 28.0005 2.75V19.25C28.0005 20.7625 26.7405 22 25.2005 22H2.80049C1.26049 22 0.000488281 20.7625 0.000488281 19.25V2.75C0.000488281 1.2375 1.26049 0 2.80049 0ZM15.4845 11.4675L24.6405 5.84377C24.9905 5.62378 25.2005 5.25252 25.2005 4.85378C25.2005 3.93252 24.1785 3.38252 23.3805 3.86377L14.0005 9.62503L4.62049 3.86377C3.82249 3.38252 2.80049 3.93252 2.80049 4.85378C2.80049 5.25252 3.01049 5.62378 3.36049 5.84377L12.5165 11.4675C13.4265 12.0313 14.5745 12.0313 15.4845 11.4675Z" fill="#007175"/>
</svg>
