<svg width="30" height="26" viewBox="0 0 30 26" fill="none" xmlns="http://www.w3.org/2000/svg">
<path fill-rule="evenodd" clip-rule="evenodd" d="M6.72246 0.0479899C4.8227 0.213509 2.27939 0.835585 0.55709 1.55605L0 1.78906V13.3311V24.8733L6.50615 24.8743L13.0123 24.8754L13.1528 25.0787C13.427 25.4755 13.9187 25.8125 14.4091 25.9398C14.7189 26.0202 15.2791 26.0201 15.5909 25.9395C16.0807 25.813 16.5729 25.4757 16.8472 25.0787L16.9877 24.8754L23.4939 24.8743L30 24.8733V13.3443V1.81542L29.794 1.71292C28.6563 1.14682 26.1688 0.443135 24.3852 0.182844C23.1842 0.00758595 21.656 -0.0481506 20.5738 0.043885C19.0069 0.177089 17.3068 0.540563 15.694 1.08714L14.9923 1.32494L14.5966 1.18272C12.9833 0.603061 11.1208 0.193106 9.42623 0.04469C8.87959 -0.00319911 7.28783 -0.00126742 6.72246 0.0479899ZM9.67213 2.35476C10.7682 2.50217 12.1467 2.81208 13.2702 3.16376L13.8525 3.34598V12.4596C13.8525 20.0619 13.8433 21.5733 13.7974 21.5733C13.7671 21.5733 13.6334 21.5365 13.5003 21.4914C13.0824 21.35 12.0937 21.0966 11.4754 20.9725C8.63799 20.4029 6.11238 20.5099 3.2582 21.3206C2.82992 21.4423 2.44721 21.551 2.4077 21.5623C2.33939 21.5818 2.33639 21.1362 2.34623 12.4566L2.35656 3.33049L2.70492 3.21443C4.03709 2.77063 5.41221 2.46567 6.7418 2.31918C7.41561 2.24497 8.99852 2.26417 9.67213 2.35476ZM23.7235 2.37472C24.8467 2.52768 26.0782 2.81328 27.1721 3.17463L27.6434 3.33032L27.6538 12.4565C27.6636 21.1362 27.6606 21.5818 27.5923 21.5623C25.3929 20.9352 24.4713 20.7513 23.0123 20.6483C21.021 20.5078 18.8384 20.7793 16.6951 21.4339C16.444 21.5106 16.2181 21.5733 16.193 21.5733C16.1598 21.5733 16.1475 19.112 16.1475 12.4603V3.34731L16.5881 3.20803C18.0258 2.75344 19.3448 2.46514 20.6641 2.31705C21.3954 2.23499 22.9064 2.26348 23.7235 2.37472ZM21.6598 5.67259C21.138 5.80768 20.7814 6.24323 20.7796 6.74788C20.777 7.43639 21.2562 7.9045 21.9552 7.89633C22.5907 7.88884 23.134 7.28914 23.0601 6.67677C22.9927 6.11755 22.5523 5.69552 21.9949 5.65584C21.8782 5.64755 21.7275 5.65508 21.6598 5.67259ZM19.6048 10.1846L19.6082 11.3114H20.1935H20.7787V14.1421V16.9728L21.916 16.9692L23.0533 16.9655L23.0637 13.0117L23.0742 9.05778H21.3377H19.6012L19.6048 10.1846Z" fill="#065196"/>
</svg>
