<svg width="26" height="26" viewBox="0 0 26 26" fill="none" xmlns="http://www.w3.org/2000/svg">
<path fill-rule="evenodd" clip-rule="evenodd" d="M12.1432 0.021898C11.8562 0.0439987 11.3263 0.0994737 11.1885 0.121879C11.1271 0.131873 11.0037 0.150378 10.9143 0.163033C10.6695 0.197708 10.1763 0.298278 9.86816 0.376382C9.71734 0.414611 9.57108 0.451642 9.54315 0.45867C9.05767 0.580955 8.3263 0.84208 7.68451 1.1223C7.471 1.21552 6.78019 1.56718 6.54697 1.70138C4.77693 2.71992 3.25266 4.15053 2.14033 5.83721C1.77919 6.38485 1.6541 6.60247 1.35062 7.21098C1.15304 7.60723 1.13002 7.65704 0.980071 8.01335C0.753397 8.55197 0.537611 9.20443 0.432532 9.66887C0.41358 9.75266 0.385202 9.85778 0.36948 9.90247C0.353758 9.94716 0.332571 10.0249 0.322414 10.0751C0.312238 10.1254 0.276527 10.2991 0.243051 10.4611C0.209575 10.6231 0.171773 10.8287 0.159036 10.9181C0.14632 11.0075 0.127165 11.1355 0.11646 11.2025C-0.0388335 12.176 -0.0388132 13.8238 0.11648 14.7979C0.127165 14.865 0.14632 14.9929 0.159056 15.0823C0.281707 15.9432 0.610921 17.1078 0.980172 17.9871C1.03179 18.11 1.08513 18.2374 1.0987 18.2703C1.13841 18.3666 1.53005 19.1512 1.62144 19.3176C1.96574 19.9444 2.66287 20.9569 2.93041 21.2185C3.14195 21.4255 3.36072 21.5344 3.66201 21.5829C3.81064 21.6068 3.8832 21.6087 4.00526 21.5917C4.31556 21.5486 4.58987 21.4188 4.76999 21.2299C5.03694 20.95 5.15553 20.6655 5.15553 20.3049C5.15553 20.1911 5.14251 20.0481 5.1266 19.9871C5.0878 19.8384 4.98496 19.6326 4.89351 19.5207C4.64589 19.2177 4.25686 18.6512 4.02683 18.2586C3.25782 16.9462 2.81867 15.5787 2.64477 13.9549C2.59811 13.5192 2.59811 12.4812 2.64477 12.0455C2.83663 10.2542 3.34559 8.78563 4.27457 7.34302C4.64057 6.77466 5.28033 5.98734 5.70099 5.58764C5.75292 5.5383 5.87309 5.42378 5.96805 5.33312C6.06301 5.24248 6.17309 5.14443 6.21268 5.11522C6.25227 5.08603 6.31784 5.03145 6.35839 4.99395C6.44974 4.90949 6.55427 4.82592 6.64899 4.76163C6.68878 4.73464 6.74598 4.68968 6.77613 4.66173C6.80627 4.63378 6.83747 4.61091 6.84545 4.61091C6.85344 4.61091 6.88145 4.59035 6.90769 4.5652C6.93394 4.54006 6.97946 4.50579 7.00889 4.48903C7.03831 4.47227 7.20197 4.36778 7.3726 4.25683C7.82016 3.96581 8.37986 3.66109 8.77126 3.49533C8.8327 3.46931 8.91954 3.43163 8.96423 3.4116C9.76609 3.05225 10.907 2.7641 11.9909 2.64722C12.4438 2.59839 13.5447 2.59851 14.0019 2.64747C15.0886 2.76382 16.0476 3.00469 16.9879 3.39747C18.0465 3.83968 18.9167 4.38021 19.8114 5.15142C20.1088 5.40777 20.7807 6.07644 20.8807 6.21564C20.9168 6.26592 20.9966 6.36626 21.058 6.43864C21.1194 6.511 21.2577 6.68924 21.3654 6.83475C22.3802 8.2057 23.034 9.80228 23.2835 11.5192C23.3615 12.0556 23.3817 12.3604 23.3817 13.0002C23.3817 13.64 23.3615 13.9449 23.2835 14.4812C23.065 15.9844 22.5418 17.3826 21.7209 18.6574C21.5683 18.8945 21.5574 18.9107 21.4686 19.0332C21.4241 19.0946 21.3629 19.1815 21.3327 19.2262C21.3024 19.2709 21.2608 19.3194 21.2403 19.334C21.2197 19.3486 21.2028 19.3714 21.2028 19.3848C21.2028 19.3981 21.1823 19.4334 21.1571 19.4631C21.0706 19.5658 21.0498 19.592 21.0045 19.6559C20.9795 19.6911 20.959 19.7323 20.959 19.7473C20.9589 19.7623 20.9441 19.8021 20.9261 19.8356C20.8661 19.9474 20.8377 20.0978 20.8375 20.3057C20.837 20.6651 20.9558 20.95 21.2228 21.2299C21.4026 21.4185 21.6774 21.5476 21.9949 21.5926C22.1085 21.6087 22.1838 21.6066 22.3303 21.583C22.632 21.5344 22.8507 21.4256 23.0623 21.2185C23.3299 20.9569 24.027 19.9444 24.3713 19.3176C24.4627 19.1512 24.8543 18.3666 24.8941 18.2703C24.9076 18.2374 24.961 18.11 25.0126 17.9871C25.3824 17.1064 25.697 15.9939 25.8338 15.0823C25.8456 15.0041 25.8642 14.8807 25.8753 14.8081C26.033 13.7707 26.0334 12.1876 25.8763 11.2025C25.8656 11.1355 25.8464 11.0075 25.8337 10.9181C25.7115 10.0605 25.3787 8.88318 25.0127 8.01335C24.8627 7.65704 24.8397 7.60723 24.6421 7.21098C24.3389 6.60301 24.2135 6.38473 23.8538 5.83926C22.8495 4.31635 21.4503 2.94678 19.9132 1.98219C19.2817 1.58588 18.5453 1.20993 17.8512 0.929487C17.4412 0.763854 16.7925 0.545996 16.4496 0.458792C15.9659 0.335816 15.8106 0.298887 15.5965 0.255864C15.1863 0.173495 15.1019 0.160169 14.5503 0.0907594C13.8833 0.0067851 12.7579 -0.0253908 12.1432 0.021898ZM12.3464 5.22321C11.4981 5.30342 10.6714 5.50345 9.98793 5.79382C9.55811 5.97644 8.91138 6.3307 8.56283 6.57447C7.74396 7.14718 7.01586 7.88975 6.48912 8.68935C5.8192 9.70628 5.42137 10.7773 5.25378 12.015C5.2131 12.3155 5.2071 12.4435 5.20767 13.0002C5.20824 13.5479 5.21496 13.6898 5.25443 13.9854C5.41669 15.2007 5.81926 16.2936 6.46694 17.2771C6.56818 17.4308 6.78703 17.6722 6.82516 17.6722C6.83459 17.6722 6.87641 17.693 6.91809 17.7185C7.58038 18.1228 8.52358 17.7868 8.7871 17.0527C8.94016 16.6262 8.8778 16.2233 8.58482 15.7459C8.42204 15.4807 8.20022 15.0289 8.10438 14.7675C8.0178 14.5313 7.90328 14.0781 7.85284 13.7721C7.79568 13.4254 7.79099 12.6139 7.84423 12.2791C8.06607 10.8834 8.75594 9.70789 9.84535 8.86916C10.5551 8.32274 11.2753 8.0155 12.2143 7.85861C12.5687 7.79939 13.3313 7.79415 13.687 7.84849C14.1812 7.92395 14.6617 8.05796 15.0582 8.23082C16.2329 8.74314 17.1643 9.65081 17.7075 10.8125C17.9259 11.2797 18.0608 11.7383 18.1481 12.3096C18.1978 12.6348 18.1978 13.3656 18.1481 13.6909C18.0271 14.4832 17.7914 15.1269 17.3776 15.7957C17.2381 16.0211 17.1961 16.1166 17.1531 16.3057C16.9861 17.0397 17.4834 17.7594 18.2388 17.8771C18.6748 17.945 19.1203 17.7857 19.387 17.4666C19.6269 17.1793 20.0301 16.4327 20.252 15.8644C20.3558 15.5986 20.3989 15.4693 20.5302 15.0288C20.6819 14.52 20.7944 13.656 20.7944 13.0002C20.7944 12.3444 20.6819 11.4804 20.5302 10.9716C20.399 10.5314 20.3559 10.4019 20.2524 10.1361C20.0299 9.5645 19.7584 9.06281 19.3401 8.45008C19.074 8.06036 18.4739 7.41074 18.0437 7.04655C17.5499 6.62863 17.0368 6.29281 16.4591 6.00953C16.0474 5.80765 15.9744 5.77603 15.641 5.65518C15.0483 5.44031 14.4189 5.30121 13.7277 5.23231C13.4285 5.20249 12.6217 5.19717 12.3464 5.22321ZM12.5901 10.4292C12.0058 10.5338 11.5614 10.7612 11.1589 11.1619C10.7908 11.5283 10.5554 11.966 10.4433 12.4924C10.3919 12.734 10.3919 13.268 10.4434 13.5071C10.5467 13.9859 10.7741 14.4248 11.094 14.7623C11.2451 14.9217 11.4414 15.0874 11.5898 15.1808L11.6762 15.2352L11.671 18.6628L11.6659 22.0903L10.1627 22.1019C8.57619 22.1141 8.57568 22.1142 8.16187 22.2191C7.72367 22.3303 7.35911 22.4879 7.00491 22.7193C6.00315 23.374 5.37345 24.3948 5.23767 25.5842C5.2262 25.6847 5.21673 25.8194 5.21663 25.8835L5.21647 26L12.9964 25.9999L20.7763 25.9998L20.7759 25.8631C20.7746 25.4201 20.622 24.7907 20.4056 24.3358C20.1513 23.8012 19.778 23.3262 19.3327 22.9702C18.8543 22.5879 18.4114 22.3663 17.8309 22.2191C17.4171 22.1142 17.4166 22.1141 15.8301 22.1019L14.3269 22.0903L14.3217 18.6628L14.3166 15.2352L14.403 15.1808C14.6585 15.0199 14.9732 14.7139 15.1448 14.4597C15.4289 14.0386 15.5692 13.6119 15.5905 13.1035C15.6227 12.3383 15.3602 11.6855 14.801 11.1398C14.4237 10.7717 14.04 10.5645 13.5245 10.4504C13.3192 10.405 12.7923 10.3931 12.5901 10.4292Z" fill="#065196"/>
</svg>
