<svg width="100" height="100" viewBox="0 0 100 100" fill="none" xmlns="http://www.w3.org/2000/svg">
<path d="M0.0178055 83.6019C0.178055 82.9432 0.326434 82.2844 0.498554 81.6375C1.23208 78.9587 2.68052 76.5297 4.68878 74.6109C10.6754 68.6486 16.656 62.6724 22.6308 56.6823C22.886 56.4271 23.1768 56.2194 23.5092 55.9464C23.1531 55.5547 22.9157 55.2877 22.6486 54.9969C22.1694 54.4416 21.9162 53.7265 21.9393 52.9934C21.9624 52.2603 22.26 51.5625 22.7732 51.0385C23.3024 50.5223 24.0052 50.2223 24.744 50.197C25.4828 50.1718 26.2044 50.4232 26.7676 50.902C26.916 51.0325 27.0525 51.175 27.189 51.3115C34.3626 58.4726 41.5283 65.6476 48.6861 72.8364C49.2566 73.44 49.6382 74.197 49.7841 75.0145C49.8788 75.5851 49.7749 76.171 49.4897 76.6742C49.2046 77.1775 48.7554 77.5678 48.2173 77.78C47.7105 78.0489 47.1331 78.155 46.5638 78.0838C45.9945 78.0127 45.461 77.7677 45.036 77.3824C44.7571 77.1628 44.5137 76.8957 44.1814 76.5812C43.9024 76.8542 43.6234 77.1094 43.3564 77.3765C37.4212 83.3111 31.486 89.2458 25.5509 95.1804C23.1809 97.7207 20.0112 99.3714 16.571 99.8569C16.4454 99.8883 16.3239 99.9341 16.2089 99.9934H12.8852C12.7134 99.9207 12.5369 99.8592 12.357 99.8094C6.18444 98.6225 2.23162 94.9846 0.451072 88.9787C0.267082 88.3852 0.148379 87.7324 0 87.1093L0.0178055 83.6019ZM30.3465 73.0323C30.2693 71.3587 29.7233 70.4388 28.6075 69.9581C28.0588 69.6908 27.4381 69.6087 26.8387 69.7243C26.2394 69.8399 25.6937 70.1469 25.2838 70.5991C20.3497 75.513 15.4275 80.4368 10.5171 85.3704C9.96617 85.9158 9.65447 86.6577 9.65058 87.4329C9.64668 88.2081 9.95091 88.953 10.4963 89.5039C11.0418 90.0548 11.7837 90.3665 12.559 90.3704C13.3342 90.3743 14.0792 90.0701 14.6302 89.5247C19.5682 84.6227 24.4865 79.6969 29.385 74.7474C29.7934 74.2296 30.1179 73.6509 30.3465 73.0323Z" fill="#007175"/>
<path d="M0.0195312 15.2586C0.0907532 14.95 0.179781 14.6651 0.239132 14.3328C0.666464 11.8699 3.20671 10.8966 5.12377 12.4633C7.04083 14.0301 8.74422 15.5316 10.5544 17.0686L11.3854 17.757L17.7597 11.3832C16.0445 9.38325 14.2936 7.31206 12.5427 5.23493C12.1678 4.83878 11.9093 4.34697 11.7957 3.81352C11.6821 3.28008 11.7177 2.72564 11.8986 2.21111C12.0796 1.69658 12.3988 1.24186 12.8213 0.896909C13.2438 0.551958 13.7532 0.330119 14.2936 0.255758C23.7602 -1.43562 33.019 5.46045 33.9805 15.0746C34.0776 17.0461 33.9762 19.0224 33.6778 20.9736C33.622 21.233 33.6348 21.5024 33.7149 21.7553C33.7951 22.0082 33.9398 22.2359 34.1348 22.4157C38.0402 26.2891 41.9297 30.1763 45.8034 34.0773C46.0349 34.3029 46.2485 34.5402 46.3969 34.6708L34.6928 46.4036C34.5444 46.2671 34.2832 46.0297 34.034 45.8102C30.1939 41.9645 26.3182 38.1307 22.5197 34.2732C22.3194 34.0293 22.051 33.8505 21.7487 33.7597C21.4464 33.6688 21.1239 33.6699 20.8223 33.7628C18.5151 34.2913 16.1228 34.3319 13.799 33.8818C11.4752 33.4318 9.27112 32.5011 7.3281 31.1494C5.38508 29.7977 3.74602 28.0549 2.51605 26.0328C1.28607 24.0106 0.492323 21.7537 0.185716 19.4069C0.144495 19.2631 0.0888157 19.124 0.0195313 18.9915L0.0195312 15.2586Z" fill="#D8D8D8"/>
<path d="M81.2521 99.9999C79.6055 99.6589 77.9821 99.2149 76.3912 98.6705C72.6648 97.1561 69.6012 94.3617 67.7516 90.79C65.9019 87.2184 65.3877 83.104 66.3014 79.187C66.3959 78.8854 66.3965 78.5622 66.3032 78.2602C66.21 77.9581 66.0272 77.6916 65.7791 77.4957C62.0162 73.7628 58.2771 70.0061 54.5023 66.2614C54.1818 65.9409 53.8079 65.6679 53.5586 65.4661L65.3636 53.6621C65.4527 53.7452 65.7079 53.9826 65.9572 54.2556C69.8467 58.1408 73.7322 62.03 77.6138 65.9231C77.7844 66.1315 78.0138 66.2836 78.2721 66.3598C78.5304 66.4361 78.8056 66.4328 79.062 66.3504C81.788 65.7112 84.6295 65.7532 87.3354 66.4729C90.0413 67.1925 92.5282 68.5676 94.5764 70.4766C96.6245 72.3855 98.1709 74.7696 99.0788 77.4181C99.9866 80.0665 100.228 82.8978 99.7817 85.6618C99.3899 88.1662 96.8141 89.181 94.8673 87.5668C92.7663 85.8279 90.7127 84.0357 88.6948 82.3324L82.3204 88.724C83.8813 90.5638 85.5432 92.5578 87.2525 94.5163C88.1309 95.5192 88.6057 96.5815 88.1012 97.899C87.5968 99.2165 86.5344 99.7269 85.2049 99.8396C85.0524 99.8745 84.9048 99.9284 84.7657 99.9999H81.2521Z" fill="#D8D8D8"/>
<path d="M47.4997 63.0394L36.8164 52.4104C37.1467 52.2817 37.4566 52.1058 37.7364 51.8882C49.1398 40.5095 60.5274 29.1189 71.8992 17.7165C72.3729 17.2061 72.708 16.583 72.8725 15.9064C73.2583 14.4287 73.5195 12.9391 73.8043 11.4198C73.8753 10.9341 74.0518 10.4699 74.3215 10.0597C74.5912 9.64961 74.9475 9.30356 75.3653 9.04594C79.7652 6.27644 84.1572 3.48715 88.5414 0.678085C90.1557 -0.348609 91.3902 -0.212112 92.7435 1.12912C94.8049 3.17064 96.8526 5.22007 98.8864 7.27742C100.186 8.58304 100.323 9.85306 99.3374 11.4317C96.5538 15.8293 93.7465 20.209 90.9688 24.6066C90.716 25.0239 90.3763 25.382 89.9728 25.6564C89.5693 25.9309 89.1115 26.1153 88.6304 26.1971C87.0635 26.4998 85.4966 26.7906 83.9535 27.1644C83.3683 27.3036 82.83 27.5943 82.3925 28.0072C70.9733 39.4056 59.5619 50.812 48.1585 62.2264C47.9092 62.4816 47.6956 62.7724 47.4997 63.0394Z" fill="#007175"/>
</svg>
