<svg width="100" height="100" viewBox="0 0 100 100" fill="none" xmlns="http://www.w3.org/2000/svg">
<g clip-path="url(#clip0_574_4513)">
<path d="M0 50.4414V48.4494C0.0457956 48.3575 0.081673 48.261 0.107028 48.1615C0.356595 46.1906 1.24947 44.3565 2.64777 42.9424C4.44863 41.0851 6.27741 39.2927 8.10619 37.4818C10.0932 35.5084 12.6898 35.5037 14.6768 37.4818C17.5153 40.2957 20.3446 43.1188 23.1645 45.9513C25.1981 47.9897 25.1934 50.5947 23.1645 52.6052C22.071 53.7011 20.9681 54.7876 19.9072 55.8556C19.9268 55.93 19.9517 56.0029 19.9816 56.0738C22.9891 62.5176 28.1478 67.7177 34.5746 70.784C34.6954 70.8621 34.842 70.8898 34.9829 70.8611C35.1239 70.8325 35.248 70.7497 35.3285 70.6308C36.3103 69.6324 37.3062 68.6434 38.302 67.659C40.3262 65.6577 42.9088 65.6531 44.9238 67.659C47.7623 70.476 50.59 73.3007 53.4069 76.1331C53.8072 76.529 54.1474 76.9811 54.4167 77.4751C54.8529 78.3008 55.008 79.2457 54.8586 80.1671C54.7092 81.0886 54.2633 81.9365 53.5884 82.5828C52.895 83.2978 52.1644 83.9758 51.3687 84.7466C52.7042 86.0467 54.0072 87.2029 55.1845 88.4613C55.9691 89.3152 56.5253 90.3528 56.8016 91.478C57.0779 92.6033 57.0654 93.7799 56.7653 94.8991C56.4652 96.0183 55.8871 97.0439 55.0846 97.8811C54.282 98.7183 53.2809 99.34 52.1737 99.6889C51.8015 99.805 51.4199 99.8978 51.0383 100H17.7247C17.5665 99.9071 17.4083 99.8189 17.2594 99.7214C16.9476 99.5429 16.696 99.2758 16.5369 98.9541C16.3778 98.6324 16.3183 98.2707 16.3659 97.9151C16.391 97.5568 16.5266 97.2149 16.754 96.9364C16.9814 96.6579 17.2896 96.4564 17.6363 96.3596C17.9575 96.2719 18.29 96.2328 18.6228 96.2435C28.9254 96.2435 39.2296 96.2435 49.5353 96.2435C49.7633 96.2435 50.0006 96.2435 50.224 96.2435C50.8269 96.2373 51.4137 96.0484 51.9065 95.7017C52.3993 95.3551 52.7749 94.8671 52.9834 94.3026C53.2359 93.7691 53.3177 93.171 53.2178 92.5896C53.1179 92.0081 52.8411 91.4713 52.425 91.0522C51.3501 89.9146 50.2193 88.8234 49.1072 87.7137C49.0094 87.6162 48.8977 87.5326 48.679 87.3515C48.5503 87.5545 48.4056 87.7471 48.2463 87.9273C44.7935 91.3355 40.0005 91.7859 35.9753 89.0881C23.6309 80.8581 12.8727 70.4771 4.21597 58.4419C2.43837 55.9717 0.390884 53.6314 0 50.4414Z" fill="#007175"/>
<path d="M73.4734 18.6391C72.2081 17.271 70.554 16.3815 68.7655 16.1075C68.4763 16.0647 67.5684 15.9934 67.3599 16.0005C65.2615 16.0347 63.2493 16.8907 61.7105 18.4038C61.5827 18.525 61.0379 19.1169 60.8832 19.3308C59.6644 20.9392 59 22.9406 59 25.0038C59 27.0671 59.6644 29.0685 60.8832 30.6768C61.0514 30.8907 61.6567 31.5611 61.8181 31.7108C63.3239 33.1244 65.2489 33.9343 67.259 34C67.7626 33.997 68.2655 33.9636 68.7655 33.9002C70.5536 33.6246 72.2072 32.7353 73.4734 31.3685C73.85 30.9516 74.2026 30.5111 74.5293 30.0492C75.4873 28.5667 76 26.8116 76 25.0145C76 23.2174 75.4873 21.4623 74.5293 19.9798C74.203 19.5109 73.8504 19.0632 73.4734 18.6391Z" fill="#D8D8D8"/>
<path d="M99.0914 6.91181C98.3969 5.20767 97.2877 3.70396 95.8645 2.53721C94.4414 1.37045 92.7493 0.577598 90.9419 0.230627C90.6973 0.174717 90.4737 0.0768756 90.243 0H44.743C44.5979 0.0771521 44.4458 0.140335 44.2887 0.188695C38.4038 1.53751 35 5.77965 35 11.7829C35 26.3986 35 41.0096 35 55.616C35 57.3981 35.5312 58.8238 37.1946 59.6205C38.8581 60.4172 40.2489 59.8721 41.5769 58.7958C44.8479 56.1541 48.1608 53.5683 51.4108 50.8986C52.1625 50.2581 53.1289 49.926 54.1156 49.9691C65.564 49.9971 77.0147 49.9971 88.4677 49.9691C93.3602 49.9691 96.8548 47.6978 98.9935 43.2949C99.3979 42.2985 99.7342 41.2758 100 40.2339V9.78416C99.7535 8.8098 99.4501 7.85071 99.0914 6.91181ZM85.7419 29.0939C84.6097 29.2966 83.4634 29.4364 82.3242 29.6041C82.0606 29.681 81.8198 29.8211 81.6228 30.0123C81.4258 30.2035 81.2784 30.4399 81.1937 30.7011C81.1089 30.9622 81.0893 31.2401 81.1365 31.5105C81.1837 31.781 81.2963 32.0358 81.4645 32.2528C82.0656 33.0914 82.6806 33.9231 83.2677 34.7687C83.3812 34.8897 83.4684 35.0328 83.5239 35.1891C83.5794 35.3453 83.6019 35.5114 83.5901 35.6768C83.5783 35.8422 83.5324 36.0034 83.4552 36.1502C83.3781 36.297 83.2714 36.4263 83.1419 36.5299C81.8839 37.8018 80.6258 39.0481 79.3677 40.2688C79.2709 40.413 79.143 40.5337 78.9933 40.6218C78.8436 40.71 78.6761 40.7634 78.503 40.7782C78.3299 40.7929 78.1558 40.7686 77.9933 40.7071C77.8309 40.6455 77.6843 40.5483 77.5645 40.4226C76.7048 39.8076 75.8661 39.1716 75.0134 38.5426C74.7686 38.378 74.4846 38.2811 74.1902 38.2619C73.8958 38.2427 73.6016 38.3017 73.3374 38.4331C73.0733 38.5644 72.8487 38.7634 72.6864 39.0097C72.5241 39.2561 72.4299 39.541 72.4134 39.8355C72.2597 40.772 72.1269 41.7155 71.9591 42.631C71.8683 43.1551 71.7425 43.6793 71.0925 43.7981C70.6442 43.9559 70.1631 43.9968 69.6946 43.9169C68.2968 43.9169 66.8989 43.9169 65.5011 43.9169C64.4177 43.9169 64.1032 43.6164 63.8866 42.5541C63.6699 41.4918 63.5091 40.5833 63.4253 39.5839C63.4326 39.3223 63.3455 39.0668 63.1799 38.8641C63.0144 38.6613 62.7815 38.5249 62.5237 38.4797C62.1664 38.3629 61.8163 38.2253 61.4753 38.0674C60.364 38.8851 59.2527 39.7097 58.1344 40.5204C57.9136 40.6984 57.6319 40.7827 57.3496 40.7553C57.0673 40.7279 56.8071 40.5908 56.6247 40.3737C55.2968 39.0668 53.9758 37.7459 52.6758 36.4111C52.5628 36.3091 52.4712 36.1857 52.4061 36.0481C52.3411 35.9105 52.3039 35.7614 52.2968 35.6094C52.2896 35.4574 52.3126 35.3054 52.3645 35.1623C52.4164 35.0193 52.496 34.8879 52.5989 34.7757C53.179 33.979 53.7032 33.1404 54.3253 32.3926C54.8355 31.7776 55.0242 31.2185 54.5559 30.5196C54.3672 30.247 54.4371 29.8207 54.0038 29.6879C52.7108 29.4853 51.4177 29.3036 50.1317 29.0799C49.8493 29.0619 49.5851 28.9341 49.3957 28.7238C49.2063 28.5135 49.1068 28.2375 49.1183 27.9548C49.1183 26.0678 49.1183 24.1739 49.1183 22.2869C49.0988 22.0051 49.1902 21.7268 49.373 21.5114C49.5558 21.2959 49.8155 21.1605 50.0968 21.1338C51.3828 20.9102 52.6758 20.7284 53.9688 20.5258C54.3628 20.2378 54.6266 19.8055 54.7026 19.3236C54.7785 18.8416 54.6605 18.3491 54.3742 17.9539C53.7801 17.1363 53.2 16.3116 52.6059 15.5079C52.4913 15.3886 52.402 15.2473 52.3436 15.0925C52.2851 14.9377 52.2587 14.7727 52.2659 14.6074C52.2731 14.4421 52.3137 14.28 52.3854 14.1308C52.4571 13.9817 52.5582 13.8487 52.6828 13.7398C53.9548 12.4492 55.2385 11.1679 56.5339 9.89598C56.623 9.77934 56.7343 9.68149 56.8614 9.60809C56.9885 9.5347 57.1289 9.48721 57.2744 9.46836C57.42 9.44952 57.5678 9.4597 57.7094 9.49831C57.8511 9.53691 57.9836 9.60319 58.0995 9.69331C59.2177 10.504 60.329 11.3287 61.4403 12.1463C62.7962 11.8668 63.5371 11.1539 63.5371 9.65837C63.5971 8.85909 63.7257 8.06644 63.9215 7.2892C63.9377 7.01361 64.0606 6.75516 64.2642 6.56862C64.4677 6.38207 64.7358 6.28208 65.0118 6.28982C66.9688 6.28982 68.9328 6.28982 70.8898 6.28982C70.9597 6.28982 71.0226 6.35272 71.0925 6.38766C71.7425 6.50647 71.8683 7.03062 71.9591 7.55477C72.1269 8.51222 72.2737 9.47666 72.4274 10.4411C72.4534 10.728 72.5541 11.0031 72.7195 11.239C72.8848 11.4749 73.1091 11.6634 73.37 11.7856C73.6308 11.9079 73.9192 11.9598 74.2063 11.936C74.4934 11.9122 74.7693 11.8137 75.0064 11.6501L77.6833 9.69331C77.8938 9.50344 78.171 9.40489 78.4541 9.4193C78.7372 9.43372 79.0029 9.55992 79.193 9.77019C80.5419 11.098 81.8839 12.4329 83.1978 13.7887C83.4157 13.9901 83.5463 14.2686 83.562 14.5649C83.5776 14.8611 83.4771 15.1518 83.2817 15.3751C82.6667 16.2417 82.0516 17.1013 81.4226 17.9539C81.2549 18.1744 81.1439 18.4326 81.0994 18.7059C81.0549 18.9792 81.0781 19.2593 81.1672 19.5215C81.2562 19.7837 81.4082 20.0201 81.61 20.2098C81.8117 20.3996 82.057 20.5368 82.3242 20.6096C83.3611 20.8218 84.4087 20.9781 85.4624 21.0779C85.6342 21.065 85.8068 21.0906 85.9675 21.1528C86.1283 21.2149 86.2731 21.3121 86.3916 21.4373C86.5101 21.5624 86.5992 21.7124 86.6524 21.8763C86.7057 22.0402 86.7217 22.2139 86.6995 22.3848C86.6995 24.2018 86.6995 26.0189 86.6995 27.8359C86.7201 27.9815 86.7116 28.1298 86.6746 28.2721C86.6375 28.4144 86.5725 28.5479 86.4835 28.6649C86.3944 28.7819 86.283 28.8801 86.1557 28.9537C86.0284 29.0274 85.8878 29.075 85.7419 29.0939Z" fill="#D8D8D8"/>
</g>
<defs>
<clipPath id="clip0_574_4513">
<rect width="99.7076" height="100" fill="white"/>
</clipPath>
</defs>
</svg>
