<svg width="76" height="98" viewBox="0 0 76 98" fill="none" xmlns="http://www.w3.org/2000/svg">
<path d="M75.9704 37.6131C75.9704 58.3863 38.3573 97.2154 38.3573 97.2154C38.3573 97.2154 0.744141 58.3863 0.744141 37.6131C0.744141 16.84 17.5841 0 38.3573 0C59.1304 0 75.9704 16.84 75.9704 37.6131Z" fill="#007175"/>
<circle cx="38.3571" cy="37.2104" r="31.5724" fill="white"/>
<path fill-rule="evenodd" clip-rule="evenodd" d="M18.9897 43.0004H29.0282L30.6096 45.7467L35.3582 9.74061C35.9072 9.19332 36.4144 9.19332 36.9061 9.74061L40.4614 43.0005L43.8234 22.343C44.2953 21.8688 44.8097 21.8688 45.3665 22.343L48.7407 42.9919L58.185 43.0257L58.1906 46.1413H45.6553L44.5645 39.1205L41.2215 62.8825C40.7274 63.3622 40.2162 63.3622 39.6879 62.8825L35.8421 33.1715L32.9143 54.264C32.4343 54.6953 31.9269 54.7526 31.3793 54.264L26.4557 46.1413H18.9897V43.0007V43.0004Z" fill="#007175"/>
</svg>
