<svg width="1052" height="607" viewBox="0 0 1052 607" fill="none" xmlns="http://www.w3.org/2000/svg">
<g id="Group 1408">
<g id="sxema-img">

<path fill="#096887" stroke="transparent" id="path-s1" d="M482.412 55.1385L527.397 10.154C528.54 10.8024 529.879 11.0144 531.166 10.7508C532.454 10.4872 533.602 9.76581 534.398 8.72035C535.194 7.67488 535.583 6.37627 535.495 5.06525C535.407 3.75424 534.846 2.51973 533.917 1.5906C532.988 0.661462 531.753 0.100716 530.442 0.0123116C529.131 -0.076093 527.833 0.31384 526.787 1.10982C525.742 1.90581 525.02 3.05385 524.757 4.34114C524.493 5.62842 524.705 6.96762 525.353 8.11048L481.209 52.2272H359.632C359.292 50.9537 358.501 49.8472 357.406 49.114C356.311 48.3808 354.986 48.071 353.679 48.2423C352.372 48.4136 351.172 49.0544 350.303 50.0451C349.434 51.0358 348.954 52.3088 348.954 53.6269C348.954 54.9449 349.434 56.218 350.303 57.2087C351.172 58.1994 352.372 58.8401 353.679 59.0114C354.986 59.1827 356.311 58.8729 357.406 58.1397C358.501 57.4065 359.292 56.3 359.632 55.0265L482.412 55.1385Z">
  <animate
    attributeName="d"
    dur="10s"
    fill="#096887"
    repeatCount="indefinite"
    values="
    M482.412 55.1385L527.397 10.154C528.54 10.8024 529.879 11.0144 531.166 10.7508C532.454 10.4872 533.602 9.76581 534.398 8.72035C535.194 7.67488 535.583 6.37627 535.495 5.06525C535.407 3.75424 534.846 2.51973 533.917 1.5906C532.988 0.661462 531.753 0.100716 530.442 0.0123116C529.131 -0.076093 527.833 0.31384 526.787 1.10982C525.742 1.90581 525.02 3.05385 524.757 4.34114C524.493 5.62842 524.705 6.96762 525.353 8.11048L481.209 52.2272H359.632C359.292 50.9537 358.501 49.8472 357.406 49.114C356.311 48.3808 354.986 48.071 353.679 48.2423C352.372 48.4136 351.172 49.0544 350.303 50.0451C349.434 51.0358 348.954 52.3088 348.954 53.6269C348.954 54.9449 349.434 56.218 350.303 57.2087C351.172 58.1994 352.372 58.8401 353.679 59.0114C354.986 59.1827 356.311 58.8729 357.406 58.1397C358.501 57.4065 359.292 56.3 359.632 55.0265L482.412 55.1385Z;
    M482.411 55.1385L527.395 10.154C528.538 10.8024 529.877 11.0144 531.165 10.7508C532.452 10.4872 533.6 9.76581 534.396 8.72035C535.192 7.67488 535.582 6.37627 535.493 5.06525C535.405 3.75424 534.844 2.51973 533.915 1.5906C532.986 0.661462 531.751 0.100716 530.44 0.0123116C529.129 -0.076093 527.831 0.31384 526.785 1.10982C525.74 1.90581 525.019 3.05385 524.755 4.34114C524.491 5.62842 524.703 6.96762 525.352 8.11048L481.207 52.2272H279.633C279.293 50.9537 278.502 49.8472 277.406 49.114C276.311 48.3808 274.986 48.071 273.68 48.2423C272.373 48.4136 271.173 49.0544 270.303 50.0451C269.434 51.0358 268.955 52.3088 268.955 53.6269C268.955 54.9449 269.434 56.218 270.303 57.2087C271.173 58.1994 272.373 58.8401 273.68 59.0114C274.986 59.1827 276.311 58.8729 277.406 58.1397C278.502 57.4065 279.293 56.3 279.633 55.0265L482.411 55.1385Z;
    M482.412 55.1385L527.397 10.154C528.54 10.8024 529.879 11.0144 531.166 10.7508C532.454 10.4872 533.602 9.76581 534.398 8.72035C535.194 7.67488 535.583 6.37627 535.495 5.06525C535.407 3.75424 534.846 2.51973 533.917 1.5906C532.988 0.661462 531.753 0.100716 530.442 0.0123116C529.131 -0.076093 527.833 0.31384 526.787 1.10982C525.742 1.90581 525.02 3.05385 524.757 4.34114C524.493 5.62842 524.705 6.96762 525.353 8.11048L481.209 52.2272H359.632C359.292 50.9537 358.501 49.8472 357.406 49.114C356.311 48.3808 354.986 48.071 353.679 48.2423C352.372 48.4136 351.172 49.0544 350.303 50.0451C349.434 51.0358 348.954 52.3088 348.954 53.6269C348.954 54.9449 349.434 56.218 350.303 57.2087C351.172 58.1994 352.372 58.8401 353.679 59.0114C354.986 59.1827 356.311 58.8729 357.406 58.1397C358.501 57.4065 359.292 56.3 359.632 55.0265L482.412 55.1385Z; " />
</path>	


<path id="Vector_2" d="M453.3 75.4338C452.286 75.4276 451.29 75.7055 450.426 76.2359C449.562 76.7664 448.864 77.5282 448.41 78.4351C447.956 79.342 447.766 80.3579 447.86 81.3675C447.954 82.3772 448.329 83.3404 448.942 84.148C449.555 84.9557 450.382 85.5755 451.329 85.9374C452.276 86.2992 453.306 86.3886 454.302 86.1954C455.297 86.0023 456.218 85.5343 456.962 84.8444C457.705 84.1545 458.24 83.2704 458.507 82.292H536.887L600.151 18.9162H833.415C833.755 20.1897 834.546 21.2962 835.641 22.0294C836.737 22.7626 838.061 23.0724 839.368 22.9011C840.675 22.7298 841.875 22.089 842.744 21.0983C843.613 20.1076 844.093 18.8346 844.093 17.5165C844.093 16.1985 843.613 14.9254 842.744 13.9347C841.875 12.944 840.675 12.3033 839.368 12.132C838.061 11.9607 836.737 12.2705 835.641 13.0037C834.546 13.7369 833.755 14.8434 833.415 16.1169H598.947L535.543 79.4087H458.507C458.194 78.2674 457.515 77.2603 456.574 76.5421C455.634 75.824 454.483 75.4346 453.3 75.4338V75.4338Z" fill="#096887"/>
<path id="Vector_3" d="M623.104 57.3224C622.09 57.3162 621.095 57.5941 620.23 58.1246C619.366 58.655 618.668 59.4168 618.214 60.3238C617.761 61.2307 617.57 62.2465 617.664 63.2561C617.758 64.2658 618.133 65.229 618.746 66.0366C619.359 66.8443 620.186 67.4641 621.133 67.826C622.081 68.1878 623.11 68.2772 624.106 68.0841C625.101 67.8909 626.023 67.4229 626.766 66.733C627.509 66.0432 628.044 65.159 628.311 64.1806H897.798L939.787 106.17H1225.31C1225.65 107.443 1226.45 108.55 1227.54 109.283C1228.64 110.016 1229.96 110.326 1231.27 110.155C1232.57 109.984 1233.77 109.343 1234.64 108.352C1235.51 107.361 1235.99 106.088 1235.99 104.77C1235.99 103.452 1235.51 102.179 1234.64 101.188C1233.77 100.198 1232.57 99.557 1231.27 99.3857C1229.96 99.2144 1228.64 99.5242 1227.54 100.257C1226.45 100.991 1225.65 102.097 1225.31 103.371H940.823L898.834 61.3813H628.143C627.854 60.2516 627.207 59.2458 626.298 58.5142C625.39 57.7826 624.27 57.3645 623.104 57.3224V57.3224Z" fill="#096887"/>
<path id="Vector_4" d="M976.291 90.801C977.478 90.7984 978.631 90.405 979.573 89.6814C980.514 88.9579 981.19 87.9445 981.498 86.798H1270.3L1331.44 25.6895H1530.75C1531.09 26.9631 1531.88 28.0696 1532.97 28.8027C1534.07 29.5359 1535.39 29.8458 1536.7 29.6745C1538.01 29.5031 1539.21 28.8624 1540.07 27.8717C1540.94 26.881 1541.42 25.6079 1541.42 24.2899C1541.42 22.9719 1540.94 21.6988 1540.07 20.7081C1539.21 19.7174 1538.01 19.0766 1536.7 18.9053C1535.39 18.734 1534.07 19.0439 1532.97 19.7771C1531.88 20.5102 1531.09 21.6167 1530.75 22.8903H1330.23L1269.1 83.9987H981.498C981.227 83.0302 980.691 82.1565 979.95 81.4761C979.21 80.7956 978.294 80.3354 977.306 80.1472C976.318 79.9589 975.297 80.0502 974.358 80.4107C973.42 80.7711 972.6 81.3865 971.992 82.1875C971.384 82.9885 971.011 83.9434 970.916 84.9446C970.822 85.9458 971.008 86.9536 971.455 87.8546C971.902 88.7556 972.591 89.514 973.445 90.0444C974.3 90.5748 975.285 90.8562 976.291 90.8569V90.801Z" fill="#096887"/>
<path id="Vector_5" d="M530.784 557.946L471.104 498.293H297.744C297.404 497.02 296.613 495.913 295.518 495.18C294.422 494.447 293.098 494.137 291.791 494.309C290.484 494.48 289.284 495.121 288.415 496.111C287.546 497.102 287.066 498.375 287.066 499.693C287.066 501.011 287.546 502.284 288.415 503.275C289.284 504.266 290.484 504.906 291.791 505.078C293.098 505.249 294.422 504.939 295.518 504.206C296.613 503.473 297.404 502.366 297.744 501.093H469.9L528.685 559.878C528.037 561.021 527.825 562.36 528.088 563.647C528.352 564.934 529.073 566.082 530.119 566.878C531.164 567.674 532.463 568.064 533.774 567.976C535.085 567.888 536.319 567.327 537.248 566.398C538.178 565.468 538.738 564.234 538.827 562.923C538.915 561.612 538.525 560.313 537.729 559.268C536.933 558.222 535.785 557.501 534.498 557.237C533.211 556.974 531.871 557.186 530.729 557.834L530.784 557.946Z" fill="#096887"/>
<path id="Vector_6" d="M834.086 545.882C835.099 545.886 836.092 545.608 836.955 545.078C837.818 544.548 838.515 543.787 838.968 542.882C839.421 541.976 839.612 540.962 839.519 539.954C839.427 538.946 839.054 537.983 838.443 537.176C837.833 536.368 837.009 535.747 836.064 535.383C835.119 535.02 834.091 534.927 833.097 535.116C832.102 535.305 831.18 535.769 830.435 536.454C829.69 537.14 829.151 538.02 828.88 538.995H550.323L517.543 506.216C518.192 505.073 518.404 503.734 518.14 502.446C517.876 501.159 517.155 500.011 516.109 499.215C515.064 498.419 513.765 498.029 512.454 498.118C511.143 498.206 509.909 498.767 508.98 499.696C508.051 500.625 507.49 501.86 507.401 503.171C507.313 504.482 507.703 505.78 508.499 506.826C509.295 507.871 510.443 508.593 511.73 508.856C513.018 509.12 514.357 508.908 515.5 508.259L549.091 541.851H828.852C829.155 543.007 829.834 544.03 830.781 544.76C831.728 545.489 832.891 545.884 834.086 545.882V545.882Z" fill="#096887"/>
<path id="Vector_7" d="M1425.1 586.079C1426.11 586.083 1427.11 585.805 1427.97 585.275C1428.83 584.745 1429.53 583.984 1429.98 583.079C1430.43 582.173 1430.63 581.159 1430.53 580.151C1430.44 579.143 1430.07 578.181 1429.46 577.373C1428.85 576.565 1428.02 575.945 1427.08 575.581C1426.13 575.217 1425.1 575.124 1424.11 575.313C1423.12 575.503 1422.19 575.966 1421.45 576.652C1420.7 577.337 1420.16 578.217 1419.89 579.193H1132.77L1071.19 517.608H935.225L886.545 566.288H807.157C806.817 565.007 806.023 563.893 804.922 563.155C803.822 562.416 802.49 562.103 801.175 562.275C799.861 562.446 798.654 563.09 797.779 564.086C796.905 565.082 796.422 566.362 796.422 567.687C796.422 569.013 796.905 570.293 797.779 571.289C798.654 572.285 799.861 572.929 801.175 573.1C802.49 573.272 803.822 572.959 804.922 572.22C806.023 571.482 806.817 570.368 807.157 569.087H887.637L936.316 520.408H1069.84L1131.43 581.992H1419.75C1420.06 583.175 1420.75 584.222 1421.72 584.963C1422.69 585.705 1423.88 586.098 1425.1 586.079V586.079Z" fill="#096887"/>


<path fill="#096887" stroke="transparent" id="path-s2" d="M356.988 473.436C358.171 473.43 359.319 473.039 360.258 472.322C361.198 471.604 361.878 470.6 362.195 469.461H491.455L582.04 378.876H785.8L847.748 316.928C848.891 317.576 850.23 317.788 851.517 317.525C852.805 317.261 853.953 316.54 854.749 315.494C855.545 314.449 855.935 313.15 855.846 311.839C855.758 310.528 855.197 309.293 854.268 308.364C853.339 307.435 852.104 306.874 850.793 306.786C849.482 306.698 848.184 307.088 847.138 307.884C846.093 308.68 845.371 309.828 845.108 311.115C844.844 312.402 845.056 313.741 845.705 314.884L784.596 375.993H580.836L490.279 466.55H362.279C362.009 465.578 361.473 464.7 360.731 464.016C359.99 463.331 359.073 462.867 358.083 462.675C357.092 462.482 356.068 462.569 355.124 462.927C354.181 463.284 353.355 463.897 352.741 464.697C352.126 465.497 351.747 466.452 351.644 467.456C351.542 468.46 351.722 469.472 352.163 470.379C352.604 471.287 353.289 472.053 354.141 472.593C354.994 473.133 355.98 473.425 356.988 473.436Z">
  <animate
    attributeName="d"
    begin="0.3s"
    dur="22s"
    fill="#096887"
    repeatCount="indefinite"
    values="
    M356.988 473.436C358.171 473.43 359.319 473.039 360.258 472.322C361.198 471.604 361.878 470.6 362.195 469.461H491.455L582.04 378.876H785.8L847.748 316.928C848.891 317.576 850.23 317.788 851.517 317.525C852.805 317.261 853.953 316.54 854.749 315.494C855.545 314.449 855.935 313.15 855.846 311.839C855.758 310.528 855.197 309.293 854.268 308.364C853.339 307.435 852.104 306.874 850.793 306.786C849.482 306.698 848.184 307.088 847.138 307.884C846.093 308.68 845.371 309.828 845.108 311.115C844.844 312.402 845.056 313.741 845.705 314.884L784.596 375.993H580.836L490.279 466.55H362.279C362.009 465.578 361.473 464.7 360.731 464.016C359.99 463.331 359.073 462.867 358.083 462.675C357.092 462.482 356.068 462.569 355.124 462.927C354.181 463.284 353.355 463.897 352.741 464.697C352.126 465.497 351.747 466.452 351.644 467.456C351.542 468.46 351.722 469.472 352.163 470.379C352.604 471.287 353.289 472.053 354.141 472.593C354.994 473.133 355.98 473.425 356.988 473.436Z;
    M166.99 473.436C168.172 473.43 169.32 473.039 170.26 472.322C171.2 471.604 171.88 470.6 172.196 469.461H491.453L582.038 378.876H785.796L847.744 316.928C848.886 317.576 850.226 317.788 851.513 317.524C852.8 317.261 853.948 316.539 854.744 315.494C855.54 314.449 855.93 313.15 855.842 311.839C855.753 310.528 855.193 309.293 854.263 308.364C853.334 307.435 852.1 306.874 850.789 306.786C849.478 306.698 848.179 307.088 847.134 307.884C846.088 308.679 845.367 309.828 845.103 311.115C844.84 312.402 845.052 313.741 845.7 314.884L784.592 375.993H580.834L490.278 466.55H172.28C172.01 465.578 171.474 464.7 170.733 464.016C169.992 463.331 169.074 462.867 168.084 462.674C167.094 462.482 166.069 462.569 165.126 462.927C164.182 463.284 163.357 463.897 162.742 464.697C162.128 465.497 161.748 466.452 161.646 467.456C161.544 468.46 161.723 469.472 162.164 470.379C162.605 471.287 163.291 472.053 164.143 472.593C164.995 473.133 165.981 473.425 166.99 473.436Z;
    M356.988 473.436C358.171 473.43 359.319 473.039 360.258 472.322C361.198 471.604 361.878 470.6 362.195 469.461H491.455L582.04 378.876H785.8L847.748 316.928C848.891 317.576 850.23 317.788 851.517 317.525C852.805 317.261 853.953 316.54 854.749 315.494C855.545 314.449 855.935 313.15 855.846 311.839C855.758 310.528 855.197 309.293 854.268 308.364C853.339 307.435 852.104 306.874 850.793 306.786C849.482 306.698 848.184 307.088 847.138 307.884C846.093 308.68 845.371 309.828 845.108 311.115C844.844 312.402 845.056 313.741 845.705 314.884L784.596 375.993H580.836L490.279 466.55H362.279C362.009 465.578 361.473 464.7 360.731 464.016C359.99 463.331 359.073 462.867 358.083 462.675C357.092 462.482 356.068 462.569 355.124 462.927C354.181 463.284 353.355 463.897 352.741 464.697C352.126 465.497 351.747 466.452 351.644 467.456C351.542 468.46 351.722 469.472 352.163 470.379C352.604 471.287 353.289 472.053 354.141 472.593C354.994 473.133 355.98 473.425 356.988 473.436Z; " />
</path>	


<path id="Vector_9" d="M1072.14 485.305L1117.4 530.569H1463.81L1508.6 575.358L1577.07 506.691H1820.61C1820.95 507.972 1821.75 509.086 1822.85 509.824C1823.95 510.563 1825.28 510.876 1826.59 510.704C1827.91 510.533 1829.11 509.889 1829.99 508.893C1830.86 507.897 1831.35 506.617 1831.35 505.292C1831.35 503.966 1830.86 502.686 1829.99 501.69C1829.11 500.694 1827.91 500.05 1826.59 499.879C1825.28 499.707 1823.95 500.02 1822.85 500.759C1821.75 501.497 1820.95 502.611 1820.61 503.892H1575.95L1508.63 571.215L1465.02 527.686H1118.61L1073.31 482.393H862.78L783.532 403.118H589.905L540.526 452.665C539.383 452.016 538.044 451.804 536.757 452.068C535.469 452.332 534.321 453.053 533.525 454.099C532.729 455.144 532.339 456.443 532.428 457.754C532.516 459.065 533.077 460.299 534.006 461.228C534.935 462.157 536.17 462.718 537.481 462.807C538.792 462.895 540.09 462.505 541.136 461.709C542.181 460.913 542.903 459.765 543.166 458.478C543.43 457.19 543.218 455.851 542.57 454.708L591.221 406.057H782.468L861.716 485.305H1072.14Z" fill="#096887"/>
<path id="Vector_10" d="M801.839 500.253C802.541 500.997 803.439 501.527 804.43 501.783C805.42 502.039 806.463 502.009 807.438 501.699C808.412 501.388 809.279 500.808 809.939 500.026C810.598 499.243 811.023 498.291 811.165 497.278C811.307 496.265 811.16 495.232 810.741 494.299C810.321 493.366 809.647 492.57 808.795 492.003C807.943 491.437 806.949 491.122 805.926 491.096C804.903 491.07 803.894 491.333 803.014 491.855L778.996 467.838H595.559L572.101 491.296C570.958 490.647 569.619 490.435 568.332 490.699C567.045 490.962 565.897 491.684 565.101 492.729C564.305 493.775 563.915 495.073 564.003 496.384C564.091 497.695 564.652 498.93 565.581 499.859C566.51 500.788 567.745 501.349 569.056 501.437C570.367 501.526 571.666 501.136 572.711 500.34C573.757 499.544 574.478 498.396 574.742 497.108C575.005 495.821 574.793 494.482 574.145 493.339L596.735 470.721H777.793L800.971 493.899C800.422 494.913 800.211 496.075 800.367 497.218C800.523 498.36 801.038 499.423 801.839 500.253V500.253Z" fill="#096887"/>
<path id="Vector_11" d="M974.415 164.87L890.437 81.1994H615.267L585.93 110.536H298.332C297.992 109.255 297.197 108.141 296.097 107.403C294.996 106.664 293.664 106.351 292.35 106.523C291.036 106.694 289.828 107.338 288.954 108.334C288.079 109.33 287.597 110.61 287.597 111.936C287.597 113.261 288.079 114.541 288.954 115.537C289.828 116.533 291.036 117.177 292.35 117.348C293.664 117.52 294.996 117.207 296.097 116.469C297.197 115.73 297.992 114.616 298.332 113.335H587.134L616.555 83.9987H889.317L973.072 167.753H1341.12L1406.46 102.418C1407.6 103.066 1408.94 103.279 1410.23 103.015C1411.51 102.751 1412.66 102.03 1413.46 100.984C1414.25 99.9389 1414.64 98.6403 1414.56 97.3293C1414.47 96.0183 1413.91 94.7838 1412.98 93.8547C1412.05 92.9255 1410.81 92.3648 1409.5 92.2764C1408.19 92.188 1406.89 92.5779 1405.85 93.3739C1404.8 94.1699 1404.08 95.3179 1403.82 96.6052C1403.55 97.8925 1403.77 99.2317 1404.41 100.375L1340.03 164.758L974.415 164.87Z" fill="#096887"/>
<path id="Vector_12" d="M553.739 172.849C553.026 172.128 552.126 171.621 551.14 171.385C550.155 171.15 549.123 171.194 548.161 171.515C547.2 171.835 546.347 172.418 545.699 173.197C545.052 173.977 544.635 174.922 544.497 175.926C544.359 176.93 544.504 177.953 544.917 178.878C545.33 179.804 545.993 180.596 546.832 181.164C547.672 181.732 548.653 182.054 549.666 182.094C550.679 182.133 551.682 181.888 552.563 181.387L570.926 199.75H859.925L906.197 153.478H925.092C925.432 154.759 926.226 155.873 927.327 156.611C928.428 157.35 929.759 157.662 931.074 157.491C932.388 157.32 933.595 156.676 934.47 155.68C935.344 154.684 935.827 153.404 935.827 152.078C935.827 150.753 935.344 149.473 934.47 148.477C933.595 147.481 932.388 146.837 931.074 146.665C929.759 146.494 928.428 146.807 927.327 147.545C926.226 148.284 925.432 149.397 925.092 150.679H905.021L858.749 196.867H572.13L554.522 179.343C555.12 178.324 555.367 177.137 555.225 175.964C555.084 174.791 554.561 173.697 553.739 172.849Z" fill="#096887"/>
<path id="Vector_13" d="M584.867 158.655L564.488 138.277H367.362C367.022 136.995 366.228 135.882 365.127 135.143C364.026 134.405 362.695 134.092 361.38 134.263C360.066 134.435 358.859 135.079 357.984 136.075C357.11 137.071 356.627 138.351 356.627 139.676C356.627 141.002 357.11 142.282 357.984 143.278C358.859 144.274 360.066 144.918 361.38 145.089C362.695 145.26 364.026 144.948 365.127 144.209C366.228 143.471 367.022 142.357 367.362 141.076H563.312L583.691 161.455H829.412L854.606 136.261C855.635 136.854 856.831 137.092 858.009 136.941C859.187 136.789 860.283 136.255 861.128 135.421C862.149 134.4 862.723 133.016 862.723 131.572C862.723 130.129 862.149 128.744 861.128 127.723C860.108 126.702 858.723 126.129 857.279 126.129C855.836 126.129 854.451 126.702 853.43 127.723C852.594 128.561 852.056 129.651 851.9 130.824C851.743 131.997 851.976 133.189 852.563 134.218L828.265 158.543L584.867 158.655Z" fill="#096887"/>
<path id="Vector_14" d="M491.762 182.171C491.048 181.455 490.147 180.952 489.163 180.72C488.178 180.489 487.148 180.536 486.189 180.858C485.23 181.18 484.38 181.764 483.735 182.543C483.09 183.322 482.675 184.266 482.538 185.268C482.4 186.27 482.545 187.291 482.957 188.215C483.368 189.139 484.029 189.93 484.866 190.498C485.703 191.067 486.682 191.39 487.692 191.432C488.703 191.474 489.705 191.233 490.586 190.736L564.124 264.274H893.908L954.288 203.893C955.431 204.525 956.763 204.724 958.04 204.454C959.317 204.183 960.455 203.462 961.244 202.421C962.032 201.381 962.42 200.091 962.335 198.788C962.251 197.486 961.699 196.257 960.783 195.327C959.832 194.518 958.632 194.061 957.384 194.033C956.137 194.005 954.917 194.408 953.932 195.174C952.946 195.939 952.254 197.021 951.972 198.237C951.691 199.453 951.836 200.728 952.385 201.85L892.704 261.39H565.327L492.546 188.609C493.1 187.587 493.322 186.418 493.181 185.265C493.041 184.111 492.545 183.03 491.762 182.171Z" fill="#096887"/>


<path fill="#096887" stroke="transparent" id="path-s3" d="M1580.66 88.0302C1579.47 88.0311 1578.32 88.4205 1577.38 89.1386C1576.44 89.8568 1575.76 90.8639 1575.45 92.0052H1459.42L1368.16 183.29H937.688L884.194 236.756H576.272L508.445 168.846H164.735C164.395 167.564 163.6 166.451 162.5 165.712C161.399 164.974 160.067 164.661 158.753 164.832C157.439 165.004 156.231 165.648 155.357 166.644C154.482 167.64 154 168.92 154 170.245C154 171.571 154.482 172.851 155.357 173.847C156.231 174.843 157.439 175.487 158.753 175.658C160.067 175.829 161.399 175.517 162.5 174.778C163.6 174.04 164.395 172.926 164.735 171.645H507.242L575.152 239.584H885.397L938.892 186.173H1369.34L1460.62 94.8885H1575.39C1575.66 95.857 1576.2 96.7306 1576.94 97.4111C1577.68 98.0915 1578.6 98.5518 1579.59 98.74C1580.57 98.9282 1581.59 98.837 1582.53 98.4765C1583.47 98.1161 1584.29 97.5007 1584.9 96.6997C1585.51 95.8987 1585.88 94.9438 1585.97 93.9426C1586.07 92.9414 1585.88 91.9336 1585.44 91.0326C1584.99 90.1316 1584.3 89.3732 1583.45 88.8428C1582.59 88.3124 1581.61 88.031 1580.6 88.0302H1580.66Z">
  <animate
    attributeName="d"
    begin="0.1s"
    dur="7s"
    fill="#096887"
    repeatCount="indefinite"
    values="
    M1580.66 88.0302C1579.47 88.0311 1578.32 88.4205 1577.38 89.1386C1576.44 89.8568 1575.76 90.8639 1575.45 92.0052H1459.42L1368.16 183.29H937.688L884.194 236.756H576.272L508.445 168.846H164.735C164.395 167.564 163.6 166.451 162.5 165.712C161.399 164.974 160.067 164.661 158.753 164.832C157.439 165.004 156.231 165.648 155.357 166.644C154.482 167.64 154 168.92 154 170.245C154 171.571 154.482 172.851 155.357 173.847C156.231 174.843 157.439 175.487 158.753 175.658C160.067 175.829 161.399 175.517 162.5 174.778C163.6 174.04 164.395 172.926 164.735 171.645H507.242L575.152 239.584H885.397L938.892 186.173H1369.34L1460.62 94.8885H1575.39C1575.66 95.857 1576.2 96.7306 1576.94 97.4111C1577.68 98.0915 1578.6 98.5518 1579.59 98.74C1580.57 98.9282 1581.59 98.837 1582.53 98.4765C1583.47 98.1161 1584.29 97.5007 1584.9 96.6997C1585.51 95.8987 1585.88 94.9438 1585.97 93.9426C1586.07 92.9414 1585.88 91.9336 1585.44 91.0326C1584.99 90.1316 1584.3 89.3732 1583.45 88.8428C1582.59 88.3124 1581.61 88.031 1580.6 88.0302H1580.66Z;
    M1580.65 88.0303C1579.46 88.0311 1578.31 88.4205 1577.37 89.1387C1576.43 89.8568 1575.75 90.8639 1575.44 92.0053H1459.41L1368.15 183.29H937.683L884.189 236.756H576.27L508.444 168.846H114.737C114.397 167.565 113.602 166.451 112.502 165.712C111.401 164.974 110.069 164.661 108.755 164.833C107.44 165.004 106.233 165.648 105.359 166.644C104.484 167.64 104.002 168.92 104.002 170.245C104.002 171.571 104.484 172.851 105.359 173.847C106.233 174.843 107.44 175.487 108.755 175.658C110.069 175.829 111.401 175.517 112.502 174.778C113.602 174.04 114.397 172.926 114.737 171.645H507.24L575.15 239.584H885.393L938.887 186.173H1369.33L1460.61 94.8885H1575.38C1575.65 95.857 1576.19 96.7307 1576.93 97.4111C1577.67 98.0916 1578.59 98.5518 1579.57 98.74C1580.56 98.9283 1581.58 98.837 1582.52 98.4766C1583.46 98.1161 1584.28 97.5007 1584.89 96.6997C1585.5 95.8987 1585.87 94.9439 1585.96 93.9426C1586.06 92.9414 1585.87 91.9336 1585.43 91.0326C1584.98 90.1316 1584.29 89.3733 1583.44 88.8428C1582.58 88.3124 1581.6 88.031 1580.59 88.0303H1580.65Z;
    M1580.66 88.0302C1579.47 88.0311 1578.32 88.4205 1577.38 89.1386C1576.44 89.8568 1575.76 90.8639 1575.45 92.0052H1459.42L1368.16 183.29H937.688L884.194 236.756H576.272L508.445 168.846H164.735C164.395 167.564 163.6 166.451 162.5 165.712C161.399 164.974 160.067 164.661 158.753 164.832C157.439 165.004 156.231 165.648 155.357 166.644C154.482 167.64 154 168.92 154 170.245C154 171.571 154.482 172.851 155.357 173.847C156.231 174.843 157.439 175.487 158.753 175.658C160.067 175.829 161.399 175.517 162.5 174.778C163.6 174.04 164.395 172.926 164.735 171.645H507.242L575.152 239.584H885.397L938.892 186.173H1369.34L1460.62 94.8885H1575.39C1575.66 95.857 1576.2 96.7306 1576.94 97.4111C1577.68 98.0915 1578.6 98.5518 1579.59 98.74C1580.57 98.9282 1581.59 98.837 1582.53 98.4765C1583.47 98.1161 1584.29 97.5007 1584.9 96.6997C1585.51 95.8987 1585.88 94.9438 1585.97 93.9426C1586.07 92.9414 1585.88 91.9336 1585.44 91.0326C1584.99 90.1316 1584.3 89.3732 1583.45 88.8428C1582.59 88.3124 1581.61 88.031 1580.6 88.0302H1580.66Z; " />
</path>	


<path id="Vector_16" d="M814.38 384.251C813.667 383.53 812.767 383.023 811.782 382.787C810.796 382.551 809.764 382.596 808.802 382.916C807.841 383.236 806.988 383.819 806.34 384.599C805.693 385.379 805.276 386.324 805.138 387.328C805 388.332 805.145 389.355 805.558 390.28C805.971 391.206 806.634 391.998 807.473 392.566C808.313 393.134 809.294 393.456 810.307 393.495C811.32 393.535 812.323 393.29 813.204 392.788L868.938 448.522H1136.77L1235.2 349.931H1437.92C1438.26 351.205 1439.05 352.311 1440.15 353.045C1441.24 353.778 1442.57 354.088 1443.87 353.916C1445.18 353.745 1446.38 353.104 1447.25 352.114C1448.12 351.123 1448.6 349.85 1448.6 348.532C1448.6 347.214 1448.12 345.941 1447.25 344.95C1446.38 343.959 1445.18 343.318 1443.87 343.147C1442.57 342.976 1441.24 343.286 1440.15 344.019C1439.05 344.752 1438.26 345.859 1437.92 347.132H1233.99L1135.51 445.611H870.114L815.248 390.745C815.834 389.717 816.067 388.525 815.91 387.351C815.754 386.178 815.216 385.089 814.38 384.251V384.251Z" fill="#096887"/>
<path id="Vector_17" d="M577.924 285.996C577.585 284.722 576.793 283.616 575.698 282.883C574.603 282.149 573.278 281.84 571.971 282.011C570.665 282.182 569.465 282.823 568.595 283.814C567.726 284.804 567.247 286.077 567.247 287.396C567.247 288.714 567.726 289.987 568.595 290.977C569.465 291.968 570.665 292.609 571.971 292.78C573.278 292.951 574.603 292.642 575.698 291.908C576.793 291.175 577.585 290.069 577.924 288.795H806.598L759.71 335.935C758.567 335.287 757.228 335.075 755.941 335.338C754.653 335.602 753.505 336.323 752.709 337.369C751.913 338.414 751.523 339.713 751.612 341.024C751.7 342.335 752.261 343.569 753.19 344.498C754.119 345.428 755.354 345.988 756.665 346.077C757.976 346.165 759.274 345.775 760.32 344.979C761.365 344.183 762.087 343.035 762.35 341.748C762.614 340.461 762.402 339.121 761.754 337.979L813.596 286.136L577.924 285.996Z" fill="#096887"/>
<path id="Vector_18" d="M923.777 293.135L843.297 373.642L887.638 417.955H1126.56L1221.34 323.171C1222.48 323.819 1223.82 324.031 1225.11 323.768C1226.4 323.504 1227.55 322.783 1228.34 321.737C1229.14 320.692 1229.53 319.393 1229.44 318.082C1229.35 316.771 1228.79 315.537 1227.86 314.608C1226.93 313.678 1225.7 313.118 1224.39 313.029C1223.07 312.941 1221.78 313.331 1220.73 314.127C1219.69 314.923 1218.96 316.071 1218.7 317.358C1218.44 318.645 1218.65 319.985 1219.3 321.127L1125.35 415.071H888.813L847.384 373.642L930.747 290.251H840.918L799.628 331.541C798.485 330.892 797.146 330.68 795.859 330.944C794.572 331.208 793.424 331.929 792.628 332.974C791.832 334.02 791.442 335.318 791.53 336.629C791.618 337.94 792.179 339.175 793.108 340.104C794.037 341.033 795.272 341.594 796.583 341.682C797.894 341.771 799.193 341.381 800.238 340.585C801.284 339.789 802.005 338.641 802.269 337.354C802.532 336.066 802.32 334.727 801.672 333.584L842.093 293.135H923.777Z" fill="#096887"/>

<path fill="#096887" stroke="transparent" id="path-s4" d="M728.078 324.57C728.418 325.843 729.209 326.95 730.304 327.683C731.399 328.416 732.724 328.726 734.031 328.555C735.338 328.383 736.538 327.743 737.407 326.752C738.276 325.761 738.756 324.488 738.756 323.17C738.756 321.852 738.276 320.579 737.407 319.588C736.538 318.598 735.338 317.957 734.031 317.786C732.724 317.614 731.399 317.924 730.304 318.657C729.209 319.39 728.418 320.497 728.078 321.77H576.357L465.981 211.283H261.615C261.275 210.009 260.484 208.903 259.389 208.169C258.293 207.436 256.969 207.126 255.662 207.298C254.355 207.469 253.155 208.11 252.286 209.1C251.416 210.091 250.937 211.364 250.937 212.682C250.937 214 251.416 215.273 252.286 216.264C253.155 217.255 254.355 217.896 255.662 218.067C256.969 218.238 258.293 217.928 259.389 217.195C260.484 216.462 261.275 215.355 261.615 214.082H464.945L575.293 324.458L728.078 324.57Z">
  <animate
    attributeName="d"
    begin="0.3s"
    dur="20s"
    fill="#096887"
    repeatCount="indefinite"
    values="
    M728.078 324.57C728.418 325.843 729.209 326.95 730.304 327.683C731.399 328.416 732.724 328.726 734.031 328.555C735.338 328.383 736.538 327.743 737.407 326.752C738.276 325.761 738.756 324.488 738.756 323.17C738.756 321.852 738.276 320.579 737.407 319.588C736.538 318.598 735.338 317.957 734.031 317.786C732.724 317.614 731.399 317.924 730.304 318.657C729.209 319.39 728.418 320.497 728.078 321.77H576.357L465.981 211.283H261.615C261.275 210.009 260.484 208.903 259.389 208.169C258.293 207.436 256.969 207.126 255.662 207.298C254.355 207.469 253.155 208.11 252.286 209.1C251.416 210.091 250.937 211.364 250.937 212.682C250.937 214 251.416 215.273 252.286 216.264C253.155 217.255 254.355 217.896 255.662 218.067C256.969 218.238 258.293 217.928 259.389 217.195C260.484 216.462 261.275 215.355 261.615 214.082H464.945L575.293 324.458L728.078 324.57Z;
    M728.074 324.57C728.414 325.843 729.205 326.95 730.301 327.683C731.396 328.416 732.721 328.726 734.027 328.555C735.334 328.383 736.534 327.743 737.404 326.752C738.273 325.761 738.752 324.488 738.752 323.17C738.752 321.852 738.273 320.579 737.404 319.588C736.534 318.598 735.334 317.957 734.027 317.786C732.721 317.614 731.396 317.924 730.301 318.657C729.205 319.39 728.414 320.497 728.074 321.77H576.354L465.979 211.283H11.6176C11.2779 210.009 10.4867 208.903 9.39138 208.169C8.2961 207.436 6.97155 207.126 5.66471 207.298C4.35786 207.469 3.15791 208.11 2.2886 209.1C1.41929 210.091 0.939941 211.364 0.939941 212.682C0.939941 214 1.41929 215.273 2.2886 216.264C3.15791 217.255 4.35786 217.895 5.66471 218.067C6.97155 218.238 8.2961 217.928 9.39138 217.195C10.4867 216.462 11.2779 215.355 11.6176 214.082H464.944L575.291 324.458L728.074 324.57Z;
    M728.078 324.57C728.418 325.843 729.209 326.95 730.304 327.683C731.399 328.416 732.724 328.726 734.031 328.555C735.338 328.383 736.538 327.743 737.407 326.752C738.276 325.761 738.756 324.488 738.756 323.17C738.756 321.852 738.276 320.579 737.407 319.588C736.538 318.598 735.338 317.957 734.031 317.786C732.724 317.614 731.399 317.924 730.304 318.657C729.209 319.39 728.418 320.497 728.078 321.77H576.357L465.981 211.283H261.615C261.275 210.009 260.484 208.903 259.389 208.169C258.293 207.436 256.969 207.126 255.662 207.298C254.355 207.469 253.155 208.11 252.286 209.1C251.416 210.091 250.937 211.364 250.937 212.682C250.937 214 251.416 215.273 252.286 216.264C253.155 217.255 254.355 217.896 255.662 218.067C256.969 218.238 258.293 217.928 259.389 217.195C260.484 216.462 261.275 215.355 261.615 214.082H464.945L575.293 324.458L728.078 324.57Z; " />
</path>	


<path id="Vector_20" d="M302.838 430.355C302.498 429.082 301.707 427.975 300.612 427.242C299.516 426.509 298.192 426.199 296.885 426.37C295.578 426.542 294.378 427.182 293.509 428.173C292.639 429.164 292.16 430.437 292.16 431.755C292.16 433.073 292.639 434.346 293.509 435.337C294.378 436.327 295.578 436.968 296.885 437.14C298.192 437.311 299.516 437.001 300.612 436.268C301.707 435.535 302.498 434.428 302.838 433.155H498.256L561.604 369.779C562.747 370.427 564.086 370.639 565.373 370.376C566.66 370.112 567.809 369.391 568.604 368.345C569.4 367.3 569.79 366.001 569.702 364.69C569.614 363.379 569.053 362.145 568.124 361.215C567.195 360.286 565.96 359.726 564.649 359.637C563.338 359.549 562.039 359.939 560.994 360.735C559.948 361.531 559.227 362.679 558.963 363.966C558.7 365.253 558.912 366.592 559.56 367.735L497.052 430.355H302.838Z" fill="#096887"/>
<path id="Vector_21" d="M980.154 217.246L943.959 253.441C942.816 252.793 941.477 252.581 940.19 252.844C938.902 253.108 937.754 253.829 936.958 254.875C936.162 255.92 935.773 257.219 935.861 258.53C935.949 259.841 936.51 261.075 937.439 262.005C938.368 262.934 939.603 263.494 940.914 263.583C942.225 263.671 943.523 263.281 944.569 262.485C945.614 261.689 946.336 260.541 946.599 259.254C946.863 257.967 946.651 256.628 946.003 255.485L981.358 220.13H1394.81L1431.43 183.515C1432.57 184.163 1433.91 184.375 1435.2 184.112C1436.48 183.848 1437.63 183.127 1438.43 182.081C1439.22 181.036 1439.61 179.737 1439.53 178.426C1439.44 177.115 1438.88 175.881 1437.95 174.952C1437.02 174.023 1435.78 173.462 1434.47 173.373C1433.16 173.285 1431.86 173.675 1430.82 174.471C1429.77 175.267 1429.05 176.415 1428.79 177.702C1428.52 178.989 1428.73 180.329 1429.38 181.472L1393.64 217.246H980.154Z" fill="#096887"/>
<path id="Vector_22" d="M1366.71 284.82C1367.72 284.824 1368.71 284.546 1369.58 284.016C1370.44 283.486 1371.14 282.725 1371.59 281.82C1372.04 280.914 1372.23 279.9 1372.14 278.892C1372.05 277.884 1371.67 276.922 1371.06 276.114C1370.45 275.306 1369.63 274.686 1368.68 274.322C1367.74 273.958 1366.71 273.865 1365.72 274.054C1364.72 274.244 1363.8 274.707 1363.06 275.393C1362.31 276.078 1361.77 276.958 1361.5 277.934H1178.4L1128.74 327.537H923.104L983.568 267.044C984.711 267.693 986.05 267.905 987.338 267.641C988.625 267.378 989.773 266.656 990.569 265.611C991.365 264.565 991.755 263.267 991.667 261.956C991.578 260.645 991.017 259.41 990.088 258.481C989.159 257.552 987.925 256.991 986.614 256.903C985.303 256.814 984.004 257.204 982.959 258C981.913 258.796 981.192 259.944 980.928 261.231C980.664 262.519 980.876 263.858 981.525 265.001L916.134 330.42H1129.92L1179.6 280.761H1361.56C1361.85 281.909 1362.51 282.928 1363.45 283.661C1364.38 284.395 1365.52 284.802 1366.71 284.82V284.82Z" fill="#096887"/>
<path id="Vector_23" d="M909.191 381.087L895.195 367.091C895.843 365.948 896.055 364.609 895.791 363.322C895.528 362.034 894.806 360.886 893.761 360.09C892.716 359.294 891.417 358.904 890.106 358.993C888.795 359.081 887.56 359.642 886.631 360.571C885.702 361.5 885.141 362.735 885.053 364.046C884.965 365.357 885.355 366.655 886.15 367.701C886.946 368.746 888.095 369.468 889.382 369.731C890.669 369.995 892.008 369.783 893.151 369.134L908.127 384.111H1121.57L1178.76 326.557C1179.79 327.151 1180.99 327.388 1182.17 327.231C1183.35 327.074 1184.44 326.532 1185.28 325.689C1186.3 324.669 1186.87 323.286 1186.87 321.845C1186.87 320.404 1186.29 319.023 1185.27 318.005C1184.25 316.988 1182.87 316.418 1181.43 316.421C1179.98 316.424 1178.6 316.999 1177.59 318.019C1176.75 318.857 1176.21 319.947 1176.06 321.12C1175.9 322.293 1176.13 323.486 1176.72 324.514L1120.15 381.087H909.191Z" fill="#096887"/>
<path id="Vector_24" d="M1547.85 134.582H1626.4C1626.74 135.855 1627.53 136.962 1628.62 137.695C1629.72 138.428 1631.04 138.738 1632.35 138.567C1633.66 138.395 1634.86 137.755 1635.73 136.764C1636.6 135.773 1637.07 134.5 1637.07 133.182C1637.07 131.864 1636.6 130.591 1635.73 129.6C1634.86 128.61 1633.66 127.969 1632.35 127.798C1631.04 127.626 1629.72 127.936 1628.62 128.669C1627.53 129.403 1626.74 130.509 1626.4 131.783H1546.64L1425.88 252.46H1151.22L1110.04 293.637H994.43L1032.84 255.259C1034.01 255.939 1035.4 256.169 1036.73 255.904C1038.06 255.64 1039.25 254.9 1040.08 253.823C1040.91 252.745 1041.31 251.403 1041.23 250.048C1041.14 248.692 1040.56 247.415 1039.6 246.454C1038.64 245.493 1037.36 244.915 1036 244.826C1034.65 244.737 1033.31 245.145 1032.23 245.972C1031.15 246.8 1030.41 247.991 1030.15 249.324C1029.88 250.656 1030.11 252.04 1030.79 253.216L987.459 296.549H1111.24L1152.42 255.371H1427.09L1547.85 134.582Z" fill="#096887"/>
<path id="Vector_25" d="M1741.98 479.006C1740.8 479.002 1739.64 479.39 1738.7 480.109C1737.76 480.828 1737.08 481.837 1736.77 482.981H1573.6L1537.94 518.644H1483.1L1459.34 494.878H1128.38L1104.58 471.084H1056.99C1056.65 469.811 1055.86 468.704 1054.77 467.971C1053.67 467.238 1052.35 466.928 1051.04 467.099C1049.73 467.271 1048.53 467.911 1047.67 468.902C1046.8 469.893 1046.32 471.166 1046.32 472.484C1046.32 473.802 1046.8 475.075 1047.67 476.066C1048.53 477.056 1049.73 477.697 1051.04 477.868C1052.35 478.04 1053.67 477.73 1054.77 476.997C1055.86 476.263 1056.65 475.157 1056.99 473.883H1103.18L1126.95 497.649H1458.13L1481.93 521.415H1539.14L1574.81 485.752H1736.77C1737.04 486.721 1737.58 487.595 1738.32 488.275C1739.06 488.955 1739.98 489.416 1740.96 489.604C1741.95 489.792 1742.97 489.701 1743.91 489.34C1744.85 488.98 1745.67 488.365 1746.28 487.564C1746.89 486.763 1747.26 485.808 1747.35 484.807C1747.45 483.805 1747.26 482.797 1746.82 481.897C1746.37 480.996 1745.68 480.237 1744.83 479.707C1743.97 479.176 1742.99 478.895 1741.98 478.894V479.006Z" fill="#096887"/>
<path id="Vector_26" d="M490.81 295.093C491.512 295.837 492.41 296.367 493.401 296.623C494.391 296.879 495.434 296.849 496.409 296.539C497.383 296.228 498.25 295.648 498.91 294.866C499.569 294.083 499.994 293.131 500.136 292.118C500.278 291.105 500.131 290.072 499.711 289.139C499.292 288.206 498.618 287.41 497.766 286.843C496.914 286.277 495.92 285.962 494.897 285.936C493.874 285.91 492.865 286.173 491.985 286.695L446.469 241.011H199.151C198.811 239.73 198.016 238.616 196.916 237.878C195.815 237.139 194.483 236.827 193.169 236.998C191.855 237.169 190.647 237.813 189.773 238.809C188.898 239.805 188.416 241.085 188.416 242.411C188.416 243.736 188.898 245.016 189.773 246.012C190.647 247.008 191.855 247.652 193.169 247.824C194.483 247.995 195.815 247.682 196.916 246.944C198.016 246.205 198.811 245.092 199.151 243.81H445.349L490.138 288.599C489.53 289.608 489.267 290.787 489.389 291.958C489.51 293.13 490.009 294.23 490.81 295.093Z" fill="#096887"/>

<path fill="#096887" stroke="transparent" id="path-s5" d="M394.188 396.455C395.376 396.46 396.533 396.073 397.479 395.355C398.426 394.636 399.109 393.626 399.423 392.48H467.744L511.888 348.335H617.813C618.153 349.616 618.948 350.73 620.048 351.468C621.149 352.207 622.481 352.519 623.795 352.348C625.11 352.177 626.317 351.533 627.191 350.537C628.066 349.541 628.548 348.261 628.548 346.935C628.548 345.61 628.066 344.33 627.191 343.334C626.317 342.338 625.11 341.694 623.795 341.523C622.481 341.351 621.149 341.664 620.048 342.402C618.948 343.141 618.153 344.254 617.813 345.536H510.629L466.484 389.596H399.451C399.185 388.62 398.651 387.738 397.911 387.049C397.17 386.36 396.252 385.891 395.259 385.696C394.267 385.5 393.239 385.586 392.293 385.944C391.346 386.301 390.519 386.916 389.903 387.718C389.287 388.521 388.907 389.479 388.807 390.486C388.707 391.493 388.89 392.507 389.335 393.416C389.781 394.324 390.471 395.09 391.329 395.627C392.186 396.164 393.176 396.45 394.188 396.455Z">
  <animate
    attributeName="d"
    dur="14s"
    fill="#096887"
    repeatCount="indefinite"
    values="
    M394.188 396.455C395.376 396.46 396.533 396.073 397.479 395.355C398.426 394.636 399.109 393.626 399.423 392.48H467.744L511.888 348.335H617.813C618.153 349.616 618.948 350.73 620.048 351.468C621.149 352.207 622.481 352.519 623.795 352.348C625.11 352.177 626.317 351.533 627.191 350.537C628.066 349.541 628.548 348.261 628.548 346.935C628.548 345.61 628.066 344.33 627.191 343.334C626.317 342.338 625.11 341.694 623.795 341.523C622.481 341.351 621.149 341.664 620.048 342.402C618.948 343.141 618.153 344.254 617.813 345.536H510.629L466.484 389.596H399.451C399.185 388.62 398.651 387.738 397.911 387.049C397.17 386.36 396.252 385.891 395.259 385.696C394.267 385.5 393.239 385.586 392.293 385.944C391.346 386.301 390.519 386.916 389.903 387.718C389.287 388.521 388.907 389.479 388.807 390.486C388.707 391.493 388.89 392.507 389.335 393.416C389.781 394.324 390.471 395.09 391.329 395.627C392.186 396.164 393.176 396.45 394.188 396.455Z;
    M294.188 396.455C295.376 396.46 296.533 396.073 297.48 395.355C298.426 394.636 299.109 393.626 299.423 392.48H467.743L511.887 348.335H617.811C618.151 349.616 618.945 350.73 620.046 351.468C621.147 352.207 622.478 352.519 623.793 352.348C625.107 352.177 626.314 351.533 627.189 350.537C628.063 349.541 628.546 348.261 628.546 346.935C628.546 345.61 628.063 344.33 627.189 343.334C626.314 342.338 625.107 341.694 623.793 341.523C622.478 341.351 621.147 341.664 620.046 342.402C618.945 343.141 618.151 344.254 617.811 345.536H510.627L466.483 389.596H299.451C299.185 388.62 298.652 387.738 297.911 387.049C297.171 386.36 296.252 385.891 295.26 385.696C294.267 385.5 293.24 385.586 292.293 385.944C291.347 386.301 290.519 386.916 289.903 387.718C289.287 388.521 288.908 389.479 288.807 390.486C288.707 391.493 288.89 392.507 289.336 393.416C289.781 394.324 290.472 395.09 291.329 395.627C292.186 396.164 293.177 396.45 294.188 396.455Z;
    M394.188 396.455C395.376 396.46 396.533 396.073 397.479 395.355C398.426 394.636 399.109 393.626 399.423 392.48H467.744L511.888 348.335H617.813C618.153 349.616 618.948 350.73 620.048 351.468C621.149 352.207 622.481 352.519 623.795 352.348C625.11 352.177 626.317 351.533 627.191 350.537C628.066 349.541 628.548 348.261 628.548 346.935C628.548 345.61 628.066 344.33 627.191 343.334C626.317 342.338 625.11 341.694 623.795 341.523C622.481 341.351 621.149 341.664 620.048 342.402C618.948 343.141 618.153 344.254 617.813 345.536H510.629L466.484 389.596H399.451C399.185 388.62 398.651 387.738 397.911 387.049C397.17 386.36 396.252 385.891 395.259 385.696C394.267 385.5 393.239 385.586 392.293 385.944C391.346 386.301 390.519 386.916 389.903 387.718C389.287 388.521 388.907 389.479 388.807 390.486C388.707 391.493 388.89 392.507 389.335 393.416C389.781 394.324 390.471 395.09 391.329 395.627C392.186 396.164 393.176 396.45 394.188 396.455Z; " />
</path>	


<path id="Vector_28" d="M295.924 321.071C294.912 321.067 293.918 321.345 293.056 321.875C292.193 322.405 291.496 323.166 291.043 324.071C290.589 324.977 290.398 325.991 290.491 326.999C290.584 328.007 290.957 328.97 291.567 329.777C292.178 330.585 293.002 331.206 293.947 331.57C294.892 331.933 295.919 332.026 296.914 331.837C297.909 331.648 298.831 331.184 299.576 330.499C300.321 329.813 300.859 328.933 301.131 327.958H421.836L451.257 298.565C452.429 299.251 453.81 299.487 455.143 299.23C456.476 298.973 457.671 298.241 458.504 297.169C459.337 296.097 459.752 294.758 459.672 293.403C459.592 292.048 459.023 290.767 458.069 289.801C457.116 288.834 455.843 288.247 454.489 288.149C453.135 288.05 451.791 288.448 450.708 289.266C449.625 290.085 448.876 291.269 448.601 292.599C448.326 293.928 448.544 295.312 449.213 296.494L420.632 325.074H301.131C300.823 323.928 300.147 322.914 299.206 322.191C298.265 321.467 297.111 321.074 295.924 321.071V321.071Z" fill="#096887"/>
<path id="Vector_29" d="M316.302 365.915C317.489 365.913 318.642 365.519 319.583 364.796C320.525 364.072 321.201 363.059 321.509 361.912H437.119L481.264 317.767H534.45C534.79 319.048 535.585 320.162 536.685 320.901C537.786 321.639 539.118 321.952 540.432 321.78C541.747 321.609 542.954 320.965 543.828 319.969C544.703 318.973 545.185 317.693 545.185 316.368C545.185 315.042 544.703 313.762 543.828 312.766C542.954 311.77 541.747 311.126 540.432 310.955C539.118 310.783 537.786 311.096 536.685 311.835C535.585 312.573 534.79 313.687 534.45 314.968H480.088L435.916 359.029H321.509C321.237 358.053 320.699 357.173 319.953 356.488C319.208 355.802 318.286 355.339 317.292 355.15C316.297 354.96 315.269 355.053 314.325 355.417C313.38 355.781 312.556 356.402 311.945 357.209C311.334 358.017 310.962 358.979 310.869 359.987C310.776 360.995 310.967 362.009 311.42 362.915C311.874 363.82 312.571 364.581 313.433 365.111C314.296 365.641 315.29 365.92 316.302 365.915V365.915Z" fill="#096887"/>
</g>
</g>
</svg>
