<svg width="180" height="160" viewBox="0 0 180 160" fill="none" xmlns="http://www.w3.org/2000/svg">
<g id="Group 1477">
<path id="path-a2-1" d="M155.683 38.7523L162.746 31.4946L144.414 26.8697C130.76 15.5079 113.281 9.79189 95.5524 10.8909C77.8237 11.9898 61.1846 19.8207 49.0385 32.7818C36.8924 45.7429 30.1571 62.8547 30.2103 80.6175C30.2634 98.3802 37.1009 115.451 49.3243 128.34C61.5477 141.228 78.2333 148.959 95.9683 149.952C113.703 150.945 131.148 145.124 144.733 133.681C158.319 122.238 167.019 106.036 169.055 88.3907C171.09 70.7449 166.307 52.9881 155.683 38.7523V38.7523ZM99.8506 148.607C88.9265 148.619 78.1591 146.008 68.4531 140.995C58.7472 135.982 50.3863 128.712 44.0729 119.797C37.7595 110.882 33.6781 100.582 32.1715 89.7619C30.665 78.9422 31.7773 67.9188 35.4151 57.6181C39.0528 47.3174 45.1098 38.0403 53.0769 30.5662C61.0441 23.0921 70.6888 17.6395 81.2006 14.6663C91.7124 11.6932 102.784 11.2864 113.486 13.4802C124.187 15.674 134.206 20.4044 142.7 27.2737L148.105 46.5254L154.694 39.7692C162.205 49.9274 166.748 61.9705 167.82 74.5579C168.892 87.1453 166.449 99.7832 160.764 111.065C155.08 122.346 146.375 131.829 135.621 138.457C124.866 145.085 112.484 148.599 99.8506 148.607V148.607Z" fill="url(#paint0_linear_372_550)"/>
<g id="path-a2-2">
<path id="Vector_2" d="M15.7535 55.5801L14.458 55.0925C14.1237 55.9701 13.8172 56.8478 13.5107 57.7393L14.9038 58.1711C15.1545 57.3075 15.4378 56.4438 15.7535 55.5801Z" fill="url(#paint1_linear_372_550)"/>
<path id="Vector_3" d="M15.8512 103.974L14.5557 104.476C14.89 105.339 15.2383 106.203 15.6004 107.067L16.882 106.509C16.5198 105.674 16.1855 104.824 15.8512 103.974Z" fill="url(#paint2_linear_372_550)"/>
<path id="Vector_4" d="M11.895 88.01L10.502 88.1772C10.6134 89.1105 10.7527 90.0438 10.9059 90.9632L12.299 90.7404C12.1457 89.8349 12.0064 88.9294 11.895 88.01Z" fill="url(#paint3_linear_372_550)"/>
<path id="Vector_5" d="M14.1792 98.7642L12.7861 99.1542C13.0555 100.083 13.3341 100.974 13.622 101.829L15.015 101.397C14.6389 100.547 14.3603 99.6557 14.1792 98.7642Z" fill="url(#paint4_linear_372_550)"/>
<path id="Vector_6" d="M11.393 82.5354H10C10 83.4827 10.0975 84.416 10.1811 85.3215L11.5741 85.21C11.5463 84.3742 11.4905 83.4548 11.393 82.5354Z" fill="url(#paint5_linear_372_550)"/>
<path id="Vector_7" d="M11.393 79.6518C11.393 78.7742 11.393 77.9106 11.393 77.0469H10C10 77.9245 10 78.816 10 79.7076V79.8469H11.393V79.6518Z" fill="url(#paint6_linear_372_550)"/>
<path id="Vector_8" d="M14.0254 60.8039L12.6323 60.4138C12.3816 61.3193 12.1308 62.2248 11.9219 63.1999L13.3149 63.5342C13.5378 62.5591 13.7746 61.6815 14.0254 60.8039Z" fill="url(#paint7_linear_372_550)"/>
<path id="Vector_9" d="M12.7861 66.1392L11.3931 65.8606C11.2074 66.7893 11.0402 67.718 10.8916 68.6467L12.2846 68.8696C12.3821 67.9362 12.5493 67.0307 12.7861 66.1392Z" fill="url(#paint8_linear_372_550)"/>
<path id="Vector_10" d="M11.867 71.5722L10.4739 71.405C10.3625 72.3244 10.265 73.2578 10.1953 74.1911L11.5883 74.3025C11.6719 73.3831 11.7555 72.4777 11.867 71.5722Z" fill="url(#paint9_linear_372_550)"/>
<path id="Vector_11" d="M12.7856 93.4429L11.3926 93.7215C11.5876 94.6269 11.7826 95.5463 12.0055 96.5075L13.3985 96.1732C13.1757 95.226 12.9667 94.3344 12.7856 93.4429Z" fill="url(#paint10_linear_372_550)"/>
<path id="Vector_12" d="M52.418 143.731C53.2677 144.093 54.1453 144.456 55.0229 144.776L55.5105 143.481C54.6608 143.146 53.7971 142.812 52.9613 142.45L52.418 143.731Z" fill="url(#paint11_linear_372_550)"/>
<path id="Vector_13" d="M57.6699 145.765C58.5615 146.058 59.453 146.336 60.3585 146.601L60.7346 145.208C59.857 144.957 58.9794 144.692 58.1157 144.4L57.6699 145.765Z" fill="url(#paint12_linear_372_550)"/>
<path id="Vector_14" d="M63.0605 147.311C63.966 147.534 64.8854 147.743 65.8466 147.924L66.1252 146.531C65.2337 146.35 64.3282 146.155 63.4506 145.932L63.0605 147.311Z" fill="url(#paint13_linear_372_550)"/>
<path id="Vector_15" d="M16.7559 109.616C17.1598 110.452 17.5778 111.287 18.0096 112.109L19.2494 111.469C18.8176 110.661 18.4136 109.839 18.0096 109.017L16.7559 109.616Z" fill="url(#paint14_linear_372_550)"/>
<path id="Vector_16" d="M47.333 141.377C48.1688 141.809 49.0047 142.227 49.8544 142.631L50.3977 141.363C49.5619 140.973 48.74 140.555 47.932 140.137L47.333 141.377Z" fill="url(#paint15_linear_372_550)"/>
<path id="Vector_17" d="M19.3613 114.561C19.835 115.369 20.3225 116.163 20.7544 116.957L21.9245 116.205C21.4416 115.434 20.9772 114.654 20.5315 113.865L19.3613 114.561Z" fill="url(#paint16_linear_372_550)"/>
<path id="Vector_18" d="M65.5127 11.3931L65.8052 12.7861C66.6968 12.605 67.5883 12.4379 68.4938 12.2846L68.2709 10.8916C67.3515 11.0727 66.4321 11.2399 65.5127 11.3931Z" fill="url(#paint17_linear_372_550)"/>
<path id="Vector_19" d="M22.3701 119.284C22.8995 120.05 23.4567 120.816 24.0139 121.554L25.1283 120.718C24.5711 119.994 24.0418 119.242 23.5124 118.49L22.3701 119.284Z" fill="url(#paint18_linear_372_550)"/>
<path id="Vector_20" d="M143.397 55.1899L144.693 54.7024C144.372 53.8248 144.01 52.9611 143.648 52.1113L142.366 52.6546C142.728 53.4904 143.077 54.3402 143.397 55.1899Z" fill="url(#paint19_linear_372_550)"/>
<path id="Vector_21" d="M52.7244 16.9651L52.1672 15.572C51.3174 15.9481 50.4677 16.3243 49.6318 16.7282L50.2308 17.982C51.0527 17.6476 51.8746 17.2715 52.7244 16.9651Z" fill="url(#paint20_linear_372_550)"/>
<path id="Vector_22" d="M63.1169 13.4131L62.7826 12.02C61.8771 12.2429 60.9716 12.4797 60.0801 12.7444L60.4701 14.1374C61.3477 13.8728 62.2254 13.6359 63.1169 13.4131Z" fill="url(#paint21_linear_372_550)"/>
<path id="Vector_23" d="M142.492 49.5621C142.088 48.7124 141.656 47.8905 141.224 47.0686L139.998 47.7094C140.416 48.5174 140.834 49.3392 141.224 50.1611L142.492 49.5621Z" fill="url(#paint22_linear_372_550)"/>
<path id="Vector_24" d="M57.8511 14.9452L57.3636 13.6218C56.472 13.9283 55.5944 14.2487 54.7168 14.583L55.2183 15.8785C56.1098 15.5721 56.9735 15.2377 57.8511 14.9452Z" fill="url(#paint23_linear_372_550)"/>
<path id="Vector_25" d="M147.911 76.6288H149.304C149.304 75.6955 149.206 74.7622 149.123 73.8428L147.729 73.9542C147.743 74.79 147.799 75.7094 147.911 76.6288Z" fill="url(#paint24_linear_372_550)"/>
<path id="Vector_26" d="M147.382 71.1542L148.775 70.9731C148.649 70.0397 148.524 69.1203 148.371 68.187L146.978 68.4099C147.145 69.3293 147.27 70.2348 147.382 71.1542Z" fill="url(#paint25_linear_372_550)"/>
<path id="Vector_27" d="M146.517 65.7214L147.911 65.4289C147.715 64.5095 147.507 63.604 147.284 62.6428L145.891 62.9771C146.1 63.9383 146.309 64.8299 146.517 65.7214Z" fill="url(#paint26_linear_372_550)"/>
<path id="Vector_28" d="M145.125 60.3999L146.518 60.0098C146.258 59.0811 145.979 58.1896 145.682 57.3352L144.358 57.781C144.623 58.6447 144.902 59.5223 145.125 60.3999Z" fill="url(#paint27_linear_372_550)"/>
<path id="Vector_29" d="M34.2809 28.6527L33.3615 27.6079C32.665 28.2348 31.9685 28.8616 31.2998 29.5164L32.2749 30.5194C32.9297 29.8786 33.5983 29.2517 34.2809 28.6527Z" fill="url(#paint28_linear_372_550)"/>
<path id="Vector_30" d="M30.3243 32.4697L29.3213 31.5085C28.6805 32.1772 28.0397 32.9016 27.4268 33.5702L28.4715 34.4896C29.0705 33.8071 29.6974 33.1245 30.3243 32.4697Z" fill="url(#paint29_linear_372_550)"/>
<path id="Vector_31" d="M23.4007 40.981L22.2445 40.187C21.7152 40.9671 21.1997 41.7472 20.6982 42.5412L21.8823 43.2795C22.3699 42.4994 22.8714 41.7333 23.4007 40.981Z" fill="url(#paint30_linear_372_550)"/>
<path id="Vector_32" d="M26.7167 36.579L25.6441 35.7014C25.0172 36.4676 24.4461 37.1641 23.9307 37.8606L25.0451 38.6964C25.5466 38.0139 26.1177 37.2895 26.7167 36.579Z" fill="url(#paint31_linear_372_550)"/>
<path id="Vector_33" d="M20.4614 45.6338L19.2495 44.9373C18.7898 45.7452 18.3301 46.5671 17.8564 47.4029L19.0962 48.0437C19.5559 47.2358 20.0017 46.4278 20.4614 45.6338Z" fill="url(#paint32_linear_372_550)"/>
<path id="Vector_34" d="M47.7793 19.2776L47.1246 18.0518C46.3027 18.4836 45.4808 18.9294 44.6729 19.4448L45.3833 20.6428C46.2191 20.1413 46.9714 19.7513 47.7793 19.2776Z" fill="url(#paint33_linear_372_550)"/>
<path id="Vector_35" d="M43.0288 22.0359L42.2905 20.8657C41.4918 21.3672 40.7117 21.8826 39.9502 22.412L40.7442 23.5543C41.4965 23.0389 42.2626 22.5374 43.0288 22.0359Z" fill="url(#paint34_linear_372_550)"/>
<path id="Vector_36" d="M17.9129 50.5094L16.6452 49.9104C16.2552 50.7602 15.8651 51.6099 15.5029 52.4736L16.7845 53.0169C17.1467 52.1996 17.5228 51.3638 17.9129 50.5094Z" fill="url(#paint35_linear_372_550)"/>
<path id="Vector_37" d="M38.529 25.1701L37.6932 24.0557C36.9409 24.6129 36.2026 25.198 35.4922 25.783L36.3698 26.8696C37.0802 26.2845 37.8603 25.7134 38.529 25.1701Z" fill="url(#paint36_linear_372_550)"/>
<path id="Vector_38" d="M28.5969 124.967C27.9979 124.285 27.3989 123.574 26.8278 122.878L25.7412 123.755C26.3402 124.48 26.9392 125.148 27.5661 125.887L28.5969 124.967Z" fill="url(#paint37_linear_372_550)"/>
<path id="Vector_39" d="M131.64 33.3054L130.609 34.2388C131.222 34.9213 131.807 35.6318 132.392 36.3144L133.465 35.4368C132.88 34.7124 132.267 34.0019 131.64 33.3054Z" fill="url(#paint38_linear_372_550)"/>
<path id="Vector_40" d="M127.753 29.2795L126.792 30.2825C127.447 30.9094 128.101 31.5641 128.742 32.2188L129.745 31.2577C129.091 30.5751 128.408 29.9203 127.753 29.2795Z" fill="url(#paint39_linear_372_550)"/>
<path id="Vector_41" d="M128.882 127.015L129.885 127.976C130.526 127.294 131.166 126.583 131.779 125.915L130.735 124.995C130.136 125.622 129.509 126.277 128.882 127.015Z" fill="url(#paint40_linear_372_550)"/>
<path id="Vector_42" d="M132.587 122.836L133.673 123.727C134.259 123.003 134.844 122.334 135.401 121.512L134.286 120.677C133.673 121.443 133.102 122.111 132.587 122.836Z" fill="url(#paint41_linear_372_550)"/>
<path id="Vector_43" d="M120.663 134.217L121.499 135.331C122.251 134.774 122.989 134.189 123.7 133.604L122.836 132.587C122.112 133.103 121.443 133.674 120.663 134.217Z" fill="url(#paint42_linear_372_550)"/>
<path id="Vector_44" d="M135.206 37.6377L134.092 38.4735C134.649 39.1979 135.192 39.8666 135.708 40.6884L136.85 39.8944C136.321 39.1282 135.763 38.376 135.206 37.6377Z" fill="url(#paint43_linear_372_550)"/>
<path id="Vector_45" d="M119.047 22.2029L118.267 23.3591C119.019 23.8745 119.757 24.4039 120.495 24.9611L121.331 23.8467C120.579 23.2755 119.827 22.7322 119.047 22.2029Z" fill="url(#paint44_linear_372_550)"/>
<path id="Vector_46" d="M124.911 130.748L125.844 131.779C126.541 131.166 127.238 130.539 127.892 129.885L126.931 128.882C126.276 129.508 125.622 130.135 124.911 130.748Z" fill="url(#paint45_linear_372_550)"/>
<path id="Vector_47" d="M116.149 137.337L116.902 138.521C117.682 138.02 118.462 137.504 119.228 136.975L118.434 135.833C117.682 136.348 116.93 136.85 116.149 137.337Z" fill="url(#paint46_linear_372_550)"/>
<path id="Vector_48" d="M123.547 25.5603L122.669 26.6469C123.379 27.218 124.062 27.817 124.758 28.416L125.678 27.3712C124.981 26.7165 124.229 26.1593 123.547 25.5603Z" fill="url(#paint47_linear_372_550)"/>
<path id="Vector_49" d="M147.423 87.8707L148.816 88.0379C148.927 87.1185 149.025 86.1852 149.094 85.2518L147.701 85.1404C147.618 86.0598 147.534 86.9653 147.423 87.8707Z" fill="url(#paint48_linear_372_550)"/>
<path id="Vector_50" d="M145.236 98.6387L146.629 99.0148C146.894 98.1233 147.131 97.2178 147.354 96.3124L145.961 95.978C145.724 96.8696 145.487 97.7611 145.236 98.6387Z" fill="url(#paint49_linear_372_550)"/>
<path id="Vector_51" d="M146.518 93.3036L147.911 93.5822C148.092 92.6767 148.259 91.7573 148.412 90.7961L147.019 90.5732C146.894 91.5066 146.727 92.3981 146.518 93.3036Z" fill="url(#paint50_linear_372_550)"/>
<path id="Vector_52" d="M149.303 79.3591H147.91V79.6517C147.91 80.5711 147.91 81.4905 147.91 82.4377H149.303C149.303 81.5044 149.303 80.5711 149.303 79.6517V79.3591Z" fill="url(#paint51_linear_372_550)"/>
<path id="Vector_53" d="M138.772 113.781L139.984 114.478C140.444 113.67 140.904 112.862 141.377 112.026L140.152 111.371C139.678 112.193 139.232 113.001 138.772 113.781Z" fill="url(#paint52_linear_372_550)"/>
<path id="Vector_54" d="M135.833 118.434L136.975 119.228C137.505 118.466 138.02 117.686 138.522 116.887L137.351 116.135C136.864 116.915 136.348 117.682 135.833 118.434Z" fill="url(#paint53_linear_372_550)"/>
<path id="Vector_55" d="M138.41 42.2209L137.226 42.9732C137.727 43.7533 138.201 44.5334 138.619 45.3135L139.817 44.617C139.399 43.809 138.911 43.015 138.41 42.2209Z" fill="url(#paint54_linear_372_550)"/>
<path id="Vector_56" d="M143.494 103.849L144.804 104.35C145.124 103.473 145.444 102.595 145.737 101.704L144.344 101.258C144.135 102.135 143.815 102.999 143.494 103.849Z" fill="url(#paint55_linear_372_550)"/>
<path id="Vector_57" d="M141.335 108.905L142.589 109.504C142.993 108.655 143.383 107.805 143.745 106.941L142.463 106.398C142.101 107.243 141.725 108.079 141.335 108.905Z" fill="url(#paint56_linear_372_550)"/>
<path id="Vector_58" d="M93.3733 11.3931L93.0947 12.7861C94.0002 12.9672 94.8917 13.1622 95.7833 13.3712L96.1037 11.9781C95.1982 11.7413 94.2927 11.5324 93.3733 11.3931Z" fill="url(#paint57_linear_372_550)"/>
<path id="Vector_59" d="M90.6709 147.019L90.8938 148.412C91.8225 148.263 92.7512 148.096 93.6799 147.91L93.4012 146.517C92.4679 146.712 91.5764 146.88 90.6709 147.019Z" fill="url(#paint58_linear_372_550)"/>
<path id="Vector_60" d="M82.1875 11.393C83.1069 11.393 84.0263 11.4766 84.9736 11.5463L85.085 10.1532C84.1563 10.0882 83.2276 10.0325 82.2989 9.98608L82.1875 11.393Z" fill="url(#paint59_linear_372_550)"/>
<path id="Vector_61" d="M85.2236 147.688L85.3351 149.081C86.2684 148.997 87.2017 148.899 88.1211 148.788L87.954 147.395C87.0346 147.52 86.1291 147.618 85.2236 147.688Z" fill="url(#paint60_linear_372_550)"/>
<path id="Vector_62" d="M87.6621 11.8528C88.5815 11.9642 89.487 12.0896 90.4482 12.2289L90.6571 10.8358C89.7377 10.6965 88.8183 10.5712 87.8711 10.4597L87.6621 11.8528Z" fill="url(#paint61_linear_372_550)"/>
<path id="Vector_63" d="M79.7217 147.91V149.303C80.6689 149.303 81.6023 149.303 82.5077 149.303V147.91C81.5605 147.91 80.6411 147.91 79.7217 147.91Z" fill="url(#paint62_linear_372_550)"/>
<path id="Vector_64" d="M76.6289 10.0697L76.6986 11.4627C77.604 11.4627 78.5234 11.4627 79.4846 11.4627V10C78.4956 10 77.5622 10 76.6289 10.0697Z" fill="url(#paint63_linear_372_550)"/>
<path id="Vector_65" d="M71.043 10.5293L71.2241 11.9224C72.1295 11.8109 73.035 11.7134 74.0101 11.6438L73.8987 10.2507C72.9329 10.325 71.9809 10.4179 71.043 10.5293Z" fill="url(#paint64_linear_372_550)"/>
<path id="Vector_66" d="M74.0801 149.081C75.0088 149.164 75.9375 149.22 76.8661 149.248V147.855C75.9467 147.855 75.0273 147.771 74.0801 147.701V149.081Z" fill="url(#paint65_linear_372_550)"/>
<path id="Vector_67" d="M111.399 140.096L112.054 141.322C112.876 140.89 113.698 140.444 114.506 139.928L113.809 138.73L111.399 140.096Z" fill="url(#paint66_linear_372_550)"/>
<path id="Vector_68" d="M106.454 142.45L106.997 143.731C107.861 143.355 108.711 142.979 109.547 142.575L108.948 141.321C108.126 141.711 107.29 142.087 106.454 142.45Z" fill="url(#paint67_linear_372_550)"/>
<path id="Vector_69" d="M68.5078 148.426C69.4272 148.565 70.3466 148.705 71.2939 148.816L71.461 147.423C70.5416 147.325 69.6362 147.2 68.675 147.047L68.5078 148.426Z" fill="url(#paint68_linear_372_550)"/>
<path id="Vector_70" d="M109.324 16.6169L108.725 17.8707C109.56 18.2747 110.382 18.6786 111.19 19.0965L111.845 17.8707C111.009 17.4388 110.173 16.9652 109.324 16.6169Z" fill="url(#paint69_linear_372_550)"/>
<path id="Vector_71" d="M114.297 19.2219L113.614 20.4199C114.408 20.8796 115.188 21.3533 115.968 21.813L116.707 20.6289C115.871 20.1692 115.119 19.7513 114.297 19.2219Z" fill="url(#paint70_linear_372_550)"/>
<path id="Vector_72" d="M104.141 14.4299L103.653 15.7255C104.517 16.0598 105.367 16.3941 106.216 16.7563L106.76 15.4747C105.896 15.1125 105.018 14.7643 104.141 14.4299Z" fill="url(#paint71_linear_372_550)"/>
<path id="Vector_73" d="M96.0479 145.932L96.3822 147.325C97.2876 147.103 98.1931 146.852 99.0847 146.601L98.7085 145.208C97.8309 145.473 96.9394 145.71 96.0479 145.932Z" fill="url(#paint72_linear_372_550)"/>
<path id="Vector_74" d="M98.8197 12.6746L98.4297 14.0676C99.3212 14.3183 100.185 14.583 101.063 14.8756L101.494 13.4825C100.617 13.2039 99.7113 12.9253 98.8197 12.6746Z" fill="url(#paint73_linear_372_550)"/>
<path id="Vector_75" d="M101.327 144.4L101.773 145.793C102.651 145.487 103.542 145.18 104.406 144.846L103.918 143.536C103.055 143.801 102.191 144.108 101.327 144.4Z" fill="url(#paint74_linear_372_550)"/>
<path id="Vector_76" d="M38.1112 121.819L32.358 128.868C31.7172 128.255 31.0903 127.628 30.4635 126.987L29.4605 127.948C30.1152 128.617 30.77 129.341 31.4525 129.926L31.8008 129.564L26.3262 136.279L43.168 138.981C43.7391 139.329 44.2963 139.678 44.8814 140.012L45.5779 138.814C45.1182 138.549 44.6724 138.271 44.1849 137.992L38.1112 121.819Z" fill="url(#paint75_linear_372_550)"/>
</g>
<g id="Group 1474">
<path id="Vector_77" d="M90.322 117.111L86.728 113.085L82.0613 107.805L77.2971 102.428C75.7648 100.701 74.2464 98.9593 72.6862 97.2598C69.2866 93.8536 66.568 89.8301 64.6762 85.405C63.2799 81.8638 62.6714 78.0609 62.8932 74.2608C63.2408 68.0843 65.6641 62.2063 69.7702 57.5793C73.8764 52.9523 79.4247 49.8475 85.516 48.7682C89.0992 48.1356 92.7722 48.2199 96.3225 49.0164C99.8728 49.8129 103.23 51.3057 106.199 53.4084C109.169 55.5111 111.692 58.182 113.622 61.2663C115.552 64.3507 116.851 67.7873 117.444 71.3772C118.061 74.9908 117.919 78.693 117.03 82.2492C116.14 85.8054 114.521 89.138 112.276 92.0359C110.368 94.5991 108.209 96.9672 106.105 99.3772C102.344 103.668 98.5409 107.916 94.7519 112.179L90.322 117.111ZM91.0464 52.3344C86.4441 52.1925 81.9014 53.405 77.9819 55.8214C74.0624 58.2378 70.9386 61.7518 68.998 65.9273C67.0574 70.1029 66.3854 74.7564 67.0654 79.3104C67.7454 83.8644 69.7475 88.1186 72.8233 91.5451C75.899 94.9716 79.9131 97.4197 84.3676 98.5857C88.822 99.7517 93.5207 99.5842 97.8808 98.104C102.241 96.6239 106.071 93.8962 108.895 90.2594C111.719 86.6226 113.413 82.2367 113.767 77.6458C114.019 74.4743 113.624 71.2844 112.605 68.2704C111.586 65.2564 109.965 62.4811 107.839 60.1135C105.714 57.7458 103.129 55.8352 100.242 54.4979C97.3555 53.1606 94.2267 52.4245 91.0464 52.3344V52.3344Z" fill="#02B6AB"/>
<g id="Group 1471">
<path id="Vector_78" d="M91.5347 83.4965C91.4416 83.7079 91.367 83.927 91.3118 84.1513C91.2004 84.792 90.8661 85.0149 90.3785 84.597C90.0156 84.2988 89.5701 84.1189 89.1018 84.0815C88.6336 84.0441 88.1652 84.1511 87.7596 84.3881C87.4938 84.4298 87.2217 84.3775 86.9903 84.2402C86.7589 84.1028 86.5827 83.8891 86.4919 83.6358C86.3321 83.3765 86.1168 83.1558 85.8615 82.9896C85.6061 82.8234 85.3172 82.7158 85.0153 82.6746C84.9457 82.1035 84.8899 81.5184 84.7924 80.9333C84.7924 80.5712 84.5974 80.2647 84.082 80.5294C83.8591 80.6408 83.469 80.7244 83.5526 80.1532C83.5526 80.0139 83.2879 79.805 83.1069 79.596C83.274 78.8717 83.2322 78.9134 82.3685 78.7602C81.6763 78.5949 80.9967 78.3808 80.3347 78.1194L79.3735 78.8577V79.4149C79.0797 79.3512 78.7945 79.253 78.5238 79.1224C78.1634 78.8508 77.8277 78.5478 77.5208 78.2169C77.3815 78.0776 77.1725 77.8547 77.1865 77.6876C77.1865 76.81 76.8521 76.2945 75.9884 76.2945C75.7378 76.2765 75.4901 76.2297 75.2501 76.1552V75.9602C75.0415 76.1355 74.8064 76.2765 74.5536 76.3781C74.4847 76.3858 74.4192 76.4118 74.3636 76.4532C74.3081 76.4947 74.2646 76.5502 74.2377 76.614C74.2107 76.6779 74.2013 76.7478 74.2103 76.8165C74.2193 76.8852 74.2464 76.9502 74.2889 77.005C74.5536 77.5761 74.08 77.8547 73.8432 78.2169C73.8432 78.2169 73.676 78.2169 73.5924 78.2169L72.5477 77.8965C72.3344 78.497 72.0832 79.0832 71.7954 79.6518C71.6143 79.9722 71.3078 80.0279 71.1407 79.5821C71.0614 79.4027 71.0279 79.2065 71.0432 79.011C71.0861 78.5901 71.0414 78.1649 70.912 77.7621C70.7825 77.3593 70.5711 76.9877 70.2909 76.6707C70.0506 76.3627 69.8989 75.9949 69.8523 75.607C69.8056 75.2191 69.8658 74.8259 70.0263 74.4697L71.0989 74.3443V74.1632L71.6282 74.5532H71.6979L71.4889 74.2468L71.5865 74.0657L72.3944 74.4557L73.1327 73.9682C73.1367 73.5663 73.0756 73.1664 72.9516 72.7841C72.8001 72.5418 72.7474 72.2506 72.8044 71.9707C72.8615 71.6907 73.0239 71.4433 73.2581 71.2796C73.2581 71.2796 73.3417 71.1264 73.3835 71.0289L72.868 70.4299L73.885 70.3045C73.9825 70.1373 74.1496 69.8866 74.2889 69.6219C74.4866 69.342 74.6242 69.0243 74.6929 68.6886C74.6929 67.9781 75.2501 67.8806 75.6959 67.6995C76.1417 67.5184 76.671 67.3234 77.0889 67.9085V67.198C77.3679 67.3016 77.6381 67.4274 77.8969 67.5741C77.993 67.665 78.1073 67.7344 78.2323 67.7777C78.3572 67.821 78.49 67.8373 78.6217 67.8254C78.7534 67.8136 78.8811 67.7739 78.9963 67.7089C79.1115 67.644 79.2116 67.5553 79.2899 67.4488C79.6811 67.1521 80.1127 66.9129 80.5715 66.7383C80.8919 66.5572 81.3656 66.6129 81.4631 66.0836C81.7308 66.0009 82.0172 66.0009 82.285 66.0836C82.3914 66.1416 82.4832 66.2233 82.5532 66.3223C82.6233 66.4213 82.6697 66.535 82.6889 66.6547C82.6928 67.1209 82.6602 67.5867 82.5914 68.0478C82.5914 68.5493 82.3546 68.995 81.8253 69.0229C81.2959 69.0508 81.1148 68.5493 81.0312 68.0756C81.0312 67.8388 81.0312 67.5881 81.0312 67.3234C80.6412 67.8667 79.9865 68.2567 80.1258 69.204L80.5715 68.3821C80.6551 68.8139 80.7108 69.0647 80.7526 69.3154C81.4074 68.9254 81.7974 69.0368 82.1457 69.8169L83.274 68.8139L83.4133 69.7473L82.6611 69.5801V69.9702C83.2632 70.0408 83.8534 70.1907 84.4163 70.4159C84.8481 70.6388 85.1268 71.1542 85.5586 71.6418L85.7397 70.4717L86.6312 72.7005H86.7287V71.9204C87.2163 71.4886 87.5506 70.6667 88.4561 70.6249V71.2796L88.8462 71.0567L88.6651 71.7672L89.1944 71.4468L89.5705 71.795C89.668 71.0846 89.8073 71.0289 90.5178 71.2796C90.6989 71.0428 90.7964 70.7781 90.9775 70.7085C91.4929 70.5413 91.9805 70.0398 92.6213 70.4438C92.6213 70.4438 92.9695 70.2209 93.1228 70.0816C93.276 69.9423 93.4292 69.7612 93.5685 69.608L93.8054 70.193C94.279 69.8169 94.5715 70.193 94.7805 70.4856C94.8319 70.6043 94.8584 70.7323 94.8584 70.8617C94.8584 70.9911 94.8319 71.1191 94.7805 71.2378L94.9198 71.7115L95.9367 71.9901C96.3407 72.1294 96.5078 71.9204 96.4103 71.3632C97.5526 70.8199 97.5944 71.9483 98.082 72.6309L98.1795 71.9622L99.3496 71.6L99.1546 70.4159C99.8372 70.1513 100.45 69.803 101.175 70.1791C101.258 70.1791 101.453 70.0259 101.592 69.9562C102.012 69.7733 102.417 69.5591 102.804 69.3154C103.153 69.0647 103.612 68.7443 103.682 68.3821C103.805 67.7536 104.087 67.1672 104.502 66.6793C104.916 66.1914 105.45 65.8183 106.05 65.596C106.336 65.4712 106.635 65.3778 106.942 65.3174C106.942 65.1363 106.733 64.8995 106.788 64.8577C107.015 64.6616 107.257 64.4845 107.513 64.3284L107.666 64.5095V65.0527L108.279 65.4567C108.14 65.6378 108.042 65.8607 107.889 66.0279C107.678 66.2104 107.455 66.378 107.22 66.5294L106.9 66.3065L106.775 66.404C107.067 66.7662 108.014 66.6826 107.555 67.5323H108.948C108.734 67.9092 108.618 68.3336 108.611 68.7668C108.604 69.2 108.705 69.6281 108.906 70.012C108.939 70.1208 108.948 70.2354 108.934 70.3482C108.92 70.4611 108.882 70.5696 108.822 70.6667C108.536 71.1549 108.293 71.6677 108.098 72.199C108.069 72.304 108.063 72.4142 108.082 72.5216C108.1 72.629 108.142 72.731 108.205 72.8202C108.268 72.9094 108.349 72.9837 108.444 73.0377C108.538 73.0916 108.644 73.124 108.753 73.1323C108.996 73.2133 109.216 73.352 109.393 73.5363C109.567 73.7787 109.712 74.0405 109.825 74.3164C109.872 74.5504 109.942 74.7791 110.034 74.999C110.299 75.6955 110.591 76.3921 110.814 77.0746C110.926 77.4229 110.731 77.6319 110.341 77.4925C109.951 77.3532 109.282 77.1164 108.767 76.8796C108.391 76.7276 108.069 76.4652 107.846 76.1269C107.622 75.7887 107.506 75.3906 107.513 74.9851C107.513 73.9542 107.513 72.9095 107.36 71.8925C107.321 71.7347 107.251 71.5864 107.152 71.457C107.054 71.3276 106.93 71.2198 106.788 71.1403L107.192 72.7702C106.913 72.6784 106.623 72.6223 106.329 72.603C106.154 72.9046 106.053 73.2438 106.036 73.5921C106.036 73.8707 106.301 74.1214 106.524 74.5115C106.426 74.6508 106.217 74.9712 105.994 75.2776C105.228 75.1244 105.228 75.1244 105.354 75.598C104.044 75.9184 102.972 77.9244 103.111 79.7771C103.431 79.7771 103.905 79.1085 104.058 80.0557C104.197 78.9831 104.88 79.596 105.451 79.5403L105.326 78.9134L107.791 81.3234L107.151 81.2119C107.061 81.3723 107.035 81.5608 107.079 81.7393C107.123 81.9178 107.233 82.0729 107.387 82.1731C107.658 82.3482 107.942 82.5019 108.237 82.6328L108.14 82.8418L107.666 82.6468L107.75 83.2597H107.582L105.827 80.209H105.646C105.732 80.5588 105.839 80.9031 105.967 81.2398C106.26 81.9902 106.381 82.7974 106.318 83.6008C106.255 84.4042 106.011 85.183 105.604 85.8786C105.479 86.1433 105.047 86.2408 104.782 86.4498C104.593 86.6387 104.421 86.8438 104.267 87.0627L103.933 85.3632L104.671 84.9871C104.671 84.5692 104.671 84.0398 104.518 83.5105C104.378 82.6189 103.696 83.2179 103.222 83.0647L103.348 83.608C102.942 83.6495 102.532 83.5942 102.152 83.4464C101.772 83.2987 101.432 83.0628 101.161 82.7582C100.903 82.4079 100.563 82.1258 100.172 81.9363C100.008 81.8856 99.8356 81.8693 99.6653 81.8884C99.4951 81.9076 99.3307 81.9619 99.1825 82.0478C98.9178 82.201 98.7367 82.4657 98.9596 82.9532C99.3914 83.8866 98.5974 84.6945 97.5666 84.4577C97.3949 84.4197 97.2173 84.4174 97.0448 84.451C96.8722 84.4845 96.7084 84.5532 96.5636 84.6527C96.1875 84.8756 95.6163 85.21 95.3238 85.0707C94.5986 84.666 93.7693 84.4865 92.9417 84.5552C92.8302 84.5552 92.6909 84.3184 92.5656 84.207L91.5347 83.4965ZM86.4641 73.7453C87.286 74.3025 87.3556 73.1602 87.8571 72.9791C87.1049 72.2687 88.1078 71.9204 88.08 71.3214L86.4641 73.7453Z" fill="#025FB5"/>
<path id="Vector_79" d="M89.3196 68.7581C89.1339 68.8121 88.9418 68.8402 88.7484 68.8417C87.3554 68.6188 86.2967 68.8417 85.7813 70.2347C85.1683 69.7193 85.2659 68.9531 85.9067 68.7302C86.4596 68.4956 87.04 68.3318 87.634 68.2427C88.2323 68.2591 88.8263 68.348 89.4032 68.5074L89.3196 68.7581Z" fill="#025FB5"/>
<path id="Vector_80" d="M93.2342 69.3153C92.9835 68.9949 92.8303 68.772 92.6492 68.5631C92.1755 68.0755 92.2452 67.7691 92.8163 67.5183L93.6661 68.9113L93.2342 69.3153Z" fill="#025FB5"/>
<path id="Vector_81" d="M99.0709 69.1344L98.1097 69.7891C98.0261 69.6359 97.859 69.3573 97.8729 69.3573C98.1654 69.1623 98.3326 68.5911 99.0709 69.1344Z" fill="#025FB5"/>
<path id="Vector_82" d="M73.6892 66.7245C72.8534 66.8638 72.7977 66.7245 72.9091 65.7912C73.731 65.7215 73.2992 66.432 73.6892 66.7245Z" fill="#025FB5"/>
</g>
</g>
</g>
<defs>
<linearGradient id="paint0_linear_372_550" x1="172.372" y1="8.24484" x2="46.4556" y2="133.437" gradientUnits="userSpaceOnUse">
<stop offset="0.04" stop-color="#0098FF"/>
<stop offset="1" stop-color="#20D7CC"/>
</linearGradient>
<linearGradient id="paint1_linear_372_550" x1="-29.0465" y1="113.154" x2="89.7378" y2="-40.4975" gradientUnits="userSpaceOnUse">
<stop offset="0.04" stop-color="#0098FF"/>
<stop offset="1" stop-color="#53FFF5"/>
</linearGradient>
<linearGradient id="paint2_linear_372_550" x1="-4.73787" y1="131.946" x2="114.06" y2="-21.7055" gradientUnits="userSpaceOnUse">
<stop offset="0.04" stop-color="#0098FF"/>
<stop offset="1" stop-color="#53FFF5"/>
</linearGradient>
<linearGradient id="paint3_linear_372_550" x1="-15.1995" y1="123.867" x2="103.598" y2="-29.785" gradientUnits="userSpaceOnUse">
<stop offset="0.04" stop-color="#0098FF"/>
<stop offset="1" stop-color="#53FFF5"/>
</linearGradient>
<linearGradient id="paint4_linear_372_550" x1="-8.42979" y1="129.09" x2="110.368" y2="-24.5612" gradientUnits="userSpaceOnUse">
<stop offset="0.04" stop-color="#0098FF"/>
<stop offset="1" stop-color="#53FFF5"/>
</linearGradient>
<linearGradient id="paint5_linear_372_550" x1="-18.2229" y1="121.526" x2="100.575" y2="-32.1253" gradientUnits="userSpaceOnUse">
<stop offset="0.04" stop-color="#0098FF"/>
<stop offset="1" stop-color="#53FFF5"/>
</linearGradient>
<linearGradient id="paint6_linear_372_550" x1="-20.9811" y1="119.395" x2="97.8168" y2="-34.2566" gradientUnits="userSpaceOnUse">
<stop offset="0.04" stop-color="#0098FF"/>
<stop offset="1" stop-color="#53FFF5"/>
</linearGradient>
<linearGradient id="paint7_linear_372_550" x1="-27.5149" y1="114.338" x2="91.2832" y2="-39.3135" gradientUnits="userSpaceOnUse">
<stop offset="0.04" stop-color="#0098FF"/>
<stop offset="1" stop-color="#53FFF5"/>
</linearGradient>
<linearGradient id="paint8_linear_372_550" x1="-25.6338" y1="115.787" x2="93.1503" y2="-37.8648" gradientUnits="userSpaceOnUse">
<stop offset="0.04" stop-color="#0098FF"/>
<stop offset="1" stop-color="#53FFF5"/>
</linearGradient>
<linearGradient id="paint9_linear_372_550" x1="-23.4604" y1="117.473" x2="95.3375" y2="-36.1791" gradientUnits="userSpaceOnUse">
<stop offset="0.04" stop-color="#0098FF"/>
<stop offset="1" stop-color="#53FFF5"/>
</linearGradient>
<linearGradient id="paint10_linear_372_550" x1="-11.9268" y1="126.388" x2="106.871" y2="-27.2636" gradientUnits="userSpaceOnUse">
<stop offset="0.04" stop-color="#0098FF"/>
<stop offset="1" stop-color="#53FFF5"/>
</linearGradient>
<linearGradient id="paint11_linear_372_550" x1="37.6936" y1="164.752" x2="156.478" y2="11.1006" gradientUnits="userSpaceOnUse">
<stop offset="0.04" stop-color="#0098FF"/>
<stop offset="1" stop-color="#53FFF5"/>
</linearGradient>
<linearGradient id="paint12_linear_372_550" x1="41.8729" y1="167.984" x2="160.656" y2="14.3325" gradientUnits="userSpaceOnUse">
<stop offset="0.04" stop-color="#0098FF"/>
<stop offset="1" stop-color="#53FFF5"/>
</linearGradient>
<linearGradient id="paint13_linear_372_550" x1="45.9123" y1="171.105" x2="164.71" y2="17.4527" gradientUnits="userSpaceOnUse">
<stop offset="0.04" stop-color="#0098FF"/>
<stop offset="1" stop-color="#53FFF5"/>
</linearGradient>
<linearGradient id="paint14_linear_372_550" x1="-0.866026" y1="134.941" x2="117.932" y2="-18.7105" gradientUnits="userSpaceOnUse">
<stop offset="0.04" stop-color="#0098FF"/>
<stop offset="1" stop-color="#53FFF5"/>
</linearGradient>
<linearGradient id="paint15_linear_372_550" x1="33.4027" y1="161.437" x2="152.201" y2="7.78492" gradientUnits="userSpaceOnUse">
<stop offset="0.04" stop-color="#0098FF"/>
<stop offset="1" stop-color="#53FFF5"/>
</linearGradient>
<linearGradient id="paint16_linear_372_550" x1="3.16032" y1="138.048" x2="121.944" y2="-15.604" gradientUnits="userSpaceOnUse">
<stop offset="0.04" stop-color="#0098FF"/>
<stop offset="1" stop-color="#53FFF5"/>
</linearGradient>
<linearGradient id="paint17_linear_372_550" x1="-17.9441" y1="121.735" x2="100.854" y2="-31.9165" gradientUnits="userSpaceOnUse">
<stop offset="0.04" stop-color="#0098FF"/>
<stop offset="1" stop-color="#53FFF5"/>
</linearGradient>
<linearGradient id="paint18_linear_372_550" x1="7.31142" y1="141.266" x2="126.11" y2="-12.3861" gradientUnits="userSpaceOnUse">
<stop offset="0.04" stop-color="#0098FF"/>
<stop offset="1" stop-color="#53FFF5"/>
</linearGradient>
<linearGradient id="paint19_linear_372_550" x1="50.1888" y1="174.406" x2="168.987" y2="20.7676" gradientUnits="userSpaceOnUse">
<stop offset="0.04" stop-color="#0098FF"/>
<stop offset="1" stop-color="#53FFF5"/>
</linearGradient>
<linearGradient id="paint20_linear_372_550" x1="-25.4388" y1="115.94" x2="93.3592" y2="-37.7115" gradientUnits="userSpaceOnUse">
<stop offset="0.04" stop-color="#0098FF"/>
<stop offset="1" stop-color="#53FFF5"/>
</linearGradient>
<linearGradient id="paint21_linear_372_550" x1="-20.7299" y1="119.576" x2="98.0681" y2="-34.0616" gradientUnits="userSpaceOnUse">
<stop offset="0.04" stop-color="#0098FF"/>
<stop offset="1" stop-color="#53FFF5"/>
</linearGradient>
<linearGradient id="paint22_linear_372_550" x1="46.3164" y1="171.411" x2="165.1" y2="17.773" gradientUnits="userSpaceOnUse">
<stop offset="0.04" stop-color="#0098FF"/>
<stop offset="1" stop-color="#53FFF5"/>
</linearGradient>
<linearGradient id="paint23_linear_372_550" x1="-23.2374" y1="117.64" x2="95.5606" y2="-36.012" gradientUnits="userSpaceOnUse">
<stop offset="0.04" stop-color="#0098FF"/>
<stop offset="1" stop-color="#53FFF5"/>
</linearGradient>
<linearGradient id="paint24_linear_372_550" x1="63.6879" y1="184.854" x2="182.486" y2="31.2023" gradientUnits="userSpaceOnUse">
<stop offset="0.04" stop-color="#0098FF"/>
<stop offset="1" stop-color="#53FFF5"/>
</linearGradient>
<linearGradient id="paint25_linear_372_550" x1="60.665" y1="182.513" x2="179.463" y2="28.8616" gradientUnits="userSpaceOnUse">
<stop offset="0.04" stop-color="#0098FF"/>
<stop offset="1" stop-color="#53FFF5"/>
</linearGradient>
<linearGradient id="paint26_linear_372_550" x1="57.3913" y1="179.978" x2="176.189" y2="26.3266" gradientUnits="userSpaceOnUse">
<stop offset="0.04" stop-color="#0098FF"/>
<stop offset="1" stop-color="#53FFF5"/>
</linearGradient>
<linearGradient id="paint27_linear_372_550" x1="53.8945" y1="177.276" x2="172.679" y2="23.6236" gradientUnits="userSpaceOnUse">
<stop offset="0.04" stop-color="#0098FF"/>
<stop offset="1" stop-color="#53FFF5"/>
</linearGradient>
<linearGradient id="paint28_linear_372_550" x1="-31.0246" y1="111.622" x2="87.7734" y2="-42.0299" gradientUnits="userSpaceOnUse">
<stop offset="0.04" stop-color="#0098FF"/>
<stop offset="1" stop-color="#53FFF5"/>
</linearGradient>
<linearGradient id="paint29_linear_372_550" x1="-31.5683" y1="111.204" x2="87.2158" y2="-42.4477" gradientUnits="userSpaceOnUse">
<stop offset="0.04" stop-color="#0098FF"/>
<stop offset="1" stop-color="#53FFF5"/>
</linearGradient>
<linearGradient id="paint30_linear_372_550" x1="-31.6102" y1="111.162" x2="87.1738" y2="-42.4896" gradientUnits="userSpaceOnUse">
<stop offset="0.04" stop-color="#0098FF"/>
<stop offset="1" stop-color="#53FFF5"/>
</linearGradient>
<linearGradient id="paint31_linear_372_550" x1="-31.7768" y1="111.051" x2="87.0212" y2="-42.6011" gradientUnits="userSpaceOnUse">
<stop offset="0.04" stop-color="#0098FF"/>
<stop offset="1" stop-color="#53FFF5"/>
</linearGradient>
<linearGradient id="paint32_linear_372_550" x1="-31.1087" y1="111.552" x2="87.6892" y2="-42.0857" gradientUnits="userSpaceOnUse">
<stop offset="0.04" stop-color="#0098FF"/>
<stop offset="1" stop-color="#53FFF5"/>
</linearGradient>
<linearGradient id="paint33_linear_372_550" x1="-27.3332" y1="114.478" x2="91.4648" y2="-39.1742" gradientUnits="userSpaceOnUse">
<stop offset="0.04" stop-color="#0098FF"/>
<stop offset="1" stop-color="#53FFF5"/>
</linearGradient>
<linearGradient id="paint34_linear_372_550" x1="-28.8936" y1="113.266" x2="89.8905" y2="-40.386" gradientUnits="userSpaceOnUse">
<stop offset="0.04" stop-color="#0098FF"/>
<stop offset="1" stop-color="#53FFF5"/>
</linearGradient>
<linearGradient id="paint35_linear_372_550" x1="-30.2583" y1="112.221" x2="88.5397" y2="-41.4309" gradientUnits="userSpaceOnUse">
<stop offset="0.04" stop-color="#0098FF"/>
<stop offset="1" stop-color="#53FFF5"/>
</linearGradient>
<linearGradient id="paint36_linear_372_550" x1="-30.1337" y1="112.318" x2="88.6643" y2="-41.3334" gradientUnits="userSpaceOnUse">
<stop offset="0.04" stop-color="#0098FF"/>
<stop offset="1" stop-color="#53FFF5"/>
</linearGradient>
<linearGradient id="paint37_linear_372_550" x1="11.5601" y1="144.553" x2="130.358" y2="-9.09848" gradientUnits="userSpaceOnUse">
<stop offset="0.04" stop-color="#0098FF"/>
<stop offset="1" stop-color="#53FFF5"/>
</linearGradient>
<linearGradient id="paint38_linear_372_550" x1="33.8773" y1="161.799" x2="152.661" y2="8.14746" gradientUnits="userSpaceOnUse">
<stop offset="0.04" stop-color="#0098FF"/>
<stop offset="1" stop-color="#53FFF5"/>
</linearGradient>
<linearGradient id="paint39_linear_372_550" x1="29.5441" y1="158.456" x2="148.342" y2="4.80376" gradientUnits="userSpaceOnUse">
<stop offset="0.04" stop-color="#0098FF"/>
<stop offset="1" stop-color="#53FFF5"/>
</linearGradient>
<linearGradient id="paint40_linear_372_550" x1="77.1166" y1="195.232" x2="195.901" y2="41.5801" gradientUnits="userSpaceOnUse">
<stop offset="0.04" stop-color="#0098FF"/>
<stop offset="1" stop-color="#53FFF5"/>
</linearGradient>
<linearGradient id="paint41_linear_372_550" x1="77.3253" y1="195.385" x2="196.11" y2="41.7335" gradientUnits="userSpaceOnUse">
<stop offset="0.04" stop-color="#0098FF"/>
<stop offset="1" stop-color="#53FFF5"/>
</linearGradient>
<linearGradient id="paint42_linear_372_550" x1="75.6541" y1="194.104" x2="194.438" y2="40.4518" gradientUnits="userSpaceOnUse">
<stop offset="0.04" stop-color="#0098FF"/>
<stop offset="1" stop-color="#53FFF5"/>
</linearGradient>
<linearGradient id="paint43_linear_372_550" x1="38.1258" y1="165.086" x2="156.924" y2="11.435" gradientUnits="userSpaceOnUse">
<stop offset="0.04" stop-color="#0098FF"/>
<stop offset="1" stop-color="#53FFF5"/>
</linearGradient>
<linearGradient id="paint44_linear_372_550" x1="20.7543" y1="151.658" x2="139.552" y2="-1.994" gradientUnits="userSpaceOnUse">
<stop offset="0.04" stop-color="#0098FF"/>
<stop offset="1" stop-color="#53FFF5"/>
</linearGradient>
<linearGradient id="paint45_linear_372_550" x1="76.5589" y1="194.8" x2="195.343" y2="41.1483" gradientUnits="userSpaceOnUse">
<stop offset="0.04" stop-color="#0098FF"/>
<stop offset="1" stop-color="#53FFF5"/>
</linearGradient>
<linearGradient id="paint46_linear_372_550" x1="74.414" y1="193.142" x2="193.198" y2="39.4901" gradientUnits="userSpaceOnUse">
<stop offset="0.04" stop-color="#0098FF"/>
<stop offset="1" stop-color="#53FFF5"/>
</linearGradient>
<linearGradient id="paint47_linear_372_550" x1="25.1703" y1="155.071" x2="143.968" y2="1.41883" gradientUnits="userSpaceOnUse">
<stop offset="0.04" stop-color="#0098FF"/>
<stop offset="1" stop-color="#53FFF5"/>
</linearGradient>
<linearGradient id="paint48_linear_372_550" x1="69.0648" y1="189.005" x2="187.863" y2="35.3537" gradientUnits="userSpaceOnUse">
<stop offset="0.04" stop-color="#0098FF"/>
<stop offset="1" stop-color="#53FFF5"/>
</linearGradient>
<linearGradient id="paint49_linear_372_550" x1="73.1051" y1="192.125" x2="191.889" y2="38.4738" gradientUnits="userSpaceOnUse">
<stop offset="0.04" stop-color="#0098FF"/>
<stop offset="1" stop-color="#53FFF5"/>
</linearGradient>
<linearGradient id="paint50_linear_372_550" x1="71.2379" y1="190.691" x2="190.036" y2="37.0389" gradientUnits="userSpaceOnUse">
<stop offset="0.04" stop-color="#0098FF"/>
<stop offset="1" stop-color="#53FFF5"/>
</linearGradient>
<linearGradient id="paint51_linear_372_550" x1="66.5291" y1="187.041" x2="185.313" y2="33.389" gradientUnits="userSpaceOnUse">
<stop offset="0.04" stop-color="#0098FF"/>
<stop offset="1" stop-color="#53FFF5"/>
</linearGradient>
<linearGradient id="paint52_linear_372_550" x1="76.6711" y1="194.898" x2="195.469" y2="41.2461" gradientUnits="userSpaceOnUse">
<stop offset="0.04" stop-color="#0098FF"/>
<stop offset="1" stop-color="#53FFF5"/>
</linearGradient>
<linearGradient id="paint53_linear_372_550" x1="77.1723" y1="195.274" x2="195.97" y2="41.6218" gradientUnits="userSpaceOnUse">
<stop offset="0.04" stop-color="#0098FF"/>
<stop offset="1" stop-color="#53FFF5"/>
</linearGradient>
<linearGradient id="paint54_linear_372_550" x1="42.2902" y1="168.305" x2="161.074" y2="14.6528" gradientUnits="userSpaceOnUse">
<stop offset="0.04" stop-color="#0098FF"/>
<stop offset="1" stop-color="#53FFF5"/>
</linearGradient>
<linearGradient id="paint55_linear_372_550" x1="74.6364" y1="193.31" x2="193.421" y2="39.6578" gradientUnits="userSpaceOnUse">
<stop offset="0.04" stop-color="#0098FF"/>
<stop offset="1" stop-color="#53FFF5"/>
</linearGradient>
<linearGradient id="paint56_linear_372_550" x1="75.8204" y1="194.229" x2="194.619" y2="40.5908" gradientUnits="userSpaceOnUse">
<stop offset="0.04" stop-color="#0098FF"/>
<stop offset="1" stop-color="#53FFF5"/>
</linearGradient>
<linearGradient id="paint57_linear_372_550" x1="-0.461488" y1="135.248" x2="118.323" y2="-18.4039" gradientUnits="userSpaceOnUse">
<stop offset="0.04" stop-color="#0098FF"/>
<stop offset="1" stop-color="#53FFF5"/>
</linearGradient>
<linearGradient id="paint58_linear_372_550" x1="63.4092" y1="184.631" x2="182.207" y2="30.993" gradientUnits="userSpaceOnUse">
<stop offset="0.04" stop-color="#0098FF"/>
<stop offset="1" stop-color="#53FFF5"/>
</linearGradient>
<linearGradient id="paint59_linear_372_550" x1="-8.06731" y1="129.369" x2="110.731" y2="-24.2827" gradientUnits="userSpaceOnUse">
<stop offset="0.04" stop-color="#0098FF"/>
<stop offset="1" stop-color="#53FFF5"/>
</linearGradient>
<linearGradient id="paint60_linear_372_550" x1="60.3579" y1="182.277" x2="179.142" y2="28.6248" gradientUnits="userSpaceOnUse">
<stop offset="0.04" stop-color="#0098FF"/>
<stop offset="1" stop-color="#53FFF5"/>
</linearGradient>
<linearGradient id="paint61_linear_372_550" x1="-4.36184" y1="132.239" x2="114.436" y2="-21.413" gradientUnits="userSpaceOnUse">
<stop offset="0.04" stop-color="#0098FF"/>
<stop offset="1" stop-color="#53FFF5"/>
</linearGradient>
<linearGradient id="paint62_linear_372_550" x1="57.0431" y1="179.713" x2="175.841" y2="26.0616" gradientUnits="userSpaceOnUse">
<stop offset="0.04" stop-color="#0098FF"/>
<stop offset="1" stop-color="#53FFF5"/>
</linearGradient>
<linearGradient id="paint63_linear_372_550" x1="-11.592" y1="126.653" x2="107.206" y2="-26.999" gradientUnits="userSpaceOnUse">
<stop offset="0.04" stop-color="#0098FF"/>
<stop offset="1" stop-color="#53FFF5"/>
</linearGradient>
<linearGradient id="paint64_linear_372_550" x1="-14.8795" y1="124.103" x2="103.905" y2="-29.5483" gradientUnits="userSpaceOnUse">
<stop offset="0.04" stop-color="#0098FF"/>
<stop offset="1" stop-color="#53FFF5"/>
</linearGradient>
<linearGradient id="paint65_linear_372_550" x1="53.5328" y1="176.997" x2="172.317" y2="23.3452" gradientUnits="userSpaceOnUse">
<stop offset="0.04" stop-color="#0098FF"/>
<stop offset="1" stop-color="#53FFF5"/>
</linearGradient>
<linearGradient id="paint66_linear_372_550" x1="72.8403" y1="191.916" x2="191.624" y2="38.265" gradientUnits="userSpaceOnUse">
<stop offset="0.04" stop-color="#0098FF"/>
<stop offset="1" stop-color="#53FFF5"/>
</linearGradient>
<linearGradient id="paint67_linear_372_550" x1="70.9317" y1="190.454" x2="189.73" y2="36.8018" gradientUnits="userSpaceOnUse">
<stop offset="0.04" stop-color="#0098FF"/>
<stop offset="1" stop-color="#53FFF5"/>
</linearGradient>
<linearGradient id="paint68_linear_372_550" x1="49.8133" y1="174.114" x2="168.598" y2="20.4758" gradientUnits="userSpaceOnUse">
<stop offset="0.04" stop-color="#0098FF"/>
<stop offset="1" stop-color="#53FFF5"/>
</linearGradient>
<linearGradient id="paint69_linear_372_550" x1="12.0342" y1="144.915" x2="130.818" y2="-8.73617" gradientUnits="userSpaceOnUse">
<stop offset="0.04" stop-color="#0098FF"/>
<stop offset="1" stop-color="#53FFF5"/>
</linearGradient>
<linearGradient id="paint70_linear_372_550" x1="16.3664" y1="148.273" x2="135.164" y2="-5.37916" gradientUnits="userSpaceOnUse">
<stop offset="0.04" stop-color="#0098FF"/>
<stop offset="1" stop-color="#53FFF5"/>
</linearGradient>
<linearGradient id="paint71_linear_372_550" x1="7.75699" y1="141.6" x2="126.541" y2="-12.0375" gradientUnits="userSpaceOnUse">
<stop offset="0.04" stop-color="#0098FF"/>
<stop offset="1" stop-color="#53FFF5"/>
</linearGradient>
<linearGradient id="paint72_linear_372_550" x1="66.209" y1="186.804" x2="185.007" y2="33.1523" gradientUnits="userSpaceOnUse">
<stop offset="0.04" stop-color="#0098FF"/>
<stop offset="1" stop-color="#53FFF5"/>
</linearGradient>
<linearGradient id="paint73_linear_372_550" x1="3.57792" y1="138.382" x2="122.376" y2="-15.2698" gradientUnits="userSpaceOnUse">
<stop offset="0.04" stop-color="#0098FF"/>
<stop offset="1" stop-color="#53FFF5"/>
</linearGradient>
<linearGradient id="paint74_linear_372_550" x1="68.7301" y1="188.74" x2="187.514" y2="35.0887" gradientUnits="userSpaceOnUse">
<stop offset="0.04" stop-color="#0098FF"/>
<stop offset="1" stop-color="#53FFF5"/>
</linearGradient>
<linearGradient id="paint75_linear_372_550" x1="22.4814" y1="152.981" x2="141.266" y2="-0.656776" gradientUnits="userSpaceOnUse">
<stop offset="0.04" stop-color="#0098FF"/>
<stop offset="1" stop-color="#53FFF5"/>
</linearGradient>
</defs>
</svg>
