<svg width="160" height="160" viewBox="0 0 160 160" fill="none" xmlns="http://www.w3.org/2000/svg">
<g id="Group 1491">
<g id="path-a4-1">
<path id="Vector" d="M80.1619 148.663C64.1303 148.665 48.6042 143.052 36.2798 132.799C23.9553 122.546 15.611 108.301 12.6959 92.5366L11.2959 92.7886C14.2571 108.887 22.7662 123.439 35.3439 133.914C47.9215 144.389 63.7724 150.125 80.1409 150.125C96.5094 150.125 112.36 144.389 124.938 133.914C137.516 123.439 146.025 108.887 148.986 92.7886L147.586 92.5366C144.672 108.294 136.334 122.534 124.018 132.786C111.702 143.038 96.1863 148.655 80.1619 148.663V148.663Z" fill="url(#paint0_linear_372_1357)"/>
<path id="Vector_2" d="M80.1616 11.4624C96.1884 11.4667 111.708 17.0823 124.026 27.3346C136.345 37.587 144.685 51.8288 147.6 67.5884L149 67.3364C146.038 51.238 137.529 36.6864 124.952 26.2113C112.374 15.7362 96.523 10 80.1546 10C63.7861 10 47.9352 15.7362 35.3575 26.2113C22.7798 36.6864 14.2708 51.238 11.3096 67.3364L12.7096 67.5884C15.6243 51.8264 23.9665 37.5828 36.288 27.3302C48.6096 17.0776 64.1324 11.4634 80.1616 11.4624V11.4624Z" fill="url(#paint1_linear_372_1357)"/>
<path id="Vector_3" d="M158.338 77.9204L151.73 76.9544L148.762 70.9624L145.808 76.9544L139.2 77.9204L143.988 82.5824L142.854 89.1624L148.762 86.0544L154.684 89.1624L153.55 82.5824L158.338 77.9204Z" fill="url(#paint2_linear_372_1357)"/>
<path id="Vector_4" d="M11.562 86.0544L17.484 89.1624L16.35 82.5824L21.138 77.9204L14.53 76.9544L11.562 70.9624L8.608 76.9544L2 77.9204L6.788 82.5824L5.654 89.1624L11.562 86.0544Z" fill="url(#paint3_linear_372_1357)"/>
</g>
<g id="path-a4-2">
<path id="Vector_5" d="M34.666 66.6581L33.266 66.2661C33.168 66.5741 33.084 66.8961 33 67.2181L34.4 67.5821C34.484 67.2741 34.568 66.9661 34.666 66.6581Z" fill="url(#paint4_linear_372_1357)"/>
<path id="Vector_6" d="M89.294 31.812C88.636 31.686 87.978 31.588 87.32 31.49L87.124 32.89C87.768 32.974 88.398 33.086 89.042 33.198L89.294 31.812Z" fill="url(#paint5_linear_372_1357)"/>
<path id="Vector_7" d="M104.303 37.23C103.715 36.908 103.127 36.586 102.525 36.292L101.895 37.538C102.483 37.832 103.043 38.14 103.617 38.448L104.303 37.23Z" fill="url(#paint6_linear_372_1357)"/>
<path id="Vector_8" d="M85.3321 31.252C84.6601 31.252 83.9321 31.126 83.3301 31.084L83.2461 32.484L85.1921 32.638L85.3321 31.252Z" fill="url(#paint7_linear_372_1357)"/>
<path id="Vector_9" d="M77.4219 32.484L77.3379 31.084C76.6659 31.084 75.9379 31.168 75.3359 31.238L75.4899 32.638C76.0966 32.5727 76.7406 32.5213 77.4219 32.484Z" fill="url(#paint8_linear_372_1357)"/>
<path id="Vector_10" d="M81.3278 31H79.3398V32.4C79.9838 32.4 80.6278 32.4 81.2858 32.4L81.3278 31Z" fill="url(#paint9_linear_372_1357)"/>
<path id="Vector_11" d="M100.733 35.41L98.8845 34.626L98.3525 35.914L100.145 36.684L100.733 35.41Z" fill="url(#paint10_linear_372_1357)"/>
<path id="Vector_12" d="M93.2 32.694C92.556 32.526 91.912 32.358 91.268 32.218L90.96 33.618C91.59 33.758 92.22 33.926 92.836 34.094L93.2 32.694Z" fill="url(#paint11_linear_372_1357)"/>
<path id="Vector_13" d="M43.7381 49.606L42.6601 48.71C42.2401 49.214 41.8201 49.746 41.4141 50.278L42.5201 51.118C42.9261 50.6 43.3181 50.096 43.7381 49.606Z" fill="url(#paint12_linear_372_1357)"/>
<path id="Vector_14" d="M46.3422 46.708L45.3482 45.728C44.8722 46.218 44.4242 46.694 43.9482 47.198L44.9842 48.136C45.4462 47.646 45.8942 47.184 46.3422 46.708Z" fill="url(#paint13_linear_372_1357)"/>
<path id="Vector_15" d="M62.4002 35.9279L61.8682 34.6399C61.2522 34.8919 60.6362 35.1579 60.0342 35.4379L60.6082 36.6979L62.4002 35.9279Z" fill="url(#paint14_linear_372_1357)"/>
<path id="Vector_16" d="M65.9838 34.612L65.5638 33.282C64.9198 33.478 64.2898 33.688 63.6738 33.912L64.1498 35.228L65.9838 34.612Z" fill="url(#paint15_linear_372_1357)"/>
<path id="Vector_17" d="M55.4005 39.4L54.6585 38.21C54.0985 38.56 53.5385 38.91 52.9785 39.288L53.7625 40.45C54.3365 40.142 54.8685 39.792 55.4005 39.4Z" fill="url(#paint16_linear_372_1357)"/>
<path id="Vector_18" d="M58.8165 37.5519L58.2005 36.3059C57.6125 36.5999 57.0245 36.9219 56.4365 37.2439L57.1225 38.4619C57.6685 38.1539 58.2005 37.8459 58.8165 37.5519Z" fill="url(#paint17_linear_372_1357)"/>
<path id="Vector_19" d="M49.1704 44.0479L48.2604 42.9839C47.7564 43.4319 47.2524 43.8799 46.7764 44.3839L47.7284 45.4059C48.2044 44.9019 48.6804 44.4679 49.1704 44.0479Z" fill="url(#paint18_linear_372_1357)"/>
<path id="Vector_20" d="M73.6 32.89L73.404 31.49C72.732 31.588 72.074 31.7 71.416 31.826L71.682 33.226C72.27 33.086 72.914 32.974 73.6 32.89Z" fill="url(#paint19_linear_372_1357)"/>
<path id="Vector_21" d="M52.2081 41.6259L51.3821 40.4919C50.8315 40.8839 50.2995 41.2899 49.7861 41.7099L50.6681 42.8019C51.2001 42.3959 51.6761 42.0039 52.2081 41.6259Z" fill="url(#paint20_linear_372_1357)"/>
<path id="Vector_22" d="M69.7364 33.5899L69.4284 32.1899C68.7704 32.3299 68.1264 32.4979 67.4824 32.6659L67.8464 34.0659C68.4764 33.8979 69.1064 33.7999 69.7364 33.5899Z" fill="url(#paint21_linear_372_1357)"/>
<path id="Vector_23" d="M97.0222 33.8979L95.1182 33.2539L94.6982 34.6539C95.3142 34.8499 95.9302 35.0459 96.5462 35.2699L97.0222 33.8979Z" fill="url(#paint22_linear_372_1357)"/>
<path id="Vector_24" d="M41.4005 52.6859L40.2525 51.8879C39.8745 52.4339 39.4965 52.9799 39.1465 53.5539L40.3225 54.3099C40.6445 53.7639 41.0085 53.2179 41.4005 52.6859Z" fill="url(#paint23_linear_372_1357)"/>
<path id="Vector_25" d="M121.607 53.5259C121.243 52.9659 120.879 52.4059 120.501 51.8599L119.353 52.6719C119.717 53.2039 120.081 53.7359 120.431 54.2819L121.607 53.5259Z" fill="url(#paint24_linear_372_1357)"/>
<path id="Vector_26" d="M113.948 44.328C113.472 43.866 112.968 43.418 112.548 42.928L111.624 43.978L113.024 45.28L113.948 44.328Z" fill="url(#paint25_linear_372_1357)"/>
<path id="Vector_27" d="M35.8978 62.9619L34.5958 62.4719C34.3578 63.0879 34.1338 63.7179 33.9238 64.3479L35.2398 64.7959C35.4498 64.1799 35.6738 63.5779 35.8978 62.9619Z" fill="url(#paint26_linear_372_1357)"/>
<path id="Vector_28" d="M116.748 47.1839C116.3 46.6799 115.852 46.2039 115.348 45.7839L114.34 46.7499C114.788 47.2259 115.236 47.6879 115.74 48.1499L116.748 47.1839Z" fill="url(#paint27_linear_372_1357)"/>
<path id="Vector_29" d="M119.31 50.25C118.904 49.718 118.484 49.2 118.064 48.696L116.986 49.592C117.406 50.0774 117.812 50.5814 118.204 51.104L119.31 50.25Z" fill="url(#paint28_linear_372_1357)"/>
<path id="Vector_30" d="M39.2719 55.962L38.0679 55.248C37.7319 55.822 37.4099 56.41 37.0879 56.998L38.3199 57.656C38.5999 57.082 38.9499 56.522 39.2719 55.962Z" fill="url(#paint29_linear_372_1357)"/>
<path id="Vector_31" d="M37.4525 59.392L36.1785 58.79C35.8985 59.392 35.6185 59.994 35.3525 60.61L36.6405 61.17C36.8925 60.568 37.2005 59.98 37.4525 59.392Z" fill="url(#paint30_linear_372_1357)"/>
<path id="Vector_32" d="M107.704 39.4001C107.163 39.0268 106.603 38.6628 106.024 38.3081L105.296 39.5121C105.842 39.8481 106.388 40.1981 106.92 40.5621L107.704 39.4001Z" fill="url(#paint31_linear_372_1357)"/>
<path id="Vector_33" d="M124.084 61.128L125.372 60.568C125.106 59.966 124.826 59.35 124.532 58.762L123.272 59.364C123.552 59.938 123.818 60.526 124.084 61.128Z" fill="url(#paint32_linear_372_1357)"/>
<path id="Vector_34" d="M122.39 57.6001L123.636 56.9421C123.314 56.3541 122.992 55.7801 122.656 55.2061L121.452 55.9061C121.774 56.4941 122.096 57.0541 122.39 57.6001Z" fill="url(#paint33_linear_372_1357)"/>
<path id="Vector_35" d="M125.47 64.754L126.87 64.306C126.655 63.6807 126.431 63.0507 126.198 62.416L124.882 62.92C125.05 63.522 125.26 64.138 125.47 64.754Z" fill="url(#paint34_linear_372_1357)"/>
<path id="Vector_36" d="M110.939 41.696C110.407 41.276 109.889 40.87 109.343 40.478L108.517 41.612C109.035 41.99 109.553 42.382 110.057 42.788L110.939 41.696Z" fill="url(#paint35_linear_372_1357)"/>
<path id="Vector_37" d="M126.338 67.5821L127.738 67.2181C127.654 66.8961 127.57 66.5881 127.472 66.2661L126.072 66.6581C126.156 66.9661 126.254 67.2741 126.338 67.5821Z" fill="url(#paint36_linear_372_1357)"/>
<path id="Vector_38" d="M126.072 93.342L127.472 93.734C127.57 93.426 127.654 93.104 127.738 92.782L126.338 92.418C126.254 92.726 126.156 93.034 126.072 93.342Z" fill="url(#paint37_linear_372_1357)"/>
<path id="Vector_39" d="M49.7998 118.304C50.3318 118.724 50.8498 119.13 51.3958 119.522L52.2218 118.388C51.7038 118.01 51.1858 117.618 50.6818 117.212L49.7998 118.304Z" fill="url(#paint38_linear_372_1357)"/>
<path id="Vector_40" d="M38.3485 102.4L37.1025 103.058C37.4245 103.646 37.7465 104.22 38.0825 104.794L39.2865 104.094C38.9645 103.506 38.6005 102.932 38.3485 102.4Z" fill="url(#paint39_linear_372_1357)"/>
<path id="Vector_41" d="M39.1318 106.474C39.4958 107.034 39.8598 107.594 40.2378 108.126L41.3858 107.328C41.0218 106.796 40.6578 106.264 40.3078 105.718L39.1318 106.474Z" fill="url(#paint40_linear_372_1357)"/>
<path id="Vector_42" d="M35.2685 95.2461L33.9385 95.6941C34.1438 96.3194 34.3678 96.9494 34.6105 97.5841L35.9265 97.0801C35.6885 96.4781 35.4785 95.8621 35.2685 95.2461Z" fill="url(#paint41_linear_372_1357)"/>
<path id="Vector_43" d="M36.6542 98.8721L35.3662 99.4321C35.6322 100.034 35.9122 100.65 36.2062 101.238L37.4662 100.636C37.2002 100.048 36.9062 99.4601 36.6542 98.8721Z" fill="url(#paint42_linear_372_1357)"/>
<path id="Vector_44" d="M41.4004 109.75C41.8064 110.268 42.2264 110.8 42.6464 111.304L43.7244 110.408C43.3044 109.923 42.8984 109.419 42.5064 108.896L41.4004 109.75Z" fill="url(#paint43_linear_372_1357)"/>
<path id="Vector_45" d="M43.9902 112.816C44.4382 113.32 44.8862 113.796 45.3902 114.216L46.3982 113.236C45.9502 112.774 45.5022 112.312 45.0682 111.836L43.9902 112.816Z" fill="url(#paint44_linear_372_1357)"/>
<path id="Vector_46" d="M53.0342 120.67C53.5802 121.048 54.1402 121.398 54.7142 121.762L55.4002 120.6C54.8542 120.264 54.3082 119.914 53.7762 119.55L53.0342 120.67Z" fill="url(#paint45_linear_372_1357)"/>
<path id="Vector_47" d="M46.7764 115.672C47.2664 116.134 47.7564 116.582 48.2604 117.072L49.1844 116.022L47.7844 114.72L46.7764 115.672Z" fill="url(#paint46_linear_372_1357)"/>
<path id="Vector_48" d="M87.1807 127.11L87.3767 128.51C88.0487 128.426 88.7067 128.314 89.3507 128.188L89.0987 126.788C88.4687 126.914 87.8247 127.026 87.1807 127.11Z" fill="url(#paint47_linear_372_1357)"/>
<path id="Vector_49" d="M111.568 115.952L112.478 117.016C112.982 116.568 113.486 116.12 113.962 115.616L113.01 114.594C112.534 115.098 112.058 115.532 111.568 115.952Z" fill="url(#paint48_linear_372_1357)"/>
<path id="Vector_50" d="M114.396 113.292L115.39 114.272C115.866 113.796 116.314 113.306 116.79 112.872L115.754 111.934C115.292 112.354 114.844 112.816 114.396 113.292Z" fill="url(#paint49_linear_372_1357)"/>
<path id="Vector_51" d="M101.922 122.448L102.566 123.694C103.154 123.4 103.742 123.078 104.316 122.756L103.63 121.538C103.07 121.846 102.51 122.154 101.922 122.448Z" fill="url(#paint50_linear_372_1357)"/>
<path id="Vector_52" d="M117 110.394L118.078 111.29C118.498 110.786 118.918 110.254 119.324 109.736L118.204 108.882C117.812 109.4 117.42 109.904 117 110.394Z" fill="url(#paint51_linear_372_1357)"/>
<path id="Vector_53" d="M108.601 118.374L109.427 119.508C109.973 119.116 110.491 118.71 111.023 118.29L110.141 117.198C109.567 117.604 109.049 117.996 108.601 118.374Z" fill="url(#paint52_linear_372_1357)"/>
<path id="Vector_54" d="M105.311 120.6L106.053 121.804C106.613 121.459 107.173 121.095 107.733 120.712L106.949 119.55C106.407 119.877 105.861 120.227 105.311 120.6Z" fill="url(#paint53_linear_372_1357)"/>
<path id="Vector_55" d="M124.826 97.0381L126.142 97.5281C126.38 96.9121 126.604 96.2821 126.814 95.6521L125.498 95.2041C125.288 95.8201 125.064 96.4221 124.826 97.0381Z" fill="url(#paint54_linear_372_1357)"/>
<path id="Vector_56" d="M119.366 107.314L120.5 108.112C120.892 107.566 121.256 107.02 121.62 106.46L120.444 105.69C120.094 106.236 119.8 106.782 119.366 107.314Z" fill="url(#paint55_linear_372_1357)"/>
<path id="Vector_57" d="M123.286 100.608L124.56 101.21C124.84 100.608 125.12 100.006 125.386 99.3901L124.098 98.8301C123.846 99.4321 123.566 100.02 123.286 100.608Z" fill="url(#paint56_linear_372_1357)"/>
<path id="Vector_58" d="M121.466 104.038L122.67 104.752C123.006 104.178 123.328 103.59 123.65 103.002L122.404 102.4C122.11 102.918 121.788 103.478 121.466 104.038Z" fill="url(#paint57_linear_372_1357)"/>
<path id="Vector_59" d="M94.7539 125.388L95.1739 126.788C95.8179 126.592 96.4479 126.382 97.0639 126.158L96.5879 124.8L94.7539 125.388Z" fill="url(#paint58_linear_372_1357)"/>
<path id="Vector_60" d="M98.3945 124.072L98.9265 125.36C99.5425 125.108 100.159 124.842 100.761 124.562L100.201 123.288C99.5985 123.568 98.9965 123.82 98.3945 124.072Z" fill="url(#paint59_linear_372_1357)"/>
<path id="Vector_61" d="M79.4238 127.6V129H81.4258V127.6C80.7258 127.6 80.0678 127.6 79.4238 127.6Z" fill="url(#paint60_linear_372_1357)"/>
<path id="Vector_62" d="M75.4062 128.748C76.0643 128.818 76.8063 128.874 77.4083 128.916L77.4922 127.516L75.5462 127.362L75.4062 128.748Z" fill="url(#paint61_linear_372_1357)"/>
<path id="Vector_63" d="M67.5518 127.306C68.1818 127.474 68.8398 127.642 69.4838 127.782L69.7918 126.382C69.1618 126.242 68.5318 126.074 67.9158 125.906L67.5518 127.306Z" fill="url(#paint62_linear_372_1357)"/>
<path id="Vector_64" d="M63.7158 126.102L65.6198 126.746L66.0398 125.346C65.4238 125.15 64.8078 124.954 64.1918 124.73L63.7158 126.102Z" fill="url(#paint63_linear_372_1357)"/>
<path id="Vector_65" d="M60.0059 124.59C60.6219 124.856 61.2239 125.122 61.8539 125.374L62.3859 124.086L60.5939 123.316L60.0059 124.59Z" fill="url(#paint64_linear_372_1357)"/>
<path id="Vector_66" d="M71.4443 128.188C72.1023 128.314 72.7603 128.412 73.4183 128.51L73.6143 127.11C72.9703 127.026 72.3403 126.914 71.6963 126.802L71.4443 128.188Z" fill="url(#paint65_linear_372_1357)"/>
<path id="Vector_67" d="M56.4365 122.77C57.0245 123.092 57.6125 123.414 58.2005 123.708L58.8445 122.462C58.2565 122.168 57.6825 121.86 57.1225 121.552L56.4365 122.77Z" fill="url(#paint66_linear_372_1357)"/>
<path id="Vector_68" d="M91.002 126.41L91.31 127.81C91.968 127.67 92.612 127.502 93.256 127.334L92.892 125.934C92.262 126.102 91.632 126.27 91.002 126.41Z" fill="url(#paint67_linear_372_1357)"/>
<path id="Vector_69" d="M83.3164 127.516L83.4004 128.916C84.0724 128.916 84.8004 128.832 85.3884 128.762L85.2484 127.362C84.6044 127.427 83.9604 127.479 83.3164 127.516Z" fill="url(#paint68_linear_372_1357)"/>
<path id="Vector_70" d="M34.4 92.418L33 92.782C33.084 93.104 33.168 93.426 33.266 93.734L34.666 93.342C34.582 93.034 34.484 92.726 34.4 92.418Z" fill="url(#paint69_linear_372_1357)"/>
<path id="Vector_71" d="M135.117 78.5579L130.665 77.8999L128.663 73.8679L126.675 77.8999L122.223 78.5579L125.443 81.6939L124.687 86.1319L128.663 84.0319L132.653 86.1319L131.897 81.6939L135.117 78.5579Z" fill="url(#paint70_linear_372_1357)"/>
<path id="Vector_72" d="M35.2961 81.6939L38.5161 78.5579L34.0641 77.8999L32.0761 73.8679L30.0741 77.8999L25.6221 78.5579L28.8421 81.6939L28.0861 86.1319L32.0761 84.0319L36.0521 86.1319L35.2961 81.6939Z" fill="url(#paint71_linear_372_1357)"/>
</g>
<g id="Group 1485">
<path id="Vector_73" d="M70.0002 55.2699C70.3362 55.3539 70.9802 55.4799 71.6102 55.6619C73.2938 56.2074 75.1143 56.153 76.7622 55.5079C77.4082 55.2317 78.0308 54.9039 78.6242 54.5279C79.4271 54.0439 80.3468 53.7881 81.2842 53.7881C82.2217 53.7881 83.1414 54.0439 83.9442 54.5279C84.4715 54.8171 84.9115 55.2426 85.2182 55.7599C85.4702 56.1659 85.7082 56.5719 85.9322 57.0059C86.385 57.875 87.0153 58.6394 87.7822 59.2496C88.5491 59.8597 89.4355 60.302 90.3842 60.5479C90.9162 60.7019 91.4482 60.8419 91.9662 61.0239C92.9449 61.3467 93.7813 61.999 94.3328 62.8696C94.8843 63.7402 95.1166 64.7751 94.9902 65.7979C94.8922 66.6379 94.6962 67.4639 94.5702 68.3179C94.3952 69.3324 94.3952 70.3694 94.5702 71.3839C94.7342 72.2132 95.0678 72.9997 95.5502 73.6939C95.6308 73.8254 95.7197 73.9516 95.8162 74.0719C96.2304 74.5926 96.5108 75.2068 96.6328 75.8608C96.7548 76.5149 96.7148 77.1889 96.5162 77.8239C96.3928 78.2985 96.2433 78.7658 96.0682 79.2239C95.74 80.0597 95.1176 80.7468 94.3182 81.1559L93.6462 81.5199C92.685 81.9445 91.8434 82.5999 91.1962 83.4278C90.549 84.2557 90.1162 85.2306 89.9362 86.2659C89.9313 86.3451 89.9313 86.4246 89.9362 86.5039C89.845 87.2883 89.559 88.0374 89.1042 88.683C88.6494 89.3286 88.0402 89.85 87.3322 90.1999L86.6742 90.5499C86.2025 90.8101 85.6786 90.9614 85.1408 90.9929C84.6031 91.0244 84.0651 90.9352 83.5662 90.7319C82.9234 90.4726 82.2509 90.2939 81.5642 90.1999C80.7428 90.0858 79.9066 90.1439 79.1088 90.3705C78.311 90.597 77.5691 90.9871 76.9302 91.5159L76.4682 91.9079C76.1551 92.1955 75.7805 92.408 75.373 92.5293C74.9655 92.6506 74.5357 92.6774 74.1162 92.6079C72.8126 92.4555 71.5467 92.0715 70.3782 91.4739C69.6797 91.1489 69.1331 90.5673 68.8522 89.8499L68.7262 89.5139C68.3426 88.3965 67.6519 87.4098 66.7332 86.6669C65.8146 85.924 64.7052 85.4551 63.5322 85.3139C62.8716 85.2492 62.2371 85.0224 61.6851 84.6536C61.1332 84.2848 60.6808 83.7855 60.3682 83.1999C60.1862 82.8779 60.0182 82.5699 59.8642 82.2479C59.4058 81.2851 59.3307 80.184 59.6542 79.1679C60.0542 78.0458 60.2395 76.8585 60.2002 75.6679C60.1648 74.6516 59.8761 73.6602 59.3602 72.7839L58.6322 71.6219C58.3377 71.1827 58.1383 70.6869 58.0466 70.1661C57.955 69.6453 57.9733 69.1112 58.1002 68.5979C58.2227 68.0603 58.3818 67.5318 58.5762 67.0159C58.6937 66.6746 58.878 66.3602 59.1184 66.091C59.3588 65.8217 59.6504 65.6031 59.9762 65.4479C61.1313 64.9945 62.1661 64.2806 63.0002 63.3619C64.1952 62.0693 65.0303 60.486 65.4222 58.7699C65.5832 57.8441 66.0821 57.0109 66.8222 56.4319C67.7087 55.6773 68.8361 55.2651 70.0002 55.2699V55.2699ZM77.3782 87.3019C80.1869 87.2991 82.9318 86.4641 85.2661 84.9022C87.6005 83.3403 89.4197 81.1217 90.4939 78.5266C91.5681 75.9314 91.8491 73.0761 91.3015 70.3214C90.7539 67.5666 89.4022 65.0359 87.4171 63.0489C85.4321 61.0618 82.9027 59.7076 80.1484 59.1573C77.3942 58.607 74.5386 58.8852 71.9424 59.9569C69.3462 61.0285 67.1258 62.8455 65.5617 65.1783C63.9975 67.5112 63.1598 70.2552 63.1542 73.0639C63.1505 74.9323 63.5154 76.7831 64.2278 78.5104C64.9403 80.2377 65.9864 81.8075 67.3063 83.13C68.6262 84.4525 70.1939 85.5017 71.9198 86.2175C73.6457 86.9334 75.4958 87.3019 77.3642 87.3019H77.3782Z" fill="#025FB5"/>
<path id="Vector_74" d="M99.82 106.916L90.342 102.45L87.346 112.502L80.626 97.2C85.2957 96.7275 89.7247 94.8975 93.366 91.936L99.82 106.916Z" fill="#025FB5"/>
<path id="Vector_75" d="M65.9956 102.45L56.5176 106.916L62.9996 92.6079C64.8025 94.0318 66.8079 95.1785 68.9496 96.0099C71.0988 96.7775 73.3308 97.2897 75.5996 97.5359L69.0196 112.6L65.9956 102.45Z" fill="#025FB5"/>
<path id="Vector_76" d="M77.3776 60.8C79.8198 60.8028 82.2064 61.5297 84.2354 62.8888C86.2645 64.248 87.845 66.1782 88.777 68.4356C89.7091 70.693 89.9508 73.176 89.4716 75.5707C88.9925 77.9655 87.8139 80.1644 86.0851 81.8893C84.3562 83.6142 82.1547 84.7878 79.7589 85.2615C77.3631 85.7352 74.8806 85.4879 72.6253 84.5507C70.3701 83.6136 68.4434 82.0287 67.0889 79.9966C65.7344 77.9644 65.0129 75.5763 65.0156 73.1341C65.0267 69.8614 66.3336 66.7264 68.6503 64.415C70.9671 62.1035 74.105 60.8037 77.3776 60.8V60.8ZM72.3096 71.524L69.9996 73.82L75.7116 79.5321L86.2536 68.99L83.8316 66.568L75.5996 74.8L72.3096 71.524Z" fill="#02B6AB"/>
</g>
</g>
<defs>
<linearGradient id="paint0_linear_372_1357" x1="151.212" y1="121.293" x2="11.0859" y2="121.293" gradientUnits="userSpaceOnUse">
<stop offset="0.04" stop-color="#0098FF"/>
<stop offset="1" stop-color="#20D7CC"/>
</linearGradient>
<linearGradient id="paint1_linear_372_1357" x1="151.212" y1="38.8324" x2="11.0856" y2="38.8324" gradientUnits="userSpaceOnUse">
<stop offset="0.04" stop-color="#0098FF"/>
<stop offset="1" stop-color="#20D7CC"/>
</linearGradient>
<linearGradient id="paint2_linear_372_1357" x1="151.212" y1="80.0624" x2="11.0862" y2="80.0624" gradientUnits="userSpaceOnUse">
<stop offset="0.04" stop-color="#0098FF"/>
<stop offset="1" stop-color="#53FFF5"/>
</linearGradient>
<linearGradient id="paint3_linear_372_1357" x1="151.212" y1="80.0624" x2="11.086" y2="80.0624" gradientUnits="userSpaceOnUse">
<stop offset="0.04" stop-color="#0098FF"/>
<stop offset="1" stop-color="#20D7CC"/>
</linearGradient>
<linearGradient id="paint4_linear_372_1357" x1="30.956" y1="66.9241" x2="129.278" y2="66.9241" gradientUnits="userSpaceOnUse">
<stop offset="0.04" stop-color="#0098FF"/>
<stop offset="1" stop-color="#53FFF5"/>
</linearGradient>
<linearGradient id="paint5_linear_372_1357" x1="30.9561" y1="32.344" x2="129.278" y2="32.344" gradientUnits="userSpaceOnUse">
<stop offset="0.04" stop-color="#0098FF"/>
<stop offset="1" stop-color="#53FFF5"/>
</linearGradient>
<linearGradient id="paint6_linear_372_1357" x1="30.9565" y1="37.37" x2="129.279" y2="37.37" gradientUnits="userSpaceOnUse">
<stop offset="0.04" stop-color="#0098FF"/>
<stop offset="1" stop-color="#53FFF5"/>
</linearGradient>
<linearGradient id="paint7_linear_372_1357" x1="30.956" y1="31.868" x2="129.278" y2="31.868" gradientUnits="userSpaceOnUse">
<stop offset="0.04" stop-color="#0098FF"/>
<stop offset="1" stop-color="#53FFF5"/>
</linearGradient>
<linearGradient id="paint8_linear_372_1357" x1="30.956" y1="31.868" x2="129.278" y2="31.868" gradientUnits="userSpaceOnUse">
<stop offset="0.04" stop-color="#0098FF"/>
<stop offset="1" stop-color="#53FFF5"/>
</linearGradient>
<linearGradient id="paint9_linear_372_1357" x1="30.9558" y1="31.7" x2="129.278" y2="31.7" gradientUnits="userSpaceOnUse">
<stop offset="0.04" stop-color="#0098FF"/>
<stop offset="1" stop-color="#53FFF5"/>
</linearGradient>
<linearGradient id="paint10_linear_372_1357" x1="30.9567" y1="35.648" x2="129.278" y2="35.648" gradientUnits="userSpaceOnUse">
<stop offset="0.04" stop-color="#0098FF"/>
<stop offset="1" stop-color="#53FFF5"/>
</linearGradient>
<linearGradient id="paint11_linear_372_1357" x1="30.956" y1="33.128" x2="129.278" y2="33.128" gradientUnits="userSpaceOnUse">
<stop offset="0.04" stop-color="#0098FF"/>
<stop offset="1" stop-color="#53FFF5"/>
</linearGradient>
<linearGradient id="paint12_linear_372_1357" x1="30.9561" y1="49.914" x2="129.278" y2="49.914" gradientUnits="userSpaceOnUse">
<stop offset="0.04" stop-color="#0098FF"/>
<stop offset="1" stop-color="#53FFF5"/>
</linearGradient>
<linearGradient id="paint13_linear_372_1357" x1="30.9562" y1="46.932" x2="129.278" y2="46.932" gradientUnits="userSpaceOnUse">
<stop offset="0.04" stop-color="#0098FF"/>
<stop offset="1" stop-color="#53FFF5"/>
</linearGradient>
<linearGradient id="paint14_linear_372_1357" x1="30.9562" y1="35.6759" x2="129.278" y2="35.6759" gradientUnits="userSpaceOnUse">
<stop offset="0.04" stop-color="#0098FF"/>
<stop offset="1" stop-color="#53FFF5"/>
</linearGradient>
<linearGradient id="paint15_linear_372_1357" x1="30.9558" y1="34.262" x2="129.278" y2="34.262" gradientUnits="userSpaceOnUse">
<stop offset="0.04" stop-color="#0098FF"/>
<stop offset="1" stop-color="#53FFF5"/>
</linearGradient>
<linearGradient id="paint16_linear_372_1357" x1="30.9565" y1="39.386" x2="129.278" y2="39.386" gradientUnits="userSpaceOnUse">
<stop offset="0.04" stop-color="#0098FF"/>
<stop offset="1" stop-color="#53FFF5"/>
</linearGradient>
<linearGradient id="paint17_linear_372_1357" x1="30.9566" y1="37.3839" x2="129.278" y2="37.3839" gradientUnits="userSpaceOnUse">
<stop offset="0.04" stop-color="#0098FF"/>
<stop offset="1" stop-color="#53FFF5"/>
</linearGradient>
<linearGradient id="paint18_linear_372_1357" x1="30.9564" y1="44.1739" x2="129.278" y2="44.1739" gradientUnits="userSpaceOnUse">
<stop offset="0.04" stop-color="#0098FF"/>
<stop offset="1" stop-color="#53FFF5"/>
</linearGradient>
<linearGradient id="paint19_linear_372_1357" x1="30.956" y1="32.344" x2="129.278" y2="32.344" gradientUnits="userSpaceOnUse">
<stop offset="0.04" stop-color="#0098FF"/>
<stop offset="1" stop-color="#53FFF5"/>
</linearGradient>
<linearGradient id="paint20_linear_372_1357" x1="30.9561" y1="41.6539" x2="129.278" y2="41.6539" gradientUnits="userSpaceOnUse">
<stop offset="0.04" stop-color="#0098FF"/>
<stop offset="1" stop-color="#53FFF5"/>
</linearGradient>
<linearGradient id="paint21_linear_372_1357" x1="30.9564" y1="33.1419" x2="129.278" y2="33.1419" gradientUnits="userSpaceOnUse">
<stop offset="0.04" stop-color="#0098FF"/>
<stop offset="1" stop-color="#53FFF5"/>
</linearGradient>
<linearGradient id="paint22_linear_372_1357" x1="30.9561" y1="34.2339" x2="129.278" y2="34.2339" gradientUnits="userSpaceOnUse">
<stop offset="0.04" stop-color="#0098FF"/>
<stop offset="1" stop-color="#53FFF5"/>
</linearGradient>
<linearGradient id="paint23_linear_372_1357" x1="30.9565" y1="53.0919" x2="129.279" y2="53.0919" gradientUnits="userSpaceOnUse">
<stop offset="0.04" stop-color="#0098FF"/>
<stop offset="1" stop-color="#53FFF5"/>
</linearGradient>
<linearGradient id="paint24_linear_372_1357" x1="30.9565" y1="53.0779" x2="129.279" y2="53.0779" gradientUnits="userSpaceOnUse">
<stop offset="0.04" stop-color="#0098FF"/>
<stop offset="1" stop-color="#53FFF5"/>
</linearGradient>
<linearGradient id="paint25_linear_372_1357" x1="30.9562" y1="44.16" x2="129.278" y2="44.16" gradientUnits="userSpaceOnUse">
<stop offset="0.04" stop-color="#0098FF"/>
<stop offset="1" stop-color="#53FFF5"/>
</linearGradient>
<linearGradient id="paint26_linear_372_1357" x1="30.9558" y1="63.6339" x2="129.278" y2="63.6339" gradientUnits="userSpaceOnUse">
<stop offset="0.04" stop-color="#0098FF"/>
<stop offset="1" stop-color="#53FFF5"/>
</linearGradient>
<linearGradient id="paint27_linear_372_1357" x1="30.9558" y1="46.9179" x2="129.278" y2="46.9179" gradientUnits="userSpaceOnUse">
<stop offset="0.04" stop-color="#0098FF"/>
<stop offset="1" stop-color="#53FFF5"/>
</linearGradient>
<linearGradient id="paint28_linear_372_1357" x1="30.9561" y1="49.9" x2="129.278" y2="49.9" gradientUnits="userSpaceOnUse">
<stop offset="0.04" stop-color="#0098FF"/>
<stop offset="1" stop-color="#53FFF5"/>
</linearGradient>
<linearGradient id="paint29_linear_372_1357" x1="30.9559" y1="56.452" x2="129.278" y2="56.452" gradientUnits="userSpaceOnUse">
<stop offset="0.04" stop-color="#0098FF"/>
<stop offset="1" stop-color="#53FFF5"/>
</linearGradient>
<linearGradient id="paint30_linear_372_1357" x1="30.9565" y1="59.98" x2="129.279" y2="59.98" gradientUnits="userSpaceOnUse">
<stop offset="0.04" stop-color="#0098FF"/>
<stop offset="1" stop-color="#53FFF5"/>
</linearGradient>
<linearGradient id="paint31_linear_372_1357" x1="30.9558" y1="39.3721" x2="129.278" y2="39.3721" gradientUnits="userSpaceOnUse">
<stop offset="0.04" stop-color="#0098FF"/>
<stop offset="1" stop-color="#53FFF5"/>
</linearGradient>
<linearGradient id="paint32_linear_372_1357" x1="30.9565" y1="59.938" x2="129.278" y2="59.938" gradientUnits="userSpaceOnUse">
<stop offset="0.04" stop-color="#0098FF"/>
<stop offset="1" stop-color="#53FFF5"/>
</linearGradient>
<linearGradient id="paint33_linear_372_1357" x1="30.9563" y1="56.4241" x2="129.278" y2="56.4241" gradientUnits="userSpaceOnUse">
<stop offset="0.04" stop-color="#0098FF"/>
<stop offset="1" stop-color="#53FFF5"/>
</linearGradient>
<linearGradient id="paint34_linear_372_1357" x1="30.9554" y1="63.592" x2="129.278" y2="63.592" gradientUnits="userSpaceOnUse">
<stop offset="0.04" stop-color="#0098FF"/>
<stop offset="1" stop-color="#53FFF5"/>
</linearGradient>
<linearGradient id="paint35_linear_372_1357" x1="30.9568" y1="41.64" x2="129.279" y2="41.64" gradientUnits="userSpaceOnUse">
<stop offset="0.04" stop-color="#0098FF"/>
<stop offset="1" stop-color="#53FFF5"/>
</linearGradient>
<linearGradient id="paint36_linear_372_1357" x1="30.9567" y1="66.9241" x2="129.278" y2="66.9241" gradientUnits="userSpaceOnUse">
<stop offset="0.04" stop-color="#0098FF"/>
<stop offset="1" stop-color="#53FFF5"/>
</linearGradient>
<linearGradient id="paint37_linear_372_1357" x1="30.9567" y1="93.076" x2="129.278" y2="93.076" gradientUnits="userSpaceOnUse">
<stop offset="0.04" stop-color="#0098FF"/>
<stop offset="1" stop-color="#53FFF5"/>
</linearGradient>
<linearGradient id="paint38_linear_372_1357" x1="30.9558" y1="118.36" x2="129.278" y2="118.36" gradientUnits="userSpaceOnUse">
<stop offset="0.04" stop-color="#0098FF"/>
<stop offset="1" stop-color="#53FFF5"/>
</linearGradient>
<linearGradient id="paint39_linear_372_1357" x1="30.9565" y1="103.562" x2="129.279" y2="103.562" gradientUnits="userSpaceOnUse">
<stop offset="0.04" stop-color="#0098FF"/>
<stop offset="1" stop-color="#53FFF5"/>
</linearGradient>
<linearGradient id="paint40_linear_372_1357" x1="30.9558" y1="106.922" x2="129.278" y2="106.922" gradientUnits="userSpaceOnUse">
<stop offset="0.04" stop-color="#0098FF"/>
<stop offset="1" stop-color="#53FFF5"/>
</linearGradient>
<linearGradient id="paint41_linear_372_1357" x1="30.9565" y1="96.4081" x2="129.278" y2="96.4081" gradientUnits="userSpaceOnUse">
<stop offset="0.04" stop-color="#0098FF"/>
<stop offset="1" stop-color="#53FFF5"/>
</linearGradient>
<linearGradient id="paint42_linear_372_1357" x1="30.9562" y1="100.062" x2="129.278" y2="100.062" gradientUnits="userSpaceOnUse">
<stop offset="0.04" stop-color="#0098FF"/>
<stop offset="1" stop-color="#53FFF5"/>
</linearGradient>
<linearGradient id="paint43_linear_372_1357" x1="30.9564" y1="110.1" x2="129.278" y2="110.1" gradientUnits="userSpaceOnUse">
<stop offset="0.04" stop-color="#0098FF"/>
<stop offset="1" stop-color="#53FFF5"/>
</linearGradient>
<linearGradient id="paint44_linear_372_1357" x1="30.9562" y1="113.082" x2="129.278" y2="113.082" gradientUnits="userSpaceOnUse">
<stop offset="0.04" stop-color="#0098FF"/>
<stop offset="1" stop-color="#53FFF5"/>
</linearGradient>
<linearGradient id="paint45_linear_372_1357" x1="30.9562" y1="120.628" x2="129.278" y2="120.628" gradientUnits="userSpaceOnUse">
<stop offset="0.04" stop-color="#0098FF"/>
<stop offset="1" stop-color="#53FFF5"/>
</linearGradient>
<linearGradient id="paint46_linear_372_1357" x1="30.9564" y1="115.84" x2="129.278" y2="115.84" gradientUnits="userSpaceOnUse">
<stop offset="0.04" stop-color="#0098FF"/>
<stop offset="1" stop-color="#53FFF5"/>
</linearGradient>
<linearGradient id="paint47_linear_372_1357" x1="30.9567" y1="127.656" x2="129.279" y2="127.656" gradientUnits="userSpaceOnUse">
<stop offset="0.04" stop-color="#0098FF"/>
<stop offset="1" stop-color="#53FFF5"/>
</linearGradient>
<linearGradient id="paint48_linear_372_1357" x1="30.9564" y1="115.826" x2="129.278" y2="115.826" gradientUnits="userSpaceOnUse">
<stop offset="0.04" stop-color="#0098FF"/>
<stop offset="1" stop-color="#53FFF5"/>
</linearGradient>
<linearGradient id="paint49_linear_372_1357" x1="30.9565" y1="113.068" x2="129.278" y2="113.068" gradientUnits="userSpaceOnUse">
<stop offset="0.04" stop-color="#0098FF"/>
<stop offset="1" stop-color="#53FFF5"/>
</linearGradient>
<linearGradient id="paint50_linear_372_1357" x1="30.9559" y1="122.616" x2="129.278" y2="122.616" gradientUnits="userSpaceOnUse">
<stop offset="0.04" stop-color="#0098FF"/>
<stop offset="1" stop-color="#53FFF5"/>
</linearGradient>
<linearGradient id="paint51_linear_372_1357" x1="30.9558" y1="110.086" x2="129.278" y2="110.086" gradientUnits="userSpaceOnUse">
<stop offset="0.04" stop-color="#0098FF"/>
<stop offset="1" stop-color="#53FFF5"/>
</linearGradient>
<linearGradient id="paint52_linear_372_1357" x1="30.9564" y1="118.346" x2="129.279" y2="118.346" gradientUnits="userSpaceOnUse">
<stop offset="0.04" stop-color="#0098FF"/>
<stop offset="1" stop-color="#53FFF5"/>
</linearGradient>
<linearGradient id="paint53_linear_372_1357" x1="30.9567" y1="120.614" x2="129.278" y2="120.614" gradientUnits="userSpaceOnUse">
<stop offset="0.04" stop-color="#0098FF"/>
<stop offset="1" stop-color="#53FFF5"/>
</linearGradient>
<linearGradient id="paint54_linear_372_1357" x1="30.9558" y1="96.3661" x2="129.278" y2="96.3661" gradientUnits="userSpaceOnUse">
<stop offset="0.04" stop-color="#0098FF"/>
<stop offset="1" stop-color="#53FFF5"/>
</linearGradient>
<linearGradient id="paint55_linear_372_1357" x1="30.9562" y1="106.908" x2="129.278" y2="106.908" gradientUnits="userSpaceOnUse">
<stop offset="0.04" stop-color="#0098FF"/>
<stop offset="1" stop-color="#53FFF5"/>
</linearGradient>
<linearGradient id="paint56_linear_372_1357" x1="30.9561" y1="100.02" x2="129.278" y2="100.02" gradientUnits="userSpaceOnUse">
<stop offset="0.04" stop-color="#0098FF"/>
<stop offset="1" stop-color="#53FFF5"/>
</linearGradient>
<linearGradient id="paint57_linear_372_1357" x1="30.956" y1="103.548" x2="129.278" y2="103.548" gradientUnits="userSpaceOnUse">
<stop offset="0.04" stop-color="#0098FF"/>
<stop offset="1" stop-color="#53FFF5"/>
</linearGradient>
<linearGradient id="paint58_linear_372_1357" x1="30.9558" y1="125.752" x2="129.278" y2="125.752" gradientUnits="userSpaceOnUse">
<stop offset="0.04" stop-color="#0098FF"/>
<stop offset="1" stop-color="#53FFF5"/>
</linearGradient>
<linearGradient id="paint59_linear_372_1357" x1="30.9564" y1="124.324" x2="129.279" y2="124.324" gradientUnits="userSpaceOnUse">
<stop offset="0.04" stop-color="#0098FF"/>
<stop offset="1" stop-color="#53FFF5"/>
</linearGradient>
<linearGradient id="paint60_linear_372_1357" x1="30.9558" y1="128.3" x2="129.278" y2="128.3" gradientUnits="userSpaceOnUse">
<stop offset="0.04" stop-color="#0098FF"/>
<stop offset="1" stop-color="#53FFF5"/>
</linearGradient>
<linearGradient id="paint61_linear_372_1357" x1="30.9563" y1="128.132" x2="129.278" y2="128.132" gradientUnits="userSpaceOnUse">
<stop offset="0.04" stop-color="#0098FF"/>
<stop offset="1" stop-color="#53FFF5"/>
</linearGradient>
<linearGradient id="paint62_linear_372_1357" x1="30.9558" y1="126.872" x2="129.278" y2="126.872" gradientUnits="userSpaceOnUse">
<stop offset="0.04" stop-color="#0098FF"/>
<stop offset="1" stop-color="#53FFF5"/>
</linearGradient>
<linearGradient id="paint63_linear_372_1357" x1="30.9558" y1="125.766" x2="129.278" y2="125.766" gradientUnits="userSpaceOnUse">
<stop offset="0.04" stop-color="#0098FF"/>
<stop offset="1" stop-color="#53FFF5"/>
</linearGradient>
<linearGradient id="paint64_linear_372_1357" x1="30.9558" y1="124.352" x2="129.278" y2="124.352" gradientUnits="userSpaceOnUse">
<stop offset="0.04" stop-color="#0098FF"/>
<stop offset="1" stop-color="#53FFF5"/>
</linearGradient>
<linearGradient id="paint65_linear_372_1357" x1="30.9564" y1="127.656" x2="129.278" y2="127.656" gradientUnits="userSpaceOnUse">
<stop offset="0.04" stop-color="#0098FF"/>
<stop offset="1" stop-color="#53FFF5"/>
</linearGradient>
<linearGradient id="paint66_linear_372_1357" x1="30.9566" y1="122.63" x2="129.278" y2="122.63" gradientUnits="userSpaceOnUse">
<stop offset="0.04" stop-color="#0098FF"/>
<stop offset="1" stop-color="#53FFF5"/>
</linearGradient>
<linearGradient id="paint67_linear_372_1357" x1="30.9559" y1="126.858" x2="129.278" y2="126.858" gradientUnits="userSpaceOnUse">
<stop offset="0.04" stop-color="#0098FF"/>
<stop offset="1" stop-color="#53FFF5"/>
</linearGradient>
<linearGradient id="paint68_linear_372_1357" x1="30.9564" y1="128.132" x2="129.278" y2="128.132" gradientUnits="userSpaceOnUse">
<stop offset="0.04" stop-color="#0098FF"/>
<stop offset="1" stop-color="#53FFF5"/>
</linearGradient>
<linearGradient id="paint69_linear_372_1357" x1="30.956" y1="93.076" x2="129.278" y2="93.076" gradientUnits="userSpaceOnUse">
<stop offset="0.04" stop-color="#0098FF"/>
<stop offset="1" stop-color="#53FFF5"/>
</linearGradient>
<linearGradient id="paint70_linear_372_1357" x1="30.9567" y1="79.9999" x2="129.279" y2="79.9999" gradientUnits="userSpaceOnUse">
<stop offset="0.04" stop-color="#0098FF"/>
<stop offset="1" stop-color="#20D7CC"/>
</linearGradient>
<linearGradient id="paint71_linear_372_1357" x1="30.9561" y1="79.9999" x2="129.278" y2="79.9999" gradientUnits="userSpaceOnUse">
<stop offset="0.04" stop-color="#0098FF"/>
<stop offset="1" stop-color="#53FFF5"/>
</linearGradient>
</defs>
</svg>
