<svg width="180" height="160" viewBox="0 0 180 160" fill="none" xmlns="http://www.w3.org/2000/svg">
<g id="Group 1496">
<g id="Group 1511">
<path id="path-a5-1" d="M90.0588 10.0001C84.3044 10.0042 78.6087 11.1568 73.3047 13.3904C68.0006 15.6241 63.1948 18.8939 59.1682 23.0087C58.6381 22.7511 58.038 22.6757 57.4608 22.7943C56.8836 22.9128 56.3616 23.2187 55.9758 23.6644C55.59 24.1102 55.3618 24.6709 55.3268 25.2596C55.2918 25.8483 55.4517 26.4322 55.782 26.9207C49.8013 34.691 46.6253 44.2595 46.7714 54.0674C46.9175 63.8753 50.377 73.3447 56.5864 80.9331C62.7959 88.5216 71.3893 93.7819 80.967 95.8572C90.5446 97.9326 100.542 96.7006 109.331 92.3621C118.12 88.0235 125.182 80.834 129.367 71.9646C133.553 63.0953 134.614 53.0687 132.38 43.5182C130.145 33.9677 124.745 25.456 117.06 19.3696C109.376 13.2831 99.8582 9.98067 90.0588 10.0001ZM90.0588 95.5542C82.2032 95.5587 74.5034 93.36 67.8326 89.2074C61.1618 85.0547 55.7869 79.1142 52.3173 72.0595C48.8477 65.0047 47.4222 57.1181 48.2026 49.2937C48.9829 41.4694 51.9378 34.0204 56.7322 27.7915C57.1039 27.9862 57.5173 28.0873 57.9368 28.0862C58.6468 28.0862 59.3276 27.8039 59.8296 27.3014C60.3316 26.7989 60.6136 26.1174 60.6136 25.4068C60.6157 24.864 60.4472 24.3344 60.1318 23.8929C64.9979 18.9573 71.0068 15.3015 77.6244 13.2503C84.242 11.1991 91.2634 10.8162 98.0644 12.1355C104.866 13.4547 111.236 16.4354 116.609 20.8126C121.982 25.1897 126.191 30.8278 128.863 37.2256C131.535 43.6235 132.586 50.5829 131.924 57.4855C131.261 64.388 128.906 71.0199 125.066 76.7916C121.226 82.5633 116.021 87.2961 109.914 90.5694C103.807 93.8426 96.9864 95.5549 90.0588 95.5542Z" fill="url(#paint0_linear_372_1482)"/>
<path id="path-a5-3" d="M166 101.864C165.983 91.4358 162.225 81.3604 155.411 73.4723C148.596 65.5841 139.179 60.4079 128.872 58.8861C128.872 57.1095 128.167 55.4057 126.912 54.1495C125.657 52.8932 123.955 52.1875 122.18 52.1875C120.405 52.1875 118.703 52.8932 117.448 54.1495C116.193 55.4057 115.488 57.1095 115.488 58.8861C115.488 58.8861 115.488 58.9664 115.488 59.0066C104.713 60.7594 94.9937 66.5131 88.2686 75.1203C81.5435 83.7275 78.3066 94.5557 79.2034 105.446C80.1002 116.336 85.0647 126.487 93.107 133.876C101.149 141.265 111.678 145.348 122.595 145.311C124.326 145.305 126.056 145.198 127.774 144.989C128.202 146.545 129.177 147.893 130.519 148.787C131.86 149.681 133.479 150.06 135.078 149.855C136.677 149.649 138.147 148.873 139.22 147.669C140.293 146.466 140.896 144.914 140.918 143.301C140.908 142.65 140.799 142.004 140.596 141.386C148.167 137.924 154.585 132.36 159.089 125.354C163.592 118.348 165.991 110.195 166 101.864ZM140.088 140.14C139.375 138.843 138.252 137.819 136.896 137.228C135.54 136.637 134.027 136.512 132.592 136.874C131.158 137.235 129.884 138.062 128.969 139.224C128.053 140.387 127.549 141.821 127.534 143.301C127.527 143.422 127.527 143.543 127.534 143.663C125.882 143.867 124.219 143.97 122.555 143.971C112.016 143.944 101.872 139.959 94.1286 132.804C86.3851 125.649 81.6066 115.846 80.7384 105.333C79.8702 94.8205 82.9756 84.3646 89.4402 76.034C95.9048 67.7034 105.258 62.105 115.648 60.3464C115.983 61.8435 116.821 63.1803 118.022 64.1332C119.223 65.0862 120.715 65.5976 122.247 65.5819C123.78 65.5662 125.261 65.0244 126.442 64.0471C127.624 63.0697 128.434 61.7161 128.738 60.2124C137.713 61.5368 146.019 65.7308 152.418 72.1684C158.816 78.606 162.963 86.9421 164.239 95.9324C165.516 104.923 163.854 114.085 159.501 122.053C155.149 130.02 148.339 136.364 140.088 140.14Z" fill="url(#paint1_linear_372_1482)"/>
<path id="Vector_3" d="M77.3698 49.5218V47.9544C77.379 47.8897 77.4069 47.8292 77.4501 47.7802C77.8516 47.1237 78.2397 46.4405 78.6546 45.8108C78.7007 45.7438 78.7253 45.6644 78.7253 45.5831C78.7253 45.5017 78.7007 45.4223 78.6546 45.3553C77.8508 43.691 77.1534 41.9771 76.5667 40.2242C76.0894 38.8312 75.7049 37.4079 75.4157 35.9639C75.1323 34.6119 75.0021 33.2322 75.0275 31.851C75.0284 30.4918 75.3349 29.1502 75.9243 27.9257C76.6393 26.5043 77.8625 25.4044 79.3506 24.8443C80.9243 24.2593 82.5989 23.9952 84.276 24.0673C85.5094 24.0447 86.7372 24.2397 87.9031 24.6434C89.0607 25.0339 90.0209 25.8604 90.5799 26.9477C90.8487 27.4935 91.0165 28.0836 91.0751 28.6893H92.2931V36.7276H91.2893V39.0453H88.9471V36.7946H87.796V28.7563H88.8266C88.7905 28.3755 88.6465 28.013 88.4117 27.7113C88.0858 27.3167 87.6539 27.0238 87.167 26.8673C86.443 26.6148 85.6847 26.4747 84.9184 26.452C83.5966 26.3595 82.2685 26.4771 80.9835 26.8003C79.9427 27.0312 79.0177 27.6247 78.3736 28.4749C77.8853 29.1888 77.5818 30.0128 77.4902 30.873C77.3391 32.2121 77.3842 33.5661 77.6241 34.8922C77.9216 36.5768 78.3695 38.2312 78.9625 39.8357C79.3238 40.8807 79.7521 41.8989 80.1403 42.9304L80.2741 43.185C80.4749 42.8635 80.6623 42.5687 80.8363 42.2606C80.8567 42.1815 80.8567 42.0985 80.8363 42.0194V29.8548H83.2588V30.9802H86.6985V33.3381H83.2588V41.3764H97.0043V33.3381H93.578V30.9802H96.8303C96.9642 30.9802 97.0177 30.9802 97.0177 30.806C97.0177 30.6319 97.0177 30.1764 97.0177 29.8548H99.3198V35.2137C99.3198 36.6204 99.3198 38.0271 99.3198 39.4204C99.3198 40.318 99.3198 41.2022 99.3198 42.0998C99.3232 42.1843 99.3461 42.2668 99.3867 42.341L102.639 47.6998C102.742 47.8542 102.793 48.037 102.786 48.2223C102.786 48.6644 102.786 49.1065 102.786 49.562L77.3698 49.5218ZM80.582 47.1505H99.5875V47.0568C98.9316 45.9984 98.249 44.9266 97.62 43.8548C97.5932 43.8236 97.5605 43.798 97.5237 43.7796C97.487 43.7612 97.4469 43.7503 97.4058 43.7477H82.8439C82.7915 43.7429 82.7389 43.7545 82.6933 43.7809C82.6478 43.8073 82.6115 43.8472 82.5896 43.895C82.3487 44.2969 82.0944 44.6989 81.8535 45.1142C81.4385 45.784 81.0236 46.4539 80.582 47.1505Z" fill="#02B6AB"/>
<g id="Group 1492">
<path id="Vector_4" d="M141.4 123.206H119.905C119.905 123.018 119.905 122.871 119.905 122.71C119.905 120.902 119.905 119.08 119.905 117.258C119.905 116.333 120.146 116.092 121.07 116.092C122.662 116.092 124.242 116.092 125.834 116.092C126.169 116.092 126.316 116.092 126.37 116.548C126.488 117.609 126.993 118.589 127.788 119.301C128.583 120.013 129.613 120.407 130.68 120.407C131.746 120.407 132.776 120.013 133.571 119.301C134.366 118.589 134.871 117.609 134.989 116.548C134.989 116.213 135.136 116.092 135.484 116.105C137.157 116.105 138.83 116.105 140.503 116.105C141.066 116.105 141.414 116.373 141.427 116.856C141.414 118.946 141.4 121.049 141.4 123.206Z" fill="#02B6AB"/>
<path id="Vector_5" d="M140.811 95.7419L140.209 96.9075C139.205 96.3984 138.242 95.9161 137.291 95.3802C136.93 95.1792 136.689 95.1792 136.488 95.5811C136.392 95.7895 136.261 95.9798 136.1 96.1438C135.881 96.3964 135.721 96.6943 135.631 97.0163C135.54 97.3383 135.522 97.6763 135.578 98.006C135.572 98.3655 135.644 98.722 135.789 99.0507C135.935 99.3793 136.151 99.6721 136.421 99.9084C136.728 100.172 137.018 100.454 137.291 100.752L140.343 98.4213L141.133 99.4663L138.657 101.355C138.442 101.516 138.242 101.69 138.014 101.838C137.775 102.014 137.481 102.1 137.185 102.08C136.888 102.061 136.609 101.937 136.395 101.73C136.211 101.562 136.036 101.383 135.873 101.195C135.586 100.788 135.164 100.498 134.682 100.377C134.557 100.349 134.441 100.289 134.347 100.203C133.878 99.6137 133.249 99.761 132.634 99.8146L127.053 100.297C126.955 100.304 126.856 100.304 126.758 100.297L126.544 97.6175L128.485 97.4433C130.01 97.3094 131.536 97.2022 133.049 97.0414C133.286 96.9713 133.499 96.8369 133.664 96.6529C133.825 96.5189 133.932 96.2778 134.106 96.1974C134.733 95.7925 135.241 95.2285 135.578 94.563C135.662 94.3833 135.785 94.2247 135.938 94.0983C136.091 93.972 136.27 93.8812 136.462 93.8325C136.654 93.7838 136.854 93.7784 137.049 93.8167C137.243 93.855 137.427 93.936 137.586 94.0539C138.643 94.5228 139.687 95.0855 140.811 95.7419Z" fill="#02B6AB"/>
<path id="Vector_6" d="M130.786 111.604C130.015 111.474 129.221 111.598 128.526 111.958C127.831 112.318 127.272 112.894 126.932 113.6L122.073 103.78C122.827 103.787 123.571 103.612 124.242 103.269C124.913 102.926 125.492 102.426 125.928 101.811L130.786 111.604Z" fill="#02B6AB"/>
<path id="Vector_7" d="M118.914 99.2651C118.914 98.5739 119.12 97.8983 119.505 97.3244C119.889 96.7505 120.436 96.3041 121.075 96.0422C121.714 95.7802 122.416 95.7144 123.093 95.8532C123.769 95.992 124.389 96.3291 124.874 96.8216C125.358 97.3141 125.685 97.9398 125.813 98.619C125.942 99.2981 125.865 100 125.593 100.636C125.322 101.271 124.867 101.811 124.288 102.188C123.709 102.564 123.031 102.759 122.341 102.748C121.887 102.745 121.439 102.652 121.021 102.475C120.603 102.298 120.225 102.04 119.907 101.717C119.588 101.394 119.337 101.011 119.167 100.59C118.996 100.169 118.911 99.719 118.914 99.2651ZM122.407 98.421C122.176 98.4274 121.956 98.5204 121.79 98.6816C121.624 98.8429 121.524 99.0607 121.511 99.2919C121.505 99.4062 121.522 99.5206 121.561 99.6283C121.6 99.736 121.66 99.835 121.737 99.9196C121.814 100.004 121.907 100.073 122.01 100.121C122.114 100.17 122.226 100.198 122.341 100.203C122.46 100.206 122.579 100.186 122.691 100.144C122.803 100.101 122.905 100.037 122.992 99.9551C123.079 99.873 123.149 99.7745 123.198 99.6653C123.247 99.5561 123.274 99.4383 123.277 99.3187C123.268 99.0881 123.174 98.8691 123.014 98.7035C122.853 98.5379 122.637 98.4373 122.407 98.421Z" fill="#02B6AB"/>
<path id="Vector_8" d="M127.159 115.904C127.159 114.981 127.526 114.095 128.178 113.441C128.831 112.788 129.716 112.421 130.639 112.421C131.562 112.421 132.447 112.788 133.1 113.441C133.752 114.095 134.119 114.981 134.119 115.904C134.119 116.828 133.752 117.714 133.1 118.367C132.447 119.021 131.562 119.388 130.639 119.388C129.716 119.388 128.831 119.021 128.178 118.367C127.526 117.714 127.159 116.828 127.159 115.904ZM130.612 116.802C130.846 116.796 131.07 116.704 131.24 116.543C131.411 116.383 131.516 116.165 131.536 115.931C131.536 115.7 131.447 115.478 131.287 115.31C131.128 115.143 130.91 115.044 130.679 115.034C130.56 115.024 130.44 115.04 130.328 115.08C130.215 115.119 130.112 115.182 130.025 115.264C129.938 115.346 129.869 115.446 129.823 115.556C129.776 115.666 129.753 115.785 129.756 115.904C129.755 116.136 129.844 116.358 130.004 116.525C130.164 116.693 130.381 116.792 130.612 116.802Z" fill="#02B6AB"/>
</g>
<path id="Vector_9" d="M48.3628 124C48.3628 122.955 48.3628 121.909 48.3628 120.864C48.3812 120.704 48.3403 120.543 48.248 120.411C48.1556 120.279 48.018 120.186 47.8614 120.148C47.1308 119.905 46.4288 119.647 45.6839 119.346C45.5585 119.282 45.4146 119.262 45.2764 119.291C45.1382 119.319 45.014 119.395 44.9247 119.504L42.9048 121.68L38.3923 117.17C39.037 116.526 39.7389 115.738 40.4695 115.122C40.5876 115.036 40.6682 114.908 40.6949 114.764C40.7215 114.62 40.6921 114.472 40.6128 114.349C40.2403 113.533 39.9395 112.703 39.5813 111.886C39.539 111.807 39.4776 111.739 39.4026 111.689C39.3276 111.639 39.2413 111.608 39.1516 111.6C38.2921 111.6 37.4325 111.6 36.573 111.6H36V105.386C37.0457 105.386 38.0485 105.386 39.0513 105.386C39.4094 105.386 39.5384 105.271 39.653 104.942C39.9309 104.152 40.2513 103.378 40.6128 102.622C40.6957 102.5 40.7272 102.351 40.7004 102.206C40.6735 102.061 40.5906 101.933 40.4695 101.849C39.7532 101.162 39.037 100.417 38.3923 99.7871L42.8475 95.3483C43.3202 95.8494 43.9076 96.4222 44.4376 97.0236C44.5253 97.1693 44.6417 97.2958 44.7796 97.3954C44.9175 97.495 45.0742 97.5656 45.2402 97.6031C45.4061 97.6405 45.578 97.644 45.7453 97.6133C45.9127 97.5826 46.0721 97.5184 46.214 97.4245C46.7441 97.1601 47.3012 96.9537 47.8757 96.8088C48.0302 96.7743 48.1661 96.683 48.2563 96.553C48.3465 96.423 48.3845 96.2639 48.3628 96.1072C48.3628 95.2624 48.3628 94.4175 48.3628 93.5727V93H54.5943C54.5943 94.0023 54.5943 94.976 54.5943 95.9497C54.5656 96.1658 54.6231 96.3846 54.7545 96.5588C54.8858 96.7329 55.0804 96.8484 55.2962 96.8804C55.9576 97.085 56.6079 97.324 57.2445 97.5963C57.3825 97.674 57.5439 97.6994 57.6991 97.6678C57.8543 97.6362 57.993 97.5499 58.0897 97.4245C58.7773 96.7085 59.4506 95.9926 60.0522 95.334L64.6363 99.6296C63.9057 100.374 63.2038 101.061 62.5448 101.749C62.4758 101.795 62.4168 101.854 62.3713 101.923C62.3258 101.993 62.2948 102.07 62.2801 102.152C62.2653 102.233 62.2672 102.317 62.2857 102.398C62.3041 102.479 62.3386 102.555 62.3872 102.622C62.7454 103.395 63.0462 104.197 63.3327 104.999C63.3536 105.104 63.4145 105.198 63.5027 105.259C63.5908 105.32 63.6993 105.345 63.8055 105.328H67V111.5C65.9543 111.5 64.9085 111.5 63.8628 111.5C63.7415 111.483 63.6186 111.514 63.5197 111.586C63.4209 111.658 63.3538 111.766 63.3327 111.886C63.0319 112.688 62.7167 113.476 62.3586 114.263C62.2756 114.385 62.2441 114.535 62.271 114.679C62.2978 114.824 62.3808 114.953 62.5019 115.036C63.2181 115.724 63.9344 116.468 64.6363 117.199L60.1525 121.494C60.0665 121.494 59.9806 121.365 59.8517 121.236L58.104 119.504C57.9983 119.378 57.8523 119.291 57.6905 119.26C57.5287 119.229 57.361 119.254 57.2158 119.332C56.5139 119.633 55.7833 119.876 55.0813 120.12C54.9335 120.151 54.8021 120.235 54.7123 120.356C54.6225 120.478 54.5805 120.628 54.5943 120.778C54.5943 121.838 54.5943 122.897 54.5943 123.957L48.3628 124ZM51.457 102.321C50.2308 102.321 49.0321 102.685 48.0124 103.365C46.9926 104.046 46.1976 105.013 45.7277 106.146C45.2578 107.278 45.1341 108.523 45.3723 109.726C45.6105 110.928 46.1998 112.033 47.0659 112.9C47.932 113.768 49.0359 114.36 50.2381 114.601C51.4404 114.841 52.6872 114.721 53.8209 114.254C54.9545 113.787 55.9243 112.994 56.6076 111.976C57.2909 110.959 57.6571 109.761 57.6599 108.536C57.6487 106.894 56.992 105.322 55.8316 104.159C54.6711 102.996 53.1 102.336 51.457 102.321Z" fill="#025FB5"/>
<g id="path-a5-2">
<path id="Vector_10" d="M16.4185 104.597L15.0801 104.678C15.0801 105.589 15.2273 106.5 15.3344 107.357L16.6728 107.183C16.5657 106.352 16.4854 105.481 16.4185 104.597Z" fill="url(#paint2_linear_372_1482)"/>
<path id="Vector_11" d="M37.5254 139.952C38.3284 140.394 39.1449 140.81 39.9613 141.198L40.5368 139.979C39.7338 139.604 38.9441 139.202 38.1812 138.787L37.5254 139.952Z" fill="url(#paint3_linear_372_1482)"/>
<path id="Vector_12" d="M17.0884 109.835L15.75 110.09C15.924 110.988 16.1248 111.872 16.3523 112.769L17.6907 112.434C17.4498 111.564 17.2624 110.706 17.0884 109.835Z" fill="url(#paint4_linear_372_1482)"/>
<path id="Vector_13" d="M16.4187 99.3055L15.0803 99.2251C15.0803 100.096 15 100.98 15 101.905V101.998L16.3384 101.905C16.3384 101.007 16.3384 100.15 16.4187 99.3055Z" fill="url(#paint5_linear_372_1482)"/>
<path id="Vector_14" d="M17.0616 94.067L15.7232 93.8125C15.5492 94.7101 15.4154 95.6077 15.2949 96.4919L16.6333 96.6527C16.7583 95.7863 16.901 94.9245 17.0616 94.067Z" fill="url(#paint6_linear_372_1482)"/>
<path id="Vector_15" d="M18.3596 88.9495L17.0881 88.5342C16.807 89.3916 16.5527 90.2758 16.3252 91.2136L17.6636 91.5351C17.851 90.6241 18.0919 89.7801 18.3596 88.9495Z" fill="url(#paint7_linear_372_1482)"/>
<path id="Vector_16" d="M18.4131 114.953L17.1416 115.368C17.4227 116.239 17.7305 117.097 18.0651 117.927L19.3098 117.432C19.0154 116.628 18.6808 115.837 18.4131 114.953Z" fill="url(#paint8_linear_372_1482)"/>
<path id="Vector_17" d="M32.9346 137.045C33.6573 137.581 34.4202 138.09 35.1831 138.586L35.9059 137.447C35.1563 136.978 34.4336 136.482 33.7109 135.96L32.9346 137.045Z" fill="url(#paint9_linear_372_1482)"/>
<path id="Vector_18" d="M28.7324 133.575C29.3882 134.191 30.0708 134.794 30.7802 135.37L31.6234 134.339C30.9542 133.776 30.285 133.2 29.6425 132.597L28.7324 133.575Z" fill="url(#paint10_linear_372_1482)"/>
<path id="Vector_19" d="M19.1494 120.433C19.5376 121.25 19.9525 122.067 20.3941 122.857L21.5586 122.214C21.1437 121.437 20.7421 120.66 20.354 119.856L19.1494 120.433Z" fill="url(#paint11_linear_372_1482)"/>
<path id="Vector_20" d="M21.7861 125.215C22.268 125.979 22.7899 126.729 23.3253 127.466L24.396 126.676C23.8874 125.966 23.3922 125.229 22.9104 124.492L21.7861 125.215Z" fill="url(#paint12_linear_372_1482)"/>
<path id="Vector_21" d="M24.998 129.596C25.5736 130.307 26.1759 130.936 26.8049 131.646L27.7686 130.722C27.1663 130.079 26.5908 129.382 26.0286 128.752L24.998 129.596Z" fill="url(#paint13_linear_372_1482)"/>
<path id="Vector_22" d="M97.6208 83.2288C97.2193 82.3982 96.8043 81.5944 96.3627 80.804L95.1982 81.447C95.6265 82.2241 96.0281 83.0011 96.4028 83.8049L97.6208 83.2288Z" fill="url(#paint14_linear_372_1482)"/>
<path id="Vector_23" d="M100.377 99.0508L101.715 98.9704C101.649 98.0594 101.555 97.1484 101.448 96.291L100.109 96.4652C100.23 97.2958 100.31 98.1666 100.377 99.0508Z" fill="url(#paint15_linear_372_1482)"/>
<path id="Vector_24" d="M47.8176 61.1102L47.483 59.7705C46.5907 60.0027 45.7207 60.2573 44.873 60.5341L45.288 61.8739C46.1178 61.5791 46.961 61.3246 47.8176 61.1102Z" fill="url(#paint16_linear_372_1482)"/>
<path id="Vector_25" d="M42.8125 62.7581L42.3039 61.5122C41.4562 61.8516 40.6264 62.2133 39.8145 62.5974L40.39 63.8031C41.1796 63.428 41.9827 63.0797 42.8125 62.7581Z" fill="url(#paint17_linear_372_1482)"/>
<path id="Vector_26" d="M99.6951 93.8124L101.033 93.5578C100.855 92.6647 100.654 91.7716 100.431 90.8784L99.0928 91.2133C99.3203 92.0842 99.5344 92.9416 99.6951 93.8124Z" fill="url(#paint18_linear_372_1482)"/>
<path id="Vector_27" d="M20.3531 84.0192L19.1486 83.4565C18.7604 84.2738 18.3991 85.1044 18.0645 85.9618L19.3092 86.4441C19.5769 85.6269 19.9249 84.823 20.3531 84.0192Z" fill="url(#paint19_linear_372_1482)"/>
<path id="Vector_28" d="M98.3696 88.7083L99.708 88.2796C99.4269 87.4221 99.1057 86.5647 98.7711 85.7207L97.5264 86.2164C97.7941 87.0336 98.0885 87.8642 98.3696 88.7083Z" fill="url(#paint20_linear_372_1482)"/>
<path id="Vector_29" d="M22.8296 79.3838L21.6919 78.6604C21.1967 79.4374 20.7417 80.2145 20.3535 81.0183L21.5313 81.6614C21.9195 80.8843 22.3611 80.1207 22.8296 79.3838Z" fill="url(#paint21_linear_372_1482)"/>
<path id="Vector_30" d="M38.0479 65.0088L37.392 63.8433C36.6024 64.2854 35.8261 64.7543 35.0498 65.183L35.7726 66.3083C36.5221 65.893 37.2716 65.4375 38.0479 65.0088Z" fill="url(#paint22_linear_372_1482)"/>
<path id="Vector_31" d="M25.935 75.0968L24.9045 74.3064C24.3691 74.9495 23.7668 75.6461 23.2314 76.4097L24.3156 77.1868C24.8375 76.4767 25.3729 75.7801 25.935 75.0968Z" fill="url(#paint23_linear_372_1482)"/>
<path id="Vector_32" d="M29.5347 71.2383L28.6246 70.2871C27.9554 70.9168 27.2862 71.6268 26.6973 72.2297L27.6743 73.1407C28.2766 72.4708 28.9057 71.8412 29.5347 71.2383Z" fill="url(#paint24_linear_372_1482)"/>
<path id="Vector_33" d="M33.6037 67.8623L32.814 66.7771C32.0779 67.313 31.3552 67.8757 30.6592 68.4517L31.5158 69.4833C32.1984 68.9474 32.8809 68.3848 33.6037 67.8623Z" fill="url(#paint25_linear_372_1482)"/>
<path id="Vector_34" d="M73.8906 141.011L74.3858 142.257C75.2335 141.926 76.0633 141.565 76.8753 141.172L76.3132 139.966C75.5503 140.341 74.7338 140.689 73.8906 141.011Z" fill="url(#paint26_linear_372_1482)"/>
<path id="Vector_35" d="M89.9517 72.0288L88.9746 72.9532C89.5769 73.5829 90.1658 74.2929 90.7279 74.9226L91.7585 74.0652C91.1696 73.3685 90.5673 72.6853 89.9517 72.0288Z" fill="url(#paint27_linear_372_1482)"/>
<path id="Vector_36" d="M93.4308 76.2087L92.3467 77.0126C92.8687 77.7092 93.3639 78.4461 93.8457 79.1829L94.97 78.4595C94.4881 77.6958 93.9662 76.9858 93.4308 76.2087Z" fill="url(#paint28_linear_372_1482)"/>
<path id="Vector_37" d="M90.8213 128.699L91.8519 129.556C92.4274 128.859 92.9895 128.136 93.5249 127.399L92.4408 126.555C91.9188 127.332 91.3834 128.029 90.8213 128.699Z" fill="url(#paint29_linear_372_1482)"/>
<path id="Vector_38" d="M87.2744 132.557L88.1845 133.535C88.8537 132.91 89.4962 132.267 90.1119 131.606L89.1348 130.682C88.4656 131.325 87.8499 131.914 87.2744 132.557Z" fill="url(#paint30_linear_372_1482)"/>
<path id="Vector_39" d="M88.0106 70.0996C87.6492 69.7647 87.2745 69.4566 86.8997 69.135C87.2166 68.446 87.3809 67.6965 87.3815 66.9379C87.3799 65.872 87.0607 64.8308 86.4647 63.9474C85.8688 63.064 85.0232 62.3785 84.0361 61.9787C83.0489 61.5789 81.9651 61.4828 80.9231 61.7027C79.8812 61.9227 78.9284 62.4487 78.1866 63.2135C77.7182 62.9724 77.2497 62.7178 76.7679 62.4901L76.1924 63.7092C76.5939 63.8968 76.9954 64.1111 77.3836 64.3121C76.9129 65.126 76.668 66.0511 76.6742 66.9915C76.6926 68.0899 77.0479 69.1562 77.6919 70.0458C78.3358 70.9354 79.2374 71.6054 80.2744 71.9651C81.3115 72.3247 82.4339 72.3567 83.4897 72.0565C84.5454 71.7564 85.4836 71.1388 86.177 70.2872L87.1005 71.091L88.0106 70.0996Z" fill="url(#paint31_linear_372_1482)"/>
<path id="Vector_40" d="M93.9668 124.425L95.0911 125.148C95.5863 124.371 96.0413 123.594 96.4295 122.791L95.3052 122.147C94.8502 122.924 94.3951 123.688 93.9668 124.425Z" fill="url(#paint32_linear_372_1482)"/>
<path id="Vector_41" d="M99.7354 109.755L101.074 109.996C101.234 109.112 101.382 108.215 101.489 107.317L100.15 107.156C100.034 108.032 99.896 108.898 99.7354 109.755Z" fill="url(#paint33_linear_372_1482)"/>
<path id="Vector_42" d="M42.4639 142.297C43.3071 142.618 44.1637 142.926 45.0336 143.208L45.4485 141.868C44.6009 141.6 43.7711 141.305 42.9591 140.984L42.4639 142.297Z" fill="url(#paint34_linear_372_1482)"/>
<path id="Vector_43" d="M98.4238 114.873L99.7622 115.288C100.043 114.417 100.298 113.547 100.525 112.609L99.1867 112.274C98.9324 113.158 98.6915 114.042 98.4238 114.873Z" fill="url(#paint35_linear_372_1482)"/>
<path id="Vector_44" d="M83.1387 135.933L83.9283 137.018C84.6645 136.482 85.3738 135.933 86.0698 135.344L85.2266 134.312C84.5975 134.861 83.848 135.411 83.1387 135.933Z" fill="url(#paint36_linear_372_1482)"/>
<path id="Vector_45" d="M96.4697 119.857L97.6877 120.433C98.0758 119.615 98.4372 118.771 98.7718 117.927L97.5271 117.432C97.2059 118.182 96.8445 118.999 96.4697 119.857Z" fill="url(#paint37_linear_372_1482)"/>
<path id="Vector_46" d="M101.796 101.69H100.458V101.864C100.458 102.748 100.458 103.633 100.364 104.544L101.703 104.637C101.703 103.726 101.796 102.829 101.796 101.958V101.69Z" fill="url(#paint38_linear_372_1482)"/>
<path id="Vector_47" d="M53.0107 144.976C53.9075 145.083 54.8042 145.177 55.6876 145.231L55.7679 143.891C54.8845 143.891 54.0012 143.757 53.091 143.65L53.0107 144.976Z" fill="url(#paint39_linear_372_1482)"/>
<path id="Vector_48" d="M55.5537 58.5113L55.634 59.851C56.504 59.851 57.3873 59.7706 58.3108 59.7572V58.4175C57.3606 58.4309 56.4906 58.4577 55.5537 58.5113Z" fill="url(#paint40_linear_372_1482)"/>
<path id="Vector_49" d="M58.4453 143.971V145.311C59.3376 145.311 60.2299 145.284 61.1221 145.231L61.0285 143.891C60.212 143.971 59.3287 143.971 58.4453 143.971Z" fill="url(#paint41_linear_372_1482)"/>
<path id="Vector_50" d="M50.1465 59.2078L50.4008 60.5475C51.2574 60.3867 52.1273 60.2394 53.0107 60.1322L52.8367 58.7925C51.9266 58.8997 51.0298 59.0336 50.1465 59.2078Z" fill="url(#paint42_linear_372_1482)"/>
<path id="Vector_51" d="M47.6572 143.971C48.5272 144.199 49.4239 144.387 50.3341 144.561L50.575 143.221C49.705 143.047 48.8484 142.859 48.0052 142.645L47.6572 143.971Z" fill="url(#paint43_linear_372_1482)"/>
<path id="Vector_52" d="M66.3952 59.1543L66.1543 60.494C67.0243 60.6548 67.8809 60.8423 68.7374 61.0567L69.0587 59.717C68.1887 59.5696 67.292 59.3285 66.3952 59.1543Z" fill="url(#paint44_linear_372_1482)"/>
<path id="Vector_53" d="M68.8984 142.632L69.233 143.972C70.1253 143.739 70.9953 143.485 71.843 143.208L71.4414 141.868C70.5982 142.19 69.755 142.431 68.8984 142.632Z" fill="url(#paint45_linear_372_1482)"/>
<path id="Vector_54" d="M60.9209 59.8373C61.8043 59.8373 62.6742 59.9712 63.5977 60.0784L63.7583 58.7387C62.8616 58.6315 61.9649 58.5511 61.0815 58.4976L60.9209 59.8373Z" fill="url(#paint46_linear_372_1482)"/>
<path id="Vector_55" d="M71.6815 60.4939L71.2666 61.8336C72.1098 62.1149 72.9396 62.4097 73.7694 62.7312L74.2513 61.4853C73.4125 61.1012 72.5559 60.7708 71.6815 60.4939Z" fill="url(#paint47_linear_372_1482)"/>
<path id="Vector_56" d="M63.7188 143.636L63.8794 144.976C64.7895 144.869 65.6862 144.722 66.5562 144.561L66.3153 143.221C65.4587 143.395 64.5887 143.529 63.7188 143.636Z" fill="url(#paint48_linear_372_1482)"/>
<path id="Vector_57" d="M78.6816 138.76L79.3375 139.939C80.1271 139.497 80.9034 139.028 81.6797 138.599L80.9569 137.474C80.2208 137.889 79.4579 138.331 78.6816 138.76Z" fill="url(#paint49_linear_372_1482)"/>
</g>
</g>
</g>
<defs>
<linearGradient id="paint0_linear_372_1482" x1="133.945" y1="82.0766" x2="57.3572" y2="32.2134" gradientUnits="userSpaceOnUse">
<stop offset="0.04" stop-color="#0098FF"/>
<stop offset="1" stop-color="#20D7CC"/>
</linearGradient>
<linearGradient id="paint1_linear_372_1482" x1="112.624" y1="53.1387" x2="135.218" y2="163.268" gradientUnits="userSpaceOnUse">
<stop offset="0.04" stop-color="#0098FF"/>
<stop offset="1" stop-color="#20D7CC"/>
</linearGradient>
<linearGradient id="paint2_linear_372_1482" x1="80.02" y1="41.202" x2="2.02138" y2="119.794" gradientUnits="userSpaceOnUse">
<stop stop-color="#0098FF"/>
<stop offset="1" stop-color="#53FFF5"/>
</linearGradient>
<linearGradient id="paint3_linear_372_1482" x1="108.716" y1="69.6707" x2="30.7302" y2="148.276" gradientUnits="userSpaceOnUse">
<stop stop-color="#0098FF"/>
<stop offset="1" stop-color="#53FFF5"/>
</linearGradient>
<linearGradient id="paint4_linear_372_1482" x1="83.0857" y1="44.243" x2="5.10027" y2="122.835" gradientUnits="userSpaceOnUse">
<stop stop-color="#0098FF"/>
<stop offset="1" stop-color="#53FFF5"/>
</linearGradient>
<linearGradient id="paint5_linear_372_1482" x1="77.2229" y1="38.4289" x2="-0.762388" y2="117.021" gradientUnits="userSpaceOnUse">
<stop stop-color="#0098FF"/>
<stop offset="1" stop-color="#53FFF5"/>
</linearGradient>
<linearGradient id="paint6_linear_372_1482" x1="74.8276" y1="36.0441" x2="-3.15766" y2="114.65" gradientUnits="userSpaceOnUse">
<stop stop-color="#0098FF"/>
<stop offset="1" stop-color="#53FFF5"/>
</linearGradient>
<linearGradient id="paint7_linear_372_1482" x1="72.7929" y1="34.0346" x2="-5.19244" y2="112.627" gradientUnits="userSpaceOnUse">
<stop stop-color="#0098FF"/>
<stop offset="1" stop-color="#53FFF5"/>
</linearGradient>
<linearGradient id="paint8_linear_372_1482" x1="86.418" y1="47.5521" x2="8.43262" y2="126.145" gradientUnits="userSpaceOnUse">
<stop stop-color="#0098FF"/>
<stop offset="1" stop-color="#53FFF5"/>
</linearGradient>
<linearGradient id="paint9_linear_372_1482" x1="105.022" y1="66.0133" x2="27.036" y2="144.606" gradientUnits="userSpaceOnUse">
<stop stop-color="#0098FF"/>
<stop offset="1" stop-color="#53FFF5"/>
</linearGradient>
<linearGradient id="paint10_linear_372_1482" x1="101.248" y1="62.2623" x2="23.2491" y2="140.855" gradientUnits="userSpaceOnUse">
<stop stop-color="#0098FF"/>
<stop offset="1" stop-color="#53FFF5"/>
</linearGradient>
<linearGradient id="paint11_linear_372_1482" x1="89.9516" y1="51.0489" x2="11.953" y2="129.641" gradientUnits="userSpaceOnUse">
<stop stop-color="#0098FF"/>
<stop offset="1" stop-color="#53FFF5"/>
</linearGradient>
<linearGradient id="paint12_linear_372_1482" x1="93.6323" y1="54.7063" x2="15.6469" y2="133.299" gradientUnits="userSpaceOnUse">
<stop stop-color="#0098FF"/>
<stop offset="1" stop-color="#53FFF5"/>
</linearGradient>
<linearGradient id="paint13_linear_372_1482" x1="97.4063" y1="58.4442" x2="19.4209" y2="137.05" gradientUnits="userSpaceOnUse">
<stop stop-color="#0098FF"/>
<stop offset="1" stop-color="#53FFF5"/>
</linearGradient>
<linearGradient id="paint14_linear_372_1482" x1="108.837" y1="69.7915" x2="30.8513" y2="148.384" gradientUnits="userSpaceOnUse">
<stop stop-color="#0098FF"/>
<stop offset="1" stop-color="#53FFF5"/>
</linearGradient>
<linearGradient id="paint15_linear_372_1482" x1="118.78" y1="79.6518" x2="40.7817" y2="158.258" gradientUnits="userSpaceOnUse">
<stop stop-color="#0098FF"/>
<stop offset="1" stop-color="#53FFF5"/>
</linearGradient>
<linearGradient id="paint16_linear_372_1482" x1="72.8459" y1="34.0882" x2="-5.13937" y2="112.681" gradientUnits="userSpaceOnUse">
<stop stop-color="#0098FF"/>
<stop offset="1" stop-color="#53FFF5"/>
</linearGradient>
<linearGradient id="paint17_linear_372_1482" x1="71.2271" y1="32.4672" x2="-6.77161" y2="111.073" gradientUnits="userSpaceOnUse">
<stop stop-color="#0098FF"/>
<stop offset="1" stop-color="#53FFF5"/>
</linearGradient>
<linearGradient id="paint18_linear_372_1482" x1="115.702" y1="76.6105" x2="37.7171" y2="155.203" gradientUnits="userSpaceOnUse">
<stop stop-color="#0098FF"/>
<stop offset="1" stop-color="#53FFF5"/>
</linearGradient>
<linearGradient id="paint19_linear_372_1482" x1="71.1728" y1="32.4269" x2="-6.81252" y2="111.019" gradientUnits="userSpaceOnUse">
<stop stop-color="#0098FF"/>
<stop offset="1" stop-color="#53FFF5"/>
</linearGradient>
<linearGradient id="paint20_linear_372_1482" x1="112.369" y1="73.3016" x2="34.3841" y2="151.894" gradientUnits="userSpaceOnUse">
<stop stop-color="#0098FF"/>
<stop offset="1" stop-color="#53FFF5"/>
</linearGradient>
<linearGradient id="paint21_linear_372_1482" x1="70.0087" y1="31.2747" x2="-7.97665" y2="109.867" gradientUnits="userSpaceOnUse">
<stop stop-color="#0098FF"/>
<stop offset="1" stop-color="#53FFF5"/>
</linearGradient>
<linearGradient id="paint22_linear_372_1482" x1="70.0494" y1="31.3016" x2="-7.94934" y2="109.894" gradientUnits="userSpaceOnUse">
<stop stop-color="#0098FF"/>
<stop offset="1" stop-color="#53FFF5"/>
</linearGradient>
<linearGradient id="paint23_linear_372_1482" x1="69.3131" y1="30.5781" x2="-8.67229" y2="109.171" gradientUnits="userSpaceOnUse">
<stop stop-color="#0098FF"/>
<stop offset="1" stop-color="#53FFF5"/>
</linearGradient>
<linearGradient id="paint24_linear_372_1482" x1="69.0849" y1="30.3502" x2="-8.91387" y2="108.943" gradientUnits="userSpaceOnUse">
<stop stop-color="#0098FF"/>
<stop offset="1" stop-color="#53FFF5"/>
</linearGradient>
<linearGradient id="paint25_linear_372_1482" x1="69.326" y1="30.5914" x2="-8.65934" y2="109.184" gradientUnits="userSpaceOnUse">
<stop stop-color="#0098FF"/>
<stop offset="1" stop-color="#53FFF5"/>
</linearGradient>
<linearGradient id="paint26_linear_372_1482" x1="127.588" y1="88.4003" x2="49.6025" y2="167.006" gradientUnits="userSpaceOnUse">
<stop stop-color="#0098FF"/>
<stop offset="1" stop-color="#53FFF5"/>
</linearGradient>
<linearGradient id="paint27_linear_372_1482" x1="101.368" y1="62.3829" x2="23.383" y2="140.989" gradientUnits="userSpaceOnUse">
<stop stop-color="#0098FF"/>
<stop offset="1" stop-color="#53FFF5"/>
</linearGradient>
<linearGradient id="paint28_linear_372_1482" x1="105.155" y1="66.1341" x2="27.1566" y2="144.726" gradientUnits="userSpaceOnUse">
<stop stop-color="#0098FF"/>
<stop offset="1" stop-color="#53FFF5"/>
</linearGradient>
<linearGradient id="paint29_linear_372_1482" x1="129.528" y1="90.3294" x2="51.543" y2="168.922" gradientUnits="userSpaceOnUse">
<stop stop-color="#0098FF"/>
<stop offset="1" stop-color="#53FFF5"/>
</linearGradient>
<linearGradient id="paint30_linear_372_1482" x1="129.756" y1="90.5573" x2="51.7705" y2="169.15" gradientUnits="userSpaceOnUse">
<stop stop-color="#0098FF"/>
<stop offset="1" stop-color="#53FFF5"/>
</linearGradient>
<linearGradient id="paint31_linear_372_1482" x1="93.7658" y1="54.8403" x2="15.7805" y2="133.433" gradientUnits="userSpaceOnUse">
<stop stop-color="#0098FF"/>
<stop offset="1" stop-color="#53FFF5"/>
</linearGradient>
<linearGradient id="paint32_linear_372_1482" x1="128.846" y1="89.6461" x2="50.8473" y2="168.238" gradientUnits="userSpaceOnUse">
<stop stop-color="#0098FF"/>
<stop offset="1" stop-color="#53FFF5"/>
</linearGradient>
<linearGradient id="paint33_linear_372_1482" x1="124.041" y1="84.8902" x2="46.0556" y2="163.483" gradientUnits="userSpaceOnUse">
<stop stop-color="#0098FF"/>
<stop offset="1" stop-color="#53FFF5"/>
</linearGradient>
<linearGradient id="paint34_linear_372_1482" x1="112.262" y1="73.1943" x2="34.2767" y2="151.787" gradientUnits="userSpaceOnUse">
<stop stop-color="#0098FF"/>
<stop offset="1" stop-color="#53FFF5"/>
</linearGradient>
<linearGradient id="paint35_linear_372_1482" x1="126.075" y1="86.8998" x2="48.0902" y2="165.492" gradientUnits="userSpaceOnUse">
<stop stop-color="#0098FF"/>
<stop offset="1" stop-color="#53FFF5"/>
</linearGradient>
<linearGradient id="paint36_linear_372_1482" x1="129.501" y1="90.3025" x2="51.5162" y2="168.895" gradientUnits="userSpaceOnUse">
<stop stop-color="#0098FF"/>
<stop offset="1" stop-color="#53FFF5"/>
</linearGradient>
<linearGradient id="paint37_linear_372_1482" x1="127.682" y1="88.4939" x2="49.6964" y2="167.086" gradientUnits="userSpaceOnUse">
<stop stop-color="#0098FF"/>
<stop offset="1" stop-color="#53FFF5"/>
</linearGradient>
<linearGradient id="paint38_linear_372_1482" x1="121.592" y1="82.4517" x2="43.6063" y2="161.044" gradientUnits="userSpaceOnUse">
<stop stop-color="#0098FF"/>
<stop offset="1" stop-color="#53FFF5"/>
</linearGradient>
<linearGradient id="paint39_linear_372_1482" x1="118.687" y1="79.5714" x2="40.7014" y2="158.164" gradientUnits="userSpaceOnUse">
<stop stop-color="#0098FF"/>
<stop offset="1" stop-color="#53FFF5"/>
</linearGradient>
<linearGradient id="paint40_linear_372_1482" x1="77.3297" y1="38.5227" x2="-0.668947" y2="117.129" gradientUnits="userSpaceOnUse">
<stop stop-color="#0098FF"/>
<stop offset="1" stop-color="#53FFF5"/>
</linearGradient>
<linearGradient id="paint41_linear_372_1482" x1="121.471" y1="82.3314" x2="43.4862" y2="160.924" gradientUnits="userSpaceOnUse">
<stop stop-color="#0098FF"/>
<stop offset="1" stop-color="#53FFF5"/>
</linearGradient>
<linearGradient id="paint42_linear_372_1482" x1="74.8938" y1="36.1111" x2="-3.09162" y2="114.703" gradientUnits="userSpaceOnUse">
<stop stop-color="#0098FF"/>
<stop offset="1" stop-color="#53FFF5"/>
</linearGradient>
<linearGradient id="paint43_linear_372_1482" x1="115.609" y1="76.5168" x2="37.6232" y2="155.109" gradientUnits="userSpaceOnUse">
<stop stop-color="#0098FF"/>
<stop offset="1" stop-color="#53FFF5"/>
</linearGradient>
<linearGradient id="paint44_linear_372_1482" x1="83.1789" y1="44.3371" x2="5.1935" y2="122.929" gradientUnits="userSpaceOnUse">
<stop stop-color="#0098FF"/>
<stop offset="1" stop-color="#53FFF5"/>
</linearGradient>
<linearGradient id="paint45_linear_372_1482" x1="125.968" y1="86.7926" x2="47.9698" y2="165.385" gradientUnits="userSpaceOnUse">
<stop stop-color="#0098FF"/>
<stop offset="1" stop-color="#53FFF5"/>
</linearGradient>
<linearGradient id="paint46_linear_372_1482" x1="80.1004" y1="41.2822" x2="2.11505" y2="119.875" gradientUnits="userSpaceOnUse">
<stop stop-color="#0098FF"/>
<stop offset="1" stop-color="#53FFF5"/>
</linearGradient>
<linearGradient id="paint47_linear_372_1482" x1="86.5245" y1="47.646" x2="8.52574" y2="126.238" gradientUnits="userSpaceOnUse">
<stop stop-color="#0098FF"/>
<stop offset="1" stop-color="#53FFF5"/>
</linearGradient>
<linearGradient id="paint48_linear_372_1482" x1="123.907" y1="84.7562" x2="45.9221" y2="163.349" gradientUnits="userSpaceOnUse">
<stop stop-color="#0098FF"/>
<stop offset="1" stop-color="#53FFF5"/>
</linearGradient>
<linearGradient id="paint49_linear_372_1482" x1="128.778" y1="89.579" x2="50.7933" y2="168.185" gradientUnits="userSpaceOnUse">
<stop stop-color="#0098FF"/>
<stop offset="1" stop-color="#53FFF5"/>
</linearGradient>
</defs>
</svg>
