<svg width="23" height="22" viewBox="0 0 23 22" fill="none" xmlns="http://www.w3.org/2000/svg">
<rect x="0.0976562" width="22" height="22" fill="#D9D9D9"/>
<path fill-rule="evenodd" clip-rule="evenodd" d="M11.8906 5.29289C12.2811 4.90237 12.9142 4.90237 13.3048 5.29289L18.8048 10.7929C19.1953 11.1834 19.1953 11.8166 18.8048 12.2071L13.3048 17.7071C12.9142 18.0976 12.2811 18.0976 11.8905 17.7071C11.5 17.3166 11.5 16.6834 11.8905 16.2929L15.6834 12.5L5.09766 12.5C4.54537 12.5 4.09766 12.0523 4.09766 11.5C4.09766 10.9477 4.54537 10.5 5.09766 10.5L15.6834 10.5L11.8905 6.70711C11.5 6.31658 11.5 5.68342 11.8906 5.29289Z" fill="white"/>
</svg>
