<svg width="18" height="36" viewBox="0 0 18 36" fill="none" xmlns="http://www.w3.org/2000/svg">
<path d="M3.26753 5.22711e-05C2.71527 -0.00559454 2.263 0.43752 2.25735 0.989776C2.25171 1.54203 2.69482 1.9943 3.24708 1.99995L3.26753 5.22711e-05ZM16.5563 1.13598L17.5563 1.12576C17.5507 0.581471 17.1109 0.1416 16.5666 0.136035L16.5563 1.13598ZM15.6924 14.4453C15.698 14.9975 16.1503 15.4406 16.7026 15.435C17.2548 15.4293 17.6979 14.9771 17.6923 14.4248L15.6924 14.4453ZM0.292893 15.9852C-0.0976311 16.3757 -0.0976311 17.0089 0.292893 17.3994C0.683418 17.79 1.31658 17.79 1.70711 17.3994L0.292893 15.9852ZM3.24708 1.99995L16.5461 2.13593L16.5666 0.136035L3.26753 5.22711e-05L3.24708 1.99995ZM15.5564 1.14621L15.6924 14.4453L17.6923 14.4248L17.5563 1.12576L15.5564 1.14621ZM1.70711 17.3994L17.2635 1.84309L15.8492 0.428876L0.292893 15.9852L1.70711 17.3994Z" fill="#141414"/>
<path d="M3.26753 18.0001C2.71527 17.9944 2.263 18.4375 2.25735 18.9898C2.25171 19.542 2.69482 19.9943 3.24708 19.9999L3.26753 18.0001ZM16.5563 19.136L17.5563 19.1258C17.5507 18.5815 17.1109 18.1416 16.5666 18.136L16.5563 19.136ZM15.6924 32.4453C15.698 32.9975 16.1503 33.4406 16.7026 33.435C17.2548 33.4293 17.6979 32.9771 17.6923 32.4248L15.6924 32.4453ZM0.292893 33.9852C-0.0976311 34.3757 -0.0976311 35.0089 0.292893 35.3994C0.683418 35.79 1.31658 35.79 1.70711 35.3994L0.292893 33.9852ZM3.24708 19.9999L16.5461 20.1359L16.5666 18.136L3.26753 18.0001L3.24708 19.9999ZM15.5564 19.1462L15.6924 32.4453L17.6923 32.4248L17.5563 19.1258L15.5564 19.1462ZM1.70711 35.3994L17.2635 19.8431L15.8492 18.4289L0.292893 33.9852L1.70711 35.3994Z" fill="#007175"/>
</svg>
