<svg width="1359" height="349" viewBox="0 0 1359 349" fill="none" xmlns="http://www.w3.org/2000/svg">
<mask id="mask0_368_75" style="mask-type:alpha" maskUnits="userSpaceOnUse" x="0" y="0" width="1470" height="349">
<rect width="1470" height="349" fill="white"/>
</mask>
<g mask="url(#mask0_368_75)">
<path d="M394.997 55.1385L439.981 10.154C441.124 10.8024 442.463 11.0144 443.75 10.7508C445.038 10.4872 446.186 9.76581 446.982 8.72035C447.778 7.67488 448.168 6.37627 448.079 5.06525C447.991 3.75424 447.43 2.51973 446.501 1.5906C445.572 0.661462 444.337 0.100716 443.026 0.0123116C441.715 -0.076093 440.417 0.31384 439.371 1.10982C438.326 1.90581 437.604 3.05385 437.341 4.34114C437.077 5.62842 437.289 6.96762 437.938 8.11048L393.793 52.2272H262.216C261.877 50.9537 261.085 49.8472 259.99 49.114C258.895 48.3808 257.57 48.071 256.263 48.2423C254.957 48.4136 253.757 49.0544 252.887 50.0451C252.018 51.0358 251.539 52.3088 251.539 53.6269C251.539 54.9449 252.018 56.218 252.887 57.2087C253.757 58.1994 254.957 58.8401 256.263 59.0114C257.57 59.1827 258.895 58.8729 259.99 58.1397C261.085 57.4065 261.877 56.3 262.216 55.0265L394.997 55.1385Z" fill="#065781"/>
<path d="M365.884 75.4338C364.87 75.4277 363.874 75.7055 363.01 76.236C362.146 76.7664 361.448 77.5282 360.994 78.4352C360.54 79.3421 360.35 80.3579 360.444 81.3676C360.538 82.3772 360.913 83.3404 361.526 84.148C362.139 84.9557 362.966 85.5755 363.913 85.9374C364.86 86.2992 365.89 86.3886 366.885 86.1955C367.881 86.0023 368.802 85.5343 369.546 84.8444C370.289 84.1546 370.824 83.2704 371.091 82.2921H449.471L512.734 18.9162H975.999C976.339 20.1897 977.13 21.2962 978.225 22.0294C979.321 22.7626 980.645 23.0724 981.952 22.9011C983.259 22.7298 984.459 22.0891 985.328 21.0984C986.197 20.1077 986.677 18.8346 986.677 17.5166C986.677 16.1985 986.197 14.9255 985.328 13.9348C984.459 12.9441 983.259 12.3033 981.952 12.132C980.645 11.9607 979.321 12.2705 978.225 13.0037C977.13 13.7369 976.339 14.8434 975.999 16.1169H511.531L448.127 79.4088H371.091C370.778 78.2674 370.099 77.2603 369.158 76.5422C368.218 75.8241 367.067 75.4347 365.884 75.4338Z" fill="#065781"/>
<path d="M535.688 57.3224C534.674 57.3162 533.679 57.5941 532.814 58.1246C531.95 58.655 531.252 59.4168 530.798 60.3237C530.345 61.2307 530.154 62.2465 530.248 63.2561C530.342 64.2658 530.717 65.229 531.33 66.0366C531.943 66.8443 532.77 67.4641 533.717 67.826C534.665 68.1878 535.694 68.2772 536.69 68.0841C537.685 67.8909 538.607 67.4229 539.35 66.733C540.093 66.0431 540.628 65.159 540.895 64.1806H810.382L852.371 106.17H1137.9C1138.24 107.443 1139.03 108.55 1140.12 109.283C1141.22 110.016 1142.54 110.326 1143.85 110.155C1145.16 109.984 1146.36 109.343 1147.23 108.352C1148.1 107.361 1148.58 106.088 1148.58 104.77C1148.58 103.452 1148.1 102.179 1147.23 101.188C1146.36 100.198 1145.16 99.557 1143.85 99.3857C1142.54 99.2144 1141.22 99.5242 1140.12 100.257C1139.03 100.991 1138.24 102.097 1137.9 103.371H853.407L811.418 61.3813H540.727C540.438 60.2516 539.79 59.2457 538.882 58.5142C537.974 57.7826 536.854 57.3645 535.688 57.3224Z" fill="#065781"/>
<path d="M888.875 90.8011C890.062 90.7985 891.216 90.4051 892.157 89.6816C893.098 88.958 893.774 87.9446 894.082 86.7981H1182.88L1244.02 25.6896H1443.33C1443.67 26.9632 1444.46 28.0697 1445.56 28.8028C1446.65 29.536 1447.98 29.8459 1449.28 29.6746C1450.59 29.5033 1451.79 28.8625 1452.66 27.8718C1453.53 26.8811 1454.01 25.608 1454.01 24.29C1454.01 22.972 1453.53 21.6989 1452.66 20.7082C1451.79 19.7175 1450.59 19.0768 1449.28 18.9054C1447.98 18.7341 1446.65 19.044 1445.56 19.7772C1444.46 20.5103 1443.67 21.6169 1443.33 22.8904H1242.82L1181.68 83.9988H894.082C893.811 83.0303 893.275 82.1566 892.535 81.4762C891.794 80.7957 890.878 80.3355 889.89 80.1473C888.902 79.959 887.882 80.0503 886.943 80.4108C886.004 80.7712 885.184 81.3866 884.576 82.1876C883.968 82.9886 883.596 83.9435 883.501 84.9447C883.406 85.9459 883.592 86.9537 884.039 87.8547C884.486 88.7557 885.175 89.5141 886.03 90.0445C886.884 90.5749 887.87 90.8563 888.875 90.857V90.8011Z" fill="#065781"/>
<path d="M1224.71 129.207H1027.66C1027.32 127.934 1026.53 126.827 1025.44 126.094C1024.34 125.361 1023.02 125.051 1021.71 125.222C1020.4 125.394 1019.2 126.034 1018.33 127.025C1017.47 128.016 1016.99 129.289 1016.99 130.607C1016.99 131.925 1017.47 133.198 1018.33 134.189C1019.2 135.179 1020.4 135.82 1021.71 135.992C1023.02 136.163 1024.34 135.853 1025.44 135.12C1026.53 134.387 1027.32 133.28 1027.66 132.007H1225.91L1294.97 62.9482H1509.98L1553.57 106.533H1780.67C1781.01 107.807 1781.8 108.913 1782.9 109.646C1783.99 110.379 1785.32 110.689 1786.63 110.518C1787.93 110.347 1789.13 109.706 1790 108.715C1790.87 107.725 1791.35 106.451 1791.35 105.133C1791.35 103.815 1790.87 102.542 1790 101.552C1789.13 100.561 1787.93 99.9202 1786.63 99.7489C1785.32 99.5776 1783.99 99.8874 1782.9 100.621C1781.8 101.354 1781.01 102.46 1780.67 103.734H1554.77L1511.24 60.1489H1293.76L1224.71 129.207Z" fill="#065781"/>
<path d="M79.5725 473.436C80.7547 473.43 81.9029 473.039 82.8426 472.322C83.7823 471.604 84.4622 470.6 84.7791 469.461H404.039L494.624 378.876H698.384L760.332 316.928C761.475 317.576 762.814 317.788 764.101 317.525C765.389 317.261 766.537 316.54 767.333 315.494C768.129 314.449 768.519 313.15 768.43 311.839C768.342 310.528 767.781 309.294 766.852 308.365C765.923 307.435 764.688 306.875 763.377 306.786C762.066 306.698 760.768 307.088 759.722 307.884C758.677 308.68 757.955 309.828 757.692 311.115C757.428 312.402 757.64 313.742 758.289 314.884L697.18 375.993H493.42L402.863 466.55H84.8631C84.5926 465.578 84.0567 464.7 83.3155 464.016C82.5743 463.332 81.6571 462.867 80.6667 462.675C79.6764 462.482 78.652 462.57 77.7085 462.927C76.7649 463.284 75.9396 463.897 75.3249 464.697C74.7103 465.497 74.3306 466.453 74.2285 467.456C74.1265 468.46 74.306 469.472 74.7471 470.38C75.1881 471.287 75.8732 472.054 76.7255 472.593C77.5778 473.133 78.5636 473.425 79.5725 473.436Z" fill="#065781"/>
<path d="M886.999 164.87L803.021 81.1997H527.851L498.515 110.536H100.916C100.576 109.255 99.7816 108.141 98.6809 107.403C97.5802 106.664 96.2484 106.352 94.934 106.523C93.6197 106.694 92.4126 107.338 91.538 108.334C90.6634 109.33 90.1812 110.61 90.1812 111.936C90.1812 113.261 90.6634 114.542 91.538 115.538C92.4126 116.534 93.6197 117.177 94.934 117.349C96.2484 117.52 97.5802 117.207 98.6809 116.469C99.7816 115.73 100.576 114.617 100.916 113.336H499.718L529.139 83.999H801.901L885.656 167.754H1253.71L1319.04 102.418C1320.18 103.067 1321.52 103.279 1322.81 103.015C1324.1 102.752 1325.25 102.03 1326.04 100.985C1326.84 99.9392 1327.23 98.6406 1327.14 97.3296C1327.05 96.0186 1326.49 94.7841 1325.56 93.8549C1324.63 92.9258 1323.4 92.3651 1322.09 92.2766C1320.78 92.1882 1319.48 92.5782 1318.43 93.3742C1317.39 94.1701 1316.66 95.3182 1316.4 96.6055C1316.14 97.8927 1316.35 99.232 1317 100.375L1252.61 164.758L886.999 164.87Z" fill="#065781"/>
<path d="M466.323 172.849C465.61 172.128 464.71 171.621 463.725 171.385C462.739 171.15 461.707 171.194 460.745 171.515C459.784 171.835 458.931 172.418 458.283 173.197C457.636 173.977 457.219 174.922 457.081 175.926C456.943 176.93 457.088 177.953 457.501 178.879C457.914 179.804 458.577 180.596 459.416 181.164C460.256 181.732 461.237 182.054 462.25 182.094C463.263 182.133 464.266 181.888 465.147 181.387L483.51 199.75H772.509L818.781 153.478H837.676C838.016 154.759 838.81 155.873 839.911 156.611C841.012 157.35 842.344 157.662 843.658 157.491C844.972 157.32 846.179 156.676 847.054 155.68C847.929 154.684 848.411 153.404 848.411 152.078C848.411 150.753 847.929 149.473 847.054 148.477C846.179 147.481 844.972 146.837 843.658 146.665C842.344 146.494 841.012 146.807 839.911 147.545C838.81 148.284 838.016 149.397 837.676 150.679H817.605L771.333 196.867H484.714L467.107 179.343C467.704 178.324 467.951 177.137 467.809 175.964C467.668 174.791 467.146 173.697 466.323 172.849Z" fill="#065781"/>
<path d="M497.451 158.655L477.072 138.277H311.946C311.606 136.995 310.812 135.882 309.711 135.143C308.61 134.405 307.279 134.092 305.964 134.263C304.65 134.435 303.443 135.079 302.568 136.075C301.694 137.071 301.211 138.351 301.211 139.676C301.211 141.002 301.694 142.282 302.568 143.278C303.443 144.274 304.65 144.918 305.964 145.089C307.279 145.26 308.61 144.948 309.711 144.209C310.812 143.471 311.606 142.357 311.946 141.076H475.896L496.275 161.455H741.996L767.19 136.261C768.219 136.854 769.415 137.092 770.593 136.941C771.771 136.789 772.867 136.255 773.712 135.421C774.733 134.4 775.307 133.016 775.307 131.572C775.307 130.129 774.733 128.744 773.712 127.723C772.692 126.702 771.307 126.129 769.863 126.129C768.42 126.129 767.035 126.702 766.014 127.723C765.178 128.561 764.64 129.651 764.484 130.824C764.327 131.997 764.56 133.189 765.147 134.218L740.849 158.543L497.451 158.655Z" fill="#065781"/>
<path d="M404.346 182.171C403.631 181.455 402.731 180.953 401.747 180.721C400.762 180.489 399.732 180.537 398.773 180.859C397.814 181.181 396.964 181.764 396.319 182.543C395.674 183.322 395.259 184.266 395.122 185.268C394.984 186.27 395.129 187.291 395.541 188.215C395.952 189.139 396.613 189.93 397.45 190.499C398.287 191.067 399.266 191.391 400.276 191.433C401.287 191.475 402.289 191.234 403.17 190.737L476.708 264.274H806.492L866.872 203.893C868.015 204.525 869.347 204.724 870.624 204.454C871.901 204.184 873.039 203.462 873.827 202.422C874.616 201.381 875.004 200.092 874.919 198.789C874.834 197.486 874.283 196.257 873.366 195.327C872.416 194.518 871.216 194.062 869.968 194.034C868.72 194.006 867.501 194.408 866.515 195.174C865.53 195.939 864.838 197.021 864.556 198.237C864.274 199.453 864.42 200.729 864.969 201.85L805.288 261.391H477.911L405.13 188.609C405.684 187.587 405.906 186.419 405.765 185.265C405.625 184.111 405.129 183.03 404.346 182.171Z" fill="#065781"/>
<path d="M1493.24 88.0303C1492.06 88.0311 1490.91 88.4205 1489.97 89.1387C1489.02 89.8568 1488.35 90.8639 1488.03 92.0053H1372L1280.75 183.29H850.272L796.778 236.756H488.856L421.029 168.846H217.319C216.979 167.565 216.184 166.451 215.084 165.712C213.983 164.974 212.651 164.661 211.337 164.833C210.022 165.004 208.815 165.648 207.941 166.644C207.066 167.64 206.584 168.92 206.584 170.245C206.584 171.571 207.066 172.851 207.941 173.847C208.815 174.843 210.022 175.487 211.337 175.658C212.651 175.829 213.983 175.517 215.084 174.778C216.184 174.04 216.979 172.926 217.319 171.645H419.826L487.736 239.584H797.981L851.476 186.173H1281.92L1373.21 94.8885H1487.98C1488.25 95.857 1488.78 96.7307 1489.52 97.4111C1490.27 98.0916 1491.18 98.5518 1492.17 98.74C1493.16 98.9283 1494.18 98.837 1495.12 98.4766C1496.06 98.1161 1496.88 97.5007 1497.48 96.6997C1498.09 95.8987 1498.46 94.9439 1498.56 93.9426C1498.65 92.9414 1498.47 91.9336 1498.02 91.0326C1497.57 90.1316 1496.88 89.3733 1496.03 88.8428C1495.18 88.3124 1494.19 88.031 1493.18 88.0303H1493.24Z" fill="#065781"/>
<path d="M726.964 384.251C726.251 383.53 725.351 383.023 724.366 382.787C723.38 382.551 722.348 382.596 721.386 382.916C720.425 383.236 719.572 383.819 718.924 384.599C718.277 385.379 717.86 386.324 717.722 387.328C717.584 388.332 717.729 389.355 718.142 390.28C718.555 391.206 719.218 391.998 720.058 392.566C720.897 393.134 721.878 393.456 722.891 393.495C723.904 393.535 724.907 393.29 725.788 392.788L781.522 448.522H1049.36L1147.78 349.931H1350.5C1350.84 351.205 1351.64 352.311 1352.73 353.045C1353.83 353.778 1355.15 354.088 1356.46 353.916C1357.76 353.745 1358.96 353.104 1359.83 352.114C1360.7 351.123 1361.18 349.85 1361.18 348.532C1361.18 347.214 1360.7 345.941 1359.83 344.95C1358.96 343.959 1357.76 343.318 1356.46 343.147C1355.15 342.976 1353.83 343.286 1352.73 344.019C1351.64 344.752 1350.84 345.859 1350.5 347.132H1146.58L1048.1 445.611H782.698L727.832 390.745C728.418 389.717 728.651 388.525 728.495 387.351C728.338 386.178 727.8 385.089 726.964 384.251Z" fill="#065781"/>
<path d="M490.508 285.996C490.169 284.722 489.377 283.616 488.282 282.883C487.187 282.149 485.862 281.84 484.555 282.011C483.249 282.182 482.049 282.823 481.179 283.814C480.31 284.804 479.831 286.077 479.831 287.395C479.831 288.714 480.31 289.987 481.179 290.977C482.049 291.968 483.249 292.609 484.555 292.78C485.862 292.951 487.187 292.641 488.282 291.908C489.377 291.175 490.169 290.069 490.508 288.795H719.182L672.294 335.935C671.151 335.287 669.812 335.075 668.525 335.338C667.237 335.602 666.089 336.323 665.293 337.369C664.497 338.414 664.107 339.713 664.196 341.024C664.284 342.335 664.845 343.569 665.774 344.498C666.703 345.428 667.938 345.988 669.249 346.077C670.56 346.165 671.858 345.775 672.904 344.979C673.949 344.183 674.671 343.035 674.934 341.748C675.198 340.461 674.986 339.121 674.337 337.979L726.18 286.136L490.508 285.996Z" fill="#065781"/>
<path d="M836.36 293.135L755.881 373.642L800.222 417.955H1039.14L1133.92 323.171C1135.07 323.82 1136.41 324.032 1137.69 323.768C1138.98 323.504 1140.13 322.783 1140.93 321.737C1141.72 320.692 1142.11 319.393 1142.02 318.082C1141.93 316.771 1141.37 315.537 1140.44 314.608C1139.52 313.679 1138.28 313.118 1136.97 313.029C1135.66 312.941 1134.36 313.331 1133.31 314.127C1132.27 314.923 1131.55 316.071 1131.28 317.358C1131.02 318.646 1131.23 319.985 1131.88 321.128L1037.94 415.072H801.397L759.968 373.642L843.331 290.251H753.502L712.212 331.541C711.069 330.893 709.73 330.68 708.443 330.944C707.155 331.208 706.007 331.929 705.211 332.975C704.415 334.02 704.025 335.319 704.114 336.63C704.202 337.941 704.763 339.175 705.692 340.104C706.621 341.033 707.856 341.594 709.167 341.683C710.478 341.771 711.776 341.381 712.822 340.585C713.867 339.789 714.589 338.641 714.852 337.354C715.116 336.066 714.904 334.727 714.256 333.584L754.677 293.135H836.36Z" fill="#065781"/>
<path d="M640.662 324.57C641.001 325.844 641.793 326.95 642.888 327.683C643.983 328.416 645.308 328.726 646.615 328.555C647.922 328.384 649.122 327.743 649.991 326.752C650.86 325.762 651.339 324.488 651.339 323.17C651.339 321.852 650.86 320.579 649.991 319.589C649.122 318.598 647.922 317.957 646.615 317.786C645.308 317.615 643.983 317.924 642.888 318.658C641.793 319.391 641.001 320.497 640.662 321.771H488.94L378.565 211.283H164.199C163.859 210.009 163.068 208.903 161.973 208.17C160.877 207.437 159.553 207.127 158.246 207.298C156.939 207.469 155.739 208.11 154.87 209.101C154 210.091 153.521 211.365 153.521 212.683C153.521 214.001 154 215.274 154.87 216.264C155.739 217.255 156.939 217.896 158.246 218.067C159.553 218.238 160.877 217.929 161.973 217.195C163.068 216.462 163.859 215.356 164.199 214.082H377.529L487.877 324.458L640.662 324.57Z" fill="#065781"/>
<path d="M892.738 217.247L856.543 253.441C855.4 252.793 854.061 252.581 852.774 252.845C851.486 253.108 850.338 253.83 849.542 254.875C848.746 255.921 848.357 257.219 848.445 258.53C848.533 259.841 849.094 261.076 850.023 262.005C850.952 262.934 852.187 263.495 853.498 263.583C854.809 263.672 856.107 263.282 857.153 262.486C858.198 261.69 858.92 260.542 859.183 259.254C859.447 257.967 859.235 256.628 858.587 255.485L893.942 220.13H1307.4L1344.01 183.515C1345.15 184.164 1346.49 184.376 1347.78 184.112C1349.07 183.849 1350.22 183.127 1351.01 182.082C1351.81 181.036 1352.2 179.738 1352.11 178.427C1352.02 177.116 1351.46 175.881 1350.53 174.952C1349.6 174.023 1348.37 173.462 1347.06 173.374C1345.75 173.285 1344.45 173.675 1343.4 174.471C1342.36 175.267 1341.63 176.415 1341.37 177.702C1341.11 178.99 1341.32 180.329 1341.97 181.472L1306.22 217.247H892.738Z" fill="#065781"/>
<path d="M1279.29 284.82C1280.3 284.825 1281.3 284.546 1282.16 284.016C1283.02 283.486 1283.72 282.725 1284.17 281.82C1284.63 280.915 1284.82 279.9 1284.72 278.892C1284.63 277.884 1284.26 276.922 1283.65 276.114C1283.04 275.307 1282.21 274.686 1281.27 274.322C1280.32 273.958 1279.3 273.865 1278.3 274.055C1277.31 274.244 1276.38 274.707 1275.64 275.393C1274.89 276.078 1274.36 276.958 1274.08 277.934H1090.98L1041.32 327.537H835.688L896.153 267.045C897.295 267.693 898.635 267.905 899.922 267.641C901.209 267.378 902.357 266.656 903.153 265.611C903.949 264.565 904.339 263.267 904.251 261.956C904.162 260.645 903.602 259.41 902.672 258.481C901.743 257.552 900.509 256.991 899.198 256.903C897.887 256.815 896.588 257.204 895.543 258C894.497 258.796 893.776 259.944 893.512 261.232C893.249 262.519 893.461 263.858 894.109 265.001L828.718 330.42H1042.5L1092.19 280.761H1274.14C1274.43 281.909 1275.1 282.928 1276.03 283.661C1276.96 284.395 1278.11 284.802 1279.29 284.82Z" fill="#065781"/>
<path d="M821.775 381.088L807.778 367.091C808.427 365.948 808.639 364.609 808.375 363.322C808.112 362.035 807.39 360.887 806.345 360.091C805.299 359.295 804.001 358.905 802.69 358.993C801.379 359.082 800.144 359.642 799.215 360.571C798.286 361.501 797.725 362.735 797.637 364.046C797.548 365.357 797.938 366.656 798.734 367.701C799.53 368.747 800.678 369.468 801.966 369.732C803.253 369.995 804.592 369.783 805.735 369.135L820.711 384.111H1034.16L1091.35 326.558C1092.38 327.151 1093.58 327.388 1094.75 327.231C1095.93 327.074 1097.03 326.532 1097.87 325.69C1098.89 324.669 1099.46 323.286 1099.45 321.845C1099.45 320.404 1098.88 319.023 1097.85 318.006C1096.83 316.989 1095.45 316.419 1094.01 316.421C1092.57 316.424 1091.19 316.999 1090.17 318.02C1089.33 318.858 1088.8 319.947 1088.64 321.12C1088.48 322.294 1088.72 323.486 1089.3 324.514L1032.73 381.088H821.775Z" fill="#065781"/>
<path d="M1460.43 134.582H1538.98C1539.32 135.855 1540.11 136.962 1541.21 137.695C1542.3 138.428 1543.63 138.738 1544.93 138.567C1546.24 138.395 1547.44 137.755 1548.31 136.764C1549.18 135.773 1549.66 134.5 1549.66 133.182C1549.66 131.864 1549.18 130.591 1548.31 129.6C1547.44 128.61 1546.24 127.969 1544.93 127.798C1543.63 127.626 1542.3 127.936 1541.21 128.669C1540.11 129.402 1539.32 130.509 1538.98 131.782H1459.23L1338.47 252.46H1063.8L1022.62 293.637H907.014L945.42 255.259C946.596 255.939 947.98 256.169 949.312 255.904C950.645 255.64 951.836 254.9 952.664 253.822C953.491 252.745 953.899 251.403 953.81 250.047C953.721 248.692 953.143 247.414 952.182 246.454C951.221 245.493 949.944 244.915 948.588 244.826C947.233 244.737 945.891 245.145 944.813 245.972C943.736 246.8 942.996 247.991 942.732 249.323C942.467 250.656 942.697 252.039 943.377 253.215L900.044 296.548H1023.83L1065.01 255.371H1339.67L1460.43 134.582Z" fill="#065781"/>
<path d="M403.393 295.093C404.096 295.837 404.994 296.367 405.985 296.623C406.975 296.879 408.018 296.85 408.993 296.539C409.967 296.228 410.834 295.648 411.494 294.866C412.153 294.083 412.578 293.131 412.72 292.118C412.862 291.105 412.715 290.072 412.295 289.139C411.876 288.206 411.202 287.41 410.35 286.843C409.498 286.277 408.504 285.962 407.481 285.936C406.458 285.91 405.449 286.173 404.569 286.695L359.053 241.011H11.7347C11.3949 239.73 10.6004 238.616 9.49973 237.878C8.39902 237.139 7.06722 236.827 5.75287 236.998C4.43852 237.169 3.23142 237.813 2.35685 238.809C1.48229 239.805 1 241.085 1 242.411C1 243.736 1.48229 245.016 2.35685 246.012C3.23142 247.008 4.43852 247.652 5.75287 247.824C7.06722 247.995 8.39902 247.682 9.49973 246.944C10.6004 246.205 11.3949 245.092 11.7347 243.81H357.933L402.722 288.599C402.114 289.608 401.851 290.787 401.973 291.958C402.094 293.13 402.592 294.23 403.393 295.093Z" fill="#065781"/>
<path d="M56.7718 396.455C57.96 396.46 59.1168 396.074 60.0632 395.355C61.0095 394.637 61.6925 393.626 62.0065 392.48H380.328L424.472 348.335H530.397C530.737 349.616 531.532 350.73 532.632 351.469C533.733 352.207 535.065 352.52 536.379 352.348C537.694 352.177 538.901 351.533 539.775 350.537C540.65 349.541 541.132 348.261 541.132 346.936C541.132 345.61 540.65 344.33 539.775 343.334C538.901 342.338 537.694 341.694 536.379 341.523C535.065 341.352 533.733 341.664 532.632 342.403C531.532 343.141 530.737 344.255 530.397 345.536H423.213L379.068 389.597H62.0345C61.7685 388.621 61.2352 387.738 60.4946 387.049C59.7541 386.36 58.8358 385.891 57.8431 385.696C56.8505 385.501 55.8231 385.587 54.8766 385.944C53.9302 386.301 53.1024 386.916 52.4865 387.719C51.8707 388.521 51.4912 389.48 51.391 390.486C51.2907 391.493 51.4737 392.508 51.9192 393.416C52.3647 394.324 53.0551 395.09 53.9125 395.627C54.7698 396.164 55.7602 396.451 56.7718 396.455Z" fill="#065781"/>
<path d="M208.508 321.072C207.496 321.067 206.502 321.345 205.639 321.875C204.777 322.406 204.08 323.166 203.626 324.072C203.173 324.977 202.982 325.991 203.075 326.999C203.168 328.008 203.54 328.97 204.151 329.777C204.762 330.585 205.586 331.206 206.531 331.57C207.476 331.934 208.503 332.026 209.498 331.837C210.493 331.648 211.414 331.184 212.16 330.499C212.905 329.813 213.443 328.933 213.715 327.958H334.42L363.84 298.565C365.012 299.251 366.394 299.487 367.727 299.23C369.06 298.973 370.254 298.241 371.088 297.169C371.921 296.097 372.336 294.759 372.256 293.403C372.176 292.048 371.607 290.768 370.653 289.801C369.7 288.835 368.427 288.247 367.073 288.149C365.719 288.051 364.375 288.448 363.292 289.266C362.209 290.085 361.46 291.269 361.185 292.599C360.91 293.928 361.127 295.313 361.797 296.494L333.216 325.075H213.715C213.407 323.928 212.731 322.915 211.789 322.191C210.848 321.468 209.695 321.074 208.508 321.072Z" fill="#065781"/>
<path d="M148.886 365.915C150.073 365.913 151.226 365.519 152.167 364.796C153.109 364.072 153.785 363.059 154.093 361.912H349.703L393.848 317.767H447.034C447.374 319.049 448.169 320.162 449.269 320.901C450.37 321.639 451.702 321.952 453.016 321.781C454.331 321.609 455.538 320.965 456.412 319.969C457.287 318.973 457.769 317.693 457.769 316.368C457.769 315.042 457.287 313.762 456.412 312.766C455.538 311.77 454.331 311.126 453.016 310.955C451.702 310.784 450.37 311.096 449.269 311.835C448.169 312.573 447.374 313.687 447.034 314.968H392.672L348.499 359.029H154.093C153.821 358.054 153.283 357.173 152.537 356.488C151.792 355.802 150.87 355.339 149.876 355.15C148.881 354.96 147.853 355.053 146.909 355.417C145.964 355.781 145.14 356.402 144.529 357.209C143.918 358.017 143.546 358.979 143.453 359.987C143.36 360.996 143.551 362.01 144.004 362.915C144.458 363.82 145.155 364.581 146.017 365.111C146.88 365.641 147.874 365.92 148.886 365.915Z" fill="#065781"/>
<path d="M1770.37 256.884C1770.37 255.572 1769.89 254.306 1769.02 253.319C1768.15 252.333 1766.96 251.694 1765.66 251.52C1764.36 251.346 1763.04 251.648 1761.94 252.372C1760.85 253.096 1760.05 254.192 1759.7 255.457H1616.44L1579.09 218.086H1470.26C1469.92 216.805 1469.12 215.691 1468.02 214.953C1466.92 214.215 1465.59 213.902 1464.28 214.073C1462.96 214.245 1461.75 214.888 1460.88 215.884C1460.01 216.88 1459.52 218.16 1459.52 219.486C1459.52 220.811 1460.01 222.092 1460.88 223.088C1461.75 224.084 1462.96 224.727 1464.28 224.899C1465.59 225.07 1466.92 224.757 1468.02 224.019C1469.12 223.281 1469.92 222.167 1470.26 220.886H1565.01C1564.75 221.309 1564.56 221.773 1564.45 222.257H1471.77L1384.32 309.707H1191.79C1191.45 308.433 1190.65 307.327 1189.56 306.594C1188.46 305.861 1187.14 305.551 1185.83 305.722C1184.53 305.893 1183.33 306.534 1182.46 307.525C1181.59 308.516 1181.11 309.789 1181.11 311.107C1181.11 312.425 1181.59 313.698 1182.46 314.688C1183.33 315.679 1184.53 316.32 1185.83 316.491C1187.14 316.662 1188.46 316.353 1189.56 315.619C1190.65 314.886 1191.45 313.78 1191.79 312.506H1385.52L1472.95 225.057H1564.43C1564.63 225.799 1565 226.488 1565.5 227.077C1565.99 227.666 1566.61 228.143 1567.31 228.474C1568 228.805 1568.76 228.983 1569.53 228.997C1570.3 229.011 1571.07 228.859 1571.77 228.553C1572.48 228.247 1573.12 227.793 1573.63 227.221C1574.15 226.65 1574.54 225.974 1574.77 225.24C1575.01 224.506 1575.08 223.73 1574.99 222.964C1574.9 222.199 1574.65 221.461 1574.25 220.802H1577.86L1615.21 258.172H1759.68C1760.03 259.439 1760.82 260.537 1761.92 261.26C1763.02 261.984 1764.34 262.285 1765.65 262.107C1766.95 261.929 1768.14 261.285 1769.01 260.294C1769.87 259.302 1770.34 258.031 1770.34 256.716L1770.37 256.884Z" fill="#065781"/>
</g>
</svg>
