<svg width="796" height="607" viewBox="0 0 796 607" fill="none" xmlns="http://www.w3.org/2000/svg">
<g opacity="0.07">
<path d="M486.475 55.1385L531.46 10.154C532.603 10.8024 533.942 11.0144 535.229 10.7508C536.516 10.4872 537.664 9.76581 538.46 8.72035C539.256 7.67488 539.646 6.37627 539.558 5.06525C539.469 3.75424 538.909 2.51973 537.98 1.5906C537.05 0.661462 535.816 0.100716 534.505 0.0123116C533.194 -0.076093 531.895 0.31384 530.85 1.10982C529.804 1.90581 529.083 3.05385 528.819 4.34114C528.556 5.62842 528.768 6.96762 529.416 8.11048L485.271 52.2272H283.695C283.355 50.9537 282.564 49.8472 281.469 49.114C280.373 48.3808 279.049 48.071 277.742 48.2423C276.435 48.4136 275.235 49.0544 274.366 50.0451C273.496 51.0358 273.017 52.3088 273.017 53.6269C273.017 54.9449 273.496 56.218 274.366 57.2087C275.235 58.1994 276.435 58.8401 277.742 59.0114C279.049 59.1827 280.373 58.8729 281.469 58.1397C282.564 57.4065 283.355 56.3 283.695 55.0265L486.475 55.1385Z" fill="#055984"/>
<path d="M534.847 557.946L475.166 498.293H301.807C301.467 497.02 300.676 495.913 299.58 495.18C298.485 494.447 297.161 494.137 295.854 494.309C294.547 494.48 293.347 495.121 292.478 496.111C291.608 497.102 291.129 498.375 291.129 499.693C291.129 501.011 291.608 502.284 292.478 503.275C293.347 504.266 294.547 504.906 295.854 505.078C297.161 505.249 298.485 504.939 299.58 504.206C300.676 503.473 301.467 502.366 301.807 501.093H473.963L532.748 559.878C532.099 561.021 531.887 562.36 532.151 563.647C532.415 564.934 533.136 566.082 534.181 566.878C535.227 567.674 536.525 568.064 537.837 567.976C539.148 567.888 540.382 567.327 541.311 566.398C542.24 565.468 542.801 564.234 542.889 562.923C542.978 561.612 542.588 560.313 541.792 559.268C540.996 558.222 539.848 557.501 538.561 557.237C537.273 556.974 535.934 557.186 534.791 557.834L534.847 557.946Z" fill="#055984"/>
<path d="M838.149 545.882C839.161 545.886 840.155 545.608 841.018 545.078C841.88 544.548 842.577 543.787 843.03 542.882C843.484 541.976 843.675 540.962 843.582 539.954C843.489 538.946 843.117 537.983 842.506 537.176C841.895 536.368 841.071 535.747 840.126 535.383C839.181 535.019 838.154 534.927 837.159 535.116C836.164 535.305 835.243 535.769 834.497 536.454C833.752 537.14 833.214 538.02 832.942 538.995H554.385L521.606 506.216C522.254 505.073 522.466 503.734 522.202 502.446C521.939 501.159 521.217 500.011 520.172 499.215C519.127 498.419 517.828 498.029 516.517 498.118C515.206 498.206 513.971 498.767 513.042 499.696C512.113 500.625 511.552 501.859 511.464 503.17C511.376 504.482 511.765 505.78 512.561 506.826C513.357 507.871 514.506 508.592 515.793 508.856C517.08 509.12 518.419 508.908 519.562 508.259L553.154 541.851H832.914C833.218 543.007 833.896 544.03 834.844 544.76C835.791 545.489 836.953 545.884 838.149 545.882Z" fill="#055984"/>
<path d="M171.051 473.436C172.233 473.43 173.381 473.039 174.321 472.322C175.261 471.604 175.941 470.6 176.258 469.461H495.517L586.102 378.876H789.862L851.811 316.928C852.953 317.576 854.293 317.788 855.58 317.524C856.867 317.261 858.015 316.539 858.811 315.494C859.607 314.449 859.997 313.15 859.909 311.839C859.82 310.528 859.26 309.293 858.33 308.364C857.401 307.435 856.167 306.874 854.856 306.786C853.545 306.698 852.246 307.088 851.201 307.884C850.155 308.679 849.434 309.828 849.17 311.115C848.907 312.402 849.119 313.741 849.767 314.884L788.659 375.993H584.899L494.342 466.55H176.342C176.071 465.578 175.535 464.7 174.794 464.016C174.053 463.331 173.136 462.867 172.145 462.674C171.155 462.482 170.131 462.569 169.187 462.927C168.243 463.284 167.418 463.897 166.803 464.697C166.189 465.497 165.809 466.452 165.707 467.456C165.605 468.46 165.785 469.472 166.226 470.379C166.667 471.287 167.352 472.053 168.204 472.593C169.056 473.133 170.042 473.425 171.051 473.436Z" fill="#055984"/>
<path d="M1076.2 485.305L1121.47 530.569H1467.88L1512.67 575.358L1581.14 506.691H1824.67C1825.01 507.972 1825.81 509.086 1826.91 509.825C1828.01 510.563 1829.34 510.876 1830.66 510.704C1831.97 510.533 1833.18 509.889 1834.05 508.893C1834.93 507.897 1835.41 506.617 1835.41 505.292C1835.41 503.966 1834.93 502.686 1834.05 501.69C1833.18 500.694 1831.97 500.05 1830.66 499.879C1829.34 499.707 1828.01 500.02 1826.91 500.759C1825.81 501.497 1825.01 502.611 1824.67 503.892H1580.02L1512.69 571.215L1469.08 527.686H1122.67L1077.38 482.393H866.842L787.595 403.118H593.968L544.589 452.665C543.446 452.016 542.106 451.804 540.819 452.068C539.532 452.332 538.384 453.053 537.588 454.099C536.792 455.144 536.402 456.443 536.49 457.754C536.579 459.065 537.139 460.299 538.069 461.228C538.998 462.157 540.232 462.718 541.543 462.807C542.854 462.895 544.153 462.505 545.198 461.709C546.244 460.913 546.965 459.765 547.229 458.478C547.492 457.19 547.28 455.851 546.632 454.708L595.284 406.057H786.531L865.779 485.305H1076.2Z" fill="#055984"/>
<path d="M805.901 500.253C806.604 500.997 807.502 501.527 808.492 501.783C809.483 502.039 810.526 502.009 811.5 501.699C812.475 501.388 813.342 500.808 814.001 500.026C814.661 499.243 815.086 498.291 815.228 497.278C815.37 496.265 815.222 495.232 814.803 494.299C814.384 493.366 813.709 492.57 812.858 492.003C812.006 491.437 811.011 491.122 809.988 491.096C808.966 491.07 807.956 491.333 807.077 491.855L783.059 467.838H599.622L576.164 491.296C575.021 490.647 573.682 490.435 572.394 490.699C571.107 490.962 569.959 491.684 569.163 492.729C568.367 493.775 567.977 495.073 568.066 496.384C568.154 497.695 568.715 498.93 569.644 499.859C570.573 500.788 571.807 501.349 573.118 501.437C574.429 501.526 575.728 501.136 576.774 500.34C577.819 499.544 578.54 498.396 578.804 497.108C579.068 495.821 578.856 494.482 578.207 493.339L600.797 470.721H781.855L805.033 493.899C804.485 494.913 804.273 496.075 804.429 497.218C804.585 498.36 805.101 499.423 805.901 500.253Z" fill="#055984"/>
<path d="M557.801 172.849C557.089 172.128 556.189 171.621 555.203 171.385C554.217 171.15 553.185 171.194 552.224 171.515C551.262 171.835 550.409 172.418 549.762 173.197C549.114 173.977 548.698 174.922 548.56 175.926C548.421 176.93 548.567 177.953 548.979 178.879C549.392 179.804 550.056 180.596 550.895 181.164C551.734 181.732 552.716 182.054 553.728 182.094C554.741 182.133 555.745 181.888 556.626 181.387L574.989 199.75H863.987L910.259 153.478H929.155C929.495 154.759 930.289 155.873 931.39 156.611C932.49 157.35 933.822 157.662 935.136 157.491C936.451 157.32 937.658 156.676 938.532 155.68C939.407 154.684 939.889 153.404 939.889 152.078C939.889 150.753 939.407 149.473 938.532 148.477C937.658 147.481 936.451 146.837 935.136 146.665C933.822 146.494 932.49 146.807 931.39 147.545C930.289 148.284 929.495 149.397 929.155 150.679H909.084L862.811 196.867H576.193L558.585 179.343C559.183 178.324 559.429 177.137 559.288 175.964C559.146 174.791 558.624 173.697 557.801 172.849Z" fill="#055984"/>
<path d="M458.93 158.655L438.551 138.277H241.425C241.085 136.995 240.291 135.882 239.19 135.143C238.089 134.405 236.758 134.092 235.443 134.263C234.129 134.435 232.922 135.079 232.047 136.075C231.173 137.071 230.69 138.351 230.69 139.676C230.69 141.002 231.173 142.282 232.047 143.278C232.922 144.274 234.129 144.918 235.443 145.089C236.758 145.26 238.089 144.948 239.19 144.209C240.291 143.471 241.085 142.357 241.425 141.076H437.375L457.754 161.455H703.475L728.669 136.261C729.698 136.854 730.894 137.092 732.072 136.941C733.25 136.789 734.346 136.255 735.191 135.421C736.212 134.4 736.786 133.016 736.786 131.572C736.786 130.129 736.212 128.744 735.191 127.723C734.171 126.702 732.786 126.129 731.342 126.129C729.899 126.129 728.514 126.702 727.493 127.723C726.657 128.561 726.119 129.651 725.963 130.824C725.806 131.997 726.039 133.189 726.626 134.218L702.328 158.543L458.93 158.655Z" fill="#055984"/>
<path d="M495.824 182.171C495.11 181.455 494.21 180.952 493.225 180.72C492.24 180.489 491.211 180.536 490.252 180.858C489.293 181.18 488.443 181.764 487.798 182.543C487.153 183.322 486.738 184.266 486.6 185.268C486.463 186.27 486.608 187.291 487.019 188.215C487.431 189.139 488.092 189.93 488.929 190.498C489.765 191.067 490.744 191.39 491.755 191.432C492.765 191.474 493.768 191.233 494.649 190.736L568.186 264.274H897.97L958.351 203.893C959.493 204.525 960.825 204.724 962.103 204.454C963.38 204.183 964.517 203.462 965.306 202.421C966.095 201.381 966.482 200.091 966.398 198.788C966.313 197.486 965.762 196.257 964.845 195.327C963.895 194.518 962.695 194.061 961.447 194.033C960.199 194.005 958.98 194.408 957.994 195.174C957.008 195.939 956.316 197.021 956.035 198.237C955.753 199.453 955.899 200.728 956.447 201.85L896.766 261.39H569.39L496.608 188.609C497.162 187.587 497.384 186.418 497.244 185.265C497.103 184.111 496.607 183.03 495.824 182.171Z" fill="#055984"/>
<path d="M1584.72 88.0303C1583.54 88.0311 1582.38 88.4205 1581.44 89.1387C1580.5 89.8568 1579.82 90.8639 1579.51 92.0053H1463.48L1372.22 183.29H941.75L888.256 236.756H580.335L512.508 168.846H118.797C118.457 167.565 117.663 166.451 116.562 165.712C115.462 164.974 114.13 164.661 112.815 164.833C111.501 165.004 110.294 165.648 109.419 166.644C108.545 167.64 108.062 168.92 108.062 170.245C108.062 171.571 108.545 172.851 109.419 173.847C110.294 174.843 111.501 175.487 112.815 175.658C114.13 175.829 115.462 175.517 116.562 174.778C117.663 174.04 118.457 172.926 118.797 171.645H511.304L579.215 239.584H889.46L942.954 186.173H1373.4L1464.69 94.8885H1579.46C1579.73 95.857 1580.26 96.7307 1581 97.4111C1581.74 98.0916 1582.66 98.5518 1583.65 98.74C1584.64 98.9283 1585.66 98.837 1586.6 98.4766C1587.53 98.1161 1588.35 97.5007 1588.96 96.6997C1589.57 95.8987 1589.94 94.9439 1590.04 93.9426C1590.13 92.9414 1589.95 91.9336 1589.5 91.0326C1589.05 90.1316 1588.36 89.3733 1587.51 88.8428C1586.65 88.3124 1585.67 88.031 1584.66 88.0303H1584.72Z" fill="#055984"/>
<path d="M581.987 285.996C581.647 284.722 580.856 283.616 579.761 282.883C578.665 282.149 577.341 281.84 576.034 282.011C574.727 282.182 573.527 282.823 572.658 283.814C571.788 284.804 571.309 286.077 571.309 287.395C571.309 288.714 571.788 289.987 572.658 290.977C573.527 291.968 574.727 292.609 576.034 292.78C577.341 292.951 578.665 292.641 579.761 291.908C580.856 291.175 581.647 290.069 581.987 288.795H810.661L763.773 335.935C762.63 335.287 761.29 335.075 760.003 335.338C758.716 335.602 757.568 336.323 756.772 337.369C755.976 338.414 755.586 339.713 755.674 341.024C755.763 342.335 756.324 343.569 757.253 344.498C758.182 345.428 759.416 345.988 760.727 346.077C762.038 346.165 763.337 345.775 764.382 344.979C765.428 344.183 766.149 343.035 766.413 341.748C766.677 340.461 766.464 339.121 765.816 337.979L817.659 286.136L581.987 285.996Z" fill="#055984"/>
<path d="M927.839 293.134L847.359 373.642L891.7 417.955H1130.62L1225.4 323.171C1226.55 323.819 1227.89 324.031 1229.17 323.768C1230.46 323.504 1231.61 322.783 1232.4 321.737C1233.2 320.692 1233.59 319.393 1233.5 318.082C1233.41 316.771 1232.85 315.537 1231.92 314.607C1230.99 313.678 1229.76 313.118 1228.45 313.029C1227.14 312.941 1225.84 313.331 1224.79 314.127C1223.75 314.923 1223.03 316.071 1222.76 317.358C1222.5 318.645 1222.71 319.984 1223.36 321.127L1129.42 415.071H892.876L851.446 373.642L934.809 290.251H844.98L803.691 331.541C802.548 330.892 801.208 330.68 799.921 330.944C798.634 331.207 797.486 331.929 796.69 332.974C795.894 334.02 795.504 335.318 795.592 336.629C795.681 337.94 796.242 339.175 797.171 340.104C798.1 341.033 799.334 341.594 800.645 341.682C801.956 341.771 803.255 341.381 804.3 340.585C805.346 339.789 806.067 338.641 806.331 337.354C806.595 336.066 806.382 334.727 805.734 333.584L846.156 293.134H927.839Z" fill="#055984"/>
<path d="M732.141 324.57C732.48 325.843 733.272 326.95 734.367 327.683C735.462 328.416 736.787 328.726 738.094 328.555C739.401 328.383 740.601 327.743 741.47 326.752C742.339 325.761 742.818 324.488 742.818 323.17C742.818 321.852 742.339 320.579 741.47 319.588C740.601 318.598 739.401 317.957 738.094 317.786C736.787 317.614 735.462 317.924 734.367 318.657C733.272 319.391 732.48 320.497 732.141 321.771H580.419L470.044 211.283H15.6778C15.3381 210.009 14.5468 208.903 13.4515 208.169C12.3562 207.436 11.0317 207.126 9.72481 207.298C8.41795 207.469 7.21799 208.11 6.34867 209.101C5.47935 210.091 5 211.364 5 212.682C5 214 5.47935 215.273 6.34867 216.264C7.21799 217.255 8.41795 217.896 9.72481 218.067C11.0317 218.238 12.3562 217.928 13.4515 217.195C14.5468 216.462 15.3381 215.355 15.6778 214.082H469.008L579.356 324.458L732.141 324.57Z" fill="#055984"/>
<path d="M10.9004 430.355C10.5607 429.082 9.76946 427.975 8.67417 427.242C7.57888 426.509 6.25432 426.199 4.94746 426.37C3.64061 426.542 2.44065 427.182 1.57133 428.173C0.702005 429.164 0.222656 430.437 0.222656 431.755C0.222656 433.073 0.702005 434.346 1.57133 435.337C2.44065 436.327 3.64061 436.968 4.94746 437.139C6.25432 437.311 7.57888 437.001 8.67417 436.268C9.76946 435.535 10.5607 434.428 10.9004 433.155H502.319L565.666 369.779C566.809 370.427 568.148 370.639 569.436 370.376C570.723 370.112 571.871 369.391 572.667 368.345C573.463 367.3 573.853 366.001 573.765 364.69C573.676 363.379 573.115 362.144 572.186 361.215C571.257 360.286 570.023 359.725 568.712 359.637C567.401 359.549 566.102 359.939 565.057 360.735C564.011 361.531 563.29 362.679 563.026 363.966C562.763 365.253 562.975 366.592 563.623 367.735L501.115 430.355H10.9004Z" fill="#055984"/>
<path d="M494.872 295.093C495.574 295.837 496.473 296.367 497.463 296.623C498.454 296.879 499.496 296.85 500.471 296.539C501.446 296.228 502.313 295.648 502.972 294.866C503.632 294.083 504.057 293.131 504.199 292.118C504.341 291.105 504.193 290.072 503.774 289.139C503.355 288.206 502.68 287.41 501.828 286.843C500.977 286.277 499.982 285.962 498.959 285.936C497.937 285.91 496.927 286.173 496.048 286.695L450.531 241.011H203.213C202.873 239.73 202.079 238.616 200.978 237.878C199.878 237.139 198.546 236.827 197.231 236.998C195.917 237.169 194.71 237.813 193.835 238.809C192.961 239.805 192.479 241.085 192.479 242.411C192.479 243.736 192.961 245.016 193.835 246.012C194.71 247.008 195.917 247.652 197.231 247.824C198.546 247.995 199.878 247.682 200.978 246.944C202.079 246.205 202.873 245.092 203.213 243.81H449.412L494.2 288.599C493.593 289.608 493.33 290.787 493.451 291.958C493.572 293.13 494.071 294.23 494.872 295.093Z" fill="#055984"/>
<path d="M298.25 396.455C299.439 396.46 300.595 396.073 301.542 395.355C302.488 394.636 303.171 393.626 303.485 392.48H471.806L515.951 348.335H621.876C622.216 349.616 623.01 350.73 624.111 351.468C625.212 352.207 626.543 352.519 627.858 352.348C629.172 352.177 630.379 351.533 631.254 350.537C632.128 349.541 632.611 348.261 632.611 346.935C632.611 345.61 632.128 344.33 631.254 343.334C630.379 342.338 629.172 341.694 627.858 341.523C626.543 341.351 625.212 341.664 624.111 342.402C623.01 343.141 622.216 344.254 621.876 345.536H514.691L470.546 389.596H303.513C303.247 388.62 302.714 387.738 301.973 387.049C301.233 386.36 300.314 385.891 299.322 385.696C298.329 385.5 297.302 385.586 296.355 385.944C295.409 386.301 294.581 386.916 293.965 387.718C293.349 388.521 292.97 389.479 292.869 390.486C292.769 391.493 292.952 392.507 293.398 393.416C293.843 394.324 294.534 395.09 295.391 395.627C296.248 396.164 297.239 396.45 298.25 396.455Z" fill="#055984"/>
<path d="M299.987 321.071C298.974 321.067 297.981 321.345 297.118 321.875C296.255 322.405 295.558 323.166 295.105 324.071C294.652 324.977 294.461 325.991 294.554 326.999C294.646 328.007 295.019 328.97 295.63 329.777C296.24 330.585 297.064 331.206 298.009 331.569C298.954 331.933 299.982 332.026 300.976 331.837C301.971 331.648 302.893 331.184 303.638 330.499C304.383 329.813 304.922 328.933 305.193 327.958H425.898L455.319 298.565C456.491 299.251 457.872 299.487 459.205 299.23C460.538 298.973 461.733 298.24 462.566 297.169C463.399 296.097 463.815 294.758 463.735 293.403C463.655 292.048 463.085 290.767 462.132 289.801C461.178 288.834 459.906 288.247 458.552 288.149C457.197 288.05 455.854 288.447 454.77 289.266C453.687 290.085 452.938 291.269 452.663 292.599C452.388 293.928 452.606 295.312 453.275 296.494L424.695 325.074H305.193C304.886 323.928 304.209 322.914 303.268 322.191C302.327 321.467 301.174 321.074 299.987 321.071Z" fill="#055984"/>
<path d="M320.365 365.915C321.552 365.912 322.705 365.519 323.646 364.795C324.587 364.072 325.264 363.059 325.571 361.912H441.182L485.326 317.767H538.513C538.853 319.048 539.647 320.162 540.748 320.901C541.849 321.639 543.18 321.952 544.495 321.78C545.809 321.609 547.016 320.965 547.891 319.969C548.765 318.973 549.248 317.693 549.248 316.368C549.248 315.042 548.765 313.762 547.891 312.766C547.016 311.77 545.809 311.126 544.495 310.955C543.18 310.783 541.849 311.096 540.748 311.835C539.647 312.573 538.853 313.687 538.513 314.968H484.151L439.978 359.029H325.571C325.3 358.053 324.761 357.173 324.016 356.488C323.271 355.802 322.349 355.339 321.354 355.149C320.36 354.96 319.332 355.053 318.387 355.417C317.442 355.781 316.618 356.402 316.008 357.209C315.397 358.017 315.024 358.979 314.932 359.987C314.839 360.995 315.03 362.009 315.483 362.915C315.936 363.82 316.633 364.581 317.496 365.111C318.358 365.641 319.352 365.92 320.365 365.915Z" fill="#055984"/>
</g>
</svg>
