<svg width="17" height="17" viewBox="0 0 17 17" fill="none" xmlns="http://www.w3.org/2000/svg">
<rect width="17" height="17" fill="#D9D9D9"/>
<path d="M16.1413 13.1044L13.6704 10.6766C13.1782 10.1951 12.3632 10.2097 11.8538 10.7102L10.609 11.9329C10.5303 11.8903 10.4489 11.8459 10.3633 11.7987C9.57719 11.3707 8.50124 10.7842 7.36903 9.67115C6.23347 8.55571 5.6359 7.49707 5.19898 6.72429C5.15288 6.64242 5.1087 6.56348 5.06508 6.48852L5.90057 5.66895L6.31133 5.26493C6.82143 4.76367 6.8355 3.96321 6.34448 3.48025L3.87353 1.05225C3.38251 0.569965 2.5671 0.584596 2.05701 1.08585L1.36061 1.77392L1.37964 1.79248C1.14613 2.08519 0.950997 2.42279 0.805788 2.78685C0.671932 3.13339 0.588594 3.46408 0.550488 3.79545C0.224215 6.45271 1.46026 8.88125 4.81474 12.1767C9.45165 16.7317 13.1884 16.3876 13.3496 16.3708C13.7007 16.3296 14.0372 16.2472 14.3791 16.1167C14.7465 15.9757 15.0899 15.7843 15.3877 15.5554L15.4029 15.5687L16.1084 14.89C16.6174 14.3888 16.6321 13.5881 16.1413 13.1044Z" fill="white"/>
</svg>
