<svg width="28" height="26" viewBox="0 0 28 26" fill="none" xmlns="http://www.w3.org/2000/svg">
<path fill-rule="evenodd" clip-rule="evenodd" d="M11.9433 0.0379797C11.4331 0.0763345 10.4534 0.239924 9.88029 0.382476C7.54419 0.963609 5.52876 2.10681 3.80268 3.82999C1.79213 5.83711 0.574944 8.24109 0.108178 11.1268C-0.0360593 12.0187 -0.0360593 14.0121 0.108178 14.9041C0.247243 15.7636 0.512705 16.8056 0.765556 17.4843C2.2593 21.4939 5.5982 24.5305 9.67863 25.5904C10.9637 25.9241 11.5768 26 12.9893 26C14.3634 26 14.983 25.9269 16.2088 25.6202C21.2115 24.3683 25.0759 20.0987 25.8553 14.9622C25.9695 14.2094 26.039 13.0736 25.9709 13.0736C25.9422 13.0736 25.3118 13.6815 24.5701 14.4247L23.2216 15.7758L23.0118 16.386C21.9103 19.5898 19.4557 22.0428 16.3018 23.092C13.7169 23.9518 10.7763 23.7365 8.31122 22.5068C5.31792 21.0136 3.26524 18.3301 2.58206 15.017C2.40819 14.1739 2.36559 12.4587 2.49629 11.5626C2.72543 9.99088 3.27024 8.52369 4.08238 7.29128C5.81822 4.65718 8.474 2.95562 11.5215 2.52511C12.4872 2.38866 14.0825 2.42743 14.9872 2.60938C17.225 3.05929 19.2219 4.18663 20.8294 5.9076L21.3734 6.49001L22.2082 5.64929C22.6673 5.18694 23.043 4.78997 23.043 4.76719C23.043 4.67136 21.7246 3.34753 21.2282 2.94487C18.594 0.808214 15.3231 -0.215859 11.9433 0.0379797ZM23.2488 7.86503C21.7243 9.64301 20.4596 11.0977 20.4383 11.0977C20.4171 11.0977 19.7783 10.4768 19.019 9.71786L17.6382 8.33802L16.7059 9.27033L15.7736 10.2026L18.1045 12.5337L20.4354 14.8647L24.158 10.6786L27.8807 6.49251L26.9506 5.56241L26.0206 4.63236L23.2488 7.86503ZM11.1297 10.226V14.8751H12.9893H14.849V10.226V5.57694H12.9893H11.1297V10.226ZM11.1297 18.5943V20.454H12.9893H14.849V18.5943V16.7347H12.9893H11.1297V18.5943Z" fill="#065196"/>
</svg>
