<svg width="26" height="27" viewBox="0 0 26 27" fill="none" xmlns="http://www.w3.org/2000/svg">
<path d="M25.4171 21.0182L21.4018 17.0025C20.602 16.2059 19.2776 16.2301 18.45 17.0581L16.427 19.0805C16.2992 19.0101 16.167 18.9365 16.0279 18.8585C14.7504 18.1507 13.002 17.1805 11.1622 15.3393C9.31687 13.4942 8.34582 11.7431 7.63584 10.4649C7.56092 10.3294 7.48913 10.1989 7.41825 10.0749L8.77592 8.71922L9.44341 8.05091C10.2723 7.22179 10.2952 5.89772 9.49726 5.09885L5.48197 1.08266C4.68407 0.284906 3.35904 0.309107 2.53013 1.13823L1.39849 2.27638L1.42941 2.30708C1.04995 2.79126 0.73287 3.34969 0.496905 3.95189C0.279389 4.52511 0.143965 5.07211 0.0820423 5.62023C-0.448151 10.0156 1.56043 14.0327 7.01145 19.4838C14.5464 27.0183 20.6186 26.4491 20.8806 26.4213C21.4511 26.3531 21.9979 26.2168 22.5535 26.001C23.1505 25.7678 23.7086 25.4511 24.1925 25.0725L24.2172 25.0945L25.3636 23.9719C26.1908 23.1429 26.2146 21.8184 25.4171 21.0182Z" fill="#53FFF5"/>
</svg>
