<svg width="23" height="26" viewBox="0 0 23 26" fill="none" xmlns="http://www.w3.org/2000/svg">
<path fill-rule="evenodd" clip-rule="evenodd" d="M0 11.1647V22.3294L6.81336 22.3412L13.6267 22.353L9.68836 23.2269L5.75 24.1008L5.70069 23.6739C5.65406 23.2709 5.6079 23.2471 4.87364 23.2471H4.09589V24.6235V26H13.5479H23V14.8353V3.67059H21.4247H19.8493V4.43529V5.2H20.637H21.4247V14.8353V24.4706L15.5565 24.4585C12.3289 24.4519 9.75925 24.4206 9.84589 24.3888C9.93253 24.3571 11.882 23.9105 14.1781 23.3962C16.4741 22.8818 18.4767 22.4268 18.6284 22.3849C18.8877 22.3134 18.9041 21.6467 18.9041 11.1545V0H9.45205H0V11.1647ZM17.3288 11.1647V20.8H9.45205H1.57534V11.1647V1.52941H9.45205H17.3288V11.1647ZM3.93836 7.87647V12.0824H9.45205H14.9658V7.87647V3.67059H9.45205H3.93836V7.87647ZM3.93836 14.6785V15.6H6.46678H8.9952L8.94795 14.7206L8.90068 13.8412L6.41952 13.7991L3.93836 13.7569V14.6785ZM10.5548 14.6781V15.6H12.7682H14.9815L14.9342 14.7206L14.887 13.8412L12.7209 13.7987L10.5548 13.7561V14.6781ZM3.93836 17.7374V18.6588H6.46678H8.9952L8.94795 17.7794L8.90068 16.9L6.41952 16.8579L3.93836 16.8157V17.7374ZM10.5548 17.7369V18.6588H12.7682H14.9815L14.9342 17.7794L14.887 16.9L12.7209 16.8575L10.5548 16.815V17.7369Z" fill="#065196"/>
</svg>
