<svg width="35" height="40" viewBox="0 0 35 40" fill="none" xmlns="http://www.w3.org/2000/svg">
<path d="M31.8949 39.1121H7.17329C7.0369 39.0329 6.88716 39.093 6.74505 39.073C5.79796 39.0787 4.80891 37.9552 4.7574 36.7725C4.72688 36.0515 4.74405 35.3295 4.7574 34.6084C4.7574 34.4444 4.76599 34.2746 4.9205 34.163C5.16084 34.0428 5.41931 34.0791 5.67111 34.0791C12.8809 34.0791 20.0908 34.0791 27.3006 34.0791C27.478 34.0791 27.6563 34.0791 27.8347 34.0791C28.7083 34.0724 29.1137 33.6823 29.1537 32.8153C29.1652 32.5492 29.2253 32.285 29.1614 32.018C29.1423 28.1076 29.1614 24.1904 29.1528 20.2772C29.1528 20.0606 29.1576 19.8451 29.1528 19.6286C29.127 18.9838 28.6845 18.5432 28.035 18.5155C27.8318 18.507 27.6277 18.5155 27.4246 18.5155C20.1683 18.5155 12.9124 18.5155 5.6568 18.5155C5.39356 18.5155 5.11888 18.5642 4.87853 18.4001C4.73833 18.2437 4.7431 18.0492 4.7431 17.8594C4.73928 12.7624 4.73928 7.66584 4.7431 2.56956C4.74325 2.37887 4.76501 2.18882 4.80795 2.00303C5.09313 0.725935 5.97536 0.0106118 7.27152 0.0087043C10.2199 0.0087043 13.1683 0.0087043 16.1167 0.0087043C18.7733 0.0087043 21.4295 0.0087043 24.0854 0.0087043C24.2228 0.0087043 24.3658 -0.026585 24.4965 0.0449473C24.5719 0.2357 24.5585 0.442667 24.5585 0.644865C24.5585 2.70214 24.5976 4.76131 24.5452 6.81858C24.508 8.2788 25.1174 9.39375 26.7579 9.69704C26.9687 9.77335 27.1098 9.94121 27.2624 10.0929C29.4752 12.3043 31.6869 14.5164 33.8978 16.7291C34.058 16.8903 34.2421 17.0363 34.2993 17.2757C34.328 17.4387 34.3392 17.6043 34.3327 17.7697C34.3327 23.9908 34.3327 30.2122 34.3327 36.4339C34.3327 37.2618 34.0837 37.9771 33.4743 38.557C33.1746 38.855 32.7788 39.0368 32.3574 39.0701C32.2058 39.094 32.0465 39.032 31.8949 39.1121Z" fill="#E1E4E6"/>
<path d="M6.79102 39.1129C6.79102 39.0872 6.79102 39.0624 6.79102 39.0376C6.92073 39.05 7.06379 38.9947 7.17252 39.1129H6.79102Z" fill="#EDEFF0"/>
<path d="M32.278 39.0376C32.278 39.0624 32.278 39.0872 32.278 39.1129H31.8965C32.0043 38.9947 32.1473 39.05 32.278 39.0376Z" fill="#EDEFF0"/>
<path d="M4.88137 33.0214C3.71332 33.0169 2.54496 33.0125 1.37628 33.008C0.495004 33.0023 0 32.5254 0 31.646C0 27.6707 0 23.6967 0 19.724C0 18.8503 0.49405 18.3668 1.37533 18.362C2.54401 18.3563 3.71237 18.3522 4.88041 18.3496C5.04541 18.3496 5.21041 18.3611 5.37542 18.3611H27.7641C28.8733 18.3611 29.3006 18.7912 29.3006 19.909C29.3006 23.7482 29.3006 27.5875 29.3006 31.4267C29.3006 31.6174 29.2939 31.8082 29.2911 31.9989C29.1518 32.7829 28.7913 33.1053 27.9911 33.1568C27.8385 33.1663 27.6859 33.1635 27.5333 33.1635C20.2389 33.1635 12.9448 33.1635 5.65105 33.1635C5.38877 33.1587 5.11122 33.2131 4.88137 33.0214Z" fill="#F05642"/>
<path d="M24.4972 0.113281L34.1083 9.73581C34.0273 10 33.7964 9.95518 33.6076 9.95899C32.897 9.97234 32.1865 9.95899 31.4759 9.96471C30.1559 9.96471 28.8359 9.96471 27.5159 9.96471C27.2868 9.97902 27.0584 9.92632 26.8588 9.81306C25.4338 9.74344 24.4171 8.69525 24.4171 7.27701C24.4133 5.0204 24.4133 2.76316 24.4171 0.505278C24.4171 0.374613 24.3752 0.225825 24.4972 0.113281Z" fill="#AFB6BC"/>
<path d="M4.88086 33.0204C5.04586 33.0157 5.21086 33.008 5.37586 33.008H27.7893C28.6391 33.008 28.9806 32.7753 29.2877 31.9961C29.2877 32.3127 29.2991 32.6313 29.2972 32.9499C29.2925 33.6919 28.7679 34.2279 28.0316 34.2289H4.88658C4.88595 33.8251 4.88404 33.4223 4.88086 33.0204Z" fill="#C9D0D7"/>
<path d="M26.8574 9.81463C29.1287 9.81463 31.4002 9.81463 33.6721 9.81463C33.818 9.81463 33.9792 9.86518 34.107 9.74023C34.2024 9.81558 34.1823 9.9224 34.1823 10.0264C34.1823 12.3968 34.1801 14.7675 34.1757 17.1386C34.107 17.0823 34.0335 17.0318 33.9716 16.9698C31.6558 14.6559 29.3413 12.3415 27.0281 10.0264C26.9662 9.95483 26.9137 9.88235 26.8574 9.81463Z" fill="#C9D0D7"/>
<path d="M11.8958 25.966C11.8958 25.0895 11.8958 24.213 11.8958 23.3375C11.8958 22.8911 12.0866 22.6374 12.5072 22.6155C13.521 22.5611 14.5454 22.4896 15.5468 22.6708C17.1367 22.9569 18.1706 24.3723 18.1039 26.0605C18.0237 28.092 16.7257 29.3414 14.6913 29.3452C14.0179 29.3452 13.3455 29.35 12.6722 29.3452C12.0999 29.3452 11.8977 29.1354 11.8958 28.5584C11.8929 27.6933 11.8958 26.8292 11.8958 25.966Z" fill="#FEFEFE"/>
<path d="M5.33024 25.9114C5.33024 25.0349 5.32548 24.1584 5.33024 23.2818C5.33501 22.7754 5.56487 22.5083 6.06464 22.5036C6.88965 22.4959 7.71656 22.4444 8.53966 22.537C9.87493 22.6857 10.7448 23.7587 10.6379 25.1026C10.5235 26.5142 9.65652 27.3353 8.2316 27.3725C7.78714 27.384 7.34173 27.3859 6.89633 27.3725C6.67696 27.3659 6.6102 27.446 6.6102 27.6587C6.62341 28.0264 6.61417 28.3946 6.58254 28.7612C6.54248 29.1427 6.28782 29.3554 5.95687 29.3402C5.87366 29.3385 5.79158 29.3205 5.71535 29.2871C5.63912 29.2537 5.57024 29.2056 5.51264 29.1455C5.45504 29.0855 5.40987 29.0146 5.37972 28.937C5.34957 28.8595 5.33502 28.7767 5.33692 28.6935C5.32261 27.7664 5.33215 26.8394 5.33215 25.9114H5.33024Z" fill="#FEFEFE"/>
<path d="M21.8629 22.6056C22.4838 22.6123 23.1028 22.5445 23.7276 22.6199C24.0318 22.658 24.2216 22.8259 24.255 23.1282C24.2884 23.4306 24.132 23.6623 23.8515 23.7959C23.7084 23.8502 23.5548 23.8714 23.4023 23.8579C22.6279 23.8579 21.8525 23.8703 21.079 23.8512C20.8062 23.8455 20.7251 23.9313 20.7442 24.1946C20.7637 24.4988 20.7637 24.804 20.7442 25.1083C20.7308 25.341 20.8081 25.4163 21.0427 25.4116C21.6655 25.3972 22.2874 25.4049 22.9102 25.4116C23.0379 25.4093 23.1655 25.4182 23.2917 25.4383C23.6665 25.506 23.9488 25.8198 23.9278 26.1316C23.9069 26.4435 23.6122 26.6782 23.2135 26.6848C22.5153 26.6963 21.8162 26.7058 21.1152 26.6848C20.8052 26.6743 20.7337 26.7802 20.7423 27.0663C20.7642 27.5861 20.7547 28.1078 20.7423 28.6286C20.7346 29.0959 20.5124 29.3468 20.1309 29.3449C19.7179 29.3449 19.4633 29.0874 19.4633 28.6334C19.4576 26.853 19.4576 25.0749 19.4633 23.299C19.4633 22.8526 19.654 22.6418 20.108 22.617C20.6965 22.5798 21.2783 22.6056 21.8629 22.6056Z" fill="#FEFEFE"/>
<path d="M13.1878 25.9726C13.1878 25.3507 13.1964 24.7279 13.1878 24.1061C13.1831 23.8743 13.225 23.7579 13.495 23.7751C14.0672 23.8104 14.6395 23.7341 15.206 23.8295C15.4706 23.8691 15.723 23.9674 15.9448 24.117C16.1665 24.2667 16.3521 24.464 16.4879 24.6945C17.2719 25.9621 16.6529 27.7676 15.2995 28.0852C14.6671 28.2339 14.009 28.1348 13.3633 28.1462C13.1611 28.1462 13.1936 27.9993 13.1926 27.8772C13.1869 27.243 13.1878 26.6116 13.1878 25.9726Z" fill="#F05642"/>
<path d="M6.61751 24.857C6.66043 24.5346 6.44488 24.0349 6.70526 23.7926C6.9437 23.5704 7.43203 23.7411 7.80972 23.7296C8.00091 23.7223 8.19238 23.7316 8.38198 23.7573C9.02482 23.8527 9.43684 24.3801 9.4006 25.0525C9.38579 25.3471 9.25911 25.625 9.04641 25.8293C8.83371 26.0337 8.55104 26.1492 8.25608 26.1522C7.80018 26.1675 7.34333 26.1465 6.88743 26.1617C6.65948 26.1703 6.60798 26.073 6.61561 25.8699C6.6261 25.5542 6.61751 25.2366 6.61751 24.857Z" fill="#F05642"/>
</svg>
