<svg width="100" height="100" viewBox="0 0 100 100" fill="none" xmlns="http://www.w3.org/2000/svg">
<path d="M25.832 43.5765L30.7788 41.3712L38.9277 37.7536L48.2548 33.5772C48.3806 33.5158 48.5188 33.4839 48.6589 33.4839C48.7989 33.4839 48.9371 33.5158 49.0629 33.5772C54.0474 35.8278 59.0345 38.0683 64.024 40.2988L69.0312 42.5644H53.6849C53.446 42.542 53.205 42.5738 52.9801 42.6575C52.7552 42.7412 52.5521 42.8746 52.3859 43.0478C52.2092 43.2346 52.0959 43.4723 52.062 43.7272C52.0281 43.9821 52.0754 44.2411 52.1971 44.4676C52.2967 44.7007 52.465 44.8978 52.6796 45.0328C52.8941 45.1677 53.1447 45.234 53.3979 45.2229H68.0569L62.3096 47.7831L54.1229 51.4535C52.4463 52.2087 50.7697 52.964 49.0931 53.7192C48.9617 53.7844 48.8169 53.8183 48.6702 53.8183C48.5235 53.8183 48.3787 53.7844 48.2473 53.7192C44.4182 51.9822 40.5892 50.2678 36.7602 48.5459L26.1341 43.7426C26.051 43.7048 25.9831 43.6595 25.832 43.5765Z" fill="#007175"/>
<path d="M34.6005 50.5016L35.8467 51.0529L44.2675 54.8291C45.642 55.4483 47.0165 56.0676 48.3986 56.6643C48.5876 56.7399 48.7986 56.7399 48.9877 56.6643L58.9114 52.2613L62.4307 50.6904C62.5289 50.6904 62.6271 50.63 62.8084 50.5771V51.0831C62.8084 54.2098 62.8084 57.3289 62.8084 60.4555C62.816 60.9416 62.7034 61.422 62.4808 61.8541C62.2581 62.2863 61.9322 62.6567 61.532 62.9327C59.6184 64.3844 57.387 65.3603 55.0219 65.7799C53.4579 66.0909 51.8766 66.3078 50.2866 66.4294C46.7462 66.7196 43.1844 66.2589 39.8343 65.0775C38.0411 64.5647 36.4136 63.5908 35.1141 62.253C34.775 61.9105 34.5804 61.4509 34.5703 60.9691V50.7886C34.5703 50.7131 34.5854 50.6451 34.6005 50.5016Z" fill="#007175"/>
<path d="M71.7999 49.4905C71.7999 50.6914 71.7999 51.8846 71.7999 53.0854C71.7946 53.295 71.8413 53.5025 71.9358 53.6896C73.0548 55.6857 73.7708 57.8823 74.0429 60.1544C74.1117 60.3591 74.1342 60.5765 74.1087 60.791C74.0831 61.0054 74.0103 61.2115 73.8954 61.3944C73.7805 61.5772 73.6264 61.7323 73.4442 61.8483C73.262 61.9643 73.0564 62.0383 72.8421 62.0651C71.1568 62.636 69.3255 62.6039 67.6612 61.9745C67.4693 61.9274 67.2892 61.8409 67.1325 61.7206C66.9757 61.6002 66.8456 61.4486 66.7505 61.2754C66.6553 61.1022 66.5972 60.9111 66.5798 60.7142C66.5624 60.5173 66.586 60.319 66.6492 60.1317C66.9583 57.8778 67.6775 55.6995 68.7714 53.7047C68.861 53.5191 68.9025 53.314 68.8922 53.1081C68.8922 50.6914 68.8922 48.2746 68.8922 45.8579C68.8922 45.4652 69.0055 45.3368 69.3982 45.3519C70.0553 45.3519 70.7199 45.3519 71.3769 45.3519C71.7243 45.3519 71.815 45.4727 71.8074 45.7975C71.8074 47.0285 71.8074 48.2595 71.8074 49.4905H71.7999Z" fill="#007175"/>
<path d="M10.2124 19.281L19.396 10.037L25.6795 16.5924C27.7111 15.4142 29.584 14.2436 31.5325 13.2165C34.9596 11.4214 38.6513 10.1849 42.4683 9.55366C43.3519 9.41016 43.654 9.07786 43.6313 8.15648C43.5634 5.69443 43.6313 3.22483 43.6313 0.75523C43.6313 0.286987 43.6766 0 44.3035 0C48.2005 0 52.0975 0 55.9944 0C56.1365 0.0114249 56.2778 0.0316012 56.4174 0.0604169V3.08134C56.4174 4.93165 56.4174 6.78197 56.4174 8.63228C56.4174 9.13828 56.5533 9.38751 57.0971 9.45548C63.1628 10.5058 68.9139 12.909 73.9236 16.4867C73.9917 16.5264 74.0624 16.5617 74.1351 16.5924L80.547 10.1276L89.8589 19.4094L83.3866 25.7005C84.4817 27.5357 85.5692 29.235 86.5208 30.9871C88.4952 34.7017 89.857 38.7107 90.5538 42.8593C90.6595 43.4635 90.9087 43.5617 91.4298 43.5617C93.9598 43.5617 96.4823 43.5617 98.9821 43.5617H99.9413V56.4006H98.2722C96.0594 56.4006 93.839 56.4006 91.6262 56.4006C90.954 56.4006 90.6142 56.4837 90.4782 57.2917C89.4314 63.2143 87.0813 68.8301 83.5981 73.7331C83.5099 73.8643 83.4292 74.0005 83.3564 74.1409L89.9571 80.4773L80.7358 89.7062C80.5847 89.5703 80.3582 89.3815 80.1467 89.17C78.3392 87.3625 76.5367 85.555 74.7392 83.7475C74.4069 83.4151 74.1653 83.249 73.6819 83.5888C68.765 87.0988 63.119 89.4533 57.165 90.4765C56.946 90.5143 56.7346 90.5898 56.4098 90.6729V99.9396C56.0775 99.9396 55.8358 99.9924 55.5942 100C51.8935 100 48.1929 100 44.4923 100C43.7748 100 43.586 99.7734 43.5936 99.0937C43.5936 96.5713 43.5936 94.0412 43.5936 91.5414C43.5936 90.8542 43.3896 90.5596 42.6948 90.4388C36.8186 89.4331 31.2465 87.1092 26.397 83.6417C26.317 83.5575 26.2187 83.4929 26.1098 83.4529C26.0008 83.4129 25.884 83.3985 25.7686 83.4109C25.6532 83.4234 25.5422 83.4622 25.4442 83.5245C25.3462 83.5868 25.2639 83.6708 25.2037 83.7701C23.4289 85.5978 21.6164 87.3952 19.8189 89.2078C19.6226 89.4041 19.4186 89.5854 19.2827 89.7138L10.1897 80.6359C11.6398 79.1934 13.1502 77.7056 14.6531 76.1952C15.3026 75.5457 16.36 74.9188 16.4506 74.1862C16.5412 73.4537 15.6274 72.6758 15.144 71.8601C12.3211 67.4001 10.3993 62.4303 9.48738 57.2313C9.43252 56.9581 9.36192 56.6883 9.27591 56.4232H1.12698C0.0167911 56.4232 0.00923887 56.4232 0.00923887 55.3433V44.6567C0.0167922 44.5461 0.0167922 44.4351 0.00923887 44.3244C-0.0511795 43.7505 0.182942 43.5692 0.764469 43.5692C3.3398 43.5692 5.92269 43.5692 8.50558 43.5692C9.15507 43.5692 9.38164 43.3426 9.47982 42.746C10.4725 36.9284 12.7536 31.4063 16.1561 26.5841C16.5865 25.9573 16.5941 25.6023 16.0277 25.0736C14.2453 23.3744 12.5234 21.5996 10.7788 19.855C10.5749 19.636 10.3785 19.4094 10.2124 19.281ZM80.7131 50.0717C80.8793 33.3661 67.119 19.3414 50.1414 19.2584C44.0519 19.221 38.0883 20.9919 33.0062 24.3468C27.924 27.7017 23.952 32.4895 21.5933 38.1038C19.2346 43.718 18.5953 49.9061 19.7566 55.8839C20.9178 61.8618 23.8272 67.3605 28.1162 71.6835C32.4052 76.0064 37.8809 78.959 43.8494 80.1673C49.818 81.3755 56.0108 80.785 61.6435 78.4706C67.2762 76.1562 72.0951 72.222 75.4899 67.1664C78.8847 62.1108 80.7025 56.1614 80.7131 50.0717Z" fill="#D8D8D8"/>
</svg>
