<svg width="100" height="100" viewBox="0 0 100 100" fill="none" xmlns="http://www.w3.org/2000/svg">
<g clip-path="url(#clip0_574_4499)">
<path d="M0 0H24.8328V9.30792H12.5161V15.5601H24.8152V21.7419H12.5513V27.9648H24.8211V34.1877H12.5513V40.434H24.8094V46.6334H12.5337V52.9032H24.8152V59.1085H12.4985V65.3372H24.6334C24.7625 65.478 24.8387 65.5308 24.8387 65.5777C24.8387 68.7918 24.8192 72.0078 24.7801 75.2258L24.8152 75.1847C24.5572 75.1847 24.305 75.1144 24.0469 75.1144H0.768328C0.510875 75.1272 0.254356 75.1546 0 75.1965L0 0Z" fill="#D0D8DC"/>
<path d="M24.7812 75.2258C26.1126 75.1848 27.4381 75.1261 28.7695 75.1144C30.529 75.1144 32.3296 75.1144 34.2006 75.1144V87.4663H40.4176V75.1789H46.6581V87.4956H52.8927V75.1789H59.1038V87.4604H65.3619V75.1848H71.5554V87.4546H77.7725V75.173H83.9895V87.4546H90.2358V75.1848H100.001V100H24.8047C24.8466 99.7456 24.874 99.4891 24.8868 99.2317C24.8868 91.4741 24.8868 83.7146 24.8868 75.9531C24.8868 75.695 24.8399 75.4428 24.8164 75.1848L24.7812 75.2258Z" fill="#D0D8DC"/>
<path d="M59.3093 64.0762C58.2184 63.4428 57.2741 62.9032 56.3181 62.3167C50.6954 59.0909 45.0649 55.8514 39.4266 52.5982C38.9867 52.3519 38.6583 52.1407 38.6641 51.5132C38.6641 43.9648 38.6641 36.4164 38.6641 28.868C38.6641 28.7448 38.6641 28.6275 38.7169 28.4164C39.0278 28.5689 39.3034 28.6803 39.5322 28.8211C45.9095 32.4926 52.2829 36.1622 58.6524 39.8299C58.8722 39.9201 59.0595 40.075 59.1894 40.2739C59.3192 40.4729 59.3856 40.7067 59.3797 40.9442C59.3562 48.4594 59.3562 55.9765 59.3797 63.4956C59.3504 63.6187 59.3328 63.7478 59.3093 64.0762Z" fill="#007175"/>
<path d="M83.0676 22.956L71.9884 29.3548C69.0559 31.0616 66.0822 32.78 63.1086 34.4575C62.9395 34.5524 62.752 34.6099 62.5587 34.626C62.3655 34.6422 62.171 34.6167 61.9884 34.5513C55.2963 30.7331 48.6277 26.8739 41.8594 22.9677C42.1585 22.7683 42.3755 22.5982 42.6101 22.4633C48.9718 18.7879 55.3335 15.1104 61.6952 11.4311C61.8961 11.275 62.1404 11.1851 62.3946 11.1735C62.6487 11.162 62.9002 11.2294 63.1145 11.3665C69.5779 15.128 76.051 18.8739 82.5339 22.6041C82.6981 22.6803 82.8037 22.78 83.0676 22.956Z" fill="#007175"/>
<path d="M86.152 28.4634C86.152 28.8446 86.1989 29.132 86.2048 29.4135C86.2048 36.7058 86.2048 43.9961 86.2048 51.2845C86.2465 51.535 86.209 51.7922 86.0976 52.0203C85.9861 52.2485 85.8063 52.4362 85.5831 52.5572C79.0924 56.2757 72.6134 60.0079 66.1462 63.7537C66.0113 63.8299 65.8705 63.8886 65.6359 64.0059C65.6359 63.6364 65.5714 63.3607 65.5714 63.0851C65.5714 55.7576 65.5714 48.436 65.5714 41.1203C65.5348 40.8683 65.5772 40.6112 65.6927 40.3844C65.8083 40.1575 65.9913 39.972 66.2165 39.8534C72.6212 36.1877 79.0025 32.4868 85.3954 28.8036C85.6413 28.6767 85.8939 28.5631 86.152 28.4634Z" fill="#007175"/>
</g>
<defs>
<clipPath id="clip0_574_4499">
<rect width="100" height="100" fill="white"/>
</clipPath>
</defs>
</svg>
