<svg width="26" height="23" viewBox="0 0 26 23" fill="none" xmlns="http://www.w3.org/2000/svg">
<path d="M0.455911 11.0398L6.43344 13.3002L8.76364 20.9031C8.86496 21.4168 9.47284 21.5195 9.8781 21.2113L13.2214 18.4373C13.5254 18.129 14.032 18.129 14.4372 18.4373L20.4147 22.8552C20.82 23.1634 21.4279 22.9579 21.5292 22.4442L25.987 0.868327C26.0883 0.354615 25.5817 -0.159092 25.0751 0.0463928L0.455911 9.70417C-0.15197 9.90966 -0.15197 10.8343 0.455911 11.0398ZM8.45971 12.17L20.2121 4.87528C20.4147 4.77254 20.6173 5.08077 20.4147 5.18351L10.7899 14.3276C10.486 14.6358 10.182 15.0468 10.182 15.5605L9.8781 18.0263C9.8781 18.3345 9.37152 18.4373 9.27021 18.0263L8.05443 13.5056C7.75049 12.9919 7.95315 12.3755 8.45971 12.17Z" fill="#53FFF5"/>
</svg>
