<svg width="34" height="34" viewBox="0 0 34 34" fill="none" xmlns="http://www.w3.org/2000/svg">
<circle cx="17" cy="17" r="17" fill="#009297"/>
<path d="M7.948 17.3172L11.8564 18.7745L13.38 23.6766C13.4462 24.0078 13.8437 24.074 14.1087 23.8753L16.2947 22.0867C16.4934 21.888 16.8246 21.888 17.0896 22.0867L20.998 24.9352C21.263 25.1339 21.6604 25.0014 21.7267 24.6702L24.6414 10.7591C24.7076 10.4279 24.3764 10.0966 24.0452 10.2291L7.948 16.456C7.55054 16.5885 7.55054 17.1847 7.948 17.3172ZM13.1813 18.0459L20.8655 13.3426C20.998 13.2763 21.1305 13.4751 20.998 13.5413L14.7048 19.437C14.5061 19.6357 14.3074 19.9007 14.3074 20.2319L14.1087 21.8217C14.1087 22.0205 13.7774 22.0867 13.7112 21.8217L12.9163 18.907C12.7175 18.5758 12.85 18.1784 13.1813 18.0459Z" fill="white"/>
</svg>
