<svg width="111" height="100" viewBox="0 0 111 100" fill="none" xmlns="http://www.w3.org/2000/svg">
<path fill-rule="evenodd" clip-rule="evenodd" d="M81.0185 62.3981H110.986V68.1423H81.0185V62.3981Z" fill="#007175"/>
<path fill-rule="evenodd" clip-rule="evenodd" d="M0 62.3216H18.5806L21.5076 67.4049L30.2971 0.759753C31.3132 -0.253251 32.2521 -0.253251 33.1621 0.759753L39.7427 62.3219L45.9656 24.0861C46.8391 23.2083 47.7912 23.2083 48.8218 24.0861L55.0672 62.306L72.5481 62.3685L72.5584 68.1352H49.3563L47.3373 55.1402L41.1496 99.1222C40.2352 100.01 39.2888 100.01 38.311 99.1222L31.1927 44.1289L25.7735 83.1699C24.8851 83.9683 23.9459 84.0743 22.9324 83.1699L13.819 68.1352H0V62.3222L0 62.3216Z" fill="#007175"/>
<path fill-rule="evenodd" clip-rule="evenodd" d="M82.8622 42.992C87.7817 42.992 91.7943 47.0244 91.7943 51.968C91.7943 56.9117 87.782 60.9438 82.8622 60.9438C82.8608 60.9438 82.8591 60.9438 82.8579 60.9438V55.1944C82.8591 55.1944 82.8608 55.1944 82.8622 55.1944C84.6305 55.1944 86.0731 53.7447 86.0731 51.9678C86.0731 50.1908 84.6308 48.7411 82.8622 48.7411C81.1058 48.7411 79.6709 50.1711 79.6516 51.9318H79.6525V52.0355C79.6525 52.0425 79.6525 52.05 79.6525 52.057V60.342V68.1347H73.9371V52.315C73.9325 52.1997 73.9301 52.0839 73.9301 51.9678C73.9301 47.0241 77.9425 42.9918 82.8622 42.9918V42.992Z" fill="#007175"/>
<path fill-rule="evenodd" clip-rule="evenodd" d="M102.068 43.0384C97.1487 43.0384 93.1361 47.0704 93.1361 52.0141C93.1361 56.9578 97.1484 60.9898 102.068 60.9898C102.07 60.9898 102.071 60.9898 102.072 60.9898V55.2405C102.071 55.2405 102.069 55.2405 102.068 55.2405C100.3 55.2405 98.8573 53.7911 98.8573 52.0138C98.8573 50.2369 100.3 48.7872 102.068 48.7872C103.825 48.7872 105.259 50.2172 105.279 51.9779H105.278V52.0816C105.278 52.0885 105.278 52.0958 105.278 52.1027V60.388V60.989H110.993V52.361C110.998 52.2458 111 52.1302 111 52.0138C111 47.0701 106.988 43.0381 102.068 43.0381V43.0384Z" fill="#007175"/>
<path fill-rule="evenodd" clip-rule="evenodd" d="M54.6485 52.0144C54.6485 47.0707 58.6608 43.0387 63.5809 43.0387C68.4842 43.0387 72.4859 47.0449 72.5118 51.9666C72.5118 51.9738 72.5121 51.9814 72.5121 51.9883C72.5121 51.9967 72.5124 52.0057 72.5124 52.0144L64.025 53.745L63.7103 52.9498C63.7103 52.9489 65.5722 51.812 66.6699 51.1398C66.2886 49.7857 65.0474 48.7877 63.5806 48.7877C61.8117 48.7877 60.3694 50.2374 60.3694 52.0144C60.3694 53.7795 61.7927 55.2214 63.5446 55.2405V55.2399H63.6477C63.6546 55.2396 63.6621 55.2399 63.6688 55.2399H71.9135H72.5112V60.9834H63.9252C63.8108 60.9878 63.6956 60.9904 63.5803 60.9904C58.6605 60.9904 54.6479 56.9581 54.6479 52.0144H54.6485Z" fill="#007175"/>
</svg>
