<svg width="1052" height="607" viewBox="0 0 1052 607" fill="none" xmlns="http://www.w3.org/2000/svg">
<g id="Group 1409">
<rect id="Rectangle 408" width="1052" height="607" fill="#D9D9D9"/>
<g id="Layer 1">
<path id="Vector" d="M482.411 55.1385L527.395 10.154C528.538 10.8024 529.877 11.0144 531.165 10.7508C532.452 10.4872 533.6 9.76581 534.396 8.72035C535.192 7.67488 535.582 6.37627 535.493 5.06525C535.405 3.75424 534.844 2.51973 533.915 1.5906C532.986 0.661462 531.751 0.100716 530.44 0.0123116C529.129 -0.076093 527.831 0.31384 526.785 1.10982C525.74 1.90581 525.019 3.05385 524.755 4.34114C524.491 5.62842 524.703 6.96762 525.352 8.11048L481.207 52.2272H279.633C279.293 50.9537 278.502 49.8472 277.406 49.114C276.311 48.3808 274.986 48.071 273.68 48.2423C272.373 48.4136 271.173 49.0544 270.303 50.0451C269.434 51.0358 268.955 52.3088 268.955 53.6269C268.955 54.9449 269.434 56.218 270.303 57.2087C271.173 58.1994 272.373 58.8401 273.68 59.0114C274.986 59.1827 276.311 58.8729 277.406 58.1397C278.502 57.4065 279.293 56.3 279.633 55.0265L482.411 55.1385Z" fill="#055984"/>
<path id="Vector_2" d="M453.299 75.4337C452.285 75.4276 451.289 75.7055 450.425 76.2359C449.561 76.7664 448.863 77.5282 448.409 78.4351C447.955 79.342 447.765 80.3578 447.859 81.3675C447.953 82.3772 448.328 83.3403 448.941 84.148C449.554 84.9556 450.381 85.5755 451.328 85.9373C452.275 86.2992 453.305 86.3886 454.3 86.1954C455.296 86.0023 456.217 85.5343 456.961 84.8444C457.704 84.1545 458.239 83.2703 458.506 82.292H536.885L600.148 18.9161H833.411C833.751 20.1897 834.542 21.2962 835.637 22.0293C836.732 22.7625 838.057 23.0724 839.364 22.9011C840.671 22.7298 841.87 22.089 842.74 21.0983C843.609 20.1076 844.089 18.8345 844.089 17.5165C844.089 16.1985 843.609 14.9254 842.74 13.9347C841.87 12.944 840.671 12.3033 839.364 12.132C838.057 11.9606 836.732 12.2705 835.637 13.0037C834.542 13.7368 833.751 14.8434 833.411 16.1169H598.945L535.541 79.4087H458.506C458.193 78.2674 457.514 77.2602 456.573 76.5421C455.633 75.824 454.482 75.4346 453.299 75.4337V75.4337Z" fill="#055984"/>
<path id="Vector_3" d="M623.102 57.3224C622.088 57.3162 621.092 57.5941 620.228 58.1246C619.364 58.655 618.665 59.4168 618.212 60.3237C617.758 61.2307 617.568 62.2465 617.662 63.2561C617.756 64.2658 618.13 65.229 618.743 66.0366C619.357 66.8443 620.184 67.4641 621.131 67.826C622.078 68.1878 623.108 68.2772 624.103 68.0841C625.099 67.8909 626.02 67.4229 626.763 66.733C627.507 66.0431 628.042 65.159 628.308 64.1806H897.793L939.782 106.17H1225.31C1225.65 107.443 1226.44 108.55 1227.53 109.283C1228.63 110.016 1229.95 110.326 1231.26 110.155C1232.57 109.984 1233.77 109.343 1234.64 108.352C1235.51 107.361 1235.98 106.088 1235.98 104.77C1235.98 103.452 1235.51 102.179 1234.64 101.188C1233.77 100.198 1232.57 99.557 1231.26 99.3857C1229.95 99.2144 1228.63 99.5242 1227.53 100.257C1226.44 100.991 1225.65 102.097 1225.31 103.371H940.818L898.829 61.3813H628.14C627.851 60.2516 627.204 59.2457 626.296 58.5142C625.388 57.7826 624.267 57.3645 623.102 57.3224V57.3224Z" fill="#055984"/>
<path id="Vector_4" d="M976.286 90.8009C977.473 90.7984 978.626 90.405 979.567 89.6814C980.508 88.9579 981.185 87.9445 981.492 86.798H1270.29L1331.43 25.6895H1530.74C1531.08 26.963 1531.87 28.0695 1532.96 28.8027C1534.06 29.5359 1535.38 29.8457 1536.69 29.6744C1538 29.5031 1539.2 28.8624 1540.06 27.8717C1540.93 26.881 1541.41 25.6079 1541.41 24.2899C1541.41 22.9718 1540.93 21.6988 1540.06 20.7081C1539.2 19.7174 1538 19.0766 1536.69 18.9053C1535.38 18.734 1534.06 19.0439 1532.96 19.777C1531.87 20.5102 1531.08 21.6167 1530.74 22.8902H1330.22L1269.09 83.9987H981.492C981.221 83.0302 980.685 82.1565 979.945 81.4761C979.204 80.7956 978.289 80.3354 977.301 80.1472C976.313 79.9589 975.292 80.0502 974.353 80.4106C973.414 80.7711 972.595 81.3865 971.986 82.1875C971.378 82.9885 971.006 83.9433 970.911 84.9445C970.816 85.9458 971.003 86.9536 971.449 87.8546C971.896 88.7555 972.586 89.5139 973.44 90.0444C974.294 90.5748 975.28 90.8562 976.286 90.8569V90.8009Z" fill="#055984"/>
<path id="Vector_5" d="M530.783 557.946L471.102 498.293H297.744C297.404 497.02 296.613 495.913 295.518 495.18C294.423 494.447 293.098 494.137 291.791 494.309C290.484 494.48 289.284 495.121 288.415 496.111C287.546 497.102 287.066 498.375 287.066 499.693C287.066 501.011 287.546 502.284 288.415 503.275C289.284 504.266 290.484 504.906 291.791 505.078C293.098 505.249 294.423 504.939 295.518 504.206C296.613 503.473 297.404 502.366 297.744 501.093H469.899L528.683 559.878C528.035 561.021 527.823 562.36 528.086 563.647C528.35 564.934 529.071 566.082 530.117 566.878C531.162 567.674 532.461 568.064 533.772 567.976C535.083 567.888 536.317 567.327 537.247 566.398C538.176 565.468 538.736 564.234 538.825 562.923C538.913 561.612 538.523 560.313 537.727 559.268C536.931 558.222 535.783 557.501 534.496 557.237C533.209 556.974 531.87 557.186 530.727 557.834L530.783 557.946Z" fill="#055984"/>
<path id="Vector_6" d="M834.082 545.882C835.095 545.886 836.088 545.608 836.951 545.078C837.813 544.548 838.511 543.787 838.964 542.882C839.417 541.976 839.608 540.962 839.515 539.954C839.422 538.946 839.05 537.983 838.439 537.176C837.829 536.368 837.004 535.747 836.06 535.383C835.115 535.019 834.087 534.927 833.092 535.116C832.098 535.305 831.176 535.769 830.431 536.454C829.686 537.14 829.147 538.02 828.876 538.995H550.321L517.542 506.216C518.19 505.073 518.402 503.734 518.138 502.446C517.875 501.159 517.153 500.011 516.108 499.215C515.063 498.419 513.764 498.029 512.453 498.118C511.142 498.206 509.907 498.767 508.978 499.696C508.049 500.625 507.488 501.859 507.4 503.17C507.312 504.482 507.702 505.78 508.498 506.826C509.293 507.871 510.442 508.592 511.729 508.856C513.016 509.12 514.355 508.908 515.498 508.259L549.089 541.851H828.848C829.151 543.007 829.83 544.03 830.777 544.76C831.724 545.489 832.887 545.884 834.082 545.882V545.882Z" fill="#055984"/>
<path id="Vector_7" d="M1425.09 586.079C1426.1 586.083 1427.1 585.805 1427.96 585.275C1428.82 584.745 1429.52 583.984 1429.97 583.079C1430.43 582.173 1430.62 581.159 1430.52 580.151C1430.43 579.143 1430.06 578.181 1429.45 577.373C1428.84 576.565 1428.01 575.944 1427.07 575.581C1426.12 575.217 1425.1 575.124 1424.1 575.313C1423.11 575.502 1422.18 575.966 1421.44 576.651C1420.69 577.337 1420.16 578.217 1419.88 579.192H1132.76L1071.18 517.608H935.219L886.54 566.288H807.153C806.813 565.007 806.019 563.893 804.918 563.154C803.817 562.416 802.486 562.103 801.171 562.275C799.857 562.446 798.65 563.09 797.775 564.086C796.901 565.082 796.418 566.362 796.418 567.687C796.418 569.013 796.901 570.293 797.775 571.289C798.65 572.285 799.857 572.929 801.171 573.1C802.486 573.272 803.817 572.959 804.918 572.22C806.019 571.482 806.813 570.368 807.153 569.087H887.632L936.311 520.407H1069.84L1131.42 581.992H1419.74C1420.05 583.175 1420.74 584.222 1421.71 584.963C1422.68 585.705 1423.87 586.098 1425.09 586.079V586.079Z" fill="#055984"/>
<path id="Vector_8" d="M166.99 473.436C168.172 473.43 169.32 473.039 170.26 472.322C171.2 471.604 171.88 470.6 172.196 469.461H491.453L582.038 378.876H785.796L847.744 316.928C848.886 317.576 850.226 317.788 851.513 317.524C852.8 317.261 853.948 316.539 854.744 315.494C855.54 314.449 855.93 313.15 855.842 311.839C855.753 310.528 855.193 309.293 854.263 308.364C853.334 307.435 852.1 306.874 850.789 306.786C849.478 306.698 848.179 307.088 847.134 307.884C846.088 308.679 845.367 309.828 845.103 311.115C844.84 312.402 845.052 313.741 845.7 314.884L784.592 375.993H580.834L490.278 466.55H172.28C172.01 465.578 171.474 464.7 170.733 464.016C169.992 463.331 169.074 462.867 168.084 462.674C167.094 462.482 166.069 462.569 165.126 462.927C164.182 463.284 163.357 463.897 162.742 464.697C162.128 465.497 161.748 466.452 161.646 467.456C161.544 468.46 161.723 469.472 162.164 470.379C162.605 471.287 163.291 472.053 164.143 472.593C164.995 473.133 165.981 473.425 166.99 473.436Z" fill="#055984"/>
<path id="Vector_9" d="M1072.13 485.305L1117.4 530.569H1463.81L1508.59 575.358L1577.06 506.691H1820.6C1820.94 507.972 1821.73 509.086 1822.83 509.824C1823.93 510.563 1825.27 510.876 1826.58 510.704C1827.9 510.533 1829.1 509.889 1829.98 508.893C1830.85 507.897 1831.33 506.617 1831.33 505.292C1831.33 503.966 1830.85 502.686 1829.98 501.69C1829.1 500.694 1827.9 500.05 1826.58 499.879C1825.27 499.707 1823.93 500.02 1822.83 500.759C1821.73 501.497 1820.94 502.611 1820.6 503.892H1575.94L1508.62 571.215L1465.01 527.686H1118.6L1073.31 482.393H862.775L783.528 403.118H589.903L540.524 452.665C539.381 452.016 538.042 451.804 536.755 452.068C535.468 452.332 534.32 453.053 533.524 454.099C532.728 455.144 532.338 456.443 532.426 457.754C532.515 459.065 533.075 460.299 534.004 461.228C534.934 462.157 536.168 462.718 537.479 462.807C538.79 462.895 540.089 462.505 541.134 461.709C542.18 460.913 542.901 459.765 543.165 458.478C543.428 457.19 543.216 455.851 542.568 454.708L591.219 406.057H782.464L861.712 485.305H1072.13Z" fill="#055984"/>
<path id="Vector_10" d="M801.835 500.253C802.537 500.997 803.435 501.527 804.426 501.783C805.416 502.039 806.459 502.009 807.434 501.699C808.408 501.388 809.275 500.808 809.935 500.026C810.594 499.243 811.019 498.291 811.161 497.278C811.303 496.265 811.156 495.232 810.736 494.299C810.317 493.366 809.643 492.57 808.791 492.003C807.939 491.437 806.945 491.122 805.922 491.096C804.899 491.07 803.89 491.333 803.01 491.855L778.993 467.838H595.557L572.099 491.296C570.956 490.647 569.617 490.435 568.33 490.699C567.043 490.962 565.895 491.684 565.099 492.729C564.303 493.775 563.913 495.073 564.001 496.384C564.089 497.695 564.65 498.93 565.579 499.859C566.508 500.788 567.743 501.349 569.054 501.437C570.365 501.526 571.664 501.136 572.709 500.34C573.754 499.544 574.476 498.396 574.739 497.108C575.003 495.821 574.791 494.482 574.143 493.339L596.733 470.721H777.789L800.967 493.899C800.418 494.913 800.207 496.075 800.363 497.218C800.519 498.36 801.034 499.423 801.835 500.253V500.253Z" fill="#055984"/>
<path id="Vector_11" d="M974.41 164.87L890.432 81.1995H615.265L585.928 110.536H298.332C297.992 109.255 297.198 108.141 296.097 107.403C294.996 106.664 293.665 106.351 292.35 106.523C291.036 106.694 289.829 107.338 288.954 108.334C288.08 109.33 287.597 110.61 287.597 111.936C287.597 113.261 288.08 114.541 288.954 115.537C289.829 116.533 291.036 117.177 292.35 117.348C293.665 117.52 294.996 117.207 296.097 116.469C297.198 115.73 297.992 114.616 298.332 113.335H587.132L616.552 83.9987H889.312L973.066 167.753H1341.11L1406.45 102.418C1407.59 103.066 1408.93 103.279 1410.22 103.015C1411.5 102.751 1412.65 102.03 1413.45 100.984C1414.24 99.939 1414.63 98.6404 1414.55 97.3294C1414.46 96.0183 1413.9 94.7838 1412.97 93.8547C1412.04 92.9255 1410.8 92.3648 1409.49 92.2764C1408.18 92.188 1406.88 92.5779 1405.84 93.3739C1404.79 94.1699 1404.07 95.3179 1403.81 96.6052C1403.54 97.8925 1403.76 99.2317 1404.4 100.375L1340.02 164.758L974.41 164.87Z" fill="#055984"/>
<path id="Vector_12" d="M553.737 172.849C553.024 172.128 552.124 171.621 551.139 171.385C550.153 171.15 549.121 171.194 548.159 171.515C547.198 171.835 546.345 172.418 545.697 173.197C545.05 173.977 544.633 174.922 544.495 175.926C544.357 176.93 544.502 177.953 544.915 178.879C545.328 179.804 545.991 180.596 546.831 181.164C547.67 181.732 548.651 182.054 549.664 182.094C550.677 182.133 551.68 181.888 552.561 181.387L570.924 199.75H859.92L906.192 153.478H925.087C925.427 154.759 926.221 155.873 927.322 156.611C928.423 157.35 929.754 157.662 931.069 157.491C932.383 157.32 933.59 156.676 934.465 155.68C935.339 154.684 935.822 153.404 935.822 152.078C935.822 150.753 935.339 149.473 934.465 148.477C933.59 147.481 932.383 146.837 931.069 146.665C929.754 146.494 928.423 146.807 927.322 147.545C926.221 148.284 925.427 149.397 925.087 150.679H905.016L858.744 196.867H572.128L554.521 179.343C555.118 178.324 555.365 177.137 555.223 175.964C555.082 174.791 554.56 173.697 553.737 172.849Z" fill="#055984"/>
<path id="Vector_13" d="M584.865 158.655L564.486 138.277H367.362C367.022 136.995 366.228 135.882 365.127 135.143C364.026 134.405 362.694 134.092 361.38 134.263C360.066 134.435 358.859 135.079 357.984 136.075C357.109 137.071 356.627 138.351 356.627 139.676C356.627 141.002 357.109 142.282 357.984 143.278C358.859 144.274 360.066 144.918 361.38 145.089C362.694 145.26 364.026 144.948 365.127 144.209C366.228 143.471 367.022 142.357 367.362 141.076H563.31L583.689 161.455H829.408L854.602 136.261C855.631 136.854 856.826 137.092 858.004 136.941C859.182 136.789 860.278 136.255 861.124 135.421C862.145 134.4 862.718 133.016 862.718 131.572C862.718 130.129 862.145 128.744 861.124 127.723C860.103 126.702 858.718 126.129 857.275 126.129C855.831 126.129 854.447 126.702 853.426 127.723C852.59 128.561 852.052 129.651 851.895 130.824C851.738 131.997 851.971 133.189 852.558 134.218L828.26 158.543L584.865 158.655Z" fill="#055984"/>
<path id="Vector_14" d="M491.761 182.171C491.046 181.455 490.146 180.952 489.161 180.72C488.177 180.489 487.147 180.536 486.188 180.858C485.229 181.18 484.379 181.764 483.734 182.543C483.089 183.322 482.674 184.266 482.537 185.268C482.399 186.27 482.544 187.291 482.955 188.215C483.367 189.139 484.028 189.93 484.865 190.498C485.701 191.067 486.68 191.39 487.691 191.432C488.702 191.474 489.704 191.233 490.585 190.736L564.122 264.274H893.903L954.283 203.893C955.426 204.525 956.757 204.724 958.035 204.454C959.312 204.183 960.449 203.462 961.238 202.421C962.027 201.381 962.414 200.091 962.33 198.788C962.245 197.486 961.694 196.257 960.777 195.327C959.827 194.518 958.627 194.061 957.379 194.033C956.131 194.005 954.912 194.408 953.926 195.174C952.941 195.939 952.249 197.021 951.967 198.237C951.685 199.453 951.831 200.728 952.379 201.85L892.699 261.39H565.325L492.544 188.609C493.098 187.587 493.32 186.418 493.18 185.265C493.039 184.111 492.543 183.03 491.761 182.171Z" fill="#055984"/>
<path id="Vector_15" d="M1580.65 88.0303C1579.46 88.0311 1578.31 88.4205 1577.37 89.1387C1576.43 89.8568 1575.75 90.8639 1575.44 92.0053H1459.41L1368.15 183.29H937.683L884.189 236.756H576.27L508.444 168.846H114.737C114.397 167.565 113.602 166.451 112.502 165.712C111.401 164.974 110.069 164.661 108.755 164.833C107.44 165.004 106.233 165.648 105.359 166.644C104.484 167.64 104.002 168.92 104.002 170.245C104.002 171.571 104.484 172.851 105.359 173.847C106.233 174.843 107.44 175.487 108.755 175.658C110.069 175.829 111.401 175.517 112.502 174.778C113.602 174.04 114.397 172.926 114.737 171.645H507.24L575.15 239.584H885.393L938.887 186.173H1369.33L1460.61 94.8885H1575.38C1575.65 95.857 1576.19 96.7307 1576.93 97.4111C1577.67 98.0916 1578.59 98.5518 1579.57 98.74C1580.56 98.9283 1581.58 98.837 1582.52 98.4766C1583.46 98.1161 1584.28 97.5007 1584.89 96.6997C1585.5 95.8987 1585.87 94.9439 1585.96 93.9426C1586.06 92.9414 1585.87 91.9336 1585.43 91.0326C1584.98 90.1316 1584.29 89.3733 1583.44 88.8428C1582.58 88.3124 1581.6 88.031 1580.59 88.0303H1580.65Z" fill="#055984"/>
<path id="Vector_16" d="M814.376 384.251C813.663 383.53 812.763 383.023 811.777 382.787C810.792 382.551 809.76 382.596 808.798 382.916C807.837 383.236 806.984 383.819 806.336 384.599C805.689 385.379 805.272 386.324 805.134 387.328C804.996 388.332 805.141 389.355 805.554 390.28C805.967 391.206 806.63 391.998 807.469 392.566C808.309 393.134 809.29 393.456 810.303 393.495C811.316 393.535 812.319 393.29 813.2 392.788L868.933 448.522H1136.77L1235.19 349.931H1437.91C1438.25 351.205 1439.04 352.311 1440.14 353.045C1441.23 353.778 1442.56 354.088 1443.86 353.916C1445.17 353.745 1446.37 353.104 1447.24 352.114C1448.11 351.123 1448.59 349.85 1448.59 348.532C1448.59 347.214 1448.11 345.941 1447.24 344.95C1446.37 343.959 1445.17 343.318 1443.86 343.147C1442.56 342.976 1441.23 343.286 1440.14 344.019C1439.04 344.752 1438.25 345.859 1437.91 347.132H1233.99L1135.51 445.611H870.109L815.243 390.745C815.83 389.717 816.063 388.525 815.906 387.351C815.75 386.178 815.212 385.089 814.376 384.251V384.251Z" fill="#055984"/>
<path id="Vector_17" d="M577.922 285.996C577.582 284.722 576.791 283.616 575.696 282.883C574.601 282.149 573.276 281.84 571.969 282.011C570.662 282.182 569.462 282.823 568.593 283.814C567.724 284.804 567.244 286.077 567.244 287.395C567.244 288.714 567.724 289.987 568.593 290.977C569.462 291.968 570.662 292.609 571.969 292.78C573.276 292.951 574.601 292.641 575.696 291.908C576.791 291.175 577.582 290.069 577.922 288.795H806.594L759.706 335.935C758.563 335.287 757.224 335.075 755.937 335.338C754.65 335.602 753.502 336.323 752.706 337.369C751.91 338.414 751.52 339.713 751.608 341.024C751.697 342.335 752.257 343.569 753.186 344.498C754.115 345.428 755.35 345.988 756.661 346.077C757.972 346.165 759.271 345.775 760.316 344.979C761.362 344.183 762.083 343.035 762.347 341.748C762.61 340.461 762.398 339.121 761.75 337.979L813.592 286.136L577.922 285.996Z" fill="#055984"/>
<path id="Vector_18" d="M923.772 293.134L843.293 373.642L887.633 417.955H1126.55L1221.33 323.171C1222.48 323.819 1223.82 324.031 1225.1 323.768C1226.39 323.504 1227.54 322.783 1228.33 321.737C1229.13 320.692 1229.52 319.393 1229.43 318.082C1229.34 316.771 1228.78 315.537 1227.85 314.607C1226.92 313.678 1225.69 313.118 1224.38 313.029C1223.07 312.941 1221.77 313.331 1220.72 314.127C1219.68 314.923 1218.96 316.071 1218.69 317.358C1218.43 318.645 1218.64 319.984 1219.29 321.127L1125.35 415.071H888.809L847.38 373.642L930.742 290.251H840.913L799.624 331.541C798.481 330.892 797.142 330.68 795.855 330.944C794.568 331.207 793.42 331.929 792.624 332.974C791.828 334.02 791.438 335.318 791.526 336.629C791.615 337.94 792.175 339.175 793.104 340.104C794.034 341.033 795.268 341.594 796.579 341.682C797.89 341.771 799.189 341.381 800.234 340.585C801.28 339.789 802.001 338.641 802.265 337.354C802.528 336.066 802.316 334.727 801.668 333.584L842.089 293.134H923.772Z" fill="#055984"/>
<path id="Vector_19" d="M728.074 324.57C728.414 325.843 729.205 326.95 730.301 327.683C731.396 328.416 732.721 328.726 734.027 328.555C735.334 328.383 736.534 327.743 737.404 326.752C738.273 325.761 738.752 324.488 738.752 323.17C738.752 321.852 738.273 320.579 737.404 319.588C736.534 318.598 735.334 317.957 734.027 317.786C732.721 317.614 731.396 317.924 730.301 318.657C729.205 319.39 728.414 320.497 728.074 321.77H576.354L465.979 211.283H11.6176C11.2779 210.009 10.4867 208.903 9.39138 208.169C8.2961 207.436 6.97155 207.126 5.66471 207.298C4.35786 207.469 3.15791 208.11 2.2886 209.1C1.41929 210.091 0.939941 211.364 0.939941 212.682C0.939941 214 1.41929 215.273 2.2886 216.264C3.15791 217.255 4.35786 217.895 5.66471 218.067C6.97155 218.238 8.2961 217.928 9.39138 217.195C10.4867 216.462 11.2779 215.355 11.6176 214.082H464.944L575.291 324.458L728.074 324.57Z" fill="#055984"/>
<path id="Vector_20" d="M302.838 430.355C302.498 429.082 301.707 427.975 300.612 427.242C299.517 426.509 298.192 426.199 296.885 426.37C295.578 426.542 294.378 427.182 293.509 428.173C292.64 429.164 292.16 430.437 292.16 431.755C292.16 433.073 292.64 434.346 293.509 435.337C294.378 436.327 295.578 436.968 296.885 437.139C298.192 437.311 299.517 437.001 300.612 436.268C301.707 435.535 302.498 434.428 302.838 433.155H498.255L561.602 369.779C562.745 370.427 564.084 370.639 565.371 370.376C566.659 370.112 567.807 369.391 568.603 368.345C569.399 367.3 569.788 366.001 569.7 364.69C569.612 363.379 569.051 362.144 568.122 361.215C567.193 360.286 565.958 359.725 564.647 359.637C563.336 359.549 562.038 359.939 560.992 360.735C559.947 361.531 559.225 362.679 558.962 363.966C558.698 365.253 558.91 366.592 559.558 367.735L497.051 430.355H302.838Z" fill="#055984"/>
<path id="Vector_21" d="M980.148 217.246L943.954 253.441C942.811 252.793 941.472 252.581 940.185 252.844C938.897 253.108 937.749 253.829 936.953 254.875C936.157 255.92 935.767 257.219 935.856 258.53C935.944 259.841 936.505 261.075 937.434 262.005C938.363 262.934 939.598 263.494 940.909 263.583C942.22 263.671 943.518 263.281 944.564 262.485C945.609 261.689 946.331 260.541 946.594 259.254C946.858 257.967 946.646 256.628 945.997 255.485L981.352 220.13H1394.8L1431.42 183.515C1432.56 184.163 1433.9 184.376 1435.19 184.112C1436.47 183.848 1437.62 183.127 1438.42 182.081C1439.21 181.036 1439.6 179.737 1439.52 178.426C1439.43 177.115 1438.87 175.881 1437.94 174.952C1437.01 174.023 1435.77 173.462 1434.46 173.373C1433.15 173.285 1431.85 173.675 1430.81 174.471C1429.76 175.267 1429.04 176.415 1428.78 177.702C1428.51 178.989 1428.73 180.329 1429.37 181.472L1393.63 217.246H980.148Z" fill="#055984"/>
<path id="Vector_22" d="M1366.7 284.82C1367.71 284.825 1368.7 284.546 1369.57 284.016C1370.43 283.486 1371.13 282.725 1371.58 281.82C1372.03 280.914 1372.22 279.9 1372.13 278.892C1372.04 277.884 1371.67 276.922 1371.05 276.114C1370.44 275.306 1369.62 274.686 1368.68 274.322C1367.73 273.958 1366.7 273.865 1365.71 274.054C1364.71 274.244 1363.79 274.707 1363.05 275.393C1362.3 276.078 1361.76 276.958 1361.49 277.934H1178.39L1128.73 327.537H923.099L983.563 267.044C984.706 267.693 986.045 267.905 987.332 267.641C988.619 267.378 989.767 266.656 990.563 265.611C991.359 264.565 991.749 263.267 991.661 261.956C991.573 260.645 991.012 259.41 990.083 258.481C989.154 257.552 987.919 256.991 986.608 256.903C985.297 256.814 983.998 257.204 982.953 258C981.908 258.796 981.186 259.944 980.923 261.232C980.659 262.519 980.871 263.858 981.519 265.001L916.129 330.42H1129.91L1179.6 280.761H1361.55C1361.84 281.909 1362.51 282.928 1363.44 283.661C1364.37 284.395 1365.51 284.802 1366.7 284.82V284.82Z" fill="#055984"/>
<path id="Vector_23" d="M909.186 381.087L895.19 367.091C895.838 365.948 896.05 364.609 895.787 363.322C895.523 362.034 894.802 360.886 893.756 360.09C892.711 359.294 891.412 358.904 890.101 358.993C888.79 359.081 887.556 359.642 886.627 360.571C885.697 361.5 885.137 362.735 885.048 364.046C884.96 365.357 885.35 366.655 886.146 367.701C886.942 368.746 888.09 369.468 889.377 369.731C890.664 369.995 892.004 369.783 893.146 369.134L908.122 384.111H1121.57L1178.76 326.557C1179.79 327.151 1180.98 327.388 1182.16 327.231C1183.34 327.074 1184.44 326.532 1185.28 325.689C1186.29 324.669 1186.86 323.286 1186.86 321.845C1186.86 320.404 1186.28 319.023 1185.26 318.005C1184.24 316.988 1182.86 316.418 1181.42 316.421C1179.98 316.424 1178.6 316.999 1177.58 318.019C1176.74 318.857 1176.21 319.947 1176.05 321.12C1175.89 322.293 1176.12 323.486 1176.71 324.514L1120.14 381.087H909.186Z" fill="#055984"/>
<path id="Vector_24" d="M1547.84 134.582H1626.39C1626.73 135.855 1627.52 136.962 1628.61 137.695C1629.71 138.428 1631.03 138.738 1632.34 138.567C1633.65 138.395 1634.85 137.755 1635.71 136.764C1636.58 135.773 1637.06 134.5 1637.06 133.182C1637.06 131.864 1636.58 130.591 1635.71 129.6C1634.85 128.61 1633.65 127.969 1632.34 127.798C1631.03 127.626 1629.71 127.936 1628.61 128.669C1627.52 129.403 1626.73 130.509 1626.39 131.783H1546.63L1425.87 252.46H1151.21L1110.03 293.637H994.424L1032.83 255.259C1034.01 255.939 1035.39 256.169 1036.72 255.904C1038.05 255.64 1039.25 254.9 1040.07 253.823C1040.9 252.745 1041.31 251.403 1041.22 250.048C1041.13 248.692 1040.55 247.415 1039.59 246.454C1038.63 245.493 1037.35 244.915 1036 244.826C1034.64 244.737 1033.3 245.145 1032.22 245.972C1031.15 246.8 1030.41 247.991 1030.14 249.324C1029.88 250.656 1030.11 252.04 1030.79 253.216L987.454 296.549H1111.24L1152.41 255.371H1427.08L1547.84 134.582Z" fill="#055984"/>
<path id="Vector_25" d="M1741.97 479.006C1740.78 479.002 1739.63 479.39 1738.69 480.109C1737.75 480.828 1737.07 481.837 1736.76 482.981H1573.59L1537.93 518.644H1483.09L1459.33 494.878H1128.37L1104.58 471.084H1056.99C1056.65 469.811 1055.86 468.704 1054.76 467.971C1053.67 467.238 1052.34 466.928 1051.04 467.099C1049.73 467.271 1048.53 467.911 1047.66 468.902C1046.79 469.893 1046.31 471.166 1046.31 472.484C1046.31 473.802 1046.79 475.075 1047.66 476.066C1048.53 477.056 1049.73 477.697 1051.04 477.868C1052.34 478.04 1053.67 477.73 1054.76 476.997C1055.86 476.263 1056.65 475.157 1056.99 473.883H1103.18L1126.94 497.649H1458.12L1481.92 521.415H1539.13L1574.8 485.752H1736.76C1737.03 486.721 1737.57 487.595 1738.31 488.275C1739.05 488.956 1739.96 489.416 1740.95 489.604C1741.94 489.792 1742.96 489.701 1743.9 489.34C1744.84 488.98 1745.66 488.365 1746.27 487.564C1746.88 486.763 1747.25 485.808 1747.34 484.807C1747.44 483.805 1747.25 482.798 1746.8 481.897C1746.36 480.996 1745.67 480.237 1744.81 479.707C1743.96 479.176 1742.97 478.895 1741.97 478.894V479.006Z" fill="#055984"/>
<path id="Vector_26" d="M490.808 295.093C491.51 295.837 492.409 296.367 493.399 296.623C494.39 296.879 495.432 296.85 496.407 296.539C497.382 296.228 498.249 295.648 498.908 294.866C499.568 294.083 499.993 293.131 500.135 292.118C500.276 291.105 500.129 290.072 499.71 289.139C499.291 288.206 498.616 287.41 497.764 286.843C496.913 286.277 495.918 285.962 494.895 285.936C493.873 285.91 492.863 286.173 491.984 286.695L446.468 241.011H199.152C198.812 239.73 198.017 238.616 196.917 237.878C195.816 237.139 194.484 236.827 193.17 236.998C191.856 237.169 190.649 237.813 189.774 238.809C188.899 239.805 188.417 241.085 188.417 242.411C188.417 243.736 188.899 245.016 189.774 246.012C190.649 247.008 191.856 247.652 193.17 247.824C194.484 247.995 195.816 247.682 196.917 246.944C198.017 246.205 198.812 245.092 199.152 243.81H445.348L490.136 288.599C489.529 289.608 489.266 290.787 489.387 291.958C489.508 293.13 490.007 294.23 490.808 295.093Z" fill="#055984"/>
<path id="Vector_27" d="M294.188 396.455C295.376 396.46 296.533 396.073 297.48 395.355C298.426 394.636 299.109 393.626 299.423 392.48H467.743L511.887 348.335H617.811C618.151 349.616 618.945 350.73 620.046 351.468C621.147 352.207 622.478 352.519 623.793 352.348C625.107 352.177 626.314 351.533 627.189 350.537C628.063 349.541 628.546 348.261 628.546 346.935C628.546 345.61 628.063 344.33 627.189 343.334C626.314 342.338 625.107 341.694 623.793 341.523C622.478 341.351 621.147 341.664 620.046 342.402C618.945 343.141 618.151 344.254 617.811 345.536H510.627L466.483 389.596H299.451C299.185 388.62 298.652 387.738 297.911 387.049C297.171 386.36 296.252 385.891 295.26 385.696C294.267 385.5 293.24 385.586 292.293 385.944C291.347 386.301 290.519 386.916 289.903 387.718C289.287 388.521 288.908 389.479 288.807 390.486C288.707 391.493 288.89 392.507 289.336 393.416C289.781 394.324 290.472 395.09 291.329 395.627C292.186 396.164 293.177 396.45 294.188 396.455Z" fill="#055984"/>
<path id="Vector_28" d="M295.925 321.071C294.912 321.067 293.918 321.345 293.056 321.875C292.193 322.405 291.496 323.166 291.043 324.071C290.59 324.977 290.399 325.991 290.492 326.999C290.584 328.007 290.957 328.97 291.568 329.777C292.178 330.585 293.002 331.206 293.947 331.569C294.892 331.933 295.92 332.026 296.914 331.837C297.909 331.648 298.831 331.184 299.576 330.499C300.321 329.813 300.86 328.933 301.131 327.958H421.835L451.256 298.565C452.428 299.251 453.809 299.487 455.142 299.23C456.475 298.973 457.669 298.24 458.503 297.169C459.336 296.097 459.751 294.758 459.671 293.403C459.591 292.048 459.022 290.767 458.068 289.801C457.115 288.834 455.842 288.247 454.488 288.149C453.134 288.05 451.79 288.447 450.707 289.266C449.624 290.085 448.875 291.269 448.6 292.599C448.325 293.928 448.543 295.312 449.212 296.494L420.632 325.074H301.131C300.824 323.928 300.147 322.914 299.206 322.191C298.265 321.467 297.112 321.074 295.925 321.071V321.071Z" fill="#055984"/>
<path id="Vector_29" d="M316.302 365.915C317.489 365.913 318.642 365.519 319.583 364.796C320.524 364.072 321.201 363.059 321.509 361.912H437.118L481.263 317.767H534.449C534.788 319.048 535.583 320.162 536.683 320.901C537.784 321.639 539.116 321.952 540.43 321.78C541.745 321.609 542.952 320.965 543.826 319.969C544.701 318.973 545.183 317.693 545.183 316.368C545.183 315.042 544.701 313.762 543.826 312.766C542.952 311.77 541.745 311.126 540.43 310.955C539.116 310.784 537.784 311.096 536.683 311.835C535.583 312.573 534.788 313.687 534.449 314.968H480.087L435.914 359.029H321.509C321.237 358.053 320.699 357.173 319.953 356.488C319.208 355.802 318.286 355.339 317.292 355.15C316.297 354.96 315.269 355.053 314.325 355.417C313.38 355.781 312.556 356.402 311.945 357.209C311.334 358.017 310.962 358.979 310.869 359.987C310.776 360.996 310.967 362.01 311.42 362.915C311.874 363.82 312.571 364.581 313.433 365.111C314.296 365.641 315.29 365.92 316.302 365.915V365.915Z" fill="#055984"/>
</g>
</g>
</svg>
