<svg width="28" height="27" viewBox="0 0 28 27" fill="none" xmlns="http://www.w3.org/2000/svg">
<path d="M11.7288 17.8505C11.6004 17.8615 11.4713 17.8399 11.3533 17.7877C11.2354 17.7355 11.1323 17.6544 11.0535 17.5518C10.9747 17.4493 10.9227 17.3284 10.9023 17.2004C10.8819 17.0724 10.8937 16.9412 10.9366 16.819C11.0087 16.6315 11.0468 16.4354 11.1019 16.2436C11.8898 13.6265 12.7257 11.0194 13.6096 8.42228C13.6562 8.28163 13.7028 8.14523 13.7578 7.99605C13.84 7.83944 13.9699 7.7135 14.1285 7.63677C14.2871 7.56004 14.4661 7.53657 14.6389 7.56982C14.7428 7.58934 14.8415 7.63001 14.9292 7.68933C15.0168 7.74864 15.0915 7.82536 15.1486 7.91477C15.2058 8.00418 15.2441 8.10439 15.2614 8.20925C15.2786 8.31412 15.2744 8.42142 15.2489 8.52458C14.3622 11.4855 13.4204 14.4321 12.4235 17.3646C12.3796 17.5128 12.287 17.6417 12.1607 17.73C12.0345 17.8183 11.8822 17.8608 11.7288 17.8505Z" fill="#336D8C"/>
<path d="M7.91233 12.7443L8.33593 12.9617C9.05605 13.2984 9.77617 13.6308 10.4836 13.9846C10.5964 14.0403 10.6961 14.1197 10.7757 14.2175C10.8554 14.3153 10.9132 14.4292 10.9453 14.5515C10.9847 14.6876 10.9844 14.8322 10.9446 14.9682C10.9049 15.1041 10.8272 15.2258 10.7208 15.3187C10.6372 15.418 10.5257 15.4895 10.4009 15.5238C10.2761 15.558 10.144 15.5534 10.0219 15.5105C9.74379 15.4228 9.47205 15.316 9.20855 15.1908C7.99282 14.641 6.78132 14.0741 5.58676 13.4859C5.46229 13.4249 5.35692 13.3306 5.2822 13.2133C5.20748 13.096 5.16629 12.9603 5.16316 12.821C5.13941 12.6657 5.16365 12.5067 5.23259 12.3657C5.30153 12.2247 5.41186 12.1084 5.54864 12.0325C6.08661 11.7171 6.66695 11.4784 7.24304 11.2184C8.05212 10.839 8.85273 10.4469 9.67451 10.1017C9.80159 10.0462 9.93714 10.0036 10.0685 9.961C10.1982 9.92024 10.3375 9.9227 10.4657 9.96801C10.5939 10.0133 10.7042 10.0991 10.7801 10.2125C10.8921 10.3198 10.9682 10.4595 10.9978 10.6122C11.0274 10.7649 11.009 10.9231 10.9453 11.0649C10.862 11.2635 10.7121 11.4264 10.5217 11.5253L8.14955 12.6462L7.91233 12.7443Z" fill="#336D8C"/>
<path d="M18.2144 12.74L17.634 12.4544C16.9732 12.1305 16.2955 11.8279 15.6431 11.4784C15.5007 11.4225 15.3784 11.3247 15.2922 11.1977C15.206 11.0706 15.16 10.9204 15.1602 10.7666C15.1662 10.6006 15.2172 10.4395 15.3075 10.3006C15.3978 10.1616 15.5241 10.0501 15.6728 9.97805C15.7466 9.94425 15.8268 9.92676 15.9079 9.92676C15.989 9.92676 16.0691 9.94425 16.143 9.97805C16.808 10.2214 17.4574 10.5061 18.0873 10.8305C18.9345 11.2141 19.7393 11.6148 20.5654 12.0112C20.6977 12.0735 20.8087 12.1741 20.8841 12.3001C20.9595 12.4261 20.996 12.5718 20.989 12.7187C20.9995 12.8707 20.9649 13.0224 20.8894 13.1544C20.814 13.2865 20.7012 13.393 20.5654 13.4603C19.1463 14.1807 17.7103 14.8626 16.2404 15.4764C16.081 15.5536 15.8995 15.5715 15.7282 15.527C15.5569 15.4826 15.4067 15.3786 15.3042 15.2335C15.1981 15.0916 15.1406 14.9188 15.1406 14.7412C15.1406 14.5635 15.1981 14.3908 15.3042 14.2489C15.3832 14.1549 15.4815 14.0793 15.5923 14.0272C16.359 13.601 17.1638 13.2643 17.9475 12.8764L18.2144 12.74Z" fill="#336D8C"/>
<path d="M26.1573 10.1911C26.1573 7.20754 26.1573 4.26229 26.1573 1.3C26.1718 1.2369 26.1718 1.1713 26.1573 1.1082C25.9794 0.726395 25.6916 0.407147 25.3313 0.191803C25.2317 0.11962 25.1147 0.0754803 24.9924 0.0639344C24.7467 0.0639344 24.5053 0.0340984 24.2596 0.0340984L18.7147 0H13.1316C9.27685 0 5.42068 0 1.56309 0C1.31494 0.00621357 1.07148 0.0693394 0.851256 0.184567C0.63103 0.299796 0.439851 0.464085 0.292284 0.664918C0.130461 0.848352 0.0401692 1.08457 0.0381241 1.32984C0.033888 1.86689 0 2.4082 0 2.94525C0 8.24754 0 13.5484 0 18.8479C0 20.0328 0 21.2518 0.0381241 22.4538C0.0282508 22.7637 0.130618 23.0666 0.326172 23.3062C0.44294 23.4752 0.594621 23.6167 0.770825 23.7212C0.947029 23.8257 1.14359 23.8906 1.34705 23.9115C2.47806 23.937 3.60908 23.9115 4.73585 23.9115H13.4112H18.5325C18.6511 23.9115 18.7104 23.9115 18.6681 23.7495C18.6177 23.5707 18.6034 23.3836 18.6259 23.1991C18.6485 23.0147 18.7074 22.8366 18.7994 22.6754C18.8545 22.5816 18.8333 22.5348 18.7528 22.4751C18.6356 22.3973 18.5407 22.29 18.4775 22.1639C18.4054 22.0062 18.2953 21.9849 18.1428 21.9892H2.09259C1.94856 21.9892 1.88502 21.9892 1.88502 21.7931C1.88502 16.4738 1.88502 11.1558 1.88502 5.83934C1.88502 5.65607 1.93585 5.61344 2.11377 5.61344C6.97105 5.61344 11.8298 5.62197 16.6899 5.63902C19.1524 5.63902 21.6135 5.63902 24.0732 5.63902C24.2469 5.63902 24.285 5.6859 24.285 5.85639C24.285 7.25016 24.285 8.6482 24.285 10.0462C24.285 11.4443 24.3147 12.9446 24.3147 14.3938C24.3147 14.9777 24.3147 15.5659 24.3147 16.1541C24.3147 16.2436 24.3147 16.3246 24.429 16.3544C24.7793 16.4469 25.0819 16.6692 25.2762 16.9767C25.284 16.9936 25.295 17.0087 25.3085 17.0212C25.3221 17.0338 25.338 17.0435 25.3553 17.0498C25.3727 17.0562 25.3911 17.059 25.4095 17.0582C25.4279 17.0573 25.446 17.0528 25.4626 17.0449C25.6265 16.9842 25.8007 16.9567 25.9752 16.9639C26.1362 16.9639 26.1785 16.917 26.1785 16.7593C26.1672 14.577 26.1602 12.3877 26.1573 10.1911ZM18.8756 3.28623C18.8803 3.36573 18.8687 3.44535 18.8416 3.52018C18.8145 3.59501 18.7725 3.66347 18.7181 3.72136C18.6638 3.77925 18.5982 3.82533 18.5255 3.85679C18.4528 3.88824 18.3745 3.9044 18.2953 3.90426C18.0983 3.92755 17.8993 3.92755 17.7023 3.90426C17.6251 3.89993 17.5495 3.88023 17.4799 3.8463C17.4104 3.81238 17.3482 3.76491 17.297 3.70664C17.2457 3.64837 17.2065 3.58045 17.1816 3.50682C17.1566 3.4332 17.1464 3.35532 17.1516 3.2777C17.141 3.03162 17.1495 2.78508 17.177 2.54033C17.1837 2.44365 17.2192 2.35126 17.2789 2.27522C17.3386 2.19917 17.4197 2.14302 17.5116 2.1141C17.8354 2.00971 18.1834 2.00971 18.5071 2.1141C18.6098 2.142 18.7005 2.20293 18.7655 2.28759C18.8305 2.37224 18.8662 2.47597 18.8672 2.58295C18.8672 2.71508 18.8672 2.85148 18.8883 2.9623C18.9095 3.07311 18.8799 3.1882 18.8756 3.28623ZM21.574 3.35869C21.5586 3.49127 21.4993 3.61475 21.4055 3.70913C21.3117 3.80351 21.1889 3.86326 21.0572 3.87869C20.8239 3.92777 20.5831 3.92777 20.3498 3.87869C20.2792 3.87246 20.2107 3.85181 20.1483 3.81802C20.0859 3.78423 20.0311 3.73799 19.987 3.68215C19.943 3.6263 19.9108 3.562 19.8923 3.4932C19.8739 3.42439 19.8695 3.35252 19.8796 3.28197V2.98361C19.8796 2.85148 19.8796 2.72361 19.8796 2.59574C19.8838 2.45918 19.9396 2.32938 20.0356 2.23277C20.1317 2.13616 20.2607 2.08001 20.3964 2.07574C20.6209 2.07574 20.8496 2.07574 21.0784 2.07574C21.1888 2.08669 21.2935 2.13073 21.3788 2.20215C21.4641 2.27357 21.5262 2.3691 21.557 2.47639C21.6232 2.76616 21.6289 3.06657 21.574 3.35869ZM24.2808 3.35869C24.2798 3.49338 24.2273 3.62252 24.1343 3.71934C24.0412 3.81616 23.9147 3.87322 23.7809 3.87869C23.6539 3.90426 23.5268 3.91279 23.4166 3.92557C23.3065 3.93836 23.2006 3.92557 23.1032 3.90426C22.9792 3.89892 22.8608 3.85059 22.7682 3.76747C22.6755 3.68435 22.6143 3.57155 22.5949 3.4482C22.5224 3.13268 22.5224 2.8047 22.5949 2.48918C22.6139 2.38574 22.6653 2.29111 22.7415 2.21905C22.8176 2.147 22.9147 2.10127 23.0185 2.08852C23.2705 2.04211 23.5289 2.04211 23.7809 2.08852C23.9053 2.09632 24.0232 2.14733 24.1143 2.23284C24.2055 2.31835 24.2643 2.43306 24.2808 2.55738C24.3289 2.82801 24.3289 3.1051 24.2808 3.37574V3.35869Z" fill="#336D8C"/>
<path d="M27.9957 21.4095C27.9745 21.2044 27.9406 21.0008 27.894 20.8C27.7669 20.2203 27.894 20.2928 27.2459 20.3141C27.0553 20.3141 26.8477 20.4633 26.674 20.3354C26.5004 20.2076 26.4622 19.9902 26.3521 19.8197C26.3276 19.7872 26.3165 19.7464 26.3212 19.7058C26.326 19.6653 26.3462 19.6282 26.3775 19.6023C26.5316 19.4204 26.6731 19.2282 26.8011 19.0269C26.8212 19.0038 26.8365 18.977 26.8461 18.9478C26.8557 18.9187 26.8594 18.888 26.8571 18.8574C26.8547 18.8269 26.8463 18.7971 26.8323 18.7698C26.8183 18.7426 26.7991 18.7184 26.7757 18.6987C26.5327 18.4457 26.2644 18.2186 25.9751 18.021C25.9591 18.0085 25.9407 17.9993 25.9211 17.994C25.9014 17.9887 25.881 17.9874 25.8608 17.9902C25.8407 17.993 25.8214 17.9998 25.8039 18.0102C25.7864 18.0206 25.7712 18.0344 25.7591 18.0508C25.5593 18.2219 25.3776 18.4133 25.2169 18.622C25.2059 18.6417 25.1911 18.659 25.1734 18.6729C25.1556 18.6869 25.1354 18.6971 25.1137 18.703C25.092 18.709 25.0694 18.7105 25.0471 18.7076C25.0248 18.7047 25.0033 18.6973 24.9839 18.6859C24.8187 18.622 24.6492 18.5538 24.4756 18.4984C24.3739 18.4685 24.3442 18.4131 24.3485 18.3066C24.3485 18.0849 24.3485 17.8804 24.3485 17.6374C24.3485 17.3944 24.268 17.339 24.0901 17.3263C23.787 17.3007 23.4824 17.3007 23.1793 17.3263C22.9675 17.3518 22.8955 17.4499 22.8786 17.6672C22.8786 17.7653 22.8786 17.8676 22.8574 17.9656C22.8574 18.1318 22.9167 18.3449 22.8066 18.4558C22.6964 18.5666 22.5016 18.5836 22.3491 18.6561C22.288 18.6915 22.2156 18.702 22.1471 18.6853C22.0785 18.6687 22.0189 18.6262 21.9806 18.5666C21.8535 18.4174 21.7222 18.264 21.5866 18.1404C21.451 18.0167 21.3367 17.9613 21.163 18.102C21.0039 18.2201 20.8512 18.3468 20.7055 18.4813C20.2819 18.8607 20.2819 18.9076 20.6462 19.3338C21.0105 19.76 21.002 19.76 20.6759 20.2246V20.2502C20.6446 20.314 20.5908 20.3638 20.525 20.3898C20.4592 20.4159 20.3861 20.4162 20.32 20.3908C20.1294 20.344 19.9303 20.3226 19.7948 20.2971C19.5321 20.2971 19.5025 20.3226 19.4517 20.5272C19.3803 20.8233 19.3279 21.1237 19.2949 21.4266C19.2949 21.6397 19.3203 21.7207 19.5279 21.7676C19.7355 21.8144 19.9515 21.8485 20.1464 21.8869C20.2046 21.8909 20.2594 21.916 20.3007 21.9575C20.342 21.999 20.3669 22.0542 20.3709 22.1128C20.3891 22.2567 20.4174 22.3992 20.4556 22.539C20.4709 22.5894 20.4668 22.6437 20.444 22.6912C20.4212 22.7386 20.3815 22.7756 20.3327 22.7948C20.1633 22.8885 19.9981 22.9866 19.8371 23.0931C19.791 23.1105 19.7494 23.1384 19.7158 23.1746C19.6822 23.2109 19.6574 23.2545 19.6435 23.302C19.6295 23.3496 19.6267 23.3997 19.6353 23.4486C19.6439 23.4974 19.6637 23.5435 19.6931 23.5833C19.8239 23.8578 19.9784 24.1202 20.1548 24.3676C20.1687 24.3934 20.1878 24.416 20.211 24.4339C20.2341 24.4518 20.2607 24.4646 20.2891 24.4714C20.3175 24.4782 20.347 24.479 20.3757 24.4736C20.4044 24.4682 20.4316 24.4567 20.4556 24.44C20.6589 24.3335 20.8792 24.2269 21.0656 24.1033C21.1884 24.0308 21.2731 24.0138 21.379 24.1331C21.486 24.2493 21.6037 24.3549 21.7306 24.4485C21.7691 24.4731 21.7964 24.5119 21.8067 24.5566C21.817 24.6012 21.8095 24.6481 21.7857 24.6872C21.7052 24.9217 21.6332 25.1561 21.5612 25.3905C21.5508 25.4131 21.5451 25.4376 21.5444 25.4624C21.5437 25.4873 21.548 25.5121 21.5571 25.5352C21.5662 25.5583 21.5799 25.5793 21.5974 25.597C21.6148 25.6146 21.6357 25.6285 21.6586 25.6377C21.9755 25.802 22.3113 25.9266 22.6583 26.0085C22.7106 26.0264 22.7677 26.0231 22.8176 25.9992C22.8674 25.9753 22.906 25.9328 22.9252 25.8807C23.0358 25.6606 23.1266 25.4309 23.1963 25.1944C23.1998 25.1705 23.2081 25.1475 23.2209 25.1269C23.2337 25.1064 23.2506 25.0887 23.2705 25.0751C23.2904 25.0615 23.3129 25.0522 23.3366 25.0478C23.3603 25.0434 23.3846 25.044 23.4081 25.0495C23.559 25.0602 23.7104 25.0602 23.8613 25.0495C23.8922 25.0434 23.924 25.0435 23.9549 25.0498C23.9858 25.0561 24.0151 25.0686 24.0411 25.0865C24.0671 25.1043 24.0893 25.1272 24.1065 25.1538C24.1236 25.1804 24.1353 25.2101 24.1409 25.2413C24.2087 25.4544 24.2934 25.6676 24.3781 25.8679C24.3871 25.8956 24.4016 25.9211 24.4207 25.943C24.4399 25.9648 24.4633 25.9825 24.4895 25.9949C24.5157 26.0072 24.5441 26.0141 24.5731 26.015C24.602 26.0159 24.6308 26.0108 24.6577 26C24.9804 25.9185 25.2963 25.8116 25.6023 25.6804C25.6303 25.6716 25.6563 25.6574 25.6787 25.6385C25.7012 25.6196 25.7196 25.5963 25.733 25.5701C25.7464 25.5439 25.7545 25.5153 25.7568 25.4859C25.7591 25.4566 25.7556 25.427 25.7464 25.399C25.7167 25.2626 25.6786 25.1263 25.6362 24.9728C25.4668 24.4699 25.4668 24.4741 25.8819 24.1587C25.939 24.1073 26.0111 24.0758 26.0874 24.0688C26.1637 24.0619 26.2402 24.08 26.3055 24.1204C26.4834 24.2184 26.6656 24.3122 26.8393 24.4144C26.8642 24.4328 26.8927 24.4455 26.9229 24.4518C26.9532 24.4581 26.9844 24.4578 27.0145 24.4509C27.0446 24.4441 27.0729 24.4308 27.0975 24.412C27.122 24.3932 27.1423 24.3693 27.157 24.342C27.3026 24.1382 27.4342 23.9246 27.5509 23.7026C27.7754 23.302 27.7585 23.2466 27.373 23.0079C26.835 22.6712 26.835 22.6712 26.9494 22.0446C26.9706 21.9253 27.0129 21.8656 27.1442 21.8528C27.3578 21.8266 27.5698 21.7896 27.7796 21.742C27.9576 21.7036 28.0169 21.6141 27.9957 21.4095ZM23.6326 23.0164C23.3685 23.0164 23.1104 22.9376 22.8908 22.7898C22.6713 22.6421 22.5003 22.4322 22.3994 22.1866C22.2986 21.941 22.2724 21.6708 22.3242 21.4103C22.376 21.1497 22.5035 20.9105 22.6906 20.7229C22.8776 20.5353 23.1158 20.4078 23.3749 20.3565C23.634 20.3051 23.9024 20.3323 24.1462 20.4346C24.3899 20.5369 24.598 20.7096 24.7441 20.931C24.8902 21.1523 24.9678 21.4123 24.9669 21.6781C24.9647 22.0331 24.8233 22.3728 24.5734 22.6234C24.3235 22.8741 23.9854 23.0153 23.6326 23.0164Z" fill="#336D8C"/>
</svg>
