<svg width="28" height="28" viewBox="0 0 28 28" fill="none" xmlns="http://www.w3.org/2000/svg">
<path d="M13.9961 27H7.99805V28H13.9961V27Z" fill="#336D8C"/>
<path d="M13.9961 23H7.99805V26H13.9961V23Z" fill="#336D8C"/>
<path d="M13.9961 0H7.99805V22H13.9961V0Z" fill="#336D8C"/>
<path d="M20.9925 27H15.9941V28H20.9925V27Z" fill="#336D8C"/>
<path d="M20.9925 23H15.9941V26H20.9925V23Z" fill="#336D8C"/>
<path d="M20.9925 5H15.9941V22H20.9925V5Z" fill="#336D8C"/>
<path d="M5.998 27H0V28H5.998V27Z" fill="#336D8C"/>
<path d="M5.998 23H0V26H5.998V23Z" fill="#336D8C"/>
<path d="M5.998 11H0V22H5.998V11Z" fill="#336D8C"/>
<rect x="23.1719" y="6.76086" width="3.86207" height="0.965838" fill="#336D8C"/>
<rect x="23.1719" y="9.65839" width="4.82759" height="0.965838" fill="#336D8C"/>
<rect x="23.1719" y="12.5559" width="3.86207" height="0.965838" fill="#336D8C"/>
<rect x="23.1719" y="15.4534" width="4.82759" height="0.965838" fill="#336D8C"/>
<rect x="23.1719" y="18.3509" width="3.86207" height="0.965838" fill="#336D8C"/>
<rect x="23.1719" y="21.2484" width="4.82759" height="0.965838" fill="#336D8C"/>
</svg>
