<svg width="28" height="25" viewBox="0 0 28 25" fill="none" xmlns="http://www.w3.org/2000/svg">
<g clip-path="url(#clip0_406_1370)">
<path d="M6.76976 11.908C6.97567 11.908 7.18448 11.908 7.39038 11.908C7.47195 11.9061 7.55308 11.9198 7.62901 11.9482C7.70493 11.9766 7.77411 12.0191 7.83248 12.0732C7.89084 12.1273 7.93722 12.192 7.96887 12.2634C8.00053 12.3348 8.01682 12.4115 8.0168 12.489C8.02035 12.5664 8.00725 12.6436 7.97831 12.716C7.94937 12.7884 7.90519 12.8545 7.84847 12.9102C7.79175 12.9658 7.72368 13.0099 7.64841 13.0398C7.57314 13.0696 7.49225 13.0846 7.41068 13.0838C6.98147 13.1003 6.54066 13.1003 6.12595 13.0838C5.96901 13.0714 5.8229 13.0029 5.7172 12.892C5.61151 12.7812 5.55414 12.6363 5.55672 12.4868C5.55931 12.3373 5.62164 12.1944 5.73111 12.0869C5.84057 11.9794 5.98897 11.9154 6.14625 11.908C6.34345 11.8997 6.54936 11.908 6.76976 11.908Z" fill="#336D8C"/>
<path d="M3.48057 15.4684C3.12016 15.8963 2.94769 16.4399 2.99916 16.9856C3.01656 18.0375 2.99916 19.0894 2.99916 20.1413C2.98511 20.3905 3.02682 20.6398 3.12152 20.8726C3.21623 21.1055 3.36179 21.3166 3.54863 21.4922C3.73548 21.6678 3.95936 21.8038 4.20555 21.8914C4.45175 21.9789 4.71467 22.0159 4.97702 22H14.7735C16.673 22 21.1856 22 23.088 22C23.3396 22.006 23.5898 21.9635 23.8237 21.8751C24.0575 21.7867 24.27 21.6542 24.4483 21.4856C24.6267 21.317 24.7672 21.1159 24.8614 20.8943C24.9556 20.6727 25.0014 20.4353 24.9963 20.1964C24.9963 20.1275 24.9963 20.0587 24.9963 19.9871V19.6236V18.0761C24.9963 17.8503 24.9963 17.6245 24.9963 17.3959V16.68C24.9853 16.2362 24.8201 15.8083 24.5265 15.4629C24.834 15.1121 25.0005 14.6691 24.9963 14.2127V11.013C24.9963 10.2751 24.9644 10.1732 24.5438 9.52332C24.8187 9.20199 24.9774 8.80517 24.9963 8.39158V7.50216C24.9963 7.31492 24.9963 7.12767 24.9963 6.93767V5.37636V4.9881C24.9876 3.69665 24.2509 2.99999 22.8908 2.99999H10.0957C8.39041 2.99999 6.68226 2.99999 4.97702 2.99999C4.71478 2.98452 4.45206 3.02185 4.20608 3.10952C3.9601 3.1972 3.7364 3.33324 3.54966 3.50873C3.36292 3.68422 3.21734 3.8952 3.12247 4.12785C3.0276 4.36049 2.98558 4.60954 2.99916 4.85868C2.99916 5.82245 2.99916 6.78622 2.99916 7.75274C2.99916 8.38883 2.98176 9.01941 3.47477 9.53158C3.1221 9.95032 2.95188 10.4815 2.99916 11.0158C3.01946 11.93 3.01656 12.8469 2.99916 13.7694C2.99916 14.3752 2.99916 14.9755 3.48057 15.4684ZM7.41308 19.0206C7.19558 19.0398 6.97227 19.0206 6.75186 19.0206C6.53146 19.0206 6.31105 19.0206 6.09065 19.0206C5.92759 19.0206 5.77121 18.9591 5.6559 18.8496C5.5406 18.7401 5.47583 18.5916 5.47583 18.4368C5.47583 18.282 5.5406 18.1335 5.6559 18.024C5.77121 17.9145 5.92759 17.853 6.09065 17.853C6.53115 17.831 6.97258 17.831 7.41308 17.853C7.57155 17.8588 7.72126 17.9235 7.82981 18.0333C7.93837 18.1431 7.99703 18.289 7.9931 18.4396C7.99331 18.5885 7.93324 18.7319 7.82529 18.84C7.71735 18.9482 7.56978 19.0128 7.41308 19.0206ZM23.7347 18.9985C23.6329 19.0135 23.5303 19.0236 23.4273 19.0288C20.6693 19.0288 15.3071 19.0288 12.5433 19.0288C12.4041 19.0288 12.2185 19.0288 12.1344 18.9572C11.9807 18.8168 11.7893 18.6158 11.7922 18.4396C11.7951 18.2633 11.9836 18.0651 12.1373 17.9164C12.2098 17.8475 12.3809 17.8475 12.5085 17.8475H23.4708C23.5462 17.8475 23.6216 17.8475 23.7347 17.8668V18.9985ZM12.2272 5.99868C12.3288 5.97563 12.4332 5.96636 12.5375 5.97115H23.4592C23.5346 5.97115 23.6129 5.97115 23.7318 5.98767V7.13042C23.5955 7.13042 23.4592 7.14694 23.32 7.14694H12.6332C12.4911 7.14694 12.3026 7.17448 12.2156 7.10289C12.0174 6.96387 11.8671 6.77224 11.7835 6.55216C11.7197 6.30434 11.9343 6.08405 12.2272 5.99868ZM6.11965 5.97665C6.33715 5.96013 6.55756 5.97665 6.78086 5.97665C7.00417 5.97665 7.19558 5.96289 7.40148 5.97665C7.55931 5.98082 7.70947 6.04221 7.82111 6.14822C7.93276 6.25422 7.99741 6.3968 8.0018 6.54665C8.00491 6.62419 7.99156 6.70154 7.96253 6.77407C7.93351 6.84661 7.8894 6.91286 7.83284 6.96887C7.77629 7.02489 7.70843 7.06952 7.63333 7.10011C7.55823 7.1307 7.4774 7.14663 7.39568 7.14694C6.96937 7.16622 6.52566 7.16622 6.11095 7.14694C5.95315 7.14414 5.8026 7.08357 5.69074 6.97786C5.57887 6.87216 5.51434 6.72951 5.51063 6.5797C5.50752 6.42314 5.56985 6.27179 5.68399 6.15877C5.79813 6.04575 5.95478 5.98027 6.11965 5.97665ZM4.2549 10.9855C4.2549 10.2998 4.4405 10.1209 5.14812 10.1209H22.8734C23.5549 10.1209 23.7434 10.3081 23.7434 10.9662C23.7434 11.2609 23.7434 11.5555 23.7434 11.8997H23.2591C20.5649 11.8997 15.2578 11.8997 12.5636 11.8997C12.3362 11.8907 12.1136 11.9635 11.9401 12.1035C11.8811 12.1922 11.8415 12.2914 11.8235 12.3949C11.8056 12.4985 11.8097 12.6045 11.8357 12.7065C11.8908 12.9819 12.1431 13.07 12.436 13.07C14.1906 13.07 15.9451 13.07 17.7026 13.07H23.3954C23.4969 13.07 23.5955 13.07 23.7492 13.092C23.7492 13.5161 23.7695 13.8988 23.7492 14.2788C23.7289 14.6588 23.4592 14.8461 22.9836 14.8488C21.4872 14.8488 17.3778 14.8488 15.8813 14.8488H5.17132C4.4347 14.8488 4.2578 14.6781 4.2549 13.9704V10.9855Z" fill="#336D8C"/>
</g>
<defs>
<clipPath id="clip0_406_1370">
<rect width="22" height="19" fill="white" transform="translate(3 3)"/>
</clipPath>
</defs>
</svg>
