<svg width="28" height="28" viewBox="0 0 28 28" fill="none" xmlns="http://www.w3.org/2000/svg">
<g clip-path="url(#clip0_406_1361)">
<path d="M15.4747 0C15.7092 0.0803962 15.9086 0.239601 16.0388 0.450486C16.1691 0.661371 16.2221 0.910888 16.189 1.15652C16.189 1.70435 16.189 2.25217 16.189 2.8C16.189 2.9258 16.189 3.02319 16.3554 3.05565C17.7446 3.34996 19.0645 3.90786 20.2435 4.69913C20.7021 4.23246 21.1486 3.75362 21.6234 3.30725C21.7998 3.14643 22.0109 3.0284 22.2403 2.96232C22.3875 2.92752 22.5415 2.93454 22.6849 2.98257C22.8284 3.03061 22.9555 3.11777 23.052 3.2342C23.6324 3.81043 24.2169 4.38261 24.7891 4.97507C24.8839 5.06265 24.9589 5.1694 25.0092 5.28821C25.0594 5.40701 25.0839 5.53517 25.0808 5.66414C25.0777 5.79312 25.0472 5.91996 24.9913 6.03624C24.9355 6.15252 24.8554 6.25558 24.7566 6.33855C24.2858 6.81739 23.8029 7.28812 23.3361 7.75478C23.6081 8.26609 23.9125 8.73681 24.1235 9.24406C24.432 9.99884 24.6795 10.778 24.9352 11.5571C24.9961 11.7478 25.0489 11.8249 25.2558 11.8209C25.8281 11.8209 26.4044 11.8209 26.9767 11.8209C27.115 11.8069 27.2546 11.8239 27.3855 11.8706C27.5164 11.9172 27.6353 11.9924 27.7336 12.0907C27.8319 12.189 27.9071 12.3078 27.9538 12.4387C28.0004 12.5696 28.0174 12.7093 28.0035 12.8475V15.1687C28.0151 15.3036 27.9972 15.4394 27.951 15.5667C27.9049 15.694 27.8315 15.8098 27.7362 15.9059C27.6408 16.002 27.5256 16.0763 27.3987 16.1235C27.2717 16.1706 27.136 16.1896 27.001 16.1791C26.3354 16.1791 25.6739 16.1791 24.9717 16.1791C24.6764 17.6281 24.103 19.0062 23.2834 20.2371C23.7461 20.6957 24.1884 21.1014 24.6268 21.5397C25.2153 22.12 25.2112 22.5948 24.6268 23.1629C24.1154 23.6701 23.6081 24.1814 23.0967 24.6846C23.0086 24.7976 22.896 24.889 22.7673 24.9519C22.6386 25.0147 22.4972 25.0474 22.354 25.0474C22.2107 25.0474 22.0694 25.0147 21.9407 24.9519C21.812 24.889 21.6993 24.7976 21.6113 24.6846L20.2313 23.2887C18.9994 24.104 17.6211 24.6731 16.1728 24.9646V26.4986C16.1728 26.6974 16.1728 26.9043 16.1728 27.0991C16.1728 27.3381 16.0779 27.5672 15.9089 27.7361C15.7399 27.9051 15.5107 28 15.2718 28C14.4222 28 13.5753 28 12.7311 28C12.6068 28.0008 12.4837 27.976 12.3693 27.9273C12.255 27.8786 12.1518 27.807 12.0662 27.7169C11.9806 27.6267 11.9144 27.52 11.8717 27.4033C11.829 27.2866 11.8107 27.1623 11.818 27.0383C11.818 26.4296 11.818 25.8209 11.818 25.2081C11.818 25.0823 11.818 24.9809 11.6597 24.9484C10.3036 24.6591 9.01282 24.1212 7.85274 23.3617L7.76345 23.3252L6.73664 24.3478C6.59053 24.4939 6.44442 24.6481 6.2902 24.7901C6.20764 24.8728 6.10958 24.9384 6.00164 24.9832C5.89369 25.028 5.77798 25.051 5.66112 25.051C5.54426 25.051 5.42854 25.028 5.3206 24.9832C5.21266 24.9384 5.1146 24.8728 5.03204 24.7901C4.40297 24.1977 3.78607 23.5728 3.19352 22.9559C3.10763 22.8698 3.04026 22.7669 2.99556 22.6538C2.95085 22.5406 2.92975 22.4195 2.93356 22.2979C2.93736 22.1763 2.96598 22.0568 3.01766 21.9466C3.06934 21.8365 3.143 21.738 3.2341 21.6574C3.66837 21.211 4.10669 20.7768 4.54907 20.3426C4.57322 20.3265 4.59372 20.3056 4.60924 20.2811C4.62476 20.2566 4.63495 20.2291 4.63916 20.2004C4.64337 20.1717 4.6415 20.1424 4.63367 20.1145C4.62584 20.0866 4.61223 20.0606 4.59372 20.0383C3.84756 18.8888 3.318 17.6125 3.03117 16.2725C3.01906 16.2401 3.00412 16.2089 2.98653 16.1791C2.35745 16.1791 1.72026 16.1791 1.08307 16.1791C0.352524 16.1791 -0.000570233 15.8261 -0.000570233 15.0875V12.8475C-0.0154761 12.7078 0.00122139 12.5665 0.0482874 12.4342C0.0953535 12.3018 0.171584 12.1816 0.271341 12.0827C0.371098 11.9837 0.491829 11.9084 0.624606 11.8624C0.757382 11.8164 0.898807 11.8008 1.03842 11.8168C1.63097 11.8168 2.22352 11.8168 2.81607 11.8168C2.89724 11.8168 3.03117 11.7316 3.04335 11.6667C3.33875 10.3119 3.88079 9.02306 4.64242 7.86435C4.64242 7.84406 4.64242 7.81565 4.67895 7.7629L3.36803 6.45623C2.79172 5.88 2.78766 5.40928 3.36803 4.83304C3.86724 4.3258 4.37456 3.81449 4.8697 3.3113C4.9576 3.19217 5.07226 3.09533 5.20443 3.0286C5.33661 2.96187 5.48261 2.9271 5.63068 2.9271C5.77875 2.9271 5.92475 2.96187 6.05693 3.0286C6.1891 3.09533 6.30376 3.19217 6.39166 3.3113L7.75128 4.66261C8.17743 4.42725 8.59546 4.19188 9.02161 3.9687C9.82858 3.54754 10.6906 3.24157 11.5826 3.05971C11.749 3.02319 11.8058 2.96232 11.8058 2.79188C11.8058 2.25217 11.8058 1.71652 11.8058 1.1687C11.7731 0.921032 11.8266 0.669654 11.9574 0.45682C12.0883 0.243986 12.2884 0.0826736 12.5241 0L15.4747 0ZM22.1551 14.0041C22.1567 12.3905 21.6796 10.8127 20.7842 9.47033C19.8888 8.12793 18.6153 7.08122 17.1248 6.46263C15.6344 5.84404 13.9939 5.68135 12.4109 5.99516C10.8279 6.30896 9.3736 7.08515 8.23191 8.22554C7.09022 9.36593 6.31247 10.8193 5.99704 12.4017C5.68162 13.9841 5.84269 15.6245 6.45989 17.1154C7.07709 18.6063 8.12268 19.8807 9.46438 20.7773C10.8061 21.6739 12.3836 22.1525 13.9974 22.1525C15.0683 22.1535 16.1289 21.9436 17.1186 21.5345C18.1083 21.1255 19.0077 20.5255 19.7653 19.7687C20.5229 19.012 21.1239 18.1133 21.534 17.1242C21.944 16.1351 22.1551 15.0748 22.1551 14.0041Z" fill="#336D8C"/>
<path d="M15.8275 8.11595C15.4825 8.56638 15.1538 8.98841 14.8372 9.42261C14.8011 9.48241 14.7474 9.52966 14.6836 9.55797C14.6197 9.58627 14.5486 9.59427 14.4801 9.58088C13.6436 9.46849 12.7924 9.59793 12.0272 9.95389C11.2619 10.3099 10.6146 10.8774 10.1618 11.5896C9.64102 12.3988 9.38858 13.3515 9.44031 14.3124C9.49204 15.2733 9.8453 16.1934 10.4499 16.942C10.5351 17.0435 10.6285 17.1449 10.7137 17.2545C10.8235 17.3907 10.876 17.5642 10.8601 17.7384C10.8442 17.9126 10.7611 18.0738 10.6285 18.1878C10.5645 18.2466 10.4894 18.2921 10.4077 18.3217C10.326 18.3513 10.2393 18.3644 10.1524 18.3602C10.0656 18.3561 9.98052 18.3347 9.90201 18.2975C9.82349 18.2602 9.75314 18.2078 9.69502 18.1432C8.12842 16.4713 7.58051 14.491 8.20147 12.2997C8.46655 11.2548 9.01614 10.3038 9.7892 9.55232C10.5623 8.80087 11.5285 8.27838 12.5807 8.0429C13.6484 7.7627 14.7734 7.78801 15.8275 8.11595Z" fill="#336D8C"/>
<path d="M12.3578 14.1096C12.337 13.7172 12.4537 13.3299 12.6878 13.0144C12.9219 12.6988 13.2588 12.4748 13.6403 12.3809C13.7838 12.3428 13.9116 12.2604 14.0056 12.1455C14.7767 11.1432 15.5316 10.1165 16.3109 9.13045C16.4556 8.94911 16.6572 8.82186 16.8831 8.76929C17.0046 8.75852 17.1267 8.78217 17.2353 8.83753C17.344 8.89289 17.4348 8.97772 17.4975 9.08231C17.5602 9.1869 17.5921 9.30702 17.5897 9.42893C17.5873 9.55083 17.5506 9.66959 17.4838 9.77161C17.2565 10.2261 17.009 10.6725 16.7695 11.1189C16.4042 11.8128 16.0268 12.4986 15.6696 13.1925C15.6059 13.3277 15.5833 13.4787 15.6047 13.6267C15.6786 13.9345 15.6594 14.2573 15.5495 14.5543C15.4397 14.8512 15.2442 15.1088 14.9878 15.2945C14.7531 15.4865 14.467 15.6051 14.1652 15.6354C13.8635 15.6658 13.5595 15.6065 13.2913 15.4649C13.0256 15.3475 12.7976 15.1586 12.6328 14.9193C12.468 14.68 12.3728 14.3997 12.3578 14.1096ZM14.0259 13.3345C13.9397 13.329 13.8533 13.341 13.7718 13.3697C13.6903 13.3985 13.6155 13.4434 13.5518 13.5017C13.4882 13.5601 13.4369 13.6307 13.4012 13.7094C13.3655 13.788 13.3461 13.8731 13.3441 13.9594C13.3344 14.049 13.3432 14.1396 13.37 14.2256C13.3968 14.3115 13.4409 14.3911 13.4997 14.4593C13.5586 14.5276 13.6308 14.583 13.7119 14.6221C13.793 14.6613 13.8813 14.6834 13.9713 14.687C14.0613 14.6906 14.1511 14.6757 14.2351 14.6432C14.3191 14.6107 14.3955 14.5613 14.4596 14.498C14.5238 14.4347 14.5742 14.3589 14.6078 14.2754C14.6414 14.1918 14.6574 14.1022 14.655 14.0122C14.6599 13.926 14.6474 13.8397 14.6181 13.7584C14.5889 13.6772 14.5435 13.6027 14.4848 13.5394C14.426 13.4761 14.3551 13.4253 14.2763 13.3901C14.1974 13.3549 14.1123 13.336 14.0259 13.3345Z" fill="#336D8C"/>
<path d="M18.6685 17.5102C18.6685 17.6845 18.5992 17.8517 18.4759 17.975C18.3526 18.0983 18.1854 18.1675 18.011 18.1675C17.8366 18.1675 17.6694 18.0983 17.5461 17.975C17.4228 17.8517 17.3535 17.6845 17.3535 17.5102C17.3577 17.3357 17.4294 17.1697 17.5536 17.0471C17.6777 16.9245 17.8446 16.8548 18.0191 16.8528C18.1052 16.8522 18.1906 16.8689 18.2702 16.9018C18.3497 16.9348 18.4219 16.9833 18.4824 17.0446C18.5429 17.1058 18.5906 17.1786 18.6225 17.2586C18.6545 17.3385 18.6701 17.4241 18.6685 17.5102Z" fill="#336D8C"/>
<path d="M18.1895 11.7681C18.19 11.6818 18.2075 11.5964 18.2411 11.5169C18.2746 11.4373 18.3235 11.3651 18.3849 11.3045C18.4463 11.2438 18.5191 11.1958 18.5991 11.1633C18.6791 11.1307 18.7647 11.1143 18.851 11.1148C18.942 11.1077 19.0334 11.1194 19.1196 11.1493C19.2058 11.1792 19.2849 11.2266 19.3519 11.2885C19.4189 11.3505 19.4723 11.4256 19.5089 11.5092C19.5455 11.5927 19.5643 11.683 19.5643 11.7742C19.5643 11.8654 19.5455 11.9557 19.5089 12.0393C19.4723 12.1228 19.4189 12.198 19.3519 12.2599C19.2849 12.3218 19.2058 12.3692 19.1196 12.3991C19.0334 12.429 18.942 12.4408 18.851 12.4336C18.7638 12.4336 18.6774 12.4164 18.5969 12.3829C18.5164 12.3494 18.4433 12.3003 18.3818 12.2385C18.3203 12.1766 18.2717 12.1032 18.2387 12.0225C18.2056 11.9418 18.1889 11.8553 18.1895 11.7681Z" fill="#336D8C"/>
<path d="M19.9186 14.7872C19.915 14.8752 19.8938 14.9616 19.8564 15.0413C19.819 15.121 19.766 15.1924 19.7006 15.2513C19.6352 15.3103 19.5587 15.3556 19.4756 15.3846C19.3924 15.4136 19.3043 15.4258 19.2164 15.4203C19.0478 15.4069 18.8906 15.3298 18.7767 15.2047C18.6629 15.0796 18.601 14.9158 18.6036 14.7467C18.6119 14.5733 18.6864 14.4098 18.8118 14.2897C18.9371 14.1697 19.1037 14.1023 19.2773 14.1014C19.4532 14.1078 19.6193 14.1835 19.7395 14.312C19.8597 14.4405 19.924 14.6114 19.9186 14.7872Z" fill="#336D8C"/>
</g>
<defs>
<clipPath id="clip0_406_1361">
<rect width="28" height="28" fill="white"/>
</clipPath>
</defs>
</svg>
