<svg width="32" height="32" viewBox="0 0 32 32" fill="none" xmlns="http://www.w3.org/2000/svg">
<path d="M16 32C24.8366 32 32 24.8366 32 16C32 7.16344 24.8366 0 16 0C7.16344 0 0 7.16344 0 16C0 24.8366 7.16344 32 16 32Z" fill="#46CA63"/>
<path d="M7.96658 22.0295H24.1013C24.2677 22.0032 24.4181 21.9155 24.523 21.7837C24.6279 21.6519 24.6796 21.4856 24.668 21.3176C24.6564 21.1496 24.5822 20.992 24.4602 20.876C24.3382 20.7599 24.1771 20.6938 24.0087 20.6906H18.0129V20.5642C18.0129 20.0758 18.0129 19.5958 18.0129 19.1158C18.0096 19.0784 18.0197 19.041 18.0412 19.0102C18.0628 18.9794 18.0945 18.9572 18.1308 18.9474C19.2148 18.537 20.1573 17.8223 20.8452 16.8893C21.533 15.9563 21.9369 14.8446 22.0083 13.6877C22.0798 12.5308 21.8158 11.3778 21.2481 10.3673C20.6803 9.35672 19.8329 8.53152 18.8077 7.99077C17.7824 7.45002 16.6228 7.2167 15.4682 7.31883C14.3136 7.42097 13.213 7.85421 12.2986 8.56654C11.3842 9.27887 10.6948 10.24 10.3132 11.3345C9.93169 12.4291 9.87419 13.6105 10.1476 14.7369C10.3693 15.694 10.8267 16.5805 11.4782 17.3159C12.1297 18.0512 12.9547 18.612 13.8782 18.9474C13.9161 18.9573 13.949 18.9808 13.9707 19.0134C13.9924 19.046 14.0015 19.0854 13.9961 19.1242V20.5642C14 20.6063 14 20.6485 13.9961 20.6906H7.9329C7.8198 20.6897 7.70825 20.7169 7.60829 20.7698C7.50833 20.8227 7.4231 20.8997 7.36027 20.9937C7.28974 21.1281 7.26322 21.2813 7.28448 21.4316C7.27844 21.5035 7.28897 21.5758 7.31525 21.6429C7.34153 21.7101 7.38286 21.7703 7.43606 21.819C7.50403 21.8903 7.58666 21.9461 7.67824 21.9824C7.76983 22.0187 7.8682 22.0348 7.96658 22.0295V22.0295ZM13.1203 16.1348C12.4072 15.3808 12.0136 14.3802 12.0219 13.3425C12.0302 12.3049 12.4398 11.3107 13.1648 10.5682C13.8898 9.82582 14.874 9.39278 15.9112 9.35985C16.9484 9.32692 17.958 9.69667 18.7287 10.3916C18.62 10.3441 18.4992 10.3316 18.383 10.3557C18.2669 10.3799 18.1611 10.4395 18.0803 10.5264C17.4992 10.9979 16.9097 11.4611 16.3203 11.9242C16.2928 11.948 16.2605 11.9656 16.2256 11.9758C16.1908 11.9859 16.1541 11.9885 16.1182 11.9832C15.8391 11.9577 15.559 12.0205 15.3175 12.1626C15.0759 12.3047 14.8851 12.519 14.7718 12.7753C14.6585 13.0316 14.6285 13.3171 14.686 13.5913C14.7435 13.8656 14.8856 14.1149 15.0923 14.3042C15.299 14.4934 15.5599 14.613 15.8382 14.6462C16.1165 14.6793 16.3981 14.6243 16.6435 14.4888C16.8888 14.3534 17.0855 14.1444 17.2058 13.8913C17.3261 13.6382 17.3639 13.3537 17.314 13.0779C17.3078 13.0466 17.3091 13.0142 17.3179 12.9834C17.3267 12.9527 17.3427 12.9245 17.3645 12.9011L18.8129 11.0906C18.8554 11.0317 18.8842 10.9642 18.8974 10.8928C18.9105 10.8214 18.9075 10.748 18.8887 10.6779C18.8887 10.6106 18.8887 10.5516 18.8382 10.4674C19.2103 10.8428 19.5048 11.2879 19.7049 11.7772C19.9051 12.2664 20.0069 12.7903 20.0045 13.319C20.0022 13.8476 19.8957 14.3705 19.6913 14.858C19.4868 15.3455 19.1883 15.7879 18.8129 16.16C18.4375 16.5322 17.9924 16.8267 17.5031 17.0268C17.0139 17.2269 16.49 17.3287 15.9614 17.3264C15.4327 17.324 14.9098 17.2176 14.4223 17.0131C13.9348 16.8087 13.4924 16.5102 13.1203 16.1348V16.1348Z" fill="white"/>
<path d="M23.9832 23.3683H7.75584C7.62122 23.387 7.49837 23.4552 7.4112 23.5594C7.32404 23.6637 7.27879 23.7967 7.28427 23.9325C7.29266 24.0137 7.29266 24.0956 7.28427 24.1767C7.27924 24.2452 7.29212 24.3139 7.32165 24.3759C7.35118 24.4379 7.39634 24.4912 7.45269 24.5304C7.57288 24.6451 7.73292 24.7085 7.899 24.7073H24.0758C24.1721 24.7042 24.2665 24.6802 24.3526 24.637C24.4386 24.5939 24.5143 24.5325 24.5744 24.4573C24.6344 24.382 24.6774 24.2946 24.7004 24.2011C24.7234 24.1076 24.7258 24.0102 24.7074 23.9157C24.6785 23.7497 24.5876 23.6009 24.4532 23.4993C24.3188 23.3977 24.1508 23.3509 23.9832 23.3683V23.3683Z" fill="white"/>
</svg>
