<svg width="32" height="32" viewBox="0 0 32 32" fill="none" xmlns="http://www.w3.org/2000/svg">
<path d="M16 32C24.8366 32 32 24.8366 32 16C32 7.16344 24.8366 0 16 0C7.16344 0 0 7.16344 0 16C0 24.8366 7.16344 32 16 32Z" fill="#39ABEB"/>
<path d="M19.0192 12.7999V18.2293C19.0135 18.2744 19.0204 18.3203 19.0393 18.3617C19.0581 18.4032 19.0881 18.4386 19.1259 18.4639C19.772 18.9467 20.2851 19.5855 20.6171 20.3205C20.9492 21.0555 21.0894 21.8627 21.0246 22.6666C20.968 23.7285 20.565 24.7425 19.8772 25.5536C19.1895 26.3646 18.2549 26.9279 17.2166 27.1573C16.5004 27.3312 15.7535 27.336 15.0352 27.1712C14.3168 27.0064 13.6467 26.6766 13.0779 26.2079C12.4981 25.7475 12.0298 25.162 11.7079 24.4953C11.3859 23.8285 11.2188 23.0977 11.2188 22.3573C11.2187 21.6169 11.3859 20.886 11.7079 20.2193C12.0298 19.5525 12.4981 18.9671 13.0779 18.5066C13.1264 18.4714 13.1654 18.4247 13.1915 18.3707C13.2176 18.3168 13.2298 18.2572 13.2272 18.1973C13.2272 14.6879 13.2272 11.1893 13.2272 7.67995C13.2079 7.1483 13.3362 6.62169 13.5979 6.15852C13.8596 5.69534 14.2445 5.31371 14.7099 5.05595C15.2796 4.73331 15.9409 4.61054 16.5884 4.70719C17.236 4.80384 17.8326 5.11435 18.2832 5.58928C18.8106 6.17192 19.0899 6.93725 19.0619 7.72261L19.0192 12.7999ZM17.9526 13.1519V8.30928C17.9526 8.05328 17.9526 7.78661 17.9526 7.53061C17.9268 7.26014 17.8431 6.99839 17.7069 6.76326C17.5708 6.52813 17.3855 6.32516 17.1637 6.1682C16.942 6.01124 16.6889 5.90399 16.4219 5.85378C16.1549 5.80357 15.8802 5.81159 15.6166 5.87728C15.2138 5.97913 14.8578 6.21545 14.6076 6.54714C14.3574 6.87882 14.2279 7.28599 14.2406 7.70128V18.8159C14.2452 18.8622 14.2367 18.9087 14.2159 18.9503C14.1951 18.9918 14.163 19.0266 14.1232 19.0506C13.9384 19.18 13.7604 19.3188 13.5899 19.4666C13.0729 19.9165 12.6828 20.4939 12.4582 21.1414C12.2336 21.7889 12.1825 22.4839 12.3099 23.1573C12.4367 23.8852 12.7773 24.559 13.2882 25.0928C13.7992 25.6266 14.4575 25.9962 15.1792 26.1546C15.8815 26.3305 16.6195 26.3015 17.3057 26.0708C17.992 25.8402 18.5978 25.4176 19.0512 24.8533C19.5904 24.206 19.9031 23.4001 19.9416 22.5585C19.9802 21.7169 19.7424 20.8858 19.2646 20.1919C18.9389 19.7526 18.5424 19.3704 18.0912 19.0613C18.0469 19.0334 18.0114 18.9936 17.9887 18.9464C17.9661 18.8992 17.9572 18.8466 17.9632 18.7946L17.9526 13.1519Z" fill="white"/>
<path d="M20.2676 14.6561V13.5894H22.8596C22.9842 13.5749 23.1099 13.6057 23.2137 13.6762C23.3175 13.7467 23.3925 13.8522 23.4249 13.9734C23.4473 14.051 23.4522 14.1326 23.4392 14.2123C23.4261 14.2919 23.3955 14.3677 23.3496 14.4341C23.3036 14.5005 23.2435 14.5558 23.1735 14.596C23.1035 14.6363 23.0254 14.6605 22.9449 14.6668C22.0596 14.6668 21.1742 14.6668 20.2996 14.6668L20.2676 14.6561Z" fill="white"/>
<path d="M20.2676 7.89328H22.9129C23.0217 7.88191 23.1312 7.90723 23.224 7.96521C23.3167 8.02319 23.3875 8.1105 23.4249 8.21328C23.4662 8.32543 23.4709 8.44779 23.4383 8.56277C23.4058 8.67776 23.3376 8.77947 23.2436 8.85328C23.1571 8.9183 23.053 8.9555 22.9449 8.95995H20.2676V7.89328Z" fill="white"/>
<path d="M20.2676 11.8401V10.7734H21.8676C22.0045 10.7676 22.1382 10.8157 22.2399 10.9075C22.3417 10.9993 22.4033 11.1273 22.4116 11.2641C22.4179 11.4044 22.3708 11.5418 22.2797 11.6487C22.1886 11.7556 22.0604 11.824 21.9209 11.8401C21.3876 11.8508 20.8542 11.8401 20.2676 11.8401Z" fill="white"/>
<path d="M16.1285 24.8106H15.8405C15.4058 24.7679 14.9915 24.6058 14.6432 24.3422C14.2949 24.0787 14.0264 23.724 13.8671 23.3173C13.6518 22.873 13.5864 22.3708 13.6806 21.8862C13.7749 21.4016 14.0237 20.9605 14.3898 20.6293C14.621 20.4198 14.8669 20.2273 15.1258 20.0533L15.3498 19.8933C15.4514 19.8285 15.5343 19.7383 15.5904 19.6317C15.6465 19.5251 15.6739 19.4057 15.6698 19.2853V11.8186H16.5765V19.2853C16.5722 19.3962 16.5965 19.5065 16.6469 19.6054C16.6973 19.7044 16.7722 19.7888 16.8645 19.8506L16.9818 19.9253L17.6858 20.4266C18.1184 20.788 18.4153 21.2858 18.5277 21.8382C18.6401 22.3906 18.5614 22.9648 18.3045 23.4666C18.1014 23.8698 17.7905 24.2089 17.4064 24.4462C17.0223 24.6834 16.5799 24.8096 16.1285 24.8106Z" fill="white"/>
</svg>
