<svg width="32" height="32" viewBox="0 0 32 32" fill="none" xmlns="http://www.w3.org/2000/svg">
<path d="M16 32C24.8366 32 32 24.8366 32 16C32 7.16344 24.8366 0 16 0C7.16344 0 0 7.16344 0 16C0 24.8366 7.16344 32 16 32Z" fill="#84B5D0"/>
<path d="M5.3815 15.5536C5.45323 13.5615 6.10063 11.6328 7.24541 10.0008C8.39018 8.36881 9.98328 7.10348 11.832 6.35783C14.1088 5.37177 16.6603 5.21959 19.0382 5.92802C21.416 6.63646 23.4682 8.16019 24.8341 10.2315C26.2686 12.3461 26.8686 14.9172 26.5183 17.4484C26.3467 18.882 25.8793 20.2644 25.1459 21.5081C24.4124 22.7517 23.4288 23.8297 22.2573 24.6736C22.1922 24.7353 22.1148 24.7824 22.0301 24.8119C21.9455 24.8413 21.8555 24.8524 21.7662 24.8444C21.6769 24.8364 21.5903 24.8094 21.5123 24.7654C21.4342 24.7213 21.3664 24.6611 21.3134 24.5888C21.2604 24.5165 21.2234 24.4338 21.2048 24.3461C21.1862 24.2584 21.1866 24.1677 21.2058 24.0802C21.2249 23.9926 21.2626 23.9101 21.3161 23.8382C21.3696 23.7663 21.4379 23.7066 21.5162 23.6631C23.1032 22.5058 24.2861 20.8788 24.8976 19.0122C25.509 17.1457 25.5181 15.1341 24.9235 13.2621C24.3288 11.3902 23.1606 9.75255 21.5841 8.58099C20.0076 7.40944 18.1027 6.76327 16.1387 6.73389C14.1748 6.70451 12.2514 7.29342 10.6405 8.41729C9.02971 9.54116 7.81305 11.1431 7.1627 12.9965C6.51234 14.8498 6.46123 16.8607 7.01658 18.7447C7.57194 20.6287 8.70564 22.2904 10.2573 23.4947C10.4678 23.6631 10.6615 23.8315 10.6447 24.1178C10.6468 24.2328 10.6152 24.3459 10.5539 24.4431C10.4925 24.5404 10.4041 24.6176 10.2994 24.6652C10.1911 24.7218 10.0683 24.7449 9.94678 24.7314C9.82528 24.7179 9.71057 24.6684 9.61729 24.5894C8.7607 23.9478 8.00802 23.178 7.38571 22.3073C6.00251 20.3332 5.29905 17.9627 5.3815 15.5536Z" fill="white"/>
<path d="M15.9992 8.58105C17.7196 8.60047 19.3822 9.20468 20.7137 10.2943C22.0451 11.384 22.9662 12.8943 23.3255 14.5768C23.4155 15.0464 23.469 15.5222 23.4855 16C23.4961 16.0859 23.4886 16.173 23.4637 16.2559C23.4387 16.3387 23.3968 16.4155 23.3406 16.4812C23.2843 16.547 23.215 16.6003 23.137 16.6378C23.059 16.6753 22.9741 16.6961 22.8876 16.699C22.8 16.7002 22.713 16.6835 22.632 16.6497C22.5511 16.616 22.478 16.566 22.4172 16.5028C22.3564 16.4397 22.3092 16.3647 22.2786 16.2825C22.248 16.2004 22.2346 16.1128 22.2392 16.0253C22.2424 14.9406 21.9514 13.8755 21.3971 12.9432C20.8368 11.9369 20.0014 11.111 18.9888 10.5622C17.9762 10.0134 16.8282 9.76432 15.6792 9.84421C14.2089 9.90213 12.8076 10.4826 11.7271 11.4814C10.6465 12.4801 9.95772 13.8315 9.78446 15.2926C9.75477 15.533 9.7379 15.7747 9.73393 16.0168C9.7385 16.1048 9.72512 16.1927 9.69459 16.2753C9.66405 16.3579 9.61702 16.4335 9.55634 16.4973C9.49567 16.5611 9.42263 16.6119 9.34168 16.6466C9.26073 16.6812 9.17357 16.6991 9.08551 16.699C8.99755 16.6949 8.91137 16.6728 8.83235 16.634C8.75333 16.5952 8.68317 16.5405 8.62626 16.4733C8.56935 16.4061 8.52692 16.3279 8.50161 16.2436C8.47631 16.1592 8.46867 16.0706 8.47919 15.9832C8.49868 14.2362 9.12921 12.5512 10.2614 11.2206C11.3935 9.89007 12.9558 8.99789 14.6771 8.69895C15.1571 8.65684 15.5781 8.63158 15.9992 8.58105Z" fill="white"/>
<path d="M16.05 19.8148C15.7653 19.8203 15.4833 19.7603 15.2254 19.6396C14.9676 19.5189 14.7409 19.3407 14.5628 19.1187C14.3847 18.8966 14.2598 18.6366 14.1979 18.3588C14.136 18.0809 14.1387 17.7926 14.2058 17.5159C14.2255 17.4584 14.2245 17.3957 14.203 17.3388C14.1814 17.282 14.1407 17.2344 14.0879 17.2043L11.5615 15.0738C11.4552 14.9992 11.374 14.894 11.3289 14.7721C11.2838 14.6503 11.2768 14.5176 11.3089 14.3917C11.3359 14.2861 11.3901 14.1894 11.4661 14.1113C11.5421 14.0333 11.6373 13.9765 11.7421 13.9466C11.8469 13.9168 11.9577 13.915 12.0635 13.9414C12.1692 13.9677 12.2662 14.0214 12.3447 14.0969L14.071 15.5706L14.8626 16.2612C14.898 16.3003 14.9459 16.326 14.9982 16.3336C15.0504 16.3413 15.1037 16.3306 15.1489 16.3033C15.4607 16.1506 15.8091 16.0886 16.1544 16.1244C16.4997 16.1602 16.828 16.2922 17.1019 16.5056C17.3758 16.7189 17.5842 17.0048 17.7035 17.3309C17.8227 17.6569 17.8479 18.0099 17.7763 18.3496C17.7133 18.6939 17.549 19.0116 17.3045 19.2621C17.06 19.5127 16.7464 19.6846 16.4036 19.7559C16.2876 19.7852 16.1693 19.805 16.05 19.8148Z" fill="white"/>
</svg>
