<svg width="32" height="32" viewBox="0 0 32 32" fill="none" xmlns="http://www.w3.org/2000/svg">
<path d="M16 32C24.8366 32 32 24.8366 32 16C32 7.16344 24.8366 0 16 0C7.16344 0 0 7.16344 0 16C0 24.8366 7.16344 32 16 32Z" fill="#8ED05A"/>
<path d="M26.7365 20.3454H25.2207V19.0822H25.4733V18.8296H26.7365V20.3454Z" fill="white"/>
<path d="M23.5798 20.3452H21.8956V19.082H23.5798V20.3452ZM20.2113 20.3452H18.5271V19.082H20.2113V20.3452ZM16.8429 20.3452H15.1587V19.082H16.8429V20.3452ZM13.4745 20.3452H11.7903V19.082H13.4745V20.3452ZM10.1061 20.3452H8.42188V19.082H10.1061V20.3452Z" fill="white"/>
<path d="M6.77946 20.3454H5.26367V18.8296H6.52683V19.0822H6.77946V20.3454Z" fill="white"/>
<path d="M6.52683 17.3306H5.26367V15.8316H6.52683V17.3306ZM6.52683 14.3327H5.26367V12.8337H6.52683V14.3327Z" fill="white"/>
<path d="M6.52683 11.3346H5.26367V9.81885H6.77946V11.082H6.52683V11.3346Z" fill="white"/>
<path d="M23.5798 11.082H21.8956V9.81885H23.5798V11.082ZM20.2113 11.082H18.5271V9.81885H20.2113V11.082ZM16.8429 11.082H15.1587V9.81885H16.8429V11.082ZM13.4745 11.082H11.7903V9.81885H13.4745V11.082ZM10.1061 11.082H8.42188V9.81885H10.1061V11.082Z" fill="white"/>
<path d="M26.7365 11.3346H25.4733V11.082H25.2207V9.81885H26.7365V11.3346Z" fill="white"/>
<path d="M26.7378 17.3306H25.4746V15.8316H26.7378V17.3306ZM26.7378 14.3327H25.4746V12.8337H26.7378V14.3327Z" fill="white"/>
<path d="M16 23.8654C11.5372 23.9368 7.11127 23.0464 3.02319 21.2548L2.45898 20.977L5.05267 10.5854C5.09258 10.4315 5.16793 10.2891 5.27269 10.1696C5.37746 10.0501 5.50873 9.9567 5.65603 9.89696C5.80332 9.83723 5.96255 9.81278 6.12098 9.82557C6.27941 9.83836 6.43266 9.88804 6.56846 9.97064C7.41056 10.4927 10.5348 12.2022 15.9916 12.2022C21.4485 12.2022 24.5895 10.518 25.4148 9.97064C25.5506 9.88804 25.7038 9.83836 25.8622 9.82557C26.0207 9.81278 26.1799 9.83723 26.3272 9.89696C26.4745 9.9567 26.6058 10.0501 26.7105 10.1696C26.8153 10.2891 26.8907 10.4315 26.9306 10.5854L29.5327 20.977L28.9685 21.2548C24.883 23.0452 20.4601 23.9356 16 23.8654ZM4.27793 20.118C8.01016 21.5878 11.9889 22.331 16 22.3075C20.0112 22.331 23.9899 21.5878 27.7221 20.118L25.6085 11.697C22.6188 13.1492 19.3223 13.857 16 13.7601C12.6754 13.8422 9.37979 13.123 6.39162 11.6633L4.27793 20.118Z" fill="white"/>
</svg>
