<svg width="32" height="32" viewBox="0 0 32 32" fill="none" xmlns="http://www.w3.org/2000/svg">
<path d="M16 32C24.8366 32 32 24.8366 32 16C32 7.16344 24.8366 0 16 0C7.16344 0 0 7.16344 0 16C0 24.8366 7.16344 32 16 32Z" fill="#4FC5CC"/>
<path d="M22.1398 21.8948H21.9966C21.8743 21.8563 21.7663 21.7819 21.6867 21.6813C21.6071 21.5807 21.5596 21.4585 21.5503 21.3306C21.5313 21.206 21.551 21.0787 21.6067 20.9657C21.6624 20.8528 21.7515 20.7597 21.8619 20.699C22.1157 20.548 22.3604 20.3821 22.5945 20.2021C23.1084 19.7874 23.5422 19.2822 23.8745 18.7116C24.1291 18.2503 24.3136 17.7536 24.4219 17.2379C24.5464 16.7086 24.5918 16.1637 24.5566 15.6211C24.4973 14.8246 24.2609 14.0513 23.8646 13.3579C23.4684 12.6644 22.9222 12.0681 22.2661 11.6127C22.1229 11.5116 21.9798 11.4274 21.8366 11.3432C21.7213 11.276 21.6285 11.1762 21.5701 11.0562C21.5116 10.9363 21.4901 10.8017 21.5082 10.6695C21.5288 10.5322 21.5919 10.4048 21.6885 10.3051C21.7851 10.2055 21.9106 10.1385 22.0471 10.1137C22.2002 10.0888 22.3572 10.1154 22.4935 10.1895C23.5085 10.7574 24.3565 11.5822 24.9524 12.5811C25.3826 13.2841 25.6688 14.0655 25.7945 14.88C25.845 15.1664 25.8535 15.4527 25.8871 15.7221C25.8871 15.7221 25.8871 15.7642 25.8871 15.7895V16.16C25.8871 16.16 25.8871 16.2106 25.8871 16.2358C25.8871 16.5221 25.8366 16.8085 25.7945 17.0779C25.6933 17.7397 25.4827 18.38 25.1714 18.9727C24.6985 19.9201 24.0019 20.7381 23.1419 21.3558C22.8845 21.5825 22.5837 21.7544 22.2577 21.8611L22.1398 21.8948Z" fill="white"/>
<path d="M8.53072 14.501L8.4802 14.6778C8.33704 15.1747 8.2023 15.6631 8.06757 16.1515C8.03481 16.2923 7.9571 16.4186 7.84619 16.5113C7.73527 16.604 7.59719 16.658 7.45283 16.6652C7.19178 16.6652 6.93072 16.6652 6.66967 16.6652C6.52608 16.6559 6.38981 16.5985 6.28286 16.5023C6.17591 16.406 6.10451 16.2765 6.0802 16.1347C6.06009 16.0375 6.06199 15.937 6.08575 15.8407C6.10951 15.7443 6.15453 15.6545 6.21751 15.5778C6.28049 15.5011 6.35983 15.4394 6.44973 15.3974C6.53963 15.3553 6.63779 15.3339 6.73704 15.3347H6.80441C6.93072 15.3347 6.93072 15.3347 6.96441 15.2168C7.34336 13.8694 7.7223 12.5136 8.10967 11.1663C8.1343 11.0468 8.19388 10.9374 8.28086 10.852C8.36783 10.7665 8.47825 10.7088 8.59809 10.6863C8.68962 10.66 8.78571 10.6538 8.87988 10.6679C8.97404 10.682 9.06408 10.7161 9.14391 10.768C9.22374 10.8199 9.2915 10.8883 9.34262 10.9686C9.39373 11.049 9.42701 11.1393 9.4402 11.2336C9.54125 11.8484 9.63388 12.4631 9.72651 13.0863L9.97915 14.6694C10.0549 15.1831 10.1307 15.6884 10.2149 16.1936C10.2237 16.271 10.2406 16.3472 10.2655 16.421C10.2655 16.2947 10.3244 16.1599 10.3497 16.0336C10.4928 15.4189 10.636 14.8042 10.7707 14.1894C10.9055 13.5747 11.0991 12.7915 11.2591 12.0926L11.4613 11.1831C11.4971 11.0455 11.5746 10.9222 11.6831 10.8303C11.7916 10.7384 11.9259 10.6822 12.0676 10.6694C12.2176 10.6607 12.3662 10.7024 12.4898 10.7878C12.6134 10.8733 12.7048 10.9976 12.7497 11.141C12.876 11.5789 13.0023 11.9831 13.1202 12.4547C13.3897 13.3978 13.6591 14.341 13.9202 15.2842C13.9202 15.3263 13.9202 15.3347 13.9876 15.3347H18.1055C18.1209 15.3363 18.1364 15.3331 18.15 15.3255C18.1635 15.318 18.1744 15.3065 18.1813 15.2926C18.3177 15.0687 18.5184 14.8912 18.7573 14.783C18.9961 14.6749 19.2619 14.6412 19.5202 14.6863C19.7925 14.7333 20.0435 14.864 20.2381 15.0602C20.4328 15.2564 20.5616 15.5083 20.6065 15.781C20.6377 15.955 20.6334 16.1335 20.5939 16.3058C20.5545 16.4782 20.4806 16.6407 20.3768 16.7838C20.273 16.9269 20.1414 17.0476 19.9899 17.1387C19.8384 17.2297 19.67 17.2892 19.4949 17.3136C19.2413 17.3565 18.9806 17.3225 18.7465 17.2159C18.5124 17.1093 18.3155 16.9351 18.1813 16.7157C18.1713 16.7002 18.1576 16.6874 18.1414 16.6786C18.1252 16.6697 18.1071 16.6651 18.0886 16.6652H13.4739C13.376 16.67 13.2784 16.6528 13.188 16.6149C13.0977 16.577 13.017 16.5194 12.9518 16.4463C12.8698 16.3586 12.8118 16.2513 12.7834 16.1347C12.5897 15.4357 12.3876 14.7368 12.1855 14.0378C12.1855 14.0378 12.1855 14.1894 12.1349 14.2652L11.4528 17.2126C11.2255 18.2063 10.9981 19.1915 10.7623 20.1852C10.7287 20.3366 10.6426 20.4712 10.5193 20.5652C10.3961 20.6592 10.2435 20.7066 10.0886 20.6989C9.93346 20.6909 9.78583 20.6295 9.67073 20.5252C9.55563 20.4208 9.48014 20.2799 9.45704 20.1263L9.17915 18.3157C9.09493 17.8021 9.01915 17.2968 8.94336 16.7915L8.58967 14.821L8.53915 14.5094L8.53072 14.501Z" fill="white"/>
<path d="M23.2599 16C23.2642 16.9684 22.9103 17.9042 22.2662 18.6274C21.9679 18.9614 21.6183 19.2456 21.2304 19.4695C21.1283 19.5294 21.012 19.561 20.8936 19.561C20.7751 19.561 20.6589 19.5294 20.5567 19.4695C20.4534 19.4112 20.3686 19.325 20.312 19.2207C20.2554 19.1165 20.2293 18.9984 20.2367 18.88C20.2338 18.7637 20.2638 18.649 20.3234 18.5491C20.3831 18.4492 20.4698 18.3683 20.5736 18.3158C20.9135 18.1278 21.2082 17.8677 21.4369 17.5537C21.6656 17.2398 21.8228 16.8795 21.8974 16.4983C21.972 16.1171 21.9623 15.7242 21.8689 15.3471C21.7755 14.9701 21.6007 14.6181 21.3567 14.3158C21.1375 14.0457 20.8689 13.82 20.5652 13.6505C20.4436 13.5853 20.3457 13.4836 20.2852 13.3596C20.2248 13.2357 20.2049 13.0959 20.2283 12.96C20.2506 12.827 20.3122 12.7037 20.4053 12.6061C20.4984 12.5085 20.6186 12.4411 20.7504 12.4126C20.8346 12.3923 20.9221 12.3893 21.0075 12.4038C21.0929 12.4182 21.1745 12.4499 21.2473 12.4968C21.7218 12.7637 22.1358 13.1259 22.4634 13.5607C22.791 13.9955 23.0249 14.4935 23.1504 15.0232C23.2289 15.3427 23.2657 15.671 23.2599 16Z" fill="white"/>
</svg>
