<svg width="32" height="32" viewBox="0 0 32 32" fill="none" xmlns="http://www.w3.org/2000/svg">
<path d="M16 32C24.8366 32 32 24.8366 32 16C32 7.16344 24.8366 0 16 0C7.16344 0 0 7.16344 0 16C0 24.8366 7.16344 32 16 32Z" fill="#8975D9"/>
<path d="M17.2219 25.7095H16.624L14.9398 25.6674C14.6822 25.6567 14.4301 25.5893 14.2016 25.4699C13.973 25.3505 13.7736 25.1822 13.6177 24.9769C13.3166 24.6172 13.1631 24.1568 13.1882 23.6884C13.1882 22.6105 13.1882 21.5327 13.1882 20.4548V15.7053C13.2204 15.7288 13.2489 15.7572 13.2724 15.7895C13.685 16.1937 14.1145 16.6316 14.4935 17.0105C14.5198 17.0314 14.5405 17.0585 14.5538 17.0894C14.567 17.1202 14.5723 17.1539 14.5693 17.1874V22.3916C14.5693 22.8127 14.5693 23.2337 14.5693 23.6463C14.5693 23.7221 14.5693 23.7895 14.5693 23.8653C14.5758 23.9785 14.6259 24.0847 14.7092 24.1616C14.7924 24.2386 14.9022 24.2803 15.0156 24.2779C15.4282 24.2779 15.8577 24.2779 16.2703 24.2779H22.7377C23.0661 24.2779 23.3861 24.2779 23.7145 24.2779C24.0429 24.2779 24.144 24.1263 24.1608 23.84C24.1777 23.5537 24.2029 23.04 24.2114 22.6442V15.0653C24.2109 15.0158 24.193 14.9681 24.1608 14.9305C24.0598 14.8295 23.9756 14.6948 23.8493 14.6442C23.7101 14.6184 23.5674 14.6184 23.4282 14.6442H17.2808C17.2462 14.6466 17.2115 14.641 17.1794 14.6278C17.1473 14.6147 17.1186 14.5944 17.0956 14.5684L15.8661 13.3305C15.8396 13.3126 15.8167 13.2897 15.7987 13.2632H23.0745H23.7482C24.1504 13.2564 24.5417 13.3938 24.8514 13.6505C25.2213 13.9237 25.4741 14.3269 25.5587 14.779C25.5986 15.0578 25.6155 15.3395 25.6093 15.6211C25.6093 18.3242 25.6093 21.019 25.6093 23.7221C25.6254 23.9352 25.597 24.1493 25.526 24.3508C25.455 24.5523 25.3428 24.7368 25.1966 24.8927C25.0389 25.0952 24.8446 25.2666 24.624 25.3979C24.3247 25.5601 23.9873 25.6386 23.6472 25.6253H21.7271H21.6093L17.2219 25.7095Z" fill="white"/>
<path d="M16.7922 6.29053C16.9691 6.29053 17.1544 6.29053 17.3312 6.37474C17.7285 6.47133 18.085 6.69117 18.3498 7.00278C18.6145 7.31439 18.7738 7.70179 18.8049 8.10948C18.8049 8.41263 18.8049 8.70737 18.8049 9.01895H17.4407V8.85895C17.4407 8.64 17.4407 8.41263 17.4407 8.19369C17.4363 8.06262 17.3811 7.93839 17.2869 7.84725C17.1926 7.75611 17.0665 7.70519 16.9354 7.70526C16.7952 7.69686 16.6546 7.69686 16.5144 7.70526C16.4302 7.70105 16.3459 7.70105 16.2617 7.70526V6.29053H16.7922Z" fill="white"/>
<path d="M8.94232 6.29053V7.68842H8.74863C8.61403 7.68001 8.47903 7.68001 8.34442 7.68842C8.27118 7.68456 8.19795 7.69643 8.12968 7.72323C8.0614 7.75003 7.99966 7.79114 7.9486 7.84379C7.89754 7.89645 7.85834 7.95943 7.83366 8.0285C7.80897 8.09757 7.79936 8.17112 7.80547 8.24421C7.80547 8.45474 7.80547 8.66526 7.80547 8.87579V9.00211H6.39074V8.69053C6.39074 8.51369 6.39074 8.33684 6.39074 8.16C6.38737 7.88187 6.46018 7.60813 6.60126 7.36842C6.75738 7.07461 6.98506 6.8249 7.26325 6.64238C7.54144 6.45987 7.86116 6.35044 8.19284 6.32421H8.76547L8.94232 6.29053Z" fill="white"/>
<path d="M6.39062 16.3369H6.44957H7.78852C7.78852 16.4548 7.78852 16.5811 7.78852 16.699C7.77949 16.7912 7.79232 16.8843 7.82597 16.9706C7.85962 17.0569 7.91315 17.1341 7.9822 17.1959C8.03006 17.2501 8.09017 17.2922 8.15754 17.3185C8.22491 17.3449 8.2976 17.3548 8.36957 17.3474C8.55484 17.3474 8.7401 17.3474 8.93378 17.3474V18.7285H8.35273C8.03752 18.7296 7.72686 18.6534 7.44792 18.5066C7.16899 18.3598 6.93029 18.1468 6.75273 17.8864C6.54171 17.5777 6.42203 17.2158 6.40747 16.8422C6.41161 16.7917 6.41161 16.741 6.40747 16.6906L6.39062 16.3369Z" fill="white"/>
<path d="M12.0255 6.29053C12.0255 6.29053 12.0255 6.29053 12.0255 6.34947V7.68H10.1055V6.29053H12.0255Z" fill="white"/>
<path d="M6.39062 10.198H6.46641H7.77168V12.118H6.39062V10.198Z" fill="white"/>
<path d="M6.39062 13.2715H7.7801V15.1578H6.39062V13.2715Z" fill="white"/>
<path d="M15.0816 6.29053V7.68H13.1953V6.29053H15.0816Z" fill="white"/>
<path d="M19.7052 18.8042L20.9936 17.5158V20.9769H17.541L18.8378 19.68C18.7956 19.6632 18.7559 19.6405 18.7199 19.6126L11.8399 12.699C11.621 12.48 11.4189 12.2442 11.1999 12.0253C11.1333 11.9511 11.0863 11.8615 11.0632 11.7645C11.0401 11.6676 11.0415 11.5664 11.0675 11.4702C11.0934 11.3739 11.143 11.2857 11.2117 11.2135C11.2805 11.1414 11.3661 11.0875 11.461 11.0569C11.5518 11.0211 11.651 11.0124 11.7466 11.0318C11.8423 11.0513 11.9303 11.098 11.9999 11.1663C12.2778 11.419 12.5641 11.68 12.842 11.9495L18.0294 17.1116L19.6378 18.72C19.664 18.7449 19.6867 18.7732 19.7052 18.8042Z" fill="white"/>
<path d="M18.8219 12.118H17.4492V10.1812H18.8219V12.118Z" fill="white"/>
<path d="M10.1055 18.7199V17.4315C10.1055 17.3473 10.1644 17.3557 10.2149 17.3557H10.897H12.017V18.7283L10.1055 18.7199Z" fill="white"/>
</svg>
