<svg width="32" height="32" viewBox="0 0 32 32" fill="none" xmlns="http://www.w3.org/2000/svg">
<path d="M16 32C24.8366 32 32 24.8366 32 16C32 7.16344 24.8366 0 16 0C7.16344 0 0 7.16344 0 16C0 24.8366 7.16344 32 16 32Z" fill="#59D298"/>
<path d="M20.2098 25.6842C20.0207 25.6242 19.8513 25.5143 19.7194 25.3661C19.5875 25.2179 19.498 25.0369 19.4604 24.8421C19.0056 23.2505 18.5004 21.6674 18.0709 20.0674C17.6392 18.5231 17.4573 16.9196 17.5319 15.3179C17.6041 14.0343 17.8217 12.763 18.1804 11.5284C18.5593 10.1726 18.9804 8.82525 19.3762 7.47788L19.5277 6.98946C19.5522 6.87201 19.6014 6.76114 19.6722 6.66426C19.7429 6.56739 19.8336 6.48675 19.938 6.42774C20.0425 6.36874 20.1583 6.33274 20.2778 6.32214C20.3973 6.31154 20.5177 6.3266 20.6309 6.3663C20.7466 6.39529 20.8549 6.44853 20.9485 6.5225C21.042 6.59647 21.1189 6.68948 21.1738 6.79538C21.2287 6.90127 21.2605 7.01763 21.2671 7.13674C21.2737 7.25585 21.2549 7.37501 21.2119 7.4863C20.9341 8.42104 20.6393 9.3642 20.3698 10.2989C19.9855 11.5064 19.6845 12.7387 19.4688 13.9874C19.288 15.0726 19.254 16.1772 19.3677 17.2716C19.5291 18.6024 19.811 19.9159 20.2098 21.1958C20.5298 22.2821 20.8667 23.36 21.2035 24.4295C21.298 24.6353 21.3115 24.8692 21.2412 25.0846C21.171 25.2999 21.0223 25.481 20.8246 25.5916L20.5551 25.701L20.2098 25.6842Z" fill="white"/>
<path d="M11.4528 25.6842C11.2679 25.6483 11.0991 25.5549 10.9705 25.4172C10.842 25.2796 10.7602 25.1048 10.737 24.9179C10.7304 24.7496 10.7532 24.5815 10.8044 24.421C11.217 23.0315 11.6465 21.6505 12.0507 20.2526C12.3412 19.2401 12.5357 18.2026 12.6318 17.1537C12.7286 16.169 12.7032 15.1762 12.556 14.1979C12.2341 12.3615 11.7667 10.5537 11.1581 8.79155C11.0233 8.35365 10.8886 7.94944 10.7623 7.47786C10.7192 7.36713 10.7001 7.24854 10.7062 7.12989C10.7122 7.01124 10.7433 6.89521 10.7974 6.78943C10.8515 6.68364 10.9273 6.5905 11.02 6.51612C11.1126 6.44175 11.2199 6.38781 11.3349 6.35786C11.447 6.31802 11.5662 6.30237 11.6847 6.31193C11.8033 6.32149 11.9184 6.35605 12.0226 6.41332C12.1269 6.4706 12.2178 6.54931 12.2894 6.64425C12.361 6.7392 12.4116 6.84823 12.4381 6.96418C12.9939 8.77471 13.6254 10.56 14.0128 12.421C14.1883 13.2554 14.3177 14.0987 14.4002 14.9473C14.5409 16.8187 14.3353 18.7 13.7939 20.4968C13.3897 21.9621 12.9518 23.4021 12.5054 24.8589C12.4711 25.0538 12.3838 25.2354 12.2531 25.384C12.1224 25.5325 11.9533 25.6422 11.7644 25.701L11.4528 25.6842Z" fill="white"/>
<path d="M15.8566 25.6842C15.6816 25.6515 15.5202 25.5676 15.3928 25.4432C15.2654 25.3188 15.1778 25.1595 15.1409 24.9853C15.1327 24.9181 15.1327 24.8503 15.1409 24.7832C15.1409 18.9333 15.1409 13.0779 15.1409 7.21685C15.1409 6.98234 15.234 6.75744 15.3998 6.59162C15.5657 6.4258 15.7906 6.33264 16.0251 6.33264C16.2596 6.33264 16.4845 6.4258 16.6503 6.59162C16.8161 6.75744 16.9093 6.98234 16.9093 7.21685V24.7663C16.9123 24.9755 16.845 25.1796 16.7183 25.346C16.5916 25.5124 16.4127 25.6315 16.2103 25.6842H15.8566Z" fill="white"/>
<path d="M25.9037 16.1515C25.8369 16.3062 25.758 16.4555 25.6679 16.5979C25.5944 16.6917 25.4994 16.7667 25.391 16.8165C25.2826 16.8663 25.1639 16.8895 25.0448 16.8842C24.4637 16.8842 23.8743 16.8842 23.2679 16.8842V17.4315C23.2679 17.7852 23.2679 18.1305 23.2679 18.4758C23.2716 18.5749 23.2433 18.6727 23.1872 18.7545C23.1311 18.8364 23.0502 18.8981 22.9564 18.9305C22.8719 18.9741 22.7752 18.9879 22.6819 18.9695C22.5886 18.9512 22.5043 18.9018 22.4427 18.8294L19.9164 16.3789C19.6216 16.0926 19.6216 15.9158 19.9164 15.621C20.7585 14.7789 21.6006 13.9958 22.4427 13.1789C22.5085 13.1028 22.5965 13.0493 22.6943 13.0259C22.7921 13.0026 22.8948 13.0105 22.9879 13.0487C23.081 13.0869 23.1597 13.1533 23.213 13.2386C23.2662 13.3239 23.2914 13.4238 23.2848 13.5242C23.2848 14.0042 23.2848 14.4842 23.2848 14.9726V15.1579H25.0111C25.2069 15.1535 25.3982 15.2175 25.5519 15.339C25.7056 15.4604 25.8121 15.6316 25.8532 15.8231V15.8905L25.9037 16.1515Z" fill="white"/>
<path d="M6.09766 15.8147C6.14036 15.6602 6.22142 15.519 6.33331 15.4041C6.4452 15.2893 6.58428 15.2046 6.73766 15.1579C6.81603 15.1496 6.89507 15.1496 6.97345 15.1579C7.5545 15.1579 8.13555 15.1579 8.74187 15.1579V14.9726C8.74187 14.5179 8.74187 14.0547 8.74187 13.6C8.73301 13.4946 8.7586 13.3892 8.81479 13.2996C8.87097 13.21 8.95472 13.1411 9.05345 13.1032C9.14466 13.062 9.24691 13.052 9.34435 13.0749C9.44179 13.0977 9.52898 13.152 9.59239 13.2295C10.4345 14.0716 11.2766 14.9137 12.1187 15.6884C12.1726 15.7275 12.2165 15.7787 12.2468 15.838C12.2771 15.8973 12.2928 15.9629 12.2928 16.0295C12.2928 16.096 12.2771 16.1617 12.2468 16.2209C12.2165 16.2802 12.1726 16.3315 12.1187 16.3705L9.59239 18.8042C9.52696 18.8939 9.43291 18.9586 9.32575 18.9877C9.2186 19.0168 9.10473 19.0085 9.00292 18.9642C8.90531 18.919 8.82436 18.8443 8.77148 18.7506C8.7186 18.6569 8.69646 18.549 8.70818 18.4421C8.70818 17.9368 8.70818 17.44 8.70818 16.9179H7.02397C6.82697 16.9219 6.6348 16.8566 6.48093 16.7335C6.32707 16.6104 6.22124 16.4373 6.18187 16.2442V16.1853L6.09766 15.8147Z" fill="white"/>
</svg>
