<svg width="32" height="32" viewBox="0 0 32 32" fill="none" xmlns="http://www.w3.org/2000/svg">
<path d="M16 32C24.8366 32 32 24.8366 32 16C32 7.16344 24.8366 0 16 0C7.16344 0 0 7.16344 0 16C0 24.8366 7.16344 32 16 32Z" fill="#5DD5CD"/>
<path d="M16.0006 7.62937H23.0322C23.5892 7.62165 24.1306 7.81354 24.5585 8.17034C24.9863 8.52713 25.2724 9.02527 25.3648 9.57464C25.4035 9.85356 25.4176 10.1353 25.4069 10.4167V21.8946C25.4198 22.2174 25.3661 22.5393 25.249 22.8403C25.1319 23.1413 24.954 23.415 24.7264 23.6441C24.4988 23.8733 24.2264 24.0531 23.9262 24.1723C23.626 24.2914 23.3045 24.3474 22.9817 24.3367H9.01113C8.68832 24.3474 8.36678 24.2914 8.06658 24.1723C7.76639 24.0531 7.49399 23.8733 7.2664 23.6441C7.0388 23.415 6.86091 23.1413 6.74382 22.8403C6.62672 22.5393 6.57296 22.2174 6.58587 21.8946V10.1052C6.57289 9.7806 6.62711 9.45685 6.74514 9.15423C6.86316 8.8516 7.04244 8.57663 7.27173 8.34655C7.50102 8.11647 7.77537 7.93624 8.07759 7.81718C8.37981 7.69812 8.70336 7.64278 9.02797 7.65464L16.0006 7.62937ZM16.0006 9.20411H9.12902C8.98637 9.18707 8.8422 9.18707 8.69955 9.20411C8.52408 9.25807 8.37315 9.37195 8.2731 9.52587C8.17305 9.67978 8.13026 9.86396 8.15218 10.0462V21.8946C8.1432 22.0134 8.16115 22.1328 8.2047 22.2437C8.24825 22.3546 8.31627 22.4542 8.4037 22.5352C8.49113 22.6161 8.59571 22.6763 8.70963 22.7112C8.82355 22.7461 8.94389 22.7548 9.06166 22.7367H22.9564C23.0729 22.7521 23.1913 22.7412 23.3031 22.7051C23.4149 22.6689 23.5173 22.6083 23.6027 22.5277C23.6882 22.4471 23.7546 22.3484 23.7972 22.2389C23.8398 22.1294 23.8575 22.0118 23.849 21.8946V10.1052C23.8606 9.98248 23.845 9.85876 23.8035 9.74273C23.762 9.6267 23.6955 9.5212 23.6088 9.43366C23.5221 9.34613 23.4172 9.27869 23.3016 9.23612C23.1859 9.19355 23.0623 9.17687 22.9396 9.18727L16.0006 9.20411Z" fill="white"/>
<path d="M9.07812 14.3158C9.76524 13.0341 10.7996 11.972 12.0626 11.2511C13.3256 10.5302 14.7662 10.1798 16.2192 10.24C17.6063 10.2534 18.9642 10.6406 20.1498 11.3608C21.3354 12.0811 22.3049 13.1078 22.956 14.3327L22.7371 14.4842L16.1771 18.5264C16.1313 18.5655 16.0731 18.587 16.0129 18.587C15.9526 18.587 15.8944 18.5655 15.8487 18.5264L9.26339 14.459C9.1965 14.4183 9.13436 14.3703 9.07812 14.3158ZM14.1308 13.1285L16.1939 17.2548L21.4823 13.9958C20.8075 13.0842 19.9134 12.3576 18.8829 11.8836C17.8525 11.4096 16.719 11.2034 15.5876 11.2842C14.5962 11.3336 13.6283 11.6034 12.7542 12.0739C11.8802 12.5444 11.1221 13.2038 10.535 14.0042L14.5687 16.4885L13.1371 13.6253L14.1308 13.1285Z" fill="white"/>
<path d="M12.336 20.2106C12.3322 20.4163 12.2878 20.6192 12.2055 20.8077C12.1232 20.9963 12.0046 21.1668 11.8564 21.3095C11.7082 21.4522 11.5334 21.5643 11.3419 21.6395C11.1504 21.7146 10.9459 21.7513 10.7402 21.7474C10.5346 21.7435 10.3316 21.6992 10.1431 21.6169C9.95453 21.5346 9.78403 21.416 9.64132 21.2678C9.49861 21.1196 9.38649 20.9448 9.31135 20.7533C9.23621 20.5618 9.19953 20.3573 9.2034 20.1516C9.21122 19.7362 9.38374 19.3409 9.68301 19.0527C9.98227 18.7645 10.3838 18.607 10.7992 18.6148C11.2146 18.6226 11.6099 18.7951 11.8981 19.0944C12.1863 19.3937 12.3439 19.7952 12.336 20.2106ZM10.7697 20.7074C10.9082 20.7074 11.041 20.6524 11.1389 20.5545C11.2368 20.4566 11.2918 20.3238 11.2918 20.1853C11.2918 20.0468 11.2368 19.914 11.1389 19.8161C11.041 19.7182 10.9082 19.6632 10.7697 19.6632C10.7 19.6621 10.6308 19.6747 10.566 19.7003C10.5012 19.726 10.4421 19.7641 10.3921 19.8126C10.342 19.8611 10.302 19.919 10.2744 19.9829C10.2467 20.0469 10.2319 20.1156 10.2308 20.1853C10.2372 20.3246 10.2965 20.4562 10.3967 20.5532C10.4969 20.6503 10.6303 20.7054 10.7697 20.7074Z" fill="white"/>
<path d="M19.6641 20.2106C19.6641 19.9012 19.7557 19.5987 19.9275 19.3413C20.0992 19.0839 20.3433 18.8831 20.629 18.7643C20.9148 18.6455 21.2293 18.614 21.5329 18.6738C21.8365 18.7335 22.1156 18.8819 22.335 19.1001C22.5543 19.3183 22.7042 19.5966 22.7656 19.8999C22.8269 20.2032 22.7971 20.5178 22.6799 20.8042C22.5626 21.0905 22.3632 21.3357 22.1067 21.5088C21.8502 21.682 21.5482 21.7752 21.2388 21.7769C21.0324 21.778 20.8278 21.7383 20.6368 21.6601C20.4458 21.5819 20.2721 21.4667 20.1258 21.3211C19.9795 21.1756 19.8633 21.0025 19.7841 20.8119C19.7049 20.6214 19.6641 20.417 19.6641 20.2106ZM21.222 19.6801C21.085 19.6823 20.9543 19.7382 20.8582 19.8359C20.7621 19.9336 20.7083 20.0651 20.7083 20.2022C20.7104 20.34 20.7661 20.4715 20.8636 20.5689C20.961 20.6664 21.0926 20.7221 21.2304 20.7243C21.3004 20.7243 21.3697 20.7103 21.4341 20.683C21.4986 20.6557 21.5569 20.6157 21.6056 20.5654C21.6544 20.5152 21.6925 20.4556 21.7177 20.3903C21.7429 20.325 21.7547 20.2553 21.7525 20.1853C21.7503 20.0461 21.6934 19.9133 21.5941 19.8156C21.4949 19.7179 21.3612 19.6632 21.222 19.6632V19.6801Z" fill="white"/>
</svg>
