<svg width="32" height="32" viewBox="0 0 32 32" fill="none" xmlns="http://www.w3.org/2000/svg">
<path d="M16 32C24.8366 32 32 24.8366 32 16C32 7.16344 24.8366 0 16 0C7.16344 0 0 7.16344 0 16C0 24.8366 7.16344 32 16 32Z" fill="#5EA1DF"/>
<path d="M16.2445 24.32H16.194C16.0589 24.2936 15.9354 24.226 15.8403 24.1265C15.7453 24.0269 15.6835 23.9004 15.6634 23.7642C15.4361 22.56 15.2171 21.3474 14.9982 20.1432C14.754 18.7621 14.5013 17.3811 14.2487 16C14.0213 14.7453 13.794 13.4737 13.5582 12.219C13.5519 12.1747 13.5376 12.1319 13.5161 12.0927C13.4571 12.4127 13.3897 12.7327 13.3224 13.0527L12.0845 19.0316L11.8319 20.2527C11.8121 20.41 11.7387 20.5558 11.6241 20.6654C11.5096 20.7751 11.3607 20.8419 11.2026 20.8548C11.0446 20.8676 10.8869 20.8257 10.7561 20.7359C10.6253 20.6462 10.5294 20.5142 10.4845 20.3621C9.99607 19.0653 9.51045 17.7684 9.02764 16.4716L8.97712 16.3537L8.91817 16.4632C8.72449 16.859 8.52238 17.2463 8.3287 17.6421C8.27159 17.7783 8.17376 17.8935 8.04863 17.9719C7.9235 18.0503 7.77719 18.088 7.62975 18.08H5.77712C5.7093 18.0732 5.64089 18.0844 5.57879 18.1125C5.51669 18.1406 5.4631 18.1846 5.42343 18.24C5.23973 18.4857 4.9777 18.6613 4.68065 18.7379C4.3836 18.8145 4.06931 18.7874 3.78975 18.6611C3.49864 18.5451 3.25563 18.3335 3.10065 18.0612C2.94567 17.7888 2.88792 17.4718 2.93689 17.1623C2.98587 16.8528 3.13865 16.5691 3.37015 16.3579C3.60165 16.1467 3.8981 16.0205 4.2108 16C4.46302 15.9689 4.7189 16.0101 4.94854 16.119C5.17819 16.2278 5.37211 16.3998 5.50764 16.6148C5.52249 16.6411 5.54485 16.6623 5.57185 16.6758C5.59886 16.6893 5.62928 16.6945 5.65922 16.6906H7.14133C7.17551 16.6944 7.20996 16.6864 7.23904 16.6681C7.26811 16.6497 7.29008 16.622 7.30133 16.5895L8.42133 14.3158C8.48862 14.1586 8.61253 14.0324 8.7685 13.9622C8.92447 13.892 9.10112 13.883 9.26343 13.9369C9.37311 13.9737 9.47275 14.0355 9.55457 14.1173C9.63638 14.1991 9.69814 14.2988 9.73501 14.4085C10.114 15.4442 10.5013 16.4716 10.8887 17.499L10.9476 17.6842C11.015 17.3306 11.0824 17.0106 11.1497 16.6821C11.5371 14.7958 11.9329 12.9011 12.3203 11.0063L12.8761 8.29477C12.9025 8.12973 12.9879 7.97988 13.1165 7.87303C13.245 7.76617 13.4079 7.70957 13.575 7.71371C13.7408 7.71449 13.9006 7.77561 14.0246 7.88565C14.1486 7.99568 14.2282 8.1471 14.2487 8.31161L15.6634 16.0758L16.5476 20.9432C16.5499 20.9881 16.5499 21.033 16.5476 21.0779C16.5675 21.0371 16.5843 20.9949 16.5982 20.9516C17.429 18.7846 18.2712 16.626 19.1245 14.4758C19.1648 14.3251 19.2533 14.1918 19.3764 14.096C19.4996 14.0002 19.6506 13.9473 19.8066 13.9453C19.9504 13.9455 20.0907 13.9901 20.2082 14.073C20.3258 14.1559 20.4149 14.273 20.4634 14.4085L21.0866 16.0927C21.4066 16.9348 21.7182 17.7769 22.0382 18.619L22.1055 18.5179C22.4003 18.0463 22.7034 17.5748 22.9897 17.1032C23.0586 16.9799 23.1605 16.8783 23.284 16.8099C23.4075 16.7415 23.5477 16.7089 23.6887 16.7158H26.3413C26.3747 16.7214 26.409 16.7162 26.4392 16.7011C26.4695 16.686 26.4942 16.6616 26.5098 16.6316C26.6674 16.3935 26.895 16.2101 27.1612 16.1067C27.4274 16.0033 27.7191 15.985 27.9962 16.0543C28.2732 16.1235 28.522 16.277 28.7082 16.4935C28.8945 16.71 29.009 16.9789 29.0361 17.2632C29.04 17.2939 29.04 17.3251 29.0361 17.3558V17.4653C29.04 17.496 29.04 17.5272 29.0361 17.5579C29.0055 17.8389 28.89 18.104 28.705 18.3176C28.5199 18.5313 28.2741 18.6834 28.0003 18.7537C27.7252 18.8246 27.435 18.8084 27.1695 18.7073C26.904 18.6062 26.6765 18.4253 26.5182 18.1895C26.5034 18.1601 26.4804 18.1357 26.452 18.1193C26.4236 18.1028 26.391 18.095 26.3582 18.0969H24.1097C24.0756 18.0933 24.0411 18.1002 24.011 18.1168C23.9809 18.1334 23.9566 18.1587 23.9413 18.1895L22.5182 20.48C22.4547 20.6098 22.3527 20.7167 22.226 20.786C22.0993 20.8554 21.9543 20.8838 21.8108 20.8674C21.6688 20.8518 21.535 20.7935 21.4267 20.7003C21.3185 20.6071 21.241 20.4834 21.2045 20.3453C20.7582 19.1327 20.3034 17.9285 19.8487 16.7158L19.7982 16.5979L19.7392 16.7327L17.0529 23.739C17.0147 23.8861 16.9374 24.0202 16.8292 24.1269C16.7209 24.2337 16.5858 24.3091 16.4382 24.3453L16.2445 24.32Z" fill="white"/>
</svg>
