<svg width="32" height="32" viewBox="0 0 32 32" fill="none" xmlns="http://www.w3.org/2000/svg">
<path d="M16 32C24.8366 32 32 24.8366 32 16C32 7.16344 24.8366 0 16 0C7.16344 0 0 7.16344 0 16C0 24.8366 7.16344 32 16 32Z" fill="#617CDB"/>
<path d="M19.1066 6.89685C19.2369 6.91536 19.3623 6.95957 19.4754 7.02693C19.5884 7.09428 19.687 7.18343 19.7654 7.28919C19.8437 7.39496 19.9003 7.51524 19.9317 7.64305C19.9632 7.77085 19.969 7.90364 19.9487 8.03369V24.0337C19.9699 24.2259 19.9332 24.42 19.8431 24.5911C19.7531 24.7622 19.6139 24.9024 19.4435 24.9937C19.3421 25.0394 19.2381 25.0788 19.1319 25.1116H18.8624C18.6021 25.068 18.369 24.9252 18.2119 24.7131C18.0548 24.5011 17.9861 24.2364 18.0203 23.9747V7.97475C17.9993 7.76023 18.0499 7.5448 18.1641 7.36202C18.2784 7.17924 18.4499 7.03938 18.6519 6.96422L18.8371 6.90527L19.1066 6.89685Z" fill="white"/>
<path d="M16.9269 16.0001V20.7916C16.9269 21.1537 16.9269 21.5158 16.9269 21.878C16.9098 22.1118 16.8047 22.3304 16.6328 22.4898C16.4609 22.6492 16.235 22.7375 16.0005 22.7369C15.7682 22.7398 15.5435 22.6545 15.3715 22.4983C15.1996 22.342 15.0934 22.1263 15.0742 21.8948C15.0742 20.6316 15.0742 19.3685 15.0742 18.1053V10.1053C15.0914 9.87304 15.1971 9.65621 15.3694 9.49953C15.5418 9.34285 15.7677 9.25827 16.0005 9.26322C16.2331 9.25626 16.4592 9.3404 16.6307 9.49769C16.8021 9.65499 16.9054 9.87301 16.9184 10.1053C16.9184 11.5285 16.9184 12.9516 16.9184 14.3748V16.0001H16.9269Z" fill="white"/>
<path d="M9.09395 15.9326V11.4358C9.07342 11.2155 9.1303 10.995 9.25478 10.8121C9.37927 10.6292 9.56359 10.4954 9.77605 10.4337C9.91331 10.3979 10.0569 10.3938 10.196 10.4217C10.3351 10.4497 10.4659 10.5089 10.5787 10.5949C10.6915 10.6809 10.7833 10.7915 10.847 10.9182C10.9107 11.0449 10.9448 11.1845 10.9466 11.3263V20.6568C10.9577 20.9025 10.8709 21.1426 10.705 21.3242C10.5392 21.5058 10.308 21.6141 10.0624 21.6253C9.8167 21.6364 9.57665 21.5496 9.39503 21.3837C9.21342 21.2179 9.10512 20.9867 9.09395 20.7411C9.09395 19.9916 9.09395 19.2505 9.09395 18.5095V15.9326Z" fill="white"/>
<path d="M12.0762 16V12.6315C12.0638 12.5008 12.0789 12.3688 12.1204 12.2442C12.162 12.1196 12.2291 12.005 12.3175 11.9079C12.4059 11.8107 12.5136 11.7331 12.6337 11.6799C12.7539 11.6268 12.8838 11.5994 13.0152 11.5994C13.1465 11.5994 13.2764 11.6268 13.3966 11.6799C13.5167 11.7331 13.6244 11.8107 13.7128 11.9079C13.8012 12.005 13.8684 12.1196 13.9099 12.2442C13.9515 12.3688 13.9665 12.5008 13.9541 12.6315V19.3684C13.9741 19.5529 13.9392 19.7392 13.8539 19.904C13.7685 20.0687 13.6364 20.2046 13.4741 20.2947C13.33 20.3824 13.1646 20.429 12.9959 20.4296C12.8272 20.4302 12.6616 20.3847 12.5168 20.298C12.3721 20.2114 12.2538 20.0868 12.1746 19.9378C12.0955 19.7888 12.0586 19.621 12.0678 19.4526C12.0678 18.2821 12.0762 17.1284 12.0762 16Z" fill="white"/>
<path d="M7.97544 16C7.97544 16.7663 7.97544 17.5242 7.97544 18.2905C7.97544 18.5384 7.87696 18.7762 7.70166 18.9515C7.52637 19.1268 7.28861 19.2252 7.0407 19.2252C6.7928 19.2252 6.55504 19.1268 6.37975 18.9515C6.20445 18.7762 6.10597 18.5384 6.10597 18.2905V13.7094C6.09823 13.4716 6.18073 13.2395 6.33691 13.0599C6.4931 12.8803 6.71141 12.7664 6.94807 12.741C7.06782 12.7233 7.18991 12.7299 7.30705 12.7604C7.42419 12.7909 7.53399 12.8447 7.62988 12.9186C7.72577 12.9925 7.80578 13.0849 7.86516 13.1904C7.92453 13.2959 7.96204 13.4123 7.97544 13.5326C7.97544 14.3747 7.97544 15.1747 7.97544 16Z" fill="white"/>
<path d="M21.0526 16V11.3348C21.0594 11.111 21.1462 10.8971 21.2974 10.7319C21.4485 10.5667 21.6539 10.4613 21.8762 10.4348C22.0985 10.4083 22.323 10.4624 22.5087 10.5874C22.6945 10.7124 22.8292 10.8999 22.8884 11.1158C22.9013 11.2277 22.9013 11.3408 22.8884 11.4527V20.5474C22.9144 20.7696 22.8599 20.9938 22.7348 21.1792C22.6096 21.3646 22.4221 21.499 22.2063 21.5579C22.0724 21.5961 21.9317 21.6036 21.7945 21.5799C21.6573 21.5561 21.5272 21.5018 21.414 21.4209C21.3007 21.34 21.2071 21.2346 21.1402 21.1125C21.0732 20.9904 21.0347 20.8549 21.0273 20.7158L21.0526 16Z" fill="white"/>
<path d="M24.0335 16C24.0335 15.5789 24.0335 15.1579 24.0335 14.7453C24.0399 14.6265 24.0699 14.5101 24.1219 14.4031C24.1739 14.2961 24.2468 14.2006 24.3362 14.1221C24.4256 14.0436 24.5299 13.9839 24.6427 13.9463C24.7556 13.9087 24.8749 13.894 24.9935 13.9032C25.2258 13.9243 25.4415 14.0324 25.5976 14.2056C25.7537 14.3789 25.8387 14.6047 25.8356 14.8379C25.8356 15.6126 25.8356 16.3874 25.8356 17.1621C25.8366 17.3894 25.754 17.6091 25.6035 17.7795C25.453 17.9498 25.2452 18.0589 25.0195 18.086C24.7938 18.113 24.5661 18.0561 24.3796 17.9261C24.1931 17.7962 24.0609 17.6022 24.0082 17.3811C23.9868 17.1345 23.9868 16.8866 24.0082 16.64V16H24.0335Z" fill="white"/>
</svg>
