<svg width="104" height="80" viewBox="0 0 104 80" fill="none" xmlns="http://www.w3.org/2000/svg">
<path fill-rule="evenodd" clip-rule="evenodd" d="M55.0397 55.7752C64.6023 54.6049 70.9501 46.192 70.9501 36.3674C70.9501 28.4713 66.5136 20.7113 59.669 17.7561C59.1793 11.1504 58.8156 5.94691 56.3762 0.543491C69.8253 2.64584 80.1147 14.2167 80.1147 28.1875C80.1147 42.869 69.4871 54.9053 55.0403 56.0857V55.7752H55.0397ZM48.8935 0.757571C39.3321 1.92732 32.9825 10.3426 32.9825 20.166C32.9825 28.0609 37.4178 35.8233 44.263 38.7779C44.7539 45.3847 45.117 50.5871 47.5552 55.9858C34.1067 53.8882 23.8167 42.3173 23.8167 28.343C23.8167 13.6662 34.4473 1.62749 48.8935 0.449463V0.757571Z" fill="#28539C"/>
<path fill-rule="evenodd" clip-rule="evenodd" d="M51.3499 56.3761H50.5492C47.9897 50.959 47.6042 45.1251 47.0642 39.2598C47.1943 38.1906 47.9123 37.462 48.6533 36.7683L49.3789 36.0971C50.3499 35.1817 51.1211 34.2692 51.1211 32.9622C51.1211 29.1827 43.8578 27.4565 43.8578 18.1943C43.8578 11.316 47.4486 4.39216 52.6167 0H53.3961C55.9556 5.41702 56.3654 11.2533 56.903 17.118C56.7711 18.1813 56.0496 18.9164 55.3128 19.6042L54.5872 20.2772C53.6143 21.1914 52.8444 22.111 52.8444 23.4162C52.8444 27.1933 60.1094 28.9196 60.1094 38.1823C60.1088 45.0601 56.518 51.9857 51.3499 56.3761ZM54.1998 11.9494V18.9874L54.5079 18.7224V15.8253L55.1572 15.8164V18.0494C55.4104 17.7567 55.6203 17.4309 55.6782 17.0908C55.2069 11.9387 54.8302 6.30113 52.7468 1.49737C47.7768 5.98534 45.0719 12.6105 45.0719 18.1932C45.0719 22.9543 46.9034 25.2796 49.8733 28.411C51.0791 29.6824 52.3381 31.074 52.3381 32.9545V52.1507H51.6853V35.252L51.3789 35.7092V48.2837H50.7266V36.4709L50.4179 36.7802V44.4214H49.7651V37.3881L49.4569 37.6513L49.4593 40.5549H48.8082L48.8058 38.3308C48.5557 38.6217 48.3452 38.9458 48.2872 39.2864C48.7591 44.4385 49.1234 50.0767 51.2062 54.8817C56.1738 50.3919 58.8942 43.7655 58.8942 38.1811C58.8942 33.4205 57.0621 31.0947 54.0939 27.9663C52.8893 26.696 51.6285 25.2938 51.6285 23.4156V4.22185H52.2808L52.2784 21.1276L52.5871 20.6669V8.08414H53.2388V19.9058L53.5469 19.5971V11.9494H54.1998ZM82.5664 74.2327L84.104 70.0251H84.2897L85.8249 74.2327H82.5664ZM81.7421 76.2044L80.6746 78.8023H77.9578L82.7456 67.193H85.6457L90.4335 78.8023H87.7191L86.654 76.2044H81.7421ZM0 69.1717C0 69.4455 0.408051 69.4313 0.504446 69.4313C2.5033 69.4313 1.37614 69.4739 3.11538 69.4384C4.80022 69.4047 4.98473 70.3616 4.98473 70.895V71.2877C4.98473 71.3882 4.98473 71.5455 4.65237 71.5455L1.13367 71.5479C0.849219 71.5479 0.658795 71.6265 0.658795 71.8388V73.2806C0.658795 73.4929 0.90126 73.61 1.16324 73.61H4.6914C4.97704 73.61 5.02316 73.6437 5.02316 73.9128L4.98532 74.7975C4.98532 76.6674 4.14911 76.5752 2.81082 76.5752C2.1674 76.5752 0.685999 76.587 0.495575 76.587C0.0183329 76.587 0.0183328 76.8147 0.0183328 76.8644V78.1559C0.0183328 78.4652 -0.0555892 78.8041 3.16269 78.8041C6.21124 78.8041 8.66487 78.5604 8.66487 74.5882V71.1014C8.66487 69.2882 8.54364 67.1811 3.28156 67.1953C1.23066 67.2012 0 67.2279 0 67.7773V69.1717ZM17.3581 73.9004C17.6976 73.9004 17.7147 73.9163 17.7147 74.1523V78.2216C17.7147 78.784 17.7171 78.8023 18.1943 78.8023H19.6615C20.0909 78.8023 20.0359 78.784 20.0359 78.2216V67.7731C20.0359 67.4727 20.0412 67.1853 19.6615 67.1936H18.1772C17.697 67.1936 17.7153 67.4733 17.7153 67.7731V70.8329C17.6751 71.2693 17.7591 71.3332 17.3587 71.3332H12.4668C12.0653 71.3332 12.1493 71.2699 12.1085 70.8329V67.7731C12.1085 67.4727 12.1256 67.1936 11.6478 67.1936H10.1616C9.78021 67.1853 9.78849 67.4733 9.78849 67.7731V78.2216C9.78849 78.784 9.73231 78.8023 10.1616 78.8023H11.6283C12.1055 78.8023 12.1085 78.784 12.1085 78.2216V74.1523C12.1085 73.9169 12.1238 73.9004 12.4668 73.9004H17.3581ZM21.4185 67.193H29.9166V69.5656H24.8538V71.5834H29.3885V73.6011H24.8538V76.4356H29.9166V78.8023H21.4185V67.193ZM31.0822 67.1941V78.8023H34.1125V74.9767H35.5377C37.6891 74.9873 39.9488 74.1334 39.9488 71.827V70.5112C39.9488 69.1043 38.7382 67.1847 35.3402 67.193L31.0822 67.1941ZM34.1237 73.4143C34.1237 73.4143 34.1261 68.8068 34.1237 68.8068H35.148C36.4153 68.8068 37.0173 69.5798 37.0173 70.4225C37.0244 70.4308 37.0173 71.8885 37.0173 71.8885C37.0173 72.6413 36.2491 73.4214 35.1681 73.4119L34.1237 73.4143ZM41.6768 67.193C41.1357 67.193 41.1138 67.2622 41.1138 67.6945V78.2825C41.1138 78.7828 41.2906 78.8023 41.7679 78.8023H43.9506C44.529 78.8023 44.5846 78.8023 44.5846 78.1843V69.6217C44.5846 69.4426 44.6213 69.4047 44.8891 69.4047H49.4451C49.7976 69.4047 49.7988 69.319 49.7988 69.0002V67.4916C49.7988 67.2119 49.7308 67.1924 49.3742 67.1924H41.6768V67.193ZM63.0811 67.193H67.371L70.1694 73.9589H70.248L73.1576 67.193H77.1157V78.8023H73.7916V71.9666H73.668L70.6165 78.8023H68.6324L65.7932 71.9482H65.6743V78.8023H63.0811V67.193ZM91.2201 78.221C91.2201 78.713 91.2153 78.8017 91.899 78.8017H103.253C103.996 78.8017 103.932 78.8549 103.932 78.221V67.5703C103.932 67.2409 103.923 67.1924 103.436 67.1924H101.552C101.043 67.1924 101.055 67.1924 101.055 67.5862V76.3806C101.055 76.6183 101.052 76.6426 100.747 76.6426H99.3036C99.0393 76.6426 99.0126 76.6183 99.0126 76.3989V67.5862C99.0126 67.2882 99.0611 67.1924 98.5194 67.1924H96.6324C96.1273 67.1924 96.1392 67.1924 96.1392 67.5862V76.3806C96.1392 76.5645 96.1344 76.6426 95.8298 76.6426H94.3851C94.1137 76.6426 94.093 76.6302 94.093 76.3989V67.5862C94.093 67.2302 94.0918 67.1924 93.5998 67.1924H91.7139C91.223 67.1924 91.2207 67.1924 91.2207 67.5862V78.221H91.2201ZM56.5955 79.069C58.7055 78.8094 60.1071 76.9531 60.1071 74.7863C60.1071 73.0446 59.1278 71.3302 57.6168 70.678C57.5068 69.2202 57.4287 68.0735 56.89 66.8789C59.8575 67.3444 62.1278 69.8979 62.1278 72.9796C62.1278 76.2204 59.7806 78.8762 56.5955 79.1358V79.069ZM55.2383 66.9274C53.1294 67.1853 51.7284 69.041 51.7284 71.209C51.7284 72.9494 52.706 74.6674 54.2158 75.3161C54.3258 76.7739 54.4062 77.9217 54.9432 79.1163C51.9756 78.6497 49.7041 76.0973 49.7041 73.0169C49.7041 69.7767 52.0507 67.1214 55.2377 66.8594V66.9274H55.2383Z" fill="#28539C"/>
<path fill-rule="evenodd" clip-rule="evenodd" d="M55.7812 79.2022H55.6032C55.0396 78.0047 54.955 76.719 54.835 75.4251C54.864 75.1873 55.0219 75.0253 55.1863 74.8727L55.3448 74.7249C55.5618 74.5238 55.7315 74.3215 55.7315 74.0318C55.7315 73.1991 54.1283 72.8177 54.1283 70.7768C54.1283 69.257 54.9207 67.7277 56.0609 66.762H56.233C56.7978 67.9542 56.8859 69.2428 57.0071 70.5379C56.9793 70.7721 56.8179 70.933 56.6547 71.0855L56.4962 71.2357C56.2803 71.438 56.1106 71.6391 56.1106 71.9265C56.1106 72.7627 57.7126 73.1406 57.7126 75.1873C57.7126 76.7024 56.9226 78.2306 55.7812 79.2022ZM56.4087 69.3983V70.9495L56.4778 70.8927V70.254L56.6221 70.2529V70.7425C56.6777 70.6836 56.717 70.6113 56.7363 70.5326C56.6322 69.396 56.5494 68.1499 56.0893 67.092C54.9929 68.0807 54.3962 69.5438 54.3962 70.7774C54.3962 71.8259 54.7995 72.3392 55.4554 73.0312C55.7209 73.3121 56.0006 73.619 56.0006 74.0324V78.2666H55.8551V74.5392L55.7871 74.6409V77.4151H55.644V74.8059L55.5772 74.8763V76.5641H55.4317V75.0081L55.3649 75.0685V75.7095H55.2218V75.2187C55.1638 75.2843 55.1177 75.3529 55.1064 75.4286C55.2105 76.5652 55.2909 77.8089 55.7499 78.8692C56.8451 77.8781 57.4465 76.4174 57.4465 75.1867C57.4465 74.1359 57.0432 73.6196 56.3885 72.93C56.1218 72.6515 55.8433 72.3434 55.8433 71.9265V67.6922H55.9876V71.422L56.0556 71.3191V68.545H56.1975V71.1529L56.2667 71.0838V69.3983H56.4087Z" fill="#28539C"/>
</svg>
